solid OpenSCAD_Model
  facet normal 0.0837113 -0.99649 0
    outer loop
      vertex 72.39 5.08 5e-05
      vertex 73.8732 5.20459 5e-05
      vertex 73.8732 5.20459 15.2401
    endloop
  endfacet
  facet normal 0.0837113 -0.99649 0
    outer loop
      vertex 72.39 5.08 15.2401
      vertex 72.39 5.08 5e-05
      vertex 73.8732 5.20459 15.2401
    endloop
  endfacet
  facet normal 0 0 -1
    outer loop
      vertex 0.049326 14.9052 5e-05
      vertex 0.329248 16.367 5e-05
      vertex 0.017208 13.4171 5e-05
    endloop
  endfacet
  facet normal 0 0 -1
    outer loop
      vertex 0.017208 13.4171 5e-05
      vertex 0.329248 16.367 5e-05
      vertex 0.849136 17.7616 5e-05
    endloop
  endfacet
  facet normal 0 0 -1
    outer loop
      vertex 0.017208 13.4171 5e-05
      vertex 0.849136 17.7616 5e-05
      vertex 1.59441 19.05 5e-05
    endloop
  endfacet
  facet normal 0 0 -1
    outer loop
      vertex 0.017208 13.4171 5e-05
      vertex 1.59441 19.05 5e-05
      vertex 2.54418 20.196 5e-05
    endloop
  endfacet
  facet normal 0 0 -1
    outer loop
      vertex 0.017208 13.4171 5e-05
      vertex 2.54418 20.196 5e-05
      vertex 3.67182 21.1674 5e-05
    endloop
  endfacet
  facet normal 0 0 -1
    outer loop
      vertex 0.017208 13.4171 5e-05
      vertex 3.67182 21.1674 5e-05
      vertex 4.94574 21.9371 5e-05
    endloop
  endfacet
  facet normal 0 0 -1
    outer loop
      vertex 0.017208 13.4171 5e-05
      vertex 4.94574 21.9371 5e-05
      vertex 6.33021 22.4835 5e-05
    endloop
  endfacet
  facet normal 0 0 -1
    outer loop
      vertex 0.017208 13.4171 5e-05
      vertex 6.33021 22.4835 5e-05
      vertex 7.78643 22.7912 5e-05
    endloop
  endfacet
  facet normal 0 0 -1
    outer loop
      vertex 0.017208 13.4171 5e-05
      vertex 7.78643 22.7912 5e-05
      vertex 9.27359 22.8517 5e-05
    endloop
  endfacet
  facet normal 0 0 -1
    outer loop
      vertex 6.29805 19.2055 5e-05
      vertex 9.27359 22.8517 5e-05
      vertex 10.75 22.6632 5e-05
    endloop
  endfacet
  facet normal 0 0 -1
    outer loop
      vertex 8.1648 19.7668 5e-05
      vertex 10.75 22.6632 5e-05
      vertex 12.1743 22.2311 5e-05
    endloop
  endfacet
  facet normal 0 0 -1
    outer loop
      vertex 10.1123 19.6827 5e-05
      vertex 12.1743 22.2311 5e-05
      vertex 13.5065 21.5674 5e-05
    endloop
  endfacet
  facet normal 0 0 -1
    outer loop
      vertex 11.9237 18.9626 5e-05
      vertex 13.5065 21.5674 5e-05
      vertex 31.75 10.4819 5e-05
    endloop
  endfacet
  facet normal 0 0 -1
    outer loop
      vertex 31.75 10.4819 5e-05
      vertex 31.75 11.684 5e-05
      vertex 31.7886 12.1251 5e-05
    endloop
  endfacet
  facet normal 0 0 -1
    outer loop
      vertex 31.75 10.4819 5e-05
      vertex 31.7886 12.1251 5e-05
      vertex 31.9032 12.5527 5e-05
    endloop
  endfacet
  facet normal 0 0 -1
    outer loop
      vertex 31.9032 12.5527 5e-05
      vertex 32.0903 12.954 5e-05
      vertex 31.75 10.4819 5e-05
    endloop
  endfacet
  facet normal 0 0 -1
    outer loop
      vertex 31.75 10.4819 5e-05
      vertex 32.0903 12.954 5e-05
      vertex 32.3442 13.3167 5e-05
    endloop
  endfacet
  facet normal 0 0 -1
    outer loop
      vertex 31.75 10.4819 5e-05
      vertex 32.3442 13.3167 5e-05
      vertex 32.6573 13.6298 5e-05
    endloop
  endfacet
  facet normal 0 0 -1
    outer loop
      vertex 31.75 10.4819 5e-05
      vertex 32.6573 13.6298 5e-05
      vertex 33.02 13.8837 5e-05
    endloop
  endfacet
  facet normal 0 0 -1
    outer loop
      vertex 31.75 10.4819 5e-05
      vertex 33.02 13.8837 5e-05
      vertex 33.4213 14.0708 5e-05
    endloop
  endfacet
  facet normal 0 0 -1
    outer loop
      vertex 31.75 10.4819 5e-05
      vertex 33.4213 14.0708 5e-05
      vertex 33.8489 14.1854 5e-05
    endloop
  endfacet
  facet normal 0 0 -1
    outer loop
      vertex 31.75 10.4819 5e-05
      vertex 33.8489 14.1854 5e-05
      vertex 34.29 14.224 5e-05
    endloop
  endfacet
  facet normal 0 0 -1
    outer loop
      vertex 31.75 10.4819 5e-05
      vertex 34.29 14.224 5e-05
      vertex 46.99 14.224 5e-05
    endloop
  endfacet
  facet normal 0 0 -1
    outer loop
      vertex 46.99 14.224 5e-05
      vertex 47.4311 14.1854 5e-05
      vertex 31.75 10.4819 5e-05
    endloop
  endfacet
  facet normal 0 0 -1
    outer loop
      vertex 31.75 10.4819 5e-05
      vertex 47.4311 14.1854 5e-05
      vertex 47.8587 14.0708 5e-05
    endloop
  endfacet
  facet normal 0 0 -1
    outer loop
      vertex 31.75 10.4819 5e-05
      vertex 47.8587 14.0708 5e-05
      vertex 48.26 13.8837 5e-05
    endloop
  endfacet
  facet normal 0 0 -1
    outer loop
      vertex 31.75 10.4819 5e-05
      vertex 48.26 13.8837 5e-05
      vertex 48.6227 13.6298 5e-05
    endloop
  endfacet
  facet normal 0 0 -1
    outer loop
      vertex 31.75 10.4819 5e-05
      vertex 48.6227 13.6298 5e-05
      vertex 48.9358 13.3167 5e-05
    endloop
  endfacet
  facet normal 0 0 -1
    outer loop
      vertex 31.75 10.4819 5e-05
      vertex 48.9358 13.3167 5e-05
      vertex 49.1897 12.954 5e-05
    endloop
  endfacet
  facet normal 0 0 -1
    outer loop
      vertex 31.75 10.4819 5e-05
      vertex 49.1897 12.954 5e-05
      vertex 49.3768 12.5527 5e-05
    endloop
  endfacet
  facet normal 0 0 -1
    outer loop
      vertex 31.75 10.4819 5e-05
      vertex 49.3768 12.5527 5e-05
      vertex 49.4914 12.1251 5e-05
    endloop
  endfacet
  facet normal 0 0 -1
    outer loop
      vertex 31.75 10.4819 5e-05
      vertex 49.4914 12.1251 5e-05
      vertex 49.53 11.684 5e-05
    endloop
  endfacet
  facet normal 0 0 -1
    outer loop
      vertex 31.75 10.4819 5e-05
      vertex 49.53 11.684 5e-05
      vertex 49.53 10.4819 5e-05
    endloop
  endfacet
  facet normal 0 0 -1
    outer loop
      vertex 67.7735 21.5674 5e-05
      vertex 69.1057 22.2311 5e-05
      vertex 49.53 10.4819 5e-05
    endloop
  endfacet
  facet normal 0 0 -1
    outer loop
      vertex 49.53 10.4819 5e-05
      vertex 69.1057 22.2311 5e-05
      vertex 70.53 22.6632 5e-05
    endloop
  endfacet
  facet normal 0 0 -1
    outer loop
      vertex 49.53 10.4819 5e-05
      vertex 70.53 22.6632 5e-05
      vertex 72.0064 22.8517 5e-05
    endloop
  endfacet
  facet normal 0 0 -1
    outer loop
      vertex 49.53 10.4819 5e-05
      vertex 72.0064 22.8517 5e-05
      vertex 73.4936 22.7912 5e-05
    endloop
  endfacet
  facet normal 0 0 -1
    outer loop
      vertex 49.53 10.4819 5e-05
      vertex 73.4936 22.7912 5e-05
      vertex 74.9498 22.4835 5e-05
    endloop
  endfacet
  facet normal 0 0 -1
    outer loop
      vertex 70.2318 19.3987 5e-05
      vertex 74.9498 22.4835 5e-05
      vertex 76.3343 21.9371 5e-05
    endloop
  endfacet
  facet normal 0 0 -1
    outer loop
      vertex 73.1152 19.7668 5e-05
      vertex 76.3343 21.9371 5e-05
      vertex 77.6082 21.1674 5e-05
    endloop
  endfacet
  facet normal 0 0 -1
    outer loop
      vertex 74.9819 19.2055 5e-05
      vertex 77.6082 21.1674 5e-05
      vertex 78.7358 20.196 5e-05
    endloop
  endfacet
  facet normal 0 0 -1
    outer loop
      vertex 75.8191 18.6997 5e-05
      vertex 78.7358 20.196 5e-05
      vertex 79.6856 19.05 5e-05
    endloop
  endfacet
  facet normal 0 0 -1
    outer loop
      vertex 77.1842 17.3083 5e-05
      vertex 79.6856 19.05 5e-05
      vertex 80.4309 17.7616 5e-05
    endloop
  endfacet
  facet normal 0 0 -1
    outer loop
      vertex 77.674 16.4617 5e-05
      vertex 80.4309 17.7616 5e-05
      vertex 80.9508 16.367 5e-05
    endloop
  endfacet
  facet normal 0 0 -1
    outer loop
      vertex 78.1996 14.5845 5e-05
      vertex 80.9508 16.367 5e-05
      vertex 81.2307 14.9052 5e-05
    endloop
  endfacet
  facet normal 0 0 -1
    outer loop
      vertex 78.2207 13.6067 5e-05
      vertex 81.2307 14.9052 5e-05
      vertex 81.2628 13.4171 5e-05
    endloop
  endfacet
  facet normal 0 0 -1
    outer loop
      vertex 78.0784 12.639 5e-05
      vertex 81.2628 13.4171 5e-05
      vertex 81.0462 11.9446 5e-05
    endloop
  endfacet
  facet normal 0 0 -1
    outer loop
      vertex 77.3238 10.8417 5e-05
      vertex 81.0462 11.9446 5e-05
      vertex 80.587 10.5288 5e-05
    endloop
  endfacet
  facet normal 0 0 -1
    outer loop
      vertex 76.02 9.39264 5e-05
      vertex 80.587 10.5288 5e-05
      vertex 79.898 9.20952 5e-05
    endloop
  endfacet
  facet normal 0 0 -1
    outer loop
      vertex 74.312 8.45321 5e-05
      vertex 79.898 9.20952 5e-05
      vertex 78.9985 8.02364 5e-05
    endloop
  endfacet
  facet normal 0 0 -1
    outer loop
      vertex 72.39 8.128 5e-05
      vertex 78.9985 8.02364 5e-05
      vertex 77.9139 7.00445 5e-05
    endloop
  endfacet
  facet normal 0 0 -1
    outer loop
      vertex 51.5257 8.128 5e-05
      vertex 76.6744 6.1805 5e-05
      vertex 75.3147 5.57489 5e-05
    endloop
  endfacet
  facet normal 0 0 -1
    outer loop
      vertex 31.75 10.4819 5e-05
      vertex 48.26 5.08 5e-05
      vertex 29.7543 8.128 5e-05
    endloop
  endfacet
  facet normal 0 0 -1
    outer loop
      vertex 31.75 10.4819 5e-05
      vertex 73.8732 5.20459 5e-05
      vertex 72.39 5.08 5e-05
    endloop
  endfacet
  facet normal 0 0 -1
    outer loop
      vertex 33.02 5.08 5e-05
      vertex 48.26 5.08 5e-05
      vertex 48.26 0 5e-05
    endloop
  endfacet
  facet normal 0 0 -1
    outer loop
      vertex 29.7543 8.128 5e-05
      vertex 48.26 5.08 5e-05
      vertex 33.02 5.08 5e-05
    endloop
  endfacet
  facet normal 0 0 -1
    outer loop
      vertex 8.89 5.08 5e-05
      vertex 6.96802 8.45321 5e-05
      vertex 7.91535 8.20988 5e-05
    endloop
  endfacet
  facet normal 0 0 -1
    outer loop
      vertex 3.20164 12.639 5e-05
      vertex 0.017208 13.4171 5e-05
      vertex 3.05931 13.6067 5e-05
    endloop
  endfacet
  facet normal 0 0 -1
    outer loop
      vertex 0.017208 13.4171 5e-05
      vertex 8.89 5.08 5e-05
      vertex 7.40684 5.20459 5e-05
    endloop
  endfacet
  facet normal 0 0 -1
    outer loop
      vertex 0.017208 13.4171 5e-05
      vertex 7.40684 5.20459 5e-05
      vertex 5.96525 5.57489 5e-05
    endloop
  endfacet
  facet normal 0 0 -1
    outer loop
      vertex 0.017208 13.4171 5e-05
      vertex 5.96525 5.57489 5e-05
      vertex 4.60564 6.1805 5e-05
    endloop
  endfacet
  facet normal 0 0 -1
    outer loop
      vertex 0.017208 13.4171 5e-05
      vertex 4.60564 6.1805 5e-05
      vertex 3.36613 7.00445 5e-05
    endloop
  endfacet
  facet normal 0 0 -1
    outer loop
      vertex 0.017208 13.4171 5e-05
      vertex 3.36613 7.00445 5e-05
      vertex 2.28145 8.02364 5e-05
    endloop
  endfacet
  facet normal 0 0 -1
    outer loop
      vertex 0.017208 13.4171 5e-05
      vertex 2.28145 8.02364 5e-05
      vertex 1.38201 9.20952 5e-05
    endloop
  endfacet
  facet normal 0 0 -1
    outer loop
      vertex 0.017208 13.4171 5e-05
      vertex 1.38201 9.20952 5e-05
      vertex 0.69302 10.5288 5e-05
    endloop
  endfacet
  facet normal 0 0 -1
    outer loop
      vertex 0.017208 13.4171 5e-05
      vertex 0.69302 10.5288 5e-05
      vertex 0.233796 11.9446 5e-05
    endloop
  endfacet
  facet normal 0 0 -1
    outer loop
      vertex 3.50342 11.7087 5e-05
      vertex 0.017208 13.4171 5e-05
      vertex 3.20164 12.639 5e-05
    endloop
  endfacet
  facet normal 0 0 -1
    outer loop
      vertex 51.5257 8.128 5e-05
      vertex 49.53 10.4819 5e-05
      vertex 69.3563 18.9626 5e-05
    endloop
  endfacet
  facet normal 0 0 -1
    outer loop
      vertex 0.017208 13.4171 5e-05
      vertex 3.50342 11.7087 5e-05
      vertex 3.95618 10.8417 5e-05
    endloop
  endfacet
  facet normal 0 0 -1
    outer loop
      vertex 0.017208 13.4171 5e-05
      vertex 3.95618 10.8417 5e-05
      vertex 4.54724 10.0624 5e-05
    endloop
  endfacet
  facet normal 0 0 -1
    outer loop
      vertex 0.017208 13.4171 5e-05
      vertex 4.54724 10.0624 5e-05
      vertex 8.89 5.08 5e-05
    endloop
  endfacet
  facet normal 0 0 -1
    outer loop
      vertex 6.07457 8.85118 5e-05
      vertex 8.89 5.08 5e-05
      vertex 5.26003 9.39264 5e-05
    endloop
  endfacet
  facet normal 0 0 -1
    outer loop
      vertex 51.5257 8.128 5e-05
      vertex 75.3147 5.57489 5e-05
      vertex 73.8732 5.20459 5e-05
    endloop
  endfacet
  facet normal 0 0 -1
    outer loop
      vertex 29.7543 8.128 5e-05
      vertex 33.02 5.08 5e-05
      vertex 8.89 8.128 5e-05
    endloop
  endfacet
  facet normal 0 0 -1
    outer loop
      vertex 70.2318 19.3987 5e-05
      vertex 76.3343 21.9371 5e-05
      vertex 71.1677 19.6827 5e-05
    endloop
  endfacet
  facet normal 0 0 -1
    outer loop
      vertex 6.07457 8.85118 5e-05
      vertex 6.96802 8.45321 5e-05
      vertex 8.89 5.08 5e-05
    endloop
  endfacet
  facet normal 0 0 -1
    outer loop
      vertex 51.5257 8.128 5e-05
      vertex 31.75 10.4819 5e-05
      vertex 49.53 10.4819 5e-05
    endloop
  endfacet
  facet normal 0 0 -1
    outer loop
      vertex 31.75 10.4819 5e-05
      vertex 51.5257 8.128 5e-05
      vertex 73.8732 5.20459 5e-05
    endloop
  endfacet
  facet normal 0 0 -1
    outer loop
      vertex 11.0482 19.3987 5e-05
      vertex 13.5065 21.5674 5e-05
      vertex 11.9237 18.9626 5e-05
    endloop
  endfacet
  facet normal 0 0 -1
    outer loop
      vertex 10.1123 19.6827 5e-05
      vertex 13.5065 21.5674 5e-05
      vertex 11.0482 19.3987 5e-05
    endloop
  endfacet
  facet normal 0 0 -1
    outer loop
      vertex 9.14207 19.8066 5e-05
      vertex 12.1743 22.2311 5e-05
      vertex 10.1123 19.6827 5e-05
    endloop
  endfacet
  facet normal 0 0 -1
    outer loop
      vertex 8.1648 19.7668 5e-05
      vertex 12.1743 22.2311 5e-05
      vertex 9.14207 19.8066 5e-05
    endloop
  endfacet
  facet normal 0 0 -1
    outer loop
      vertex 7.20785 19.5646 5e-05
      vertex 10.75 22.6632 5e-05
      vertex 8.1648 19.7668 5e-05
    endloop
  endfacet
  facet normal 0 0 -1
    outer loop
      vertex 6.29805 19.2055 5e-05
      vertex 10.75 22.6632 5e-05
      vertex 7.20785 19.5646 5e-05
    endloop
  endfacet
  facet normal 0 0 -1
    outer loop
      vertex 5.46091 18.6997 5e-05
      vertex 9.27359 22.8517 5e-05
      vertex 6.29805 19.2055 5e-05
    endloop
  endfacet
  facet normal 0 0 -1
    outer loop
      vertex 4.09576 17.3083 5e-05
      vertex 0.017208 13.4171 5e-05
      vertex 4.71989 18.0614 5e-05
    endloop
  endfacet
  facet normal 0 0 -1
    outer loop
      vertex 4.71989 18.0614 5e-05
      vertex 9.27359 22.8517 5e-05
      vertex 5.46091 18.6997 5e-05
    endloop
  endfacet
  facet normal 0 0 -1
    outer loop
      vertex 0.017208 13.4171 5e-05
      vertex 9.27359 22.8517 5e-05
      vertex 4.71989 18.0614 5e-05
    endloop
  endfacet
  facet normal 0 0 -1
    outer loop
      vertex 3.606 16.4617 5e-05
      vertex 0.017208 13.4171 5e-05
      vertex 4.09576 17.3083 5e-05
    endloop
  endfacet
  facet normal 0 0 -1
    outer loop
      vertex 3.26436 15.5452 5e-05
      vertex 0.017208 13.4171 5e-05
      vertex 3.606 16.4617 5e-05
    endloop
  endfacet
  facet normal 0 0 -1
    outer loop
      vertex 3.08041 14.5845 5e-05
      vertex 0.017208 13.4171 5e-05
      vertex 3.26436 15.5452 5e-05
    endloop
  endfacet
  facet normal 0 0 -1
    outer loop
      vertex 0.017208 13.4171 5e-05
      vertex 3.08041 14.5845 5e-05
      vertex 3.05931 13.6067 5e-05
    endloop
  endfacet
  facet normal 0 0 -1
    outer loop
      vertex 11.9237 18.9626 5e-05
      vertex 31.75 10.4819 5e-05
      vertex 29.7543 8.128 5e-05
    endloop
  endfacet
  facet normal 0 0 -1
    outer loop
      vertex 73.3646 8.20988 5e-05
      vertex 78.9985 8.02364 5e-05
      vertex 72.39 8.128 5e-05
    endloop
  endfacet
  facet normal 0 0 -1
    outer loop
      vertex 75.2054 8.85118 5e-05
      vertex 79.898 9.20952 5e-05
      vertex 74.312 8.45321 5e-05
    endloop
  endfacet
  facet normal 0 0 -1
    outer loop
      vertex 76.7328 10.0624 5e-05
      vertex 80.587 10.5288 5e-05
      vertex 76.02 9.39264 5e-05
    endloop
  endfacet
  facet normal 0 0 -1
    outer loop
      vertex 77.7766 11.7087 5e-05
      vertex 81.0462 11.9446 5e-05
      vertex 77.3238 10.8417 5e-05
    endloop
  endfacet
  facet normal 0 0 -1
    outer loop
      vertex 78.0156 15.5452 5e-05
      vertex 80.9508 16.367 5e-05
      vertex 78.1996 14.5845 5e-05
    endloop
  endfacet
  facet normal 0 0 -1
    outer loop
      vertex 76.5601 18.0614 5e-05
      vertex 79.6856 19.05 5e-05
      vertex 77.1842 17.3083 5e-05
    endloop
  endfacet
  facet normal 0 0 -1
    outer loop
      vertex 74.0722 19.5646 5e-05
      vertex 77.6082 21.1674 5e-05
      vertex 74.9819 19.2055 5e-05
    endloop
  endfacet
  facet normal 0 0 -1
    outer loop
      vertex 72.1379 19.8066 5e-05
      vertex 76.3343 21.9371 5e-05
      vertex 73.1152 19.7668 5e-05
    endloop
  endfacet
  facet normal 0 0 -1
    outer loop
      vertex 71.1677 19.6827 5e-05
      vertex 76.3343 21.9371 5e-05
      vertex 72.1379 19.8066 5e-05
    endloop
  endfacet
  facet normal 0 0 -1
    outer loop
      vertex 49.53 10.4819 5e-05
      vertex 74.9498 22.4835 5e-05
      vertex 70.2318 19.3987 5e-05
    endloop
  endfacet
  facet normal 0 0 -1
    outer loop
      vertex 49.53 10.4819 5e-05
      vertex 70.2318 19.3987 5e-05
      vertex 69.3563 18.9626 5e-05
    endloop
  endfacet
  facet normal 0 0 -1
    outer loop
      vertex 33.02 5.08 5e-05
      vertex 48.26 0 5e-05
      vertex 33.02 0 5e-05
    endloop
  endfacet
  facet normal 0 0 -1
    outer loop
      vertex 8.89 5.08 5e-05
      vertex 7.91535 8.20988 5e-05
      vertex 8.89 8.128 5e-05
    endloop
  endfacet
  facet normal 0 0 -1
    outer loop
      vertex 5.26003 9.39264 5e-05
      vertex 8.89 5.08 5e-05
      vertex 4.54724 10.0624 5e-05
    endloop
  endfacet
  facet normal 0 0 -1
    outer loop
      vertex 31.75 10.4819 5e-05
      vertex 72.39 5.08 5e-05
      vertex 48.26 5.08 5e-05
    endloop
  endfacet
  facet normal 0 0 -1
    outer loop
      vertex 8.89 5.08 5e-05
      vertex 8.89 8.128 5e-05
      vertex 33.02 5.08 5e-05
    endloop
  endfacet
  facet normal 0 0 -1
    outer loop
      vertex 73.1152 19.7668 5e-05
      vertex 77.6082 21.1674 5e-05
      vertex 74.0722 19.5646 5e-05
    endloop
  endfacet
  facet normal 0 0 -1
    outer loop
      vertex 74.9819 19.2055 5e-05
      vertex 78.7358 20.196 5e-05
      vertex 75.8191 18.6997 5e-05
    endloop
  endfacet
  facet normal 0 0 -1
    outer loop
      vertex 75.8191 18.6997 5e-05
      vertex 79.6856 19.05 5e-05
      vertex 76.5601 18.0614 5e-05
    endloop
  endfacet
  facet normal 0 0 -1
    outer loop
      vertex 77.1842 17.3083 5e-05
      vertex 80.4309 17.7616 5e-05
      vertex 77.674 16.4617 5e-05
    endloop
  endfacet
  facet normal 0 0 -1
    outer loop
      vertex 77.674 16.4617 5e-05
      vertex 80.9508 16.367 5e-05
      vertex 78.0156 15.5452 5e-05
    endloop
  endfacet
  facet normal 0 0 -1
    outer loop
      vertex 78.1996 14.5845 5e-05
      vertex 81.2307 14.9052 5e-05
      vertex 78.2207 13.6067 5e-05
    endloop
  endfacet
  facet normal 0 0 -1
    outer loop
      vertex 78.2207 13.6067 5e-05
      vertex 81.2628 13.4171 5e-05
      vertex 78.0784 12.639 5e-05
    endloop
  endfacet
  facet normal 0 0 -1
    outer loop
      vertex 78.0784 12.639 5e-05
      vertex 81.0462 11.9446 5e-05
      vertex 77.7766 11.7087 5e-05
    endloop
  endfacet
  facet normal 0 0 -1
    outer loop
      vertex 77.3238 10.8417 5e-05
      vertex 80.587 10.5288 5e-05
      vertex 76.7328 10.0624 5e-05
    endloop
  endfacet
  facet normal 0 0 -1
    outer loop
      vertex 76.02 9.39264 5e-05
      vertex 79.898 9.20952 5e-05
      vertex 75.2054 8.85118 5e-05
    endloop
  endfacet
  facet normal 0 0 -1
    outer loop
      vertex 74.312 8.45321 5e-05
      vertex 78.9985 8.02364 5e-05
      vertex 73.3646 8.20988 5e-05
    endloop
  endfacet
  facet normal 0 0 -1
    outer loop
      vertex 72.39 8.128 5e-05
      vertex 77.9139 7.00445 5e-05
      vertex 76.6744 6.1805 5e-05
    endloop
  endfacet
  facet normal 0 0 -1
    outer loop
      vertex 72.39 8.128 5e-05
      vertex 76.6744 6.1805 5e-05
      vertex 51.5257 8.128 5e-05
    endloop
  endfacet
  facet normal 0 -1 0
    outer loop
      vertex 48.26 5.08 15.2401
      vertex 64.1545 5.08 26.0164
      vertex 33.02 5.08 15.2401
    endloop
  endfacet
  facet normal 0 -1 0
    outer loop
      vertex 8.89 5.08 5e-05
      vertex 33.02 5.08 5e-05
      vertex 33.02 5.08 15.2401
    endloop
  endfacet
  facet normal 0 -1 0
    outer loop
      vertex 53.3782 5.08 15.2401
      vertex 64.1545 5.08 26.0164
      vertex 48.26 5.08 15.2401
    endloop
  endfacet
  facet normal 0 -1 0
    outer loop
      vertex 48.26 5.08 5e-05
      vertex 72.39 5.08 5e-05
      vertex 48.26 5.08 15.2401
    endloop
  endfacet
  facet normal 0 -1 0
    outer loop
      vertex 72.39 5.08 5e-05
      vertex 53.3782 5.08 15.2401
      vertex 48.26 5.08 15.2401
    endloop
  endfacet
  facet normal 0 -1 0
    outer loop
      vertex 72.39 5.08 5e-05
      vertex 72.39 5.08 15.2401
      vertex 53.3782 5.08 15.2401
    endloop
  endfacet
  facet normal 0 -1 0
    outer loop
      vertex 40.64 5.08 20.4623
      vertex 55.1743 5.08 26.0164
      vertex 55.1743 5.08 34.9966
    endloop
  endfacet
  facet normal 0 -1 0
    outer loop
      vertex 33.02 5.08 15.2401
      vertex 64.1545 5.08 26.0164
      vertex 55.1743 5.08 26.0164
    endloop
  endfacet
  facet normal 0 -1 0
    outer loop
      vertex 33.02 5.08 15.2401
      vertex 55.1743 5.08 26.0164
      vertex 40.64 5.08 20.4623
    endloop
  endfacet
  facet normal 0 -1 0
    outer loop
      vertex 17.1255 5.08 26.0164
      vertex 27.9018 5.08 15.2401
      vertex 26.1057 5.08 26.0164
    endloop
  endfacet
  facet normal 0 -1 0
    outer loop
      vertex 27.9018 5.08 15.2401
      vertex 8.89 5.08 15.2401
      vertex 8.89 5.08 5e-05
    endloop
  endfacet
  facet normal 0 -1 0
    outer loop
      vertex 40.64 5.08 20.4623
      vertex 8.89 5.08 5e-05
      vertex 33.02 5.08 15.2401
    endloop
  endfacet
  facet normal 0 -1 0
    outer loop
      vertex 40.64 5.08 20.4623
      vertex 27.9018 5.08 15.2401
      vertex 8.89 5.08 5e-05
    endloop
  endfacet
  facet normal 0 -1 0
    outer loop
      vertex 40.64 5.08 20.4623
      vertex 26.1057 5.08 26.0164
      vertex 27.9018 5.08 15.2401
    endloop
  endfacet
  facet normal 0 -1 0
    outer loop
      vertex 40.64 5.08 20.4623
      vertex 26.1057 5.08 34.9966
      vertex 26.1057 5.08 26.0164
    endloop
  endfacet
  facet normal 0 0 1
    outer loop
      vertex 0.017208 13.4171 15.2401
      vertex 0.233796 11.9446 15.2401
      vertex 0.69302 10.5288 15.2401
    endloop
  endfacet
  facet normal 0 0 1
    outer loop
      vertex 2.28145 8.02364 15.2401
      vertex 0.017208 13.4171 15.2401
      vertex 1.38201 9.20952 15.2401
    endloop
  endfacet
  facet normal 0 0 1
    outer loop
      vertex 1.38201 9.20952 15.2401
      vertex 0.017208 13.4171 15.2401
      vertex 0.69302 10.5288 15.2401
    endloop
  endfacet
  facet normal 0 0 1
    outer loop
      vertex 3.36613 7.00445 15.2401
      vertex 0.017208 13.4171 15.2401
      vertex 2.28145 8.02364 15.2401
    endloop
  endfacet
  facet normal 0 0 1
    outer loop
      vertex 4.60564 6.1805 15.2401
      vertex 0.017208 13.4171 15.2401
      vertex 3.36613 7.00445 15.2401
    endloop
  endfacet
  facet normal 0 0 1
    outer loop
      vertex 5.96525 5.57489 15.2401
      vertex 0.017208 13.4171 15.2401
      vertex 4.60564 6.1805 15.2401
    endloop
  endfacet
  facet normal 0 0 1
    outer loop
      vertex 7.40684 5.20459 15.2401
      vertex 0.017208 13.4171 15.2401
      vertex 5.96525 5.57489 15.2401
    endloop
  endfacet
  facet normal 0 0 1
    outer loop
      vertex 8.89 5.08 15.2401
      vertex 0.017208 13.4171 15.2401
      vertex 7.40684 5.20459 15.2401
    endloop
  endfacet
  facet normal 0 0 1
    outer loop
      vertex 5.26003 9.39264 15.2401
      vertex 0.017208 13.4171 15.2401
      vertex 8.89 5.08 15.2401
    endloop
  endfacet
  facet normal 0 0 1
    outer loop
      vertex 4.54724 10.0624 15.2401
      vertex 3.95618 10.8417 15.2401
      vertex 0.017208 13.4171 15.2401
    endloop
  endfacet
  facet normal 0 0 1
    outer loop
      vertex 27.9018 5.08 15.2401
      vertex 8.89 8.128 15.2401
      vertex 8.89 5.08 15.2401
    endloop
  endfacet
  facet normal 0 0 1
    outer loop
      vertex 8.89 8.128 15.2401
      vertex 7.91535 8.20988 15.2401
      vertex 8.89 5.08 15.2401
    endloop
  endfacet
  facet normal 0 0 1
    outer loop
      vertex 7.91535 8.20988 15.2401
      vertex 6.96802 8.45321 15.2401
      vertex 8.89 5.08 15.2401
    endloop
  endfacet
  facet normal 0 0 1
    outer loop
      vertex 3.95618 10.8417 15.2401
      vertex 3.50342 11.7087 15.2401
      vertex 0.017208 13.4171 15.2401
    endloop
  endfacet
  facet normal 0 0 1
    outer loop
      vertex 6.96802 8.45321 15.2401
      vertex 6.07457 8.85118 15.2401
      vertex 8.89 5.08 15.2401
    endloop
  endfacet
  facet normal 0 0 1
    outer loop
      vertex 6.07457 8.85118 15.2401
      vertex 5.26003 9.39264 15.2401
      vertex 8.89 5.08 15.2401
    endloop
  endfacet
  facet normal 0 0 1
    outer loop
      vertex 3.20164 12.639 15.2401
      vertex 3.05931 13.6067 15.2401
      vertex 0.017208 13.4171 15.2401
    endloop
  endfacet
  facet normal 0 0 1
    outer loop
      vertex 5.26003 9.39264 15.2401
      vertex 4.54724 10.0624 15.2401
      vertex 0.017208 13.4171 15.2401
    endloop
  endfacet
  facet normal 0 0 1
    outer loop
      vertex 3.08041 14.5845 15.2401
      vertex 0.017208 13.4171 15.2401
      vertex 3.05931 13.6067 15.2401
    endloop
  endfacet
  facet normal 0 0 1
    outer loop
      vertex 3.26436 15.5452 15.2401
      vertex 0.017208 13.4171 15.2401
      vertex 3.08041 14.5845 15.2401
    endloop
  endfacet
  facet normal 0 0 1
    outer loop
      vertex 3.606 16.4617 15.2401
      vertex 0.017208 13.4171 15.2401
      vertex 3.26436 15.5452 15.2401
    endloop
  endfacet
  facet normal 0 0 1
    outer loop
      vertex 4.09576 17.3083 15.2401
      vertex 0.017208 13.4171 15.2401
      vertex 3.606 16.4617 15.2401
    endloop
  endfacet
  facet normal 0 0 1
    outer loop
      vertex 4.71989 18.0614 15.2401
      vertex 0.017208 13.4171 15.2401
      vertex 4.09576 17.3083 15.2401
    endloop
  endfacet
  facet normal 0 0 1
    outer loop
      vertex 9.27359 22.8517 15.2401
      vertex 0.017208 13.4171 15.2401
      vertex 4.71989 18.0614 15.2401
    endloop
  endfacet
  facet normal 0 0 1
    outer loop
      vertex 9.27359 22.8517 15.2401
      vertex 4.71989 18.0614 15.2401
      vertex 5.46091 18.6997 15.2401
    endloop
  endfacet
  facet normal 0 0 1
    outer loop
      vertex 10.75 22.6632 15.2401
      vertex 5.46091 18.6997 15.2401
      vertex 6.29805 19.2055 15.2401
    endloop
  endfacet
  facet normal 0 0 1
    outer loop
      vertex 12.1743 22.2311 15.2401
      vertex 6.29805 19.2055 15.2401
      vertex 7.20785 19.5646 15.2401
    endloop
  endfacet
  facet normal 0 0 1
    outer loop
      vertex 13.5065 21.5674 15.2401
      vertex 7.20785 19.5646 15.2401
      vertex 8.1648 19.7668 15.2401
    endloop
  endfacet
  facet normal 0 0 1
    outer loop
      vertex 69.1057 22.2311 15.2401
      vertex 67.7735 21.5674 15.2401
      vertex 76.3343 21.9371 15.2401
    endloop
  endfacet
  facet normal 0 0 1
    outer loop
      vertex 31.9032 12.5527 15.2401
      vertex 31.7886 12.1251 15.2401
      vertex 32.3442 13.3167 15.2401
    endloop
  endfacet
  facet normal 0 0 1
    outer loop
      vertex 53.3782 8.128 15.2401
      vertex 53.3782 5.08 15.2401
      vertex 72.39 8.128 15.2401
    endloop
  endfacet
  facet normal 0 0 1
    outer loop
      vertex 78.7358 20.196 15.2401
      vertex 72.1379 19.8066 15.2401
      vertex 73.1152 19.7668 15.2401
    endloop
  endfacet
  facet normal 0 0 1
    outer loop
      vertex 79.6856 19.05 15.2401
      vertex 73.1152 19.7668 15.2401
      vertex 74.0722 19.5646 15.2401
    endloop
  endfacet
  facet normal 0 0 1
    outer loop
      vertex 80.4309 17.7616 15.2401
      vertex 74.0722 19.5646 15.2401
      vertex 74.9819 19.2055 15.2401
    endloop
  endfacet
  facet normal 0 0 1
    outer loop
      vertex 80.9508 16.367 15.2401
      vertex 74.9819 19.2055 15.2401
      vertex 75.8191 18.6997 15.2401
    endloop
  endfacet
  facet normal 0 0 1
    outer loop
      vertex 81.2307 14.9052 15.2401
      vertex 75.8191 18.6997 15.2401
      vertex 76.5601 18.0614 15.2401
    endloop
  endfacet
  facet normal 0 0 1
    outer loop
      vertex 81.2628 13.4171 15.2401
      vertex 76.5601 18.0614 15.2401
      vertex 77.1842 17.3083 15.2401
    endloop
  endfacet
  facet normal 0 0 1
    outer loop
      vertex 81.0462 11.9446 15.2401
      vertex 77.1842 17.3083 15.2401
      vertex 77.674 16.4617 15.2401
    endloop
  endfacet
  facet normal 0 0 1
    outer loop
      vertex 80.587 10.5288 15.2401
      vertex 77.674 16.4617 15.2401
      vertex 78.0156 15.5452 15.2401
    endloop
  endfacet
  facet normal 0 0 1
    outer loop
      vertex 79.898 9.20952 15.2401
      vertex 78.0156 15.5452 15.2401
      vertex 78.1996 14.5845 15.2401
    endloop
  endfacet
  facet normal 0 0 1
    outer loop
      vertex 78.9985 8.02364 15.2401
      vertex 78.1996 14.5845 15.2401
      vertex 78.2207 13.6067 15.2401
    endloop
  endfacet
  facet normal 0 0 1
    outer loop
      vertex 77.9139 7.00445 15.2401
      vertex 78.2207 13.6067 15.2401
      vertex 78.0784 12.639 15.2401
    endloop
  endfacet
  facet normal 0 0 1
    outer loop
      vertex 76.6744 6.1805 15.2401
      vertex 78.0784 12.639 15.2401
      vertex 77.7766 11.7087 15.2401
    endloop
  endfacet
  facet normal 0 0 1
    outer loop
      vertex 75.3147 5.57489 15.2401
      vertex 77.7766 11.7087 15.2401
      vertex 77.3238 10.8417 15.2401
    endloop
  endfacet
  facet normal 0 0 1
    outer loop
      vertex 70.53 22.6632 15.2401
      vertex 74.9498 22.4835 15.2401
      vertex 73.4936 22.7912 15.2401
    endloop
  endfacet
  facet normal 0 0 1
    outer loop
      vertex 73.8732 5.20459 15.2401
      vertex 77.3238 10.8417 15.2401
      vertex 76.7328 10.0624 15.2401
    endloop
  endfacet
  facet normal 0 0 1
    outer loop
      vertex 70.53 22.6632 15.2401
      vertex 69.1057 22.2311 15.2401
      vertex 74.9498 22.4835 15.2401
    endloop
  endfacet
  facet normal 0 0 1
    outer loop
      vertex 72.39 5.08 15.2401
      vertex 76.7328 10.0624 15.2401
      vertex 76.02 9.39264 15.2401
    endloop
  endfacet
  facet normal 0 0 1
    outer loop
      vertex 72.39 5.08 15.2401
      vertex 76.02 9.39264 15.2401
      vertex 75.2054 8.85118 15.2401
    endloop
  endfacet
  facet normal 0 0 1
    outer loop
      vertex 72.39 5.08 15.2401
      vertex 75.2054 8.85118 15.2401
      vertex 74.312 8.45321 15.2401
    endloop
  endfacet
  facet normal 0 0 1
    outer loop
      vertex 72.39 5.08 15.2401
      vertex 74.312 8.45321 15.2401
      vertex 73.3646 8.20988 15.2401
    endloop
  endfacet
  facet normal 0 0 1
    outer loop
      vertex 53.3782 5.08 15.2401
      vertex 73.3646 8.20988 15.2401
      vertex 72.39 8.128 15.2401
    endloop
  endfacet
  facet normal 0 0 1
    outer loop
      vertex 72.39 5.08 15.2401
      vertex 73.3646 8.20988 15.2401
      vertex 53.3782 5.08 15.2401
    endloop
  endfacet
  facet normal 0 0 1
    outer loop
      vertex 73.8732 5.20459 15.2401
      vertex 76.7328 10.0624 15.2401
      vertex 72.39 5.08 15.2401
    endloop
  endfacet
  facet normal 0 0 1
    outer loop
      vertex 75.3147 5.57489 15.2401
      vertex 77.3238 10.8417 15.2401
      vertex 73.8732 5.20459 15.2401
    endloop
  endfacet
  facet normal 0 0 1
    outer loop
      vertex 76.6744 6.1805 15.2401
      vertex 77.7766 11.7087 15.2401
      vertex 75.3147 5.57489 15.2401
    endloop
  endfacet
  facet normal 0 0 1
    outer loop
      vertex 77.9139 7.00445 15.2401
      vertex 78.0784 12.639 15.2401
      vertex 76.6744 6.1805 15.2401
    endloop
  endfacet
  facet normal 0 0 1
    outer loop
      vertex 78.9985 8.02364 15.2401
      vertex 78.2207 13.6067 15.2401
      vertex 77.9139 7.00445 15.2401
    endloop
  endfacet
  facet normal 0 0 1
    outer loop
      vertex 79.898 9.20952 15.2401
      vertex 78.1996 14.5845 15.2401
      vertex 78.9985 8.02364 15.2401
    endloop
  endfacet
  facet normal 0 0 1
    outer loop
      vertex 80.587 10.5288 15.2401
      vertex 78.0156 15.5452 15.2401
      vertex 79.898 9.20952 15.2401
    endloop
  endfacet
  facet normal 0 0 1
    outer loop
      vertex 81.0462 11.9446 15.2401
      vertex 77.674 16.4617 15.2401
      vertex 80.587 10.5288 15.2401
    endloop
  endfacet
  facet normal 0 0 1
    outer loop
      vertex 81.2628 13.4171 15.2401
      vertex 77.1842 17.3083 15.2401
      vertex 81.0462 11.9446 15.2401
    endloop
  endfacet
  facet normal 0 0 1
    outer loop
      vertex 81.2307 14.9052 15.2401
      vertex 76.5601 18.0614 15.2401
      vertex 81.2628 13.4171 15.2401
    endloop
  endfacet
  facet normal 0 0 1
    outer loop
      vertex 80.9508 16.367 15.2401
      vertex 75.8191 18.6997 15.2401
      vertex 81.2307 14.9052 15.2401
    endloop
  endfacet
  facet normal 0 0 1
    outer loop
      vertex 80.4309 17.7616 15.2401
      vertex 74.9819 19.2055 15.2401
      vertex 80.9508 16.367 15.2401
    endloop
  endfacet
  facet normal 0 0 1
    outer loop
      vertex 79.6856 19.05 15.2401
      vertex 74.0722 19.5646 15.2401
      vertex 80.4309 17.7616 15.2401
    endloop
  endfacet
  facet normal 0 0 1
    outer loop
      vertex 78.7358 20.196 15.2401
      vertex 73.1152 19.7668 15.2401
      vertex 79.6856 19.05 15.2401
    endloop
  endfacet
  facet normal 0 0 1
    outer loop
      vertex 31.75 10.4819 15.2401
      vertex 11.9237 18.9626 15.2401
      vertex 29.7543 8.128 15.2401
    endloop
  endfacet
  facet normal 0 0 1
    outer loop
      vertex 72.0064 22.8517 15.2401
      vertex 70.53 22.6632 15.2401
      vertex 73.4936 22.7912 15.2401
    endloop
  endfacet
  facet normal 0 0 1
    outer loop
      vertex 74.9498 22.4835 15.2401
      vertex 69.1057 22.2311 15.2401
      vertex 76.3343 21.9371 15.2401
    endloop
  endfacet
  facet normal 0 0 1
    outer loop
      vertex 76.3343 21.9371 15.2401
      vertex 67.7735 21.5674 15.2401
      vertex 77.6082 21.1674 15.2401
    endloop
  endfacet
  facet normal 0 0 1
    outer loop
      vertex 69.3563 18.9626 15.2401
      vertex 49.53 10.4819 15.2401
      vertex 51.5257 8.128 15.2401
    endloop
  endfacet
  facet normal 0 0 1
    outer loop
      vertex 33.8489 14.1854 15.2401
      vertex 33.4213 14.0708 15.2401
      vertex 49.53 10.4819 15.2401
    endloop
  endfacet
  facet normal 0 0 1
    outer loop
      vertex 46.99 14.224 15.2401
      vertex 48.26 13.8837 15.2401
      vertex 47.8587 14.0708 15.2401
    endloop
  endfacet
  facet normal 0 0 1
    outer loop
      vertex 46.99 14.224 15.2401
      vertex 48.6227 13.6298 15.2401
      vertex 48.26 13.8837 15.2401
    endloop
  endfacet
  facet normal 0 0 1
    outer loop
      vertex 32.6573 13.6298 15.2401
      vertex 32.3442 13.3167 15.2401
      vertex 51.5257 8.128 15.2401
    endloop
  endfacet
  facet normal 0 0 1
    outer loop
      vertex 46.99 14.224 15.2401
      vertex 48.9358 13.3167 15.2401
      vertex 48.6227 13.6298 15.2401
    endloop
  endfacet
  facet normal 0 0 1
    outer loop
      vertex 46.99 14.224 15.2401
      vertex 49.1897 12.954 15.2401
      vertex 48.9358 13.3167 15.2401
    endloop
  endfacet
  facet normal 0 0 1
    outer loop
      vertex 46.99 14.224 15.2401
      vertex 49.3768 12.5527 15.2401
      vertex 49.1897 12.954 15.2401
    endloop
  endfacet
  facet normal 0 0 1
    outer loop
      vertex 46.99 14.224 15.2401
      vertex 49.4914 12.1251 15.2401
      vertex 49.3768 12.5527 15.2401
    endloop
  endfacet
  facet normal 0 0 1
    outer loop
      vertex 46.99 14.224 15.2401
      vertex 49.53 11.684 15.2401
      vertex 49.4914 12.1251 15.2401
    endloop
  endfacet
  facet normal 0 0 1
    outer loop
      vertex 46.99 14.224 15.2401
      vertex 34.29 14.224 15.2401
      vertex 49.53 11.684 15.2401
    endloop
  endfacet
  facet normal 0 0 1
    outer loop
      vertex 47.4311 14.1854 15.2401
      vertex 46.99 14.224 15.2401
      vertex 47.8587 14.0708 15.2401
    endloop
  endfacet
  facet normal 0 0 1
    outer loop
      vertex 49.53 11.684 15.2401
      vertex 34.29 14.224 15.2401
      vertex 49.53 10.4819 15.2401
    endloop
  endfacet
  facet normal 0 0 1
    outer loop
      vertex 34.29 14.224 15.2401
      vertex 33.8489 14.1854 15.2401
      vertex 49.53 10.4819 15.2401
    endloop
  endfacet
  facet normal 0 0 1
    outer loop
      vertex 49.53 10.4819 15.2401
      vertex 33.4213 14.0708 15.2401
      vertex 51.5257 8.128 15.2401
    endloop
  endfacet
  facet normal 0 0 1
    outer loop
      vertex 33.4213 14.0708 15.2401
      vertex 33.02 13.8837 15.2401
      vertex 51.5257 8.128 15.2401
    endloop
  endfacet
  facet normal 0 0 1
    outer loop
      vertex 33.02 13.8837 15.2401
      vertex 32.6573 13.6298 15.2401
      vertex 51.5257 8.128 15.2401
    endloop
  endfacet
  facet normal 0 0 1
    outer loop
      vertex 32.3442 13.3167 15.2401
      vertex 32.0903 12.954 15.2401
      vertex 31.9032 12.5527 15.2401
    endloop
  endfacet
  facet normal 0 0 1
    outer loop
      vertex 51.5257 8.128 15.2401
      vertex 32.3442 13.3167 15.2401
      vertex 31.7886 12.1251 15.2401
    endloop
  endfacet
  facet normal 0 0 1
    outer loop
      vertex 51.5257 8.128 15.2401
      vertex 31.7886 12.1251 15.2401
      vertex 31.75 11.684 15.2401
    endloop
  endfacet
  facet normal 0 0 1
    outer loop
      vertex 51.5257 8.128 15.2401
      vertex 31.75 10.4819 15.2401
      vertex 29.7543 8.128 15.2401
    endloop
  endfacet
  facet normal 0 0 1
    outer loop
      vertex 51.5257 8.128 15.2401
      vertex 31.75 11.684 15.2401
      vertex 31.75 10.4819 15.2401
    endloop
  endfacet
  facet normal 0 0 1
    outer loop
      vertex 12.1743 22.2311 15.2401
      vertex 7.20785 19.5646 15.2401
      vertex 13.5065 21.5674 15.2401
    endloop
  endfacet
  facet normal 0 0 1
    outer loop
      vertex 10.75 22.6632 15.2401
      vertex 6.29805 19.2055 15.2401
      vertex 12.1743 22.2311 15.2401
    endloop
  endfacet
  facet normal 0 0 1
    outer loop
      vertex 9.27359 22.8517 15.2401
      vertex 5.46091 18.6997 15.2401
      vertex 10.75 22.6632 15.2401
    endloop
  endfacet
  facet normal 0 0 1
    outer loop
      vertex 7.78643 22.7912 15.2401
      vertex 0.017208 13.4171 15.2401
      vertex 9.27359 22.8517 15.2401
    endloop
  endfacet
  facet normal 0 0 1
    outer loop
      vertex 6.33021 22.4835 15.2401
      vertex 0.017208 13.4171 15.2401
      vertex 7.78643 22.7912 15.2401
    endloop
  endfacet
  facet normal 0 0 1
    outer loop
      vertex 4.94574 21.9371 15.2401
      vertex 0.017208 13.4171 15.2401
      vertex 6.33021 22.4835 15.2401
    endloop
  endfacet
  facet normal 0 0 1
    outer loop
      vertex 3.67182 21.1674 15.2401
      vertex 0.017208 13.4171 15.2401
      vertex 4.94574 21.9371 15.2401
    endloop
  endfacet
  facet normal 0 0 1
    outer loop
      vertex 2.54418 20.196 15.2401
      vertex 0.017208 13.4171 15.2401
      vertex 3.67182 21.1674 15.2401
    endloop
  endfacet
  facet normal 0 0 1
    outer loop
      vertex 1.59441 19.05 15.2401
      vertex 0.017208 13.4171 15.2401
      vertex 2.54418 20.196 15.2401
    endloop
  endfacet
  facet normal 0 0 1
    outer loop
      vertex 0.849136 17.7616 15.2401
      vertex 0.017208 13.4171 15.2401
      vertex 1.59441 19.05 15.2401
    endloop
  endfacet
  facet normal 0 0 1
    outer loop
      vertex 0.329248 16.367 15.2401
      vertex 0.017208 13.4171 15.2401
      vertex 0.849136 17.7616 15.2401
    endloop
  endfacet
  facet normal 0 0 1
    outer loop
      vertex 0.049326 14.9052 15.2401
      vertex 0.017208 13.4171 15.2401
      vertex 0.329248 16.367 15.2401
    endloop
  endfacet
  facet normal 0 0 1
    outer loop
      vertex 3.50342 11.7087 15.2401
      vertex 3.20164 12.639 15.2401
      vertex 0.017208 13.4171 15.2401
    endloop
  endfacet
  facet normal 0 0 1
    outer loop
      vertex 27.9018 8.128 15.2401
      vertex 8.89 8.128 15.2401
      vertex 27.9018 5.08 15.2401
    endloop
  endfacet
  facet normal 0 0 1
    outer loop
      vertex 67.7735 21.5674 15.2401
      vertex 78.7358 20.196 15.2401
      vertex 77.6082 21.1674 15.2401
    endloop
  endfacet
  facet normal 0 0 1
    outer loop
      vertex 67.7735 21.5674 15.2401
      vertex 72.1379 19.8066 15.2401
      vertex 78.7358 20.196 15.2401
    endloop
  endfacet
  facet normal 0 0 1
    outer loop
      vertex 67.7735 21.5674 15.2401
      vertex 71.1677 19.6827 15.2401
      vertex 72.1379 19.8066 15.2401
    endloop
  endfacet
  facet normal 0 0 1
    outer loop
      vertex 67.7735 21.5674 15.2401
      vertex 70.2318 19.3987 15.2401
      vertex 71.1677 19.6827 15.2401
    endloop
  endfacet
  facet normal 0 0 1
    outer loop
      vertex 67.7735 21.5674 15.2401
      vertex 69.3563 18.9626 15.2401
      vertex 70.2318 19.3987 15.2401
    endloop
  endfacet
  facet normal 0 0 1
    outer loop
      vertex 67.7735 21.5674 15.2401
      vertex 49.53 10.4819 15.2401
      vertex 69.3563 18.9626 15.2401
    endloop
  endfacet
  facet normal 0 0 1
    outer loop
      vertex 31.75 10.4819 15.2401
      vertex 11.0482 19.3987 15.2401
      vertex 11.9237 18.9626 15.2401
    endloop
  endfacet
  facet normal 0 0 1
    outer loop
      vertex 9.14207 19.8066 15.2401
      vertex 13.5065 21.5674 15.2401
      vertex 8.1648 19.7668 15.2401
    endloop
  endfacet
  facet normal 0 0 1
    outer loop
      vertex 10.1123 19.6827 15.2401
      vertex 13.5065 21.5674 15.2401
      vertex 9.14207 19.8066 15.2401
    endloop
  endfacet
  facet normal 0 0 1
    outer loop
      vertex 11.0482 19.3987 15.2401
      vertex 13.5065 21.5674 15.2401
      vertex 10.1123 19.6827 15.2401
    endloop
  endfacet
  facet normal 0 0 1
    outer loop
      vertex 31.75 10.4819 15.2401
      vertex 13.5065 21.5674 15.2401
      vertex 11.0482 19.3987 15.2401
    endloop
  endfacet
  facet normal 0.248789 -0.968558 0
    outer loop
      vertex 73.8732 5.20459 5e-05
      vertex 75.3147 5.57489 5e-05
      vertex 75.3147 5.57489 15.2401
    endloop
  endfacet
  facet normal 0.248789 -0.968558 0
    outer loop
      vertex 73.8732 5.20459 15.2401
      vertex 73.8732 5.20459 5e-05
      vertex 75.3147 5.57489 15.2401
    endloop
  endfacet
  facet normal -0.989355 -0.145519 0
    outer loop
      vertex 0.233796 11.9446 5e-05
      vertex 0.233796 11.9446 15.2401
      vertex 0.017208 13.4171 5e-05
    endloop
  endfacet
  facet normal -0.989355 -0.145519 0
    outer loop
      vertex 0.017208 13.4171 5e-05
      vertex 0.233796 11.9446 15.2401
      vertex 0.017208 13.4171 15.2401
    endloop
  endfacet
  facet normal -0.999767 0.0215791 0
    outer loop
      vertex 0.017208 13.4171 15.2401
      vertex 0.049326 14.9052 15.2401
      vertex 0.017208 13.4171 5e-05
    endloop
  endfacet
  facet normal -0.999767 0.0215791 0
    outer loop
      vertex 0.017208 13.4171 5e-05
      vertex 0.049326 14.9052 15.2401
      vertex 0.049326 14.9052 5e-05
    endloop
  endfacet
  facet normal -0.951212 -0.308538 0
    outer loop
      vertex 0.69302 10.5288 5e-05
      vertex 0.69302 10.5288 15.2401
      vertex 0.233796 11.9446 5e-05
    endloop
  endfacet
  facet normal -0.951212 -0.308538 0
    outer loop
      vertex 0.233796 11.9446 5e-05
      vertex 0.69302 10.5288 15.2401
      vertex 0.233796 11.9446 15.2401
    endloop
  endfacet
  facet normal -0.886405 -0.46291 0
    outer loop
      vertex 1.38201 9.20952 5e-05
      vertex 1.38201 9.20952 15.2401
      vertex 0.69302 10.5288 5e-05
    endloop
  endfacet
  facet normal -0.886405 -0.46291 0
    outer loop
      vertex 0.69302 10.5288 5e-05
      vertex 1.38201 9.20952 15.2401
      vertex 0.69302 10.5288 15.2401
    endloop
  endfacet
  facet normal -0.796752 -0.604306 0
    outer loop
      vertex 2.28145 8.02364 5e-05
      vertex 2.28145 8.02364 15.2401
      vertex 1.38201 9.20952 5e-05
    endloop
  endfacet
  facet normal -0.796752 -0.604306 0
    outer loop
      vertex 1.38201 9.20952 5e-05
      vertex 2.28145 8.02364 15.2401
      vertex 1.38201 9.20952 15.2401
    endloop
  endfacet
  facet normal -0.684768 -0.728762 0
    outer loop
      vertex 2.28145 8.02364 5e-05
      vertex 3.36613 7.00445 5e-05
      vertex 3.36613 7.00445 15.2401
    endloop
  endfacet
  facet normal -0.684768 -0.728762 0
    outer loop
      vertex 2.28145 8.02364 15.2401
      vertex 2.28145 8.02364 5e-05
      vertex 3.36613 7.00445 15.2401
    endloop
  endfacet
  facet normal -0.553586 -0.832792 0
    outer loop
      vertex 3.36613 7.00445 5e-05
      vertex 4.60564 6.1805 5e-05
      vertex 4.60564 6.1805 15.2401
    endloop
  endfacet
  facet normal -0.553586 -0.832792 0
    outer loop
      vertex 3.36613 7.00445 15.2401
      vertex 3.36613 7.00445 5e-05
      vertex 4.60564 6.1805 15.2401
    endloop
  endfacet
  facet normal -0.40689 -0.913477 0
    outer loop
      vertex 4.60564 6.1805 5e-05
      vertex 5.96525 5.57489 5e-05
      vertex 5.96525 5.57489 15.2401
    endloop
  endfacet
  facet normal -0.40689 -0.913477 0
    outer loop
      vertex 4.60564 6.1805 15.2401
      vertex 4.60564 6.1805 5e-05
      vertex 5.96525 5.57489 15.2401
    endloop
  endfacet
  facet normal -0.248788 -0.968558 0
    outer loop
      vertex 5.96525 5.57489 5e-05
      vertex 7.40684 5.20459 5e-05
      vertex 7.40684 5.20459 15.2401
    endloop
  endfacet
  facet normal -0.248788 -0.968558 0
    outer loop
      vertex 5.96525 5.57489 15.2401
      vertex 5.96525 5.57489 5e-05
      vertex 7.40684 5.20459 15.2401
    endloop
  endfacet
  facet normal -0.0837108 -0.99649 0
    outer loop
      vertex 7.40684 5.20459 5e-05
      vertex 8.89 5.08 5e-05
      vertex 8.89 5.08 15.2401
    endloop
  endfacet
  facet normal -0.0837108 -0.99649 0
    outer loop
      vertex 7.40684 5.20459 15.2401
      vertex 7.40684 5.20459 5e-05
      vertex 8.89 5.08 15.2401
    endloop
  endfacet
  facet normal -1 0 0
    outer loop
      vertex 33.02 0 15.2401
      vertex 33.02 5.08 15.2401
      vertex 33.02 0 5e-05
    endloop
  endfacet
  facet normal -1 0 0
    outer loop
      vertex 33.02 0 5e-05
      vertex 33.02 5.08 15.2401
      vertex 33.02 5.08 5e-05
    endloop
  endfacet
  facet normal 0 -1 0
    outer loop
      vertex 33.02 0 5e-05
      vertex 48.26 0 5e-05
      vertex 48.26 0 15.2401
    endloop
  endfacet
  facet normal 0 -1 0
    outer loop
      vertex 33.02 0 15.2401
      vertex 33.02 0 5e-05
      vertex 48.26 0 15.2401
    endloop
  endfacet
  facet normal 1 0 0
    outer loop
      vertex 48.26 0 5e-05
      vertex 48.26 5.08 5e-05
      vertex 48.26 5.08 15.2401
    endloop
  endfacet
  facet normal 1 0 0
    outer loop
      vertex 48.26 0 15.2401
      vertex 48.26 0 5e-05
      vertex 48.26 5.08 15.2401
    endloop
  endfacet
  facet normal 0.40689 -0.913477 0
    outer loop
      vertex 75.3147 5.57489 5e-05
      vertex 76.6744 6.1805 5e-05
      vertex 76.6744 6.1805 15.2401
    endloop
  endfacet
  facet normal 0.40689 -0.913477 0
    outer loop
      vertex 75.3147 5.57489 15.2401
      vertex 75.3147 5.57489 5e-05
      vertex 76.6744 6.1805 15.2401
    endloop
  endfacet
  facet normal 0.553586 -0.832792 0
    outer loop
      vertex 76.6744 6.1805 5e-05
      vertex 77.9139 7.00445 5e-05
      vertex 77.9139 7.00445 15.2401
    endloop
  endfacet
  facet normal 0.553586 -0.832792 0
    outer loop
      vertex 76.6744 6.1805 15.2401
      vertex 76.6744 6.1805 5e-05
      vertex 77.9139 7.00445 15.2401
    endloop
  endfacet
  facet normal 0.684768 -0.728762 0
    outer loop
      vertex 77.9139 7.00445 5e-05
      vertex 78.9985 8.02364 5e-05
      vertex 78.9985 8.02364 15.2401
    endloop
  endfacet
  facet normal 0.684768 -0.728762 0
    outer loop
      vertex 77.9139 7.00445 15.2401
      vertex 77.9139 7.00445 5e-05
      vertex 78.9985 8.02364 15.2401
    endloop
  endfacet
  facet normal 0.796751 -0.604307 0
    outer loop
      vertex 78.9985 8.02364 5e-05
      vertex 79.898 9.20952 5e-05
      vertex 79.898 9.20952 15.2401
    endloop
  endfacet
  facet normal 0.796751 -0.604307 0
    outer loop
      vertex 78.9985 8.02364 15.2401
      vertex 78.9985 8.02364 5e-05
      vertex 79.898 9.20952 15.2401
    endloop
  endfacet
  facet normal 0.886405 -0.46291 0
    outer loop
      vertex 79.898 9.20952 5e-05
      vertex 80.587 10.5288 5e-05
      vertex 80.587 10.5288 15.2401
    endloop
  endfacet
  facet normal 0.886405 -0.46291 0
    outer loop
      vertex 79.898 9.20952 15.2401
      vertex 79.898 9.20952 5e-05
      vertex 80.587 10.5288 15.2401
    endloop
  endfacet
  facet normal 0.951211 -0.308542 0
    outer loop
      vertex 80.587 10.5288 5e-05
      vertex 81.0462 11.9446 5e-05
      vertex 81.0462 11.9446 15.2401
    endloop
  endfacet
  facet normal 0.951211 -0.308542 0
    outer loop
      vertex 80.587 10.5288 15.2401
      vertex 80.587 10.5288 5e-05
      vertex 81.0462 11.9446 15.2401
    endloop
  endfacet
  facet normal 0.989356 -0.145515 0
    outer loop
      vertex 81.0462 11.9446 5e-05
      vertex 81.2628 13.4171 5e-05
      vertex 81.2628 13.4171 15.2401
    endloop
  endfacet
  facet normal 0.989356 -0.145515 0
    outer loop
      vertex 81.0462 11.9446 15.2401
      vertex 81.0462 11.9446 5e-05
      vertex 81.2628 13.4171 15.2401
    endloop
  endfacet
  facet normal 0.999767 0.0215844 0
    outer loop
      vertex 81.2307 14.9052 5e-05
      vertex 81.2307 14.9052 15.2401
      vertex 81.2628 13.4171 15.2401
    endloop
  endfacet
  facet normal 0.999767 0.0215844 0
    outer loop
      vertex 81.2628 13.4171 5e-05
      vertex 81.2307 14.9052 5e-05
      vertex 81.2628 13.4171 15.2401
    endloop
  endfacet
  facet normal 0.982156 0.188067 0
    outer loop
      vertex 80.9508 16.367 5e-05
      vertex 80.9508 16.367 15.2401
      vertex 81.2307 14.9052 15.2401
    endloop
  endfacet
  facet normal 0.982156 0.188067 0
    outer loop
      vertex 81.2307 14.9052 5e-05
      vertex 80.9508 16.367 5e-05
      vertex 81.2307 14.9052 15.2401
    endloop
  endfacet
  facet normal 0.937012 0.349297 0
    outer loop
      vertex 80.4309 17.7616 5e-05
      vertex 80.4309 17.7616 15.2401
      vertex 80.9508 16.367 15.2401
    endloop
  endfacet
  facet normal 0.937012 0.349297 0
    outer loop
      vertex 80.9508 16.367 5e-05
      vertex 80.4309 17.7616 5e-05
      vertex 80.9508 16.367 15.2401
    endloop
  endfacet
  facet normal 0.865607 0.500724 0
    outer loop
      vertex 79.6856 19.05 5e-05
      vertex 79.6856 19.05 15.2401
      vertex 80.4309 17.7616 15.2401
    endloop
  endfacet
  facet normal 0.865607 0.500724 0
    outer loop
      vertex 80.4309 17.7616 5e-05
      vertex 79.6856 19.05 5e-05
      vertex 80.4309 17.7616 15.2401
    endloop
  endfacet
  facet normal 0.769936 0.638121 0
    outer loop
      vertex 78.7358 20.196 5e-05
      vertex 78.7358 20.196 15.2401
      vertex 79.6856 19.05 15.2401
    endloop
  endfacet
  facet normal 0.769936 0.638121 0
    outer loop
      vertex 79.6856 19.05 5e-05
      vertex 78.7358 20.196 5e-05
      vertex 79.6856 19.05 15.2401
    endloop
  endfacet
  facet normal 0.652684 0.75763 0
    outer loop
      vertex 77.6082 21.1674 15.2401
      vertex 78.7358 20.196 15.2401
      vertex 77.6082 21.1674 5e-05
    endloop
  endfacet
  facet normal 0.652684 0.75763 0
    outer loop
      vertex 77.6082 21.1674 5e-05
      vertex 78.7358 20.196 15.2401
      vertex 78.7358 20.196 5e-05
    endloop
  endfacet
  facet normal 0.517138 0.855902 0
    outer loop
      vertex 76.3343 21.9371 15.2401
      vertex 77.6082 21.1674 15.2401
      vertex 76.3343 21.9371 5e-05
    endloop
  endfacet
  facet normal 0.517138 0.855902 0
    outer loop
      vertex 76.3343 21.9371 5e-05
      vertex 77.6082 21.1674 15.2401
      vertex 77.6082 21.1674 5e-05
    endloop
  endfacet
  facet normal 0.367096 0.930183 0
    outer loop
      vertex 74.9498 22.4835 15.2401
      vertex 76.3343 21.9371 15.2401
      vertex 74.9498 22.4835 5e-05
    endloop
  endfacet
  facet normal 0.367096 0.930183 0
    outer loop
      vertex 74.9498 22.4835 5e-05
      vertex 76.3343 21.9371 15.2401
      vertex 76.3343 21.9371 5e-05
    endloop
  endfacet
  facet normal 0.206764 0.978391 0
    outer loop
      vertex 73.4936 22.7912 15.2401
      vertex 74.9498 22.4835 15.2401
      vertex 73.4936 22.7912 5e-05
    endloop
  endfacet
  facet normal 0.206764 0.978391 0
    outer loop
      vertex 73.4936 22.7912 5e-05
      vertex 74.9498 22.4835 15.2401
      vertex 74.9498 22.4835 5e-05
    endloop
  endfacet
  facet normal 0.0406374 0.999174 0
    outer loop
      vertex 72.0064 22.8517 15.2401
      vertex 73.4936 22.7912 15.2401
      vertex 72.0064 22.8517 5e-05
    endloop
  endfacet
  facet normal 0.0406374 0.999174 0
    outer loop
      vertex 72.0064 22.8517 5e-05
      vertex 73.4936 22.7912 15.2401
      vertex 73.4936 22.7912 5e-05
    endloop
  endfacet
  facet normal -0.12663 0.99195 0
    outer loop
      vertex 70.53 22.6632 15.2401
      vertex 72.0064 22.8517 15.2401
      vertex 70.53 22.6632 5e-05
    endloop
  endfacet
  facet normal -0.12663 0.99195 0
    outer loop
      vertex 70.53 22.6632 5e-05
      vertex 72.0064 22.8517 15.2401
      vertex 72.0064 22.8517 5e-05
    endloop
  endfacet
  facet normal -0.290346 0.956922 0
    outer loop
      vertex 69.1057 22.2311 15.2401
      vertex 70.53 22.6632 15.2401
      vertex 69.1057 22.2311 5e-05
    endloop
  endfacet
  facet normal -0.290346 0.956922 0
    outer loop
      vertex 69.1057 22.2311 5e-05
      vertex 70.53 22.6632 15.2401
      vertex 70.53 22.6632 5e-05
    endloop
  endfacet
  facet normal -0.445927 0.895069 0
    outer loop
      vertex 67.7735 21.5674 15.2401
      vertex 69.1057 22.2311 15.2401
      vertex 67.7735 21.5674 5e-05
    endloop
  endfacet
  facet normal -0.445927 0.895069 0
    outer loop
      vertex 67.7735 21.5674 5e-05
      vertex 69.1057 22.2311 15.2401
      vertex 69.1057 22.2311 5e-05
    endloop
  endfacet
  facet normal -0.519288 0.8546 0
    outer loop
      vertex 49.53 10.4819 15.2401
      vertex 67.7735 21.5674 15.2401
      vertex 49.53 10.4819 5e-05
    endloop
  endfacet
  facet normal -0.519288 0.8546 0
    outer loop
      vertex 49.53 10.4819 5e-05
      vertex 67.7735 21.5674 15.2401
      vertex 67.7735 21.5674 5e-05
    endloop
  endfacet
  facet normal 1 0 0
    outer loop
      vertex 49.53 10.4819 5e-05
      vertex 49.53 11.684 5e-05
      vertex 49.53 11.684 15.2401
    endloop
  endfacet
  facet normal 1 0 0
    outer loop
      vertex 49.53 10.4819 15.2401
      vertex 49.53 10.4819 5e-05
      vertex 49.53 11.684 15.2401
    endloop
  endfacet
  facet normal 0.996196 0.0871462 0
    outer loop
      vertex 49.4914 12.1251 5e-05
      vertex 49.4914 12.1251 15.2401
      vertex 49.53 11.684 15.2401
    endloop
  endfacet
  facet normal 0.996196 0.0871462 0
    outer loop
      vertex 49.53 11.684 5e-05
      vertex 49.4914 12.1251 5e-05
      vertex 49.53 11.684 15.2401
    endloop
  endfacet
  facet normal 0.965925 0.258823 0
    outer loop
      vertex 49.3768 12.5527 5e-05
      vertex 49.3768 12.5527 15.2401
      vertex 49.4914 12.1251 15.2401
    endloop
  endfacet
  facet normal 0.965925 0.258823 0
    outer loop
      vertex 49.4914 12.1251 5e-05
      vertex 49.3768 12.5527 5e-05
      vertex 49.4914 12.1251 15.2401
    endloop
  endfacet
  facet normal 0.906307 0.42262 0
    outer loop
      vertex 49.1897 12.954 5e-05
      vertex 49.1897 12.954 15.2401
      vertex 49.3768 12.5527 15.2401
    endloop
  endfacet
  facet normal 0.906307 0.42262 0
    outer loop
      vertex 49.3768 12.5527 5e-05
      vertex 49.1897 12.954 5e-05
      vertex 49.3768 12.5527 15.2401
    endloop
  endfacet
  facet normal 0.819151 0.573578 0
    outer loop
      vertex 48.9358 13.3167 5e-05
      vertex 48.9358 13.3167 15.2401
      vertex 49.1897 12.954 15.2401
    endloop
  endfacet
  facet normal 0.819151 0.573578 0
    outer loop
      vertex 49.1897 12.954 5e-05
      vertex 48.9358 13.3167 5e-05
      vertex 49.1897 12.954 15.2401
    endloop
  endfacet
  facet normal 0.707114 0.7071 0
    outer loop
      vertex 48.6227 13.6298 5e-05
      vertex 48.6227 13.6298 15.2401
      vertex 48.9358 13.3167 15.2401
    endloop
  endfacet
  facet normal 0.707114 0.7071 0
    outer loop
      vertex 48.9358 13.3167 5e-05
      vertex 48.6227 13.6298 5e-05
      vertex 48.9358 13.3167 15.2401
    endloop
  endfacet
  facet normal 0.573568 0.819158 0
    outer loop
      vertex 48.26 13.8837 15.2401
      vertex 48.6227 13.6298 15.2401
      vertex 48.26 13.8837 5e-05
    endloop
  endfacet
  facet normal 0.573568 0.819158 0
    outer loop
      vertex 48.26 13.8837 5e-05
      vertex 48.6227 13.6298 15.2401
      vertex 48.6227 13.6298 5e-05
    endloop
  endfacet
  facet normal 0.422621 0.906306 0
    outer loop
      vertex 47.8587 14.0708 15.2401
      vertex 48.26 13.8837 15.2401
      vertex 47.8587 14.0708 5e-05
    endloop
  endfacet
  facet normal 0.422621 0.906306 0
    outer loop
      vertex 47.8587 14.0708 5e-05
      vertex 48.26 13.8837 15.2401
      vertex 48.26 13.8837 5e-05
    endloop
  endfacet
  facet normal 0.25882 0.965926 0
    outer loop
      vertex 47.4311 14.1854 15.2401
      vertex 47.8587 14.0708 15.2401
      vertex 47.4311 14.1854 5e-05
    endloop
  endfacet
  facet normal 0.25882 0.965926 0
    outer loop
      vertex 47.4311 14.1854 5e-05
      vertex 47.8587 14.0708 15.2401
      vertex 47.8587 14.0708 5e-05
    endloop
  endfacet
  facet normal 0.0871543 0.996195 0
    outer loop
      vertex 46.99 14.224 15.2401
      vertex 47.4311 14.1854 15.2401
      vertex 46.99 14.224 5e-05
    endloop
  endfacet
  facet normal 0.0871543 0.996195 0
    outer loop
      vertex 46.99 14.224 5e-05
      vertex 47.4311 14.1854 15.2401
      vertex 47.4311 14.1854 5e-05
    endloop
  endfacet
  facet normal 0 1 0
    outer loop
      vertex 34.29 14.224 15.2401
      vertex 46.99 14.224 15.2401
      vertex 34.29 14.224 5e-05
    endloop
  endfacet
  facet normal 0 1 0
    outer loop
      vertex 34.29 14.224 5e-05
      vertex 46.99 14.224 15.2401
      vertex 46.99 14.224 5e-05
    endloop
  endfacet
  facet normal -0.0871551 0.996195 0
    outer loop
      vertex 33.8489 14.1854 15.2401
      vertex 34.29 14.224 15.2401
      vertex 33.8489 14.1854 5e-05
    endloop
  endfacet
  facet normal -0.0871551 0.996195 0
    outer loop
      vertex 33.8489 14.1854 5e-05
      vertex 34.29 14.224 15.2401
      vertex 34.29 14.224 5e-05
    endloop
  endfacet
  facet normal -0.25882 0.965926 0
    outer loop
      vertex 33.4213 14.0708 15.2401
      vertex 33.8489 14.1854 15.2401
      vertex 33.4213 14.0708 5e-05
    endloop
  endfacet
  facet normal -0.25882 0.965926 0
    outer loop
      vertex 33.4213 14.0708 5e-05
      vertex 33.8489 14.1854 15.2401
      vertex 33.8489 14.1854 5e-05
    endloop
  endfacet
  facet normal -0.422618 0.906308 0
    outer loop
      vertex 33.02 13.8837 15.2401
      vertex 33.4213 14.0708 15.2401
      vertex 33.02 13.8837 5e-05
    endloop
  endfacet
  facet normal -0.422618 0.906308 0
    outer loop
      vertex 33.02 13.8837 5e-05
      vertex 33.4213 14.0708 15.2401
      vertex 33.4213 14.0708 5e-05
    endloop
  endfacet
  facet normal -0.573572 0.819155 0
    outer loop
      vertex 32.6573 13.6298 15.2401
      vertex 33.02 13.8837 15.2401
      vertex 32.6573 13.6298 5e-05
    endloop
  endfacet
  facet normal -0.573572 0.819155 0
    outer loop
      vertex 32.6573 13.6298 5e-05
      vertex 33.02 13.8837 15.2401
      vertex 33.02 13.8837 5e-05
    endloop
  endfacet
  facet normal -0.707114 0.7071 0
    outer loop
      vertex 32.3442 13.3167 15.2401
      vertex 32.6573 13.6298 15.2401
      vertex 32.3442 13.3167 5e-05
    endloop
  endfacet
  facet normal -0.707114 0.7071 0
    outer loop
      vertex 32.3442 13.3167 5e-05
      vertex 32.6573 13.6298 15.2401
      vertex 32.6573 13.6298 5e-05
    endloop
  endfacet
  facet normal -0.819147 0.573584 0
    outer loop
      vertex 32.0903 12.954 15.2401
      vertex 32.3442 13.3167 15.2401
      vertex 32.0903 12.954 5e-05
    endloop
  endfacet
  facet normal -0.819147 0.573584 0
    outer loop
      vertex 32.0903 12.954 5e-05
      vertex 32.3442 13.3167 15.2401
      vertex 32.3442 13.3167 5e-05
    endloop
  endfacet
  facet normal -0.906311 0.422612 0
    outer loop
      vertex 31.9032 12.5527 15.2401
      vertex 32.0903 12.954 15.2401
      vertex 31.9032 12.5527 5e-05
    endloop
  endfacet
  facet normal -0.906311 0.422612 0
    outer loop
      vertex 31.9032 12.5527 5e-05
      vertex 32.0903 12.954 15.2401
      vertex 32.0903 12.954 5e-05
    endloop
  endfacet
  facet normal -0.965925 0.258823 0
    outer loop
      vertex 31.7886 12.1251 15.2401
      vertex 31.9032 12.5527 15.2401
      vertex 31.7886 12.1251 5e-05
    endloop
  endfacet
  facet normal -0.965925 0.258823 0
    outer loop
      vertex 31.7886 12.1251 5e-05
      vertex 31.9032 12.5527 15.2401
      vertex 31.9032 12.5527 5e-05
    endloop
  endfacet
  facet normal -0.996195 0.0871506 0
    outer loop
      vertex 31.75 11.684 15.2401
      vertex 31.7886 12.1251 15.2401
      vertex 31.75 11.684 5e-05
    endloop
  endfacet
  facet normal -0.996195 0.0871506 0
    outer loop
      vertex 31.75 11.684 5e-05
      vertex 31.7886 12.1251 15.2401
      vertex 31.7886 12.1251 5e-05
    endloop
  endfacet
  facet normal -1 0 0
    outer loop
      vertex 31.75 10.4819 15.2401
      vertex 31.75 11.684 15.2401
      vertex 31.75 10.4819 5e-05
    endloop
  endfacet
  facet normal -1 0 0
    outer loop
      vertex 31.75 10.4819 5e-05
      vertex 31.75 11.684 15.2401
      vertex 31.75 11.684 5e-05
    endloop
  endfacet
  facet normal 0.519288 0.8546 0
    outer loop
      vertex 13.5065 21.5674 15.2401
      vertex 31.75 10.4819 15.2401
      vertex 13.5065 21.5674 5e-05
    endloop
  endfacet
  facet normal 0.519288 0.8546 0
    outer loop
      vertex 13.5065 21.5674 5e-05
      vertex 31.75 10.4819 15.2401
      vertex 31.75 10.4819 5e-05
    endloop
  endfacet
  facet normal 0.445927 0.895069 0
    outer loop
      vertex 12.1743 22.2311 15.2401
      vertex 13.5065 21.5674 15.2401
      vertex 12.1743 22.2311 5e-05
    endloop
  endfacet
  facet normal 0.445927 0.895069 0
    outer loop
      vertex 12.1743 22.2311 5e-05
      vertex 13.5065 21.5674 15.2401
      vertex 13.5065 21.5674 5e-05
    endloop
  endfacet
  facet normal 0.290347 0.956921 0
    outer loop
      vertex 10.75 22.6632 15.2401
      vertex 12.1743 22.2311 15.2401
      vertex 10.75 22.6632 5e-05
    endloop
  endfacet
  facet normal 0.290347 0.956921 0
    outer loop
      vertex 10.75 22.6632 5e-05
      vertex 12.1743 22.2311 15.2401
      vertex 12.1743 22.2311 5e-05
    endloop
  endfacet
  facet normal 0.12663 0.99195 0
    outer loop
      vertex 9.27359 22.8517 15.2401
      vertex 10.75 22.6632 15.2401
      vertex 9.27359 22.8517 5e-05
    endloop
  endfacet
  facet normal 0.12663 0.99195 0
    outer loop
      vertex 9.27359 22.8517 5e-05
      vertex 10.75 22.6632 15.2401
      vertex 10.75 22.6632 5e-05
    endloop
  endfacet
  facet normal -0.0406373 0.999174 0
    outer loop
      vertex 7.78643 22.7912 15.2401
      vertex 9.27359 22.8517 15.2401
      vertex 7.78643 22.7912 5e-05
    endloop
  endfacet
  facet normal -0.0406373 0.999174 0
    outer loop
      vertex 7.78643 22.7912 5e-05
      vertex 9.27359 22.8517 15.2401
      vertex 9.27359 22.8517 5e-05
    endloop
  endfacet
  facet normal -0.206763 0.978391 0
    outer loop
      vertex 6.33021 22.4835 15.2401
      vertex 7.78643 22.7912 15.2401
      vertex 6.33021 22.4835 5e-05
    endloop
  endfacet
  facet normal -0.206763 0.978391 0
    outer loop
      vertex 6.33021 22.4835 5e-05
      vertex 7.78643 22.7912 15.2401
      vertex 7.78643 22.7912 5e-05
    endloop
  endfacet
  facet normal -0.367097 0.930183 0
    outer loop
      vertex 4.94574 21.9371 15.2401
      vertex 6.33021 22.4835 15.2401
      vertex 4.94574 21.9371 5e-05
    endloop
  endfacet
  facet normal -0.367097 0.930183 0
    outer loop
      vertex 4.94574 21.9371 5e-05
      vertex 6.33021 22.4835 15.2401
      vertex 6.33021 22.4835 5e-05
    endloop
  endfacet
  facet normal -0.517138 0.855902 0
    outer loop
      vertex 3.67182 21.1674 15.2401
      vertex 4.94574 21.9371 15.2401
      vertex 3.67182 21.1674 5e-05
    endloop
  endfacet
  facet normal -0.517138 0.855902 0
    outer loop
      vertex 3.67182 21.1674 5e-05
      vertex 4.94574 21.9371 15.2401
      vertex 4.94574 21.9371 5e-05
    endloop
  endfacet
  facet normal -0.652685 0.75763 0
    outer loop
      vertex 2.54418 20.196 15.2401
      vertex 3.67182 21.1674 15.2401
      vertex 2.54418 20.196 5e-05
    endloop
  endfacet
  facet normal -0.652685 0.75763 0
    outer loop
      vertex 2.54418 20.196 5e-05
      vertex 3.67182 21.1674 15.2401
      vertex 3.67182 21.1674 5e-05
    endloop
  endfacet
  facet normal -0.769936 0.638122 0
    outer loop
      vertex 1.59441 19.05 15.2401
      vertex 2.54418 20.196 15.2401
      vertex 1.59441 19.05 5e-05
    endloop
  endfacet
  facet normal -0.769936 0.638122 0
    outer loop
      vertex 1.59441 19.05 5e-05
      vertex 2.54418 20.196 15.2401
      vertex 2.54418 20.196 5e-05
    endloop
  endfacet
  facet normal -0.865606 0.500726 0
    outer loop
      vertex 0.849136 17.7616 15.2401
      vertex 1.59441 19.05 15.2401
      vertex 0.849136 17.7616 5e-05
    endloop
  endfacet
  facet normal -0.865606 0.500726 0
    outer loop
      vertex 0.849136 17.7616 5e-05
      vertex 1.59441 19.05 15.2401
      vertex 1.59441 19.05 5e-05
    endloop
  endfacet
  facet normal -0.937012 0.349296 0
    outer loop
      vertex 0.329248 16.367 15.2401
      vertex 0.849136 17.7616 15.2401
      vertex 0.329248 16.367 5e-05
    endloop
  endfacet
  facet normal -0.937012 0.349296 0
    outer loop
      vertex 0.329248 16.367 5e-05
      vertex 0.849136 17.7616 15.2401
      vertex 0.849136 17.7616 5e-05
    endloop
  endfacet
  facet normal -0.982155 0.188071 0
    outer loop
      vertex 0.049326 14.9052 15.2401
      vertex 0.329248 16.367 15.2401
      vertex 0.049326 14.9052 5e-05
    endloop
  endfacet
  facet normal -0.982155 0.188071 0
    outer loop
      vertex 0.049326 14.9052 5e-05
      vertex 0.329248 16.367 15.2401
      vertex 0.329248 16.367 5e-05
    endloop
  endfacet
  facet normal 0.999767 -0.0215749 0
    outer loop
      vertex 3.05931 13.6067 5e-05
      vertex 3.08041 14.5845 5e-05
      vertex 3.08041 14.5845 15.2401
    endloop
  endfacet
  facet normal 0.999767 -0.0215749 0
    outer loop
      vertex 3.05931 13.6067 15.2401
      vertex 3.05931 13.6067 5e-05
      vertex 3.08041 14.5845 15.2401
    endloop
  endfacet
  facet normal 0.989356 0.145517 0
    outer loop
      vertex 3.05931 13.6067 5e-05
      vertex 3.05931 13.6067 15.2401
      vertex 3.20164 12.639 15.2401
    endloop
  endfacet
  facet normal 0.989356 0.145517 0
    outer loop
      vertex 3.20164 12.639 5e-05
      vertex 3.05931 13.6067 5e-05
      vertex 3.20164 12.639 15.2401
    endloop
  endfacet
  facet normal 0.982155 -0.188074 0
    outer loop
      vertex 3.08041 14.5845 5e-05
      vertex 3.26436 15.5452 5e-05
      vertex 3.26436 15.5452 15.2401
    endloop
  endfacet
  facet normal 0.982155 -0.188074 0
    outer loop
      vertex 3.08041 14.5845 15.2401
      vertex 3.08041 14.5845 5e-05
      vertex 3.26436 15.5452 15.2401
    endloop
  endfacet
  facet normal 0.937013 -0.349294 0
    outer loop
      vertex 3.26436 15.5452 5e-05
      vertex 3.606 16.4617 5e-05
      vertex 3.606 16.4617 15.2401
    endloop
  endfacet
  facet normal 0.937013 -0.349294 0
    outer loop
      vertex 3.26436 15.5452 15.2401
      vertex 3.26436 15.5452 5e-05
      vertex 3.606 16.4617 15.2401
    endloop
  endfacet
  facet normal 0.865605 -0.500728 0
    outer loop
      vertex 3.606 16.4617 5e-05
      vertex 4.09576 17.3083 5e-05
      vertex 4.09576 17.3083 15.2401
    endloop
  endfacet
  facet normal 0.865605 -0.500728 0
    outer loop
      vertex 3.606 16.4617 15.2401
      vertex 3.606 16.4617 5e-05
      vertex 4.09576 17.3083 15.2401
    endloop
  endfacet
  facet normal 0.76994 -0.638116 0
    outer loop
      vertex 4.09576 17.3083 5e-05
      vertex 4.71989 18.0614 5e-05
      vertex 4.71989 18.0614 15.2401
    endloop
  endfacet
  facet normal 0.76994 -0.638116 0
    outer loop
      vertex 4.09576 17.3083 15.2401
      vertex 4.09576 17.3083 5e-05
      vertex 4.71989 18.0614 15.2401
    endloop
  endfacet
  facet normal 0.652682 -0.757632 0
    outer loop
      vertex 4.71989 18.0614 5e-05
      vertex 5.46091 18.6997 5e-05
      vertex 5.46091 18.6997 15.2401
    endloop
  endfacet
  facet normal 0.652682 -0.757632 0
    outer loop
      vertex 4.71989 18.0614 15.2401
      vertex 4.71989 18.0614 5e-05
      vertex 5.46091 18.6997 15.2401
    endloop
  endfacet
  facet normal 0.517138 -0.855902 0
    outer loop
      vertex 5.46091 18.6997 5e-05
      vertex 6.29805 19.2055 5e-05
      vertex 6.29805 19.2055 15.2401
    endloop
  endfacet
  facet normal 0.517138 -0.855902 0
    outer loop
      vertex 5.46091 18.6997 15.2401
      vertex 5.46091 18.6997 5e-05
      vertex 6.29805 19.2055 15.2401
    endloop
  endfacet
  facet normal 0.367095 -0.930183 0
    outer loop
      vertex 6.29805 19.2055 5e-05
      vertex 7.20785 19.5646 5e-05
      vertex 7.20785 19.5646 15.2401
    endloop
  endfacet
  facet normal 0.367095 -0.930183 0
    outer loop
      vertex 6.29805 19.2055 15.2401
      vertex 6.29805 19.2055 5e-05
      vertex 7.20785 19.5646 15.2401
    endloop
  endfacet
  facet normal 0.206766 -0.97839 0
    outer loop
      vertex 7.20785 19.5646 5e-05
      vertex 8.1648 19.7668 5e-05
      vertex 8.1648 19.7668 15.2401
    endloop
  endfacet
  facet normal 0.206766 -0.97839 0
    outer loop
      vertex 7.20785 19.5646 15.2401
      vertex 7.20785 19.5646 5e-05
      vertex 8.1648 19.7668 15.2401
    endloop
  endfacet
  facet normal 0.0406367 -0.999174 0
    outer loop
      vertex 8.1648 19.7668 5e-05
      vertex 9.14207 19.8066 5e-05
      vertex 9.14207 19.8066 15.2401
    endloop
  endfacet
  facet normal 0.0406367 -0.999174 0
    outer loop
      vertex 8.1648 19.7668 15.2401
      vertex 8.1648 19.7668 5e-05
      vertex 9.14207 19.8066 15.2401
    endloop
  endfacet
  facet normal -0.126631 -0.99195 0
    outer loop
      vertex 9.14207 19.8066 5e-05
      vertex 10.1123 19.6827 5e-05
      vertex 10.1123 19.6827 15.2401
    endloop
  endfacet
  facet normal -0.126631 -0.99195 0
    outer loop
      vertex 9.14207 19.8066 15.2401
      vertex 9.14207 19.8066 5e-05
      vertex 10.1123 19.6827 15.2401
    endloop
  endfacet
  facet normal -0.290346 -0.956922 0
    outer loop
      vertex 10.1123 19.6827 5e-05
      vertex 11.0482 19.3987 5e-05
      vertex 11.0482 19.3987 15.2401
    endloop
  endfacet
  facet normal -0.290346 -0.956922 0
    outer loop
      vertex 10.1123 19.6827 15.2401
      vertex 10.1123 19.6827 5e-05
      vertex 11.0482 19.3987 15.2401
    endloop
  endfacet
  facet normal -0.445926 -0.89507 0
    outer loop
      vertex 11.0482 19.3987 5e-05
      vertex 11.9237 18.9626 5e-05
      vertex 11.9237 18.9626 15.2401
    endloop
  endfacet
  facet normal -0.445926 -0.89507 0
    outer loop
      vertex 11.0482 19.3987 15.2401
      vertex 11.0482 19.3987 5e-05
      vertex 11.9237 18.9626 15.2401
    endloop
  endfacet
  facet normal -0.519288 -0.854599 0
    outer loop
      vertex 11.9237 18.9626 5e-05
      vertex 29.7543 8.128 5e-05
      vertex 29.7543 8.128 15.2401
    endloop
  endfacet
  facet normal -0.519288 -0.854599 0
    outer loop
      vertex 11.9237 18.9626 15.2401
      vertex 11.9237 18.9626 5e-05
      vertex 29.7543 8.128 15.2401
    endloop
  endfacet
  facet normal 0 1 0
    outer loop
      vertex 8.89 8.128 15.2401
      vertex 27.9018 8.128 15.2401
      vertex 8.89 8.128 5e-05
    endloop
  endfacet
  facet normal 0 1 0
    outer loop
      vertex 26.1057 8.128 26.0164
      vertex 27.9018 8.128 15.2401
      vertex 17.1255 8.128 26.0164
    endloop
  endfacet
  facet normal 0 1 0
    outer loop
      vertex 40.64 8.128 20.4623
      vertex 27.9018 8.128 15.2401
      vertex 26.1057 8.128 34.9966
    endloop
  endfacet
  facet normal 0 1 0
    outer loop
      vertex 27.9018 8.128 15.2401
      vertex 26.1057 8.128 26.0164
      vertex 26.1057 8.128 34.9966
    endloop
  endfacet
  facet normal 0 1 0
    outer loop
      vertex 29.7543 8.128 15.2401
      vertex 27.9018 8.128 15.2401
      vertex 40.64 8.128 20.4623
    endloop
  endfacet
  facet normal 0 1 0
    outer loop
      vertex 55.1743 8.128 26.0164
      vertex 40.64 8.128 20.4623
      vertex 55.1743 8.128 34.9966
    endloop
  endfacet
  facet normal 0 1 0
    outer loop
      vertex 51.5257 8.128 15.2401
      vertex 64.1545 8.128 26.0164
      vertex 53.3782 8.128 15.2401
    endloop
  endfacet
  facet normal 0 1 0
    outer loop
      vertex 29.7543 8.128 15.2401
      vertex 55.1743 8.128 26.0164
      vertex 64.1545 8.128 26.0164
    endloop
  endfacet
  facet normal 0 1 0
    outer loop
      vertex 51.5257 8.128 5e-05
      vertex 72.39 8.128 15.2401
      vertex 72.39 8.128 5e-05
    endloop
  endfacet
  facet normal 0 1 0
    outer loop
      vertex 29.7543 8.128 15.2401
      vertex 40.64 8.128 20.4623
      vertex 55.1743 8.128 26.0164
    endloop
  endfacet
  facet normal 0 1 0
    outer loop
      vertex 8.89 8.128 5e-05
      vertex 27.9018 8.128 15.2401
      vertex 29.7543 8.128 15.2401
    endloop
  endfacet
  facet normal 0 1 0
    outer loop
      vertex 29.7543 8.128 5e-05
      vertex 8.89 8.128 5e-05
      vertex 29.7543 8.128 15.2401
    endloop
  endfacet
  facet normal 0 1 0
    outer loop
      vertex 29.7543 8.128 15.2401
      vertex 64.1545 8.128 26.0164
      vertex 51.5257 8.128 15.2401
    endloop
  endfacet
  facet normal 0 1 0
    outer loop
      vertex 53.3782 8.128 15.2401
      vertex 72.39 8.128 15.2401
      vertex 51.5257 8.128 5e-05
    endloop
  endfacet
  facet normal 0 1 0
    outer loop
      vertex 51.5257 8.128 15.2401
      vertex 53.3782 8.128 15.2401
      vertex 51.5257 8.128 5e-05
    endloop
  endfacet
  facet normal 0.0837129 0.99649 0
    outer loop
      vertex 7.91535 8.20988 15.2401
      vertex 8.89 8.128 15.2401
      vertex 7.91535 8.20988 5e-05
    endloop
  endfacet
  facet normal 0.0837129 0.99649 0
    outer loop
      vertex 7.91535 8.20988 5e-05
      vertex 8.89 8.128 15.2401
      vertex 8.89 8.128 5e-05
    endloop
  endfacet
  facet normal 0.248785 0.968559 0
    outer loop
      vertex 6.96802 8.45321 15.2401
      vertex 7.91535 8.20988 15.2401
      vertex 6.96802 8.45321 5e-05
    endloop
  endfacet
  facet normal 0.248785 0.968559 0
    outer loop
      vertex 6.96802 8.45321 5e-05
      vertex 7.91535 8.20988 15.2401
      vertex 7.91535 8.20988 5e-05
    endloop
  endfacet
  facet normal 0.40689 0.913477 0
    outer loop
      vertex 6.07457 8.85118 15.2401
      vertex 6.96802 8.45321 15.2401
      vertex 6.07457 8.85118 5e-05
    endloop
  endfacet
  facet normal 0.40689 0.913477 0
    outer loop
      vertex 6.07457 8.85118 5e-05
      vertex 6.96802 8.45321 15.2401
      vertex 6.96802 8.45321 5e-05
    endloop
  endfacet
  facet normal 0.553587 0.832791 0
    outer loop
      vertex 5.26003 9.39264 15.2401
      vertex 6.07457 8.85118 15.2401
      vertex 5.26003 9.39264 5e-05
    endloop
  endfacet
  facet normal 0.553587 0.832791 0
    outer loop
      vertex 5.26003 9.39264 5e-05
      vertex 6.07457 8.85118 15.2401
      vertex 6.07457 8.85118 5e-05
    endloop
  endfacet
  facet normal 0.684767 0.728762 0
    outer loop
      vertex 4.54724 10.0624 15.2401
      vertex 5.26003 9.39264 15.2401
      vertex 4.54724 10.0624 5e-05
    endloop
  endfacet
  facet normal 0.684767 0.728762 0
    outer loop
      vertex 4.54724 10.0624 5e-05
      vertex 5.26003 9.39264 15.2401
      vertex 5.26003 9.39264 5e-05
    endloop
  endfacet
  facet normal 0.796751 0.604307 0
    outer loop
      vertex 3.95618 10.8417 5e-05
      vertex 3.95618 10.8417 15.2401
      vertex 4.54724 10.0624 15.2401
    endloop
  endfacet
  facet normal 0.796751 0.604307 0
    outer loop
      vertex 4.54724 10.0624 5e-05
      vertex 3.95618 10.8417 5e-05
      vertex 4.54724 10.0624 15.2401
    endloop
  endfacet
  facet normal 0.886407 0.462906 0
    outer loop
      vertex 3.50342 11.7087 5e-05
      vertex 3.50342 11.7087 15.2401
      vertex 3.95618 10.8417 15.2401
    endloop
  endfacet
  facet normal 0.886407 0.462906 0
    outer loop
      vertex 3.95618 10.8417 5e-05
      vertex 3.50342 11.7087 5e-05
      vertex 3.95618 10.8417 15.2401
    endloop
  endfacet
  facet normal 0.951211 0.308541 0
    outer loop
      vertex 3.20164 12.639 5e-05
      vertex 3.20164 12.639 15.2401
      vertex 3.50342 11.7087 15.2401
    endloop
  endfacet
  facet normal 0.951211 0.308541 0
    outer loop
      vertex 3.50342 11.7087 5e-05
      vertex 3.20164 12.639 5e-05
      vertex 3.50342 11.7087 15.2401
    endloop
  endfacet
  facet normal 0.519288 -0.854599 0
    outer loop
      vertex 51.5257 8.128 5e-05
      vertex 69.3563 18.9626 5e-05
      vertex 69.3563 18.9626 15.2401
    endloop
  endfacet
  facet normal 0.519288 -0.854599 0
    outer loop
      vertex 51.5257 8.128 15.2401
      vertex 51.5257 8.128 5e-05
      vertex 69.3563 18.9626 15.2401
    endloop
  endfacet
  facet normal 0.445927 -0.89507 0
    outer loop
      vertex 69.3563 18.9626 5e-05
      vertex 70.2318 19.3987 5e-05
      vertex 70.2318 19.3987 15.2401
    endloop
  endfacet
  facet normal 0.445927 -0.89507 0
    outer loop
      vertex 69.3563 18.9626 15.2401
      vertex 69.3563 18.9626 5e-05
      vertex 70.2318 19.3987 15.2401
    endloop
  endfacet
  facet normal 0.290345 -0.956922 0
    outer loop
      vertex 70.2318 19.3987 5e-05
      vertex 71.1677 19.6827 5e-05
      vertex 71.1677 19.6827 15.2401
    endloop
  endfacet
  facet normal 0.290345 -0.956922 0
    outer loop
      vertex 70.2318 19.3987 15.2401
      vertex 70.2318 19.3987 5e-05
      vertex 71.1677 19.6827 15.2401
    endloop
  endfacet
  facet normal 0.126632 -0.99195 0
    outer loop
      vertex 71.1677 19.6827 5e-05
      vertex 72.1379 19.8066 5e-05
      vertex 72.1379 19.8066 15.2401
    endloop
  endfacet
  facet normal 0.126632 -0.99195 0
    outer loop
      vertex 71.1677 19.6827 15.2401
      vertex 71.1677 19.6827 5e-05
      vertex 72.1379 19.8066 15.2401
    endloop
  endfacet
  facet normal -0.0406371 -0.999174 0
    outer loop
      vertex 72.1379 19.8066 5e-05
      vertex 73.1152 19.7668 5e-05
      vertex 73.1152 19.7668 15.2401
    endloop
  endfacet
  facet normal -0.0406371 -0.999174 0
    outer loop
      vertex 72.1379 19.8066 15.2401
      vertex 72.1379 19.8066 5e-05
      vertex 73.1152 19.7668 15.2401
    endloop
  endfacet
  facet normal -0.206764 -0.978391 0
    outer loop
      vertex 73.1152 19.7668 5e-05
      vertex 74.0722 19.5646 5e-05
      vertex 74.0722 19.5646 15.2401
    endloop
  endfacet
  facet normal -0.206764 -0.978391 0
    outer loop
      vertex 73.1152 19.7668 15.2401
      vertex 73.1152 19.7668 5e-05
      vertex 74.0722 19.5646 15.2401
    endloop
  endfacet
  facet normal -0.367098 -0.930182 0
    outer loop
      vertex 74.0722 19.5646 5e-05
      vertex 74.9819 19.2055 5e-05
      vertex 74.9819 19.2055 15.2401
    endloop
  endfacet
  facet normal -0.367098 -0.930182 0
    outer loop
      vertex 74.0722 19.5646 15.2401
      vertex 74.0722 19.5646 5e-05
      vertex 74.9819 19.2055 15.2401
    endloop
  endfacet
  facet normal -0.517134 -0.855905 0
    outer loop
      vertex 74.9819 19.2055 5e-05
      vertex 75.8191 18.6997 5e-05
      vertex 75.8191 18.6997 15.2401
    endloop
  endfacet
  facet normal -0.517134 -0.855905 0
    outer loop
      vertex 74.9819 19.2055 15.2401
      vertex 74.9819 19.2055 5e-05
      vertex 75.8191 18.6997 15.2401
    endloop
  endfacet
  facet normal -0.652686 -0.757629 0
    outer loop
      vertex 75.8191 18.6997 5e-05
      vertex 76.5601 18.0614 5e-05
      vertex 76.5601 18.0614 15.2401
    endloop
  endfacet
  facet normal -0.652686 -0.757629 0
    outer loop
      vertex 75.8191 18.6997 15.2401
      vertex 75.8191 18.6997 5e-05
      vertex 76.5601 18.0614 15.2401
    endloop
  endfacet
  facet normal -0.76994 -0.638116 0
    outer loop
      vertex 77.1842 17.3083 5e-05
      vertex 77.1842 17.3083 15.2401
      vertex 76.5601 18.0614 5e-05
    endloop
  endfacet
  facet normal -0.76994 -0.638116 0
    outer loop
      vertex 76.5601 18.0614 5e-05
      vertex 77.1842 17.3083 15.2401
      vertex 76.5601 18.0614 15.2401
    endloop
  endfacet
  facet normal -0.865601 -0.500734 0
    outer loop
      vertex 77.674 16.4617 5e-05
      vertex 77.674 16.4617 15.2401
      vertex 77.1842 17.3083 5e-05
    endloop
  endfacet
  facet normal -0.865601 -0.500734 0
    outer loop
      vertex 77.1842 17.3083 5e-05
      vertex 77.674 16.4617 15.2401
      vertex 77.1842 17.3083 15.2401
    endloop
  endfacet
  facet normal -0.937014 -0.349293 0
    outer loop
      vertex 78.0156 15.5452 5e-05
      vertex 78.0156 15.5452 15.2401
      vertex 77.674 16.4617 5e-05
    endloop
  endfacet
  facet normal -0.937014 -0.349293 0
    outer loop
      vertex 77.674 16.4617 5e-05
      vertex 78.0156 15.5452 15.2401
      vertex 77.674 16.4617 15.2401
    endloop
  endfacet
  facet normal -0.982156 -0.188066 0
    outer loop
      vertex 78.1996 14.5845 5e-05
      vertex 78.1996 14.5845 15.2401
      vertex 78.0156 15.5452 5e-05
    endloop
  endfacet
  facet normal -0.982156 -0.188066 0
    outer loop
      vertex 78.0156 15.5452 5e-05
      vertex 78.1996 14.5845 15.2401
      vertex 78.0156 15.5452 15.2401
    endloop
  endfacet
  facet normal -0.999767 -0.0215851 0
    outer loop
      vertex 78.2207 13.6067 5e-05
      vertex 78.2207 13.6067 15.2401
      vertex 78.1996 14.5845 5e-05
    endloop
  endfacet
  facet normal -0.999767 -0.0215851 0
    outer loop
      vertex 78.1996 14.5845 5e-05
      vertex 78.2207 13.6067 15.2401
      vertex 78.1996 14.5845 15.2401
    endloop
  endfacet
  facet normal -0.989355 0.145523 0
    outer loop
      vertex 78.0784 12.639 15.2401
      vertex 78.2207 13.6067 15.2401
      vertex 78.0784 12.639 5e-05
    endloop
  endfacet
  facet normal -0.989355 0.145523 0
    outer loop
      vertex 78.0784 12.639 5e-05
      vertex 78.2207 13.6067 15.2401
      vertex 78.2207 13.6067 5e-05
    endloop
  endfacet
  facet normal -0.95121 0.308544 0
    outer loop
      vertex 77.7766 11.7087 15.2401
      vertex 78.0784 12.639 15.2401
      vertex 77.7766 11.7087 5e-05
    endloop
  endfacet
  facet normal -0.95121 0.308544 0
    outer loop
      vertex 77.7766 11.7087 5e-05
      vertex 78.0784 12.639 15.2401
      vertex 78.0784 12.639 5e-05
    endloop
  endfacet
  facet normal -0.886408 0.462905 0
    outer loop
      vertex 77.3238 10.8417 15.2401
      vertex 77.7766 11.7087 15.2401
      vertex 77.3238 10.8417 5e-05
    endloop
  endfacet
  facet normal -0.886408 0.462905 0
    outer loop
      vertex 77.3238 10.8417 5e-05
      vertex 77.7766 11.7087 15.2401
      vertex 77.7766 11.7087 5e-05
    endloop
  endfacet
  facet normal -0.796754 0.604303 0
    outer loop
      vertex 76.7328 10.0624 15.2401
      vertex 77.3238 10.8417 15.2401
      vertex 76.7328 10.0624 5e-05
    endloop
  endfacet
  facet normal -0.796754 0.604303 0
    outer loop
      vertex 76.7328 10.0624 5e-05
      vertex 77.3238 10.8417 15.2401
      vertex 77.3238 10.8417 5e-05
    endloop
  endfacet
  facet normal -0.684766 0.728763 0
    outer loop
      vertex 76.02 9.39264 15.2401
      vertex 76.7328 10.0624 15.2401
      vertex 76.02 9.39264 5e-05
    endloop
  endfacet
  facet normal -0.684766 0.728763 0
    outer loop
      vertex 76.02 9.39264 5e-05
      vertex 76.7328 10.0624 15.2401
      vertex 76.7328 10.0624 5e-05
    endloop
  endfacet
  facet normal -0.553585 0.832793 0
    outer loop
      vertex 75.2054 8.85118 15.2401
      vertex 76.02 9.39264 15.2401
      vertex 75.2054 8.85118 5e-05
    endloop
  endfacet
  facet normal -0.553585 0.832793 0
    outer loop
      vertex 75.2054 8.85118 5e-05
      vertex 76.02 9.39264 15.2401
      vertex 76.02 9.39264 5e-05
    endloop
  endfacet
  facet normal -0.406893 0.913476 0
    outer loop
      vertex 74.312 8.45321 15.2401
      vertex 75.2054 8.85118 15.2401
      vertex 74.312 8.45321 5e-05
    endloop
  endfacet
  facet normal -0.406893 0.913476 0
    outer loop
      vertex 74.312 8.45321 5e-05
      vertex 75.2054 8.85118 15.2401
      vertex 75.2054 8.85118 5e-05
    endloop
  endfacet
  facet normal -0.248783 0.968559 0
    outer loop
      vertex 73.3646 8.20988 15.2401
      vertex 74.312 8.45321 15.2401
      vertex 73.3646 8.20988 5e-05
    endloop
  endfacet
  facet normal -0.248783 0.968559 0
    outer loop
      vertex 73.3646 8.20988 5e-05
      vertex 74.312 8.45321 15.2401
      vertex 74.312 8.45321 5e-05
    endloop
  endfacet
  facet normal -0.0837137 0.99649 0
    outer loop
      vertex 72.39 8.128 15.2401
      vertex 73.3646 8.20988 15.2401
      vertex 72.39 8.128 5e-05
    endloop
  endfacet
  facet normal -0.0837137 0.99649 0
    outer loop
      vertex 72.39 8.128 5e-05
      vertex 73.3646 8.20988 15.2401
      vertex 73.3646 8.20988 5e-05
    endloop
  endfacet
  facet normal -0.707107 0 -0.707107
    outer loop
      vertex 17.1255 8.128 26.0164
      vertex 27.9018 8.128 15.2401
      vertex 17.1255 5.08 26.0164
    endloop
  endfacet
  facet normal -0.707107 0 -0.707107
    outer loop
      vertex 17.1255 5.08 26.0164
      vertex 27.9018 8.128 15.2401
      vertex 27.9018 5.08 15.2401
    endloop
  endfacet
  facet normal 0 0 1
    outer loop
      vertex 17.1255 5.08 26.0164
      vertex 26.1057 5.08 26.0164
      vertex 26.1057 8.128 26.0164
    endloop
  endfacet
  facet normal 0 0 1
    outer loop
      vertex 17.1255 8.128 26.0164
      vertex 17.1255 5.08 26.0164
      vertex 26.1057 8.128 26.0164
    endloop
  endfacet
  facet normal -1 0 0
    outer loop
      vertex 26.1057 5.08 34.9966
      vertex 26.1057 8.128 34.9966
      vertex 26.1057 5.08 26.0164
    endloop
  endfacet
  facet normal -1 0 0
    outer loop
      vertex 26.1057 5.08 26.0164
      vertex 26.1057 8.128 34.9966
      vertex 26.1057 8.128 26.0164
    endloop
  endfacet
  facet normal 0.707107 0 0.707107
    outer loop
      vertex 26.1057 5.08 34.9966
      vertex 40.64 5.08 20.4623
      vertex 40.64 8.128 20.4623
    endloop
  endfacet
  facet normal 0.707107 0 0.707107
    outer loop
      vertex 26.1057 8.128 34.9966
      vertex 26.1057 5.08 34.9966
      vertex 40.64 8.128 20.4623
    endloop
  endfacet
  facet normal -0.707107 0 0.707107
    outer loop
      vertex 40.64 5.08 20.4623
      vertex 55.1743 5.08 34.9966
      vertex 55.1743 8.128 34.9966
    endloop
  endfacet
  facet normal -0.707107 0 0.707107
    outer loop
      vertex 40.64 8.128 20.4623
      vertex 40.64 5.08 20.4623
      vertex 55.1743 8.128 34.9966
    endloop
  endfacet
  facet normal 1 0 0
    outer loop
      vertex 55.1743 5.08 26.0164
      vertex 55.1743 8.128 26.0164
      vertex 55.1743 8.128 34.9966
    endloop
  endfacet
  facet normal 1 0 0
    outer loop
      vertex 55.1743 5.08 34.9966
      vertex 55.1743 5.08 26.0164
      vertex 55.1743 8.128 34.9966
    endloop
  endfacet
  facet normal 0 0 1
    outer loop
      vertex 55.1743 5.08 26.0164
      vertex 64.1545 5.08 26.0164
      vertex 64.1545 8.128 26.0164
    endloop
  endfacet
  facet normal 0 0 1
    outer loop
      vertex 55.1743 8.128 26.0164
      vertex 55.1743 5.08 26.0164
      vertex 64.1545 8.128 26.0164
    endloop
  endfacet
  facet normal 0.707107 0 -0.707107
    outer loop
      vertex 53.3782 5.08 15.2401
      vertex 53.3782 8.128 15.2401
      vertex 64.1545 8.128 26.0164
    endloop
  endfacet
  facet normal 0.707107 0 -0.707107
    outer loop
      vertex 64.1545 5.08 26.0164
      vertex 53.3782 5.08 15.2401
      vertex 64.1545 8.128 26.0164
    endloop
  endfacet
  facet normal 0 0 1
    outer loop
      vertex 33.02 0 15.2401
      vertex 48.26 0 15.2401
      vertex 48.26 5.08 15.2401
    endloop
  endfacet
  facet normal 0 0 1
    outer loop
      vertex 33.02 5.08 15.2401
      vertex 33.02 0 15.2401
      vertex 48.26 5.08 15.2401
    endloop
  endfacet
endsolid OpenSCAD_Model
