solid OpenSCAD_Model
  facet normal 0 -2.22045e-16 -1
    outer loop
      vertex 0 -32.004 7.10632e-15
      vertex 0 -21.844 4.85034e-15
      vertex 1.524 -32.004 7.10632e-15
    endloop
  endfacet
  facet normal 0 -2.22045e-16 -1
    outer loop
      vertex 1.524 -32.004 7.10632e-15
      vertex 0 -21.844 4.85034e-15
      vertex 1.524 -21.844 4.85034e-15
    endloop
  endfacet
  facet normal 0 -2.22045e-16 -1
    outer loop
      vertex 1.524 -21.844 4.85034e-15
      vertex 1.524 -4.064 9.02389e-16
      vertex 1.56259 -3.62293 8.04453e-16
    endloop
  endfacet
  facet normal 0 -2.22045e-16 -1
    outer loop
      vertex 1.524 -21.844 4.85034e-15
      vertex 1.56259 -3.62293 8.04453e-16
      vertex 1.524 -32.004 7.10632e-15
    endloop
  endfacet
  facet normal 0 -2.22045e-16 -1
    outer loop
      vertex 1.524 -32.004 7.10632e-15
      vertex 1.56259 -3.62293 8.04453e-16
      vertex 1.67718 -3.19527 7.09493e-16
    endloop
  endfacet
  facet normal 0 -2.22045e-16 -1
    outer loop
      vertex 1.524 -32.004 7.10632e-15
      vertex 1.67718 -3.19527 7.09493e-16
      vertex 1.86429 -2.794 6.20393e-16
    endloop
  endfacet
  facet normal 0 -2.22045e-16 -1
    outer loop
      vertex 1.524 -32.004 7.10632e-15
      vertex 1.86429 -2.794 6.20393e-16
      vertex 2.11825 -2.43132 5.39862e-16
    endloop
  endfacet
  facet normal 0 -2.22045e-16 -1
    outer loop
      vertex 1.524 -32.004 7.10632e-15
      vertex 2.11825 -2.43132 5.39862e-16
      vertex 2.43132 -2.11825 4.70346e-16
    endloop
  endfacet
  facet normal 0 -2.22045e-16 -1
    outer loop
      vertex 1.524 -32.004 7.10632e-15
      vertex 2.43132 -2.11825 4.70346e-16
      vertex 2.794 -1.86429 4.13957e-16
    endloop
  endfacet
  facet normal 0 -2.22045e-16 -1
    outer loop
      vertex 1.524 -32.004 7.10632e-15
      vertex 2.794 -1.86429 4.13957e-16
      vertex 3.19527 -1.67718 3.72409e-16
    endloop
  endfacet
  facet normal 0 -2.22045e-16 -1
    outer loop
      vertex 1.524 -32.004 7.10632e-15
      vertex 3.19527 -1.67718 3.72409e-16
      vertex 3.62293 -1.56259 3.46964e-16
    endloop
  endfacet
  facet normal 0 -2.22045e-16 -1
    outer loop
      vertex 1.524 -32.004 7.10632e-15
      vertex 3.62293 -1.56259 3.46964e-16
      vertex 4.064 -1.524 3.38396e-16
    endloop
  endfacet
  facet normal 0 -2.22045e-16 -1
    outer loop
      vertex 1.524 -32.004 7.10632e-15
      vertex 4.064 -1.524 3.38396e-16
      vertex 21.844 -1.524 3.38396e-16
    endloop
  endfacet
  facet normal 0 -2.22045e-16 -1
    outer loop
      vertex 21.844 -1.524 3.38396e-16
      vertex 21.844 0 0
      vertex 32.004 0 0
    endloop
  endfacet
  facet normal 0 -2.22045e-16 -1
    outer loop
      vertex 21.844 -1.524 3.38396e-16
      vertex 32.004 0 0
      vertex 1.524 -32.004 7.10632e-15
    endloop
  endfacet
  facet normal 0 -2.22045e-16 -1
    outer loop
      vertex 1.524 -32.004 7.10632e-15
      vertex 32.004 0 0
      vertex 32.004 -1.524 3.38396e-16
    endloop
  endfacet
  facet normal 0 -2.22045e-16 -1
    outer loop
      vertex 1.524 -32.004 7.10632e-15
      vertex 32.004 -1.524 3.38396e-16
      vertex 49.784 -1.524 3.38396e-16
    endloop
  endfacet
  facet normal 0 -2.22045e-16 -1
    outer loop
      vertex 1.524 -32.004 7.10632e-15
      vertex 49.784 -1.524 3.38396e-16
      vertex 50.2251 -1.56259 3.46964e-16
    endloop
  endfacet
  facet normal 0 -2.22045e-16 -1
    outer loop
      vertex 1.524 -32.004 7.10632e-15
      vertex 50.2251 -1.56259 3.46964e-16
      vertex 50.6527 -1.67718 3.72409e-16
    endloop
  endfacet
  facet normal 0 -2.22045e-16 -1
    outer loop
      vertex 1.524 -32.004 7.10632e-15
      vertex 50.6527 -1.67718 3.72409e-16
      vertex 51.054 -1.86429 4.13957e-16
    endloop
  endfacet
  facet normal 0 -2.22045e-16 -1
    outer loop
      vertex 1.524 -32.004 7.10632e-15
      vertex 51.054 -1.86429 4.13957e-16
      vertex 51.4167 -2.11825 4.70346e-16
    endloop
  endfacet
  facet normal 0 -2.22045e-16 -1
    outer loop
      vertex 1.524 -32.004 7.10632e-15
      vertex 51.4167 -2.11825 4.70346e-16
      vertex 51.7298 -2.43132 5.39862e-16
    endloop
  endfacet
  facet normal 0 -2.22045e-16 -1
    outer loop
      vertex 1.524 -32.004 7.10632e-15
      vertex 51.7298 -2.43132 5.39862e-16
      vertex 51.9837 -2.794 6.20393e-16
    endloop
  endfacet
  facet normal 0 -2.22045e-16 -1
    outer loop
      vertex 1.524 -32.004 7.10632e-15
      vertex 51.9837 -2.794 6.20393e-16
      vertex 52.1708 -3.19527 7.09493e-16
    endloop
  endfacet
  facet normal 0 -2.22045e-16 -1
    outer loop
      vertex 1.524 -32.004 7.10632e-15
      vertex 52.1708 -3.19527 7.09493e-16
      vertex 52.2854 -3.62293 8.04453e-16
    endloop
  endfacet
  facet normal 0 -2.22045e-16 -1
    outer loop
      vertex 1.524 -32.004 7.10632e-15
      vertex 52.2854 -3.62293 8.04453e-16
      vertex 52.324 -4.064 9.02389e-16
    endloop
  endfacet
  facet normal 0 -2.22045e-16 -1
    outer loop
      vertex 1.524 -32.004 7.10632e-15
      vertex 52.324 -4.064 9.02389e-16
      vertex 52.324 -21.844 4.85034e-15
    endloop
  endfacet
  facet normal 0 -2.22045e-16 -1
    outer loop
      vertex 1.524 -32.004 7.10632e-15
      vertex 52.324 -21.844 4.85034e-15
      vertex 53.848 -21.844 4.85034e-15
    endloop
  endfacet
  facet normal 0 -2.22045e-16 -1
    outer loop
      vertex 52.324 -32.004 7.10632e-15
      vertex 53.848 -21.844 4.85034e-15
      vertex 53.848 -32.004 7.10632e-15
    endloop
  endfacet
  facet normal 0 -2.22045e-16 -1
    outer loop
      vertex 1.524 -32.004 7.10632e-15
      vertex 53.848 -21.844 4.85034e-15
      vertex 52.324 -32.004 7.10632e-15
    endloop
  endfacet
  facet normal 0 -2.22045e-16 -1
    outer loop
      vertex 4.064 -52.324 1.16183e-14
      vertex 1.524 -32.004 7.10632e-15
      vertex 21.844 -52.324 1.16183e-14
    endloop
  endfacet
  facet normal 0 -2.22045e-16 -1
    outer loop
      vertex 52.324 -32.004 7.10632e-15
      vertex 52.324 -49.784 1.10543e-14
      vertex 1.524 -32.004 7.10632e-15
    endloop
  endfacet
  facet normal 0 -2.22045e-16 -1
    outer loop
      vertex 32.004 -53.848 1.19567e-14
      vertex 21.844 -53.848 1.19567e-14
      vertex 21.844 -52.324 1.16183e-14
    endloop
  endfacet
  facet normal 0 -2.22045e-16 -1
    outer loop
      vertex 1.524 -32.004 7.10632e-15
      vertex 52.324 -49.784 1.10543e-14
      vertex 52.2854 -50.2251 1.11522e-14
    endloop
  endfacet
  facet normal 0 -2.22045e-16 -1
    outer loop
      vertex 1.524 -32.004 7.10632e-15
      vertex 52.2854 -50.2251 1.11522e-14
      vertex 52.1708 -50.6527 1.12472e-14
    endloop
  endfacet
  facet normal 0 -2.22045e-16 -1
    outer loop
      vertex 1.524 -32.004 7.10632e-15
      vertex 52.1708 -50.6527 1.12472e-14
      vertex 51.9837 -51.054 1.13363e-14
    endloop
  endfacet
  facet normal 0 -2.22045e-16 -1
    outer loop
      vertex 1.524 -32.004 7.10632e-15
      vertex 51.9837 -51.054 1.13363e-14
      vertex 51.7298 -51.4167 1.14168e-14
    endloop
  endfacet
  facet normal 0 -2.22045e-16 -1
    outer loop
      vertex 1.524 -32.004 7.10632e-15
      vertex 51.7298 -51.4167 1.14168e-14
      vertex 51.4167 -51.7298 1.14863e-14
    endloop
  endfacet
  facet normal 0 -2.22045e-16 -1
    outer loop
      vertex 1.524 -32.004 7.10632e-15
      vertex 51.4167 -51.7298 1.14863e-14
      vertex 51.054 -51.9837 1.15427e-14
    endloop
  endfacet
  facet normal 0 -2.22045e-16 -1
    outer loop
      vertex 1.524 -32.004 7.10632e-15
      vertex 51.054 -51.9837 1.15427e-14
      vertex 50.6527 -52.1708 1.15842e-14
    endloop
  endfacet
  facet normal 0 -2.22045e-16 -1
    outer loop
      vertex 1.524 -32.004 7.10632e-15
      vertex 50.6527 -52.1708 1.15842e-14
      vertex 50.2251 -52.2854 1.16097e-14
    endloop
  endfacet
  facet normal 0 -2.22045e-16 -1
    outer loop
      vertex 1.524 -32.004 7.10632e-15
      vertex 50.2251 -52.2854 1.16097e-14
      vertex 49.784 -52.324 1.16183e-14
    endloop
  endfacet
  facet normal 0 -2.22045e-16 -1
    outer loop
      vertex 1.524 -32.004 7.10632e-15
      vertex 49.784 -52.324 1.16183e-14
      vertex 32.004 -52.324 1.16183e-14
    endloop
  endfacet
  facet normal 0 -2.22045e-16 -1
    outer loop
      vertex 1.524 -32.004 7.10632e-15
      vertex 32.004 -52.324 1.16183e-14
      vertex 32.004 -53.848 1.19567e-14
    endloop
  endfacet
  facet normal 0 -2.22045e-16 -1
    outer loop
      vertex 1.524 -32.004 7.10632e-15
      vertex 32.004 -53.848 1.19567e-14
      vertex 21.844 -52.324 1.16183e-14
    endloop
  endfacet
  facet normal 0 -2.22045e-16 -1
    outer loop
      vertex 1.524 -32.004 7.10632e-15
      vertex 4.064 -52.324 1.16183e-14
      vertex 3.62293 -52.2854 1.16097e-14
    endloop
  endfacet
  facet normal 0 -2.22045e-16 -1
    outer loop
      vertex 1.524 -32.004 7.10632e-15
      vertex 3.62293 -52.2854 1.16097e-14
      vertex 3.19527 -52.1708 1.15842e-14
    endloop
  endfacet
  facet normal 0 -2.22045e-16 -1
    outer loop
      vertex 1.524 -32.004 7.10632e-15
      vertex 3.19527 -52.1708 1.15842e-14
      vertex 2.794 -51.9837 1.15427e-14
    endloop
  endfacet
  facet normal 0 -2.22045e-16 -1
    outer loop
      vertex 1.524 -32.004 7.10632e-15
      vertex 2.794 -51.9837 1.15427e-14
      vertex 2.43132 -51.7298 1.14863e-14
    endloop
  endfacet
  facet normal 0 -2.22045e-16 -1
    outer loop
      vertex 1.524 -32.004 7.10632e-15
      vertex 2.43132 -51.7298 1.14863e-14
      vertex 2.11825 -51.4167 1.14168e-14
    endloop
  endfacet
  facet normal 0 -2.22045e-16 -1
    outer loop
      vertex 1.524 -32.004 7.10632e-15
      vertex 2.11825 -51.4167 1.14168e-14
      vertex 1.86429 -51.054 1.13363e-14
    endloop
  endfacet
  facet normal 0 -2.22045e-16 -1
    outer loop
      vertex 1.524 -32.004 7.10632e-15
      vertex 1.86429 -51.054 1.13363e-14
      vertex 1.67718 -50.6527 1.12472e-14
    endloop
  endfacet
  facet normal 0 -2.22045e-16 -1
    outer loop
      vertex 1.524 -32.004 7.10632e-15
      vertex 1.67718 -50.6527 1.12472e-14
      vertex 1.56259 -50.2251 1.11522e-14
    endloop
  endfacet
  facet normal 0 -2.22045e-16 -1
    outer loop
      vertex 1.524 -32.004 7.10632e-15
      vertex 1.56259 -50.2251 1.11522e-14
      vertex 1.524 -49.784 1.10543e-14
    endloop
  endfacet
  facet normal -1 0 0
    outer loop
      vertex 0 -32.004 7.10632e-15
      vertex 0 -32.004 9.65168
      vertex 0 -21.844 4.85034e-15
    endloop
  endfacet
  facet normal -1 0 0
    outer loop
      vertex 0 -21.844 4.85034e-15
      vertex 0 -32.004 9.65168
      vertex 0 -31.401 9.924
    endloop
  endfacet
  facet normal -1 0 0
    outer loop
      vertex 0 -21.844 4.85034e-15
      vertex 0 -31.401 9.924
      vertex 0 -30.6 10.407
    endloop
  endfacet
  facet normal -1 0 0
    outer loop
      vertex 0 -30.6 10.407
      vertex 0 -29.844 10.974
      vertex 0 -21.844 4.85034e-15
    endloop
  endfacet
  facet normal -1 0 0
    outer loop
      vertex 0 -29.844 10.974
      vertex 0 -29.142 11.625
      vertex 0 -21.844 4.85034e-15
    endloop
  endfacet
  facet normal -1 0 0
    outer loop
      vertex 0 -29.142 11.625
      vertex 0 -28.503 12.36
      vertex 0 -21.844 4.85034e-15
    endloop
  endfacet
  facet normal -1 0 0
    outer loop
      vertex 0 -28.503 12.36
      vertex 0 -27.927 13.158
      vertex 0 -21.844 4.85034e-15
    endloop
  endfacet
  facet normal -1 0 0
    outer loop
      vertex 0 -27.927 13.158
      vertex 0 -27.423 14.031
      vertex 0 -21.844 4.85034e-15
    endloop
  endfacet
  facet normal -1 0 0
    outer loop
      vertex 0 -27.423 14.031
      vertex 0 -26.991 14.943
      vertex 0 -21.844 4.85034e-15
    endloop
  endfacet
  facet normal -1 0 0
    outer loop
      vertex 0 -21.844 9
      vertex 0 -21.844 4.85034e-15
      vertex 0 -24.6003 9
    endloop
  endfacet
  facet normal -1 0 0
    outer loop
      vertex 0 -26.991 24.057
      vertex 0 -32.004 38.1
      vertex 0 -26.64 23.091
    endloop
  endfacet
  facet normal -1 0 0
    outer loop
      vertex 0 -27.423 24.969
      vertex 0 -32.004 38.1
      vertex 0 -26.991 24.057
    endloop
  endfacet
  facet normal -1 0 0
    outer loop
      vertex 0 -27.927 25.842
      vertex 0 -32.004 38.1
      vertex 0 -27.423 24.969
    endloop
  endfacet
  facet normal -1 0 0
    outer loop
      vertex 0 -28.503 26.64
      vertex 0 -32.004 38.1
      vertex 0 -27.927 25.842
    endloop
  endfacet
  facet normal -1 0 0
    outer loop
      vertex 0 -29.142 27.375
      vertex 0 -32.004 38.1
      vertex 0 -28.503 26.64
    endloop
  endfacet
  facet normal -1 0 0
    outer loop
      vertex 0 -29.844 28.026
      vertex 0 -32.004 38.1
      vertex 0 -29.142 27.375
    endloop
  endfacet
  facet normal -1 0 0
    outer loop
      vertex 0 -30.6 28.593
      vertex 0 -32.004 38.1
      vertex 0 -29.844 28.026
    endloop
  endfacet
  facet normal -1 0 0
    outer loop
      vertex 0 -31.401 29.076
      vertex 0 -32.004 29.3483
      vertex 0 -32.004 38.1
    endloop
  endfacet
  facet normal -1 0 0
    outer loop
      vertex 0 -31.401 29.076
      vertex 0 -32.004 38.1
      vertex 0 -30.6 28.593
    endloop
  endfacet
  facet normal -1 0 0
    outer loop
      vertex 0 -24.6003 30.0003
      vertex 0 -32.004 38.1
      vertex 0 -21.844 38.1
    endloop
  endfacet
  facet normal -1 0 0
    outer loop
      vertex 0 -24.6003 9
      vertex 0 -26.379 16.908
      vertex 0 -26.199 17.934
    endloop
  endfacet
  facet normal -1 0 0
    outer loop
      vertex 0 -24.6003 9
      vertex 0 -26.199 17.934
      vertex 0 -26.109 18.975
    endloop
  endfacet
  facet normal -1 0 0
    outer loop
      vertex 0 -26.64 23.091
      vertex 0 -32.004 38.1
      vertex 0 -24.6003 30.0003
    endloop
  endfacet
  facet normal -1 0 0
    outer loop
      vertex 0 -24.6003 9
      vertex 0 -26.64 15.909
      vertex 0 -26.379 16.908
    endloop
  endfacet
  facet normal -1 0 0
    outer loop
      vertex 0 -26.991 14.943
      vertex 0 -26.64 15.909
      vertex 0 -24.6003 9
    endloop
  endfacet
  facet normal -1 0 0
    outer loop
      vertex 0 -26.991 14.943
      vertex 0 -24.6003 9
      vertex 0 -21.844 4.85034e-15
    endloop
  endfacet
  facet normal -1 0 0
    outer loop
      vertex 0 -24.6003 30.0003
      vertex 0 -21.844 38.1
      vertex 0 -21.844 30.0003
    endloop
  endfacet
  facet normal -1 0 0
    outer loop
      vertex 0 -24.6003 9
      vertex 0 -26.109 18.975
      vertex 0 -26.109 20.025
    endloop
  endfacet
  facet normal -1 0 0
    outer loop
      vertex 0 -24.6003 9
      vertex 0 -26.109 20.025
      vertex 0 -26.199 21.066
    endloop
  endfacet
  facet normal -1 0 0
    outer loop
      vertex 0 -26.379 22.092
      vertex 0 -26.64 23.091
      vertex 0 -24.6003 30.0003
    endloop
  endfacet
  facet normal -1 0 0
    outer loop
      vertex 0 -26.199 21.066
      vertex 0 -26.379 22.092
      vertex 0 -24.6003 30.0003
    endloop
  endfacet
  facet normal -1 0 0
    outer loop
      vertex 0 -24.6003 9
      vertex 0 -26.199 21.066
      vertex 0 -24.6003 30.0003
    endloop
  endfacet
  facet normal 0 -1 2.22045e-16
    outer loop
      vertex 0 -32.004 9.65168
      vertex 0 -32.004 7.10632e-15
      vertex 1.524 -32.004 7.10632e-15
    endloop
  endfacet
  facet normal 0 -1 2.22045e-16
    outer loop
      vertex 1.524 -32.004 9.65168
      vertex 0 -32.004 9.65168
      vertex 1.524 -32.004 7.10632e-15
    endloop
  endfacet
  facet normal -1 0 0
    outer loop
      vertex 1.524 -43.92 21.579
      vertex 1.524 -49.784 1.10543e-14
      vertex 1.524 -43.704 22.599
    endloop
  endfacet
  facet normal -1 0 0
    outer loop
      vertex 1.524 -32.004 29.3483
      vertex 1.524 -49.784 38.1
      vertex 1.524 -32.004 38.1
    endloop
  endfacet
  facet normal -1 0 0
    outer loop
      vertex 1.524 -32.238 29.454
      vertex 1.524 -49.784 38.1
      vertex 1.524 -32.004 29.3483
    endloop
  endfacet
  facet normal -1 0 0
    outer loop
      vertex 1.524 -33.093 29.736
      vertex 1.524 -49.784 38.1
      vertex 1.524 -32.238 29.454
    endloop
  endfacet
  facet normal -1 0 0
    outer loop
      vertex 1.524 -33.984 29.916
      vertex 1.524 -49.784 38.1
      vertex 1.524 -33.093 29.736
    endloop
  endfacet
  facet normal -1 0 0
    outer loop
      vertex 1.524 -34.875 30
      vertex 1.524 -49.784 38.1
      vertex 1.524 -33.984 29.916
    endloop
  endfacet
  facet normal -1 0 0
    outer loop
      vertex 1.524 -35.775 29.97
      vertex 1.524 -49.784 38.1
      vertex 1.524 -34.875 30
    endloop
  endfacet
  facet normal -1 0 0
    outer loop
      vertex 1.524 -36.666 29.841
      vertex 1.524 -49.784 38.1
      vertex 1.524 -35.775 29.97
    endloop
  endfacet
  facet normal -1 0 0
    outer loop
      vertex 1.524 -37.539 29.61
      vertex 1.524 -49.784 38.1
      vertex 1.524 -36.666 29.841
    endloop
  endfacet
  facet normal -1 0 0
    outer loop
      vertex 1.524 -38.385 29.274
      vertex 1.524 -49.784 38.1
      vertex 1.524 -37.539 29.61
    endloop
  endfacet
  facet normal -1 0 0
    outer loop
      vertex 1.524 -39.204 28.845
      vertex 1.524 -49.784 38.1
      vertex 1.524 -38.385 29.274
    endloop
  endfacet
  facet normal -1 0 0
    outer loop
      vertex 1.524 -39.987 28.32
      vertex 1.524 -49.784 38.1
      vertex 1.524 -39.204 28.845
    endloop
  endfacet
  facet normal -1 0 0
    outer loop
      vertex 1.524 -40.707 27.711
      vertex 1.524 -49.784 38.1
      vertex 1.524 -39.987 28.32
    endloop
  endfacet
  facet normal -1 0 0
    outer loop
      vertex 1.524 -41.382 27.018
      vertex 1.524 -49.784 38.1
      vertex 1.524 -40.707 27.711
    endloop
  endfacet
  facet normal -1 0 0
    outer loop
      vertex 1.524 -41.994 26.25
      vertex 1.524 -49.784 38.1
      vertex 1.524 -41.382 27.018
    endloop
  endfacet
  facet normal -1 0 0
    outer loop
      vertex 1.524 -42.534 25.41
      vertex 1.524 -49.784 38.1
      vertex 1.524 -41.994 26.25
    endloop
  endfacet
  facet normal -1 0 0
    outer loop
      vertex 1.524 -43.002 24.519
      vertex 1.524 -49.784 38.1
      vertex 1.524 -42.534 25.41
    endloop
  endfacet
  facet normal -1 0 0
    outer loop
      vertex 1.524 -43.704 22.599
      vertex 1.524 -49.784 38.1
      vertex 1.524 -43.389 23.574
    endloop
  endfacet
  facet normal -1 0 0
    outer loop
      vertex 1.524 -49.784 1.10543e-14
      vertex 1.524 -49.784 38.1
      vertex 1.524 -43.704 22.599
    endloop
  endfacet
  facet normal -1 0 0
    outer loop
      vertex 1.524 -40.707 11.289
      vertex 1.524 -32.004 7.10632e-15
      vertex 1.524 -41.382 11.982
    endloop
  endfacet
  facet normal -1 0 0
    outer loop
      vertex 1.524 -49.784 1.10543e-14
      vertex 1.524 -43.92 21.579
      vertex 1.524 -44.055 20.55
    endloop
  endfacet
  facet normal -1 0 0
    outer loop
      vertex 1.524 -49.784 1.10543e-14
      vertex 1.524 -44.055 20.55
      vertex 1.524 -44.1 19.5
    endloop
  endfacet
  facet normal -1 0 0
    outer loop
      vertex 1.524 -49.784 1.10543e-14
      vertex 1.524 -44.1 19.5
      vertex 1.524 -44.055 18.45
    endloop
  endfacet
  facet normal -1 0 0
    outer loop
      vertex 1.524 -49.784 1.10543e-14
      vertex 1.524 -44.055 18.45
      vertex 1.524 -43.92 17.421
    endloop
  endfacet
  facet normal -1 0 0
    outer loop
      vertex 1.524 -49.784 1.10543e-14
      vertex 1.524 -43.92 17.421
      vertex 1.524 -43.704 16.401
    endloop
  endfacet
  facet normal -1 0 0
    outer loop
      vertex 1.524 -49.784 1.10543e-14
      vertex 1.524 -43.704 16.401
      vertex 1.524 -43.389 15.426
    endloop
  endfacet
  facet normal -1 0 0
    outer loop
      vertex 1.524 -49.784 1.10543e-14
      vertex 1.524 -43.389 15.426
      vertex 1.524 -43.002 14.481
    endloop
  endfacet
  facet normal -1 0 0
    outer loop
      vertex 1.524 -49.784 1.10543e-14
      vertex 1.524 -43.002 14.481
      vertex 1.524 -42.534 13.59
    endloop
  endfacet
  facet normal -1 0 0
    outer loop
      vertex 1.524 -49.784 1.10543e-14
      vertex 1.524 -42.534 13.59
      vertex 1.524 -41.994 12.75
    endloop
  endfacet
  facet normal -1 0 0
    outer loop
      vertex 1.524 -49.784 1.10543e-14
      vertex 1.524 -41.994 12.75
      vertex 1.524 -32.004 7.10632e-15
    endloop
  endfacet
  facet normal -1 0 0
    outer loop
      vertex 1.524 -41.994 12.75
      vertex 1.524 -41.382 11.982
      vertex 1.524 -32.004 7.10632e-15
    endloop
  endfacet
  facet normal -1 0 0
    outer loop
      vertex 1.524 -39.987 10.68
      vertex 1.524 -32.004 7.10632e-15
      vertex 1.524 -40.707 11.289
    endloop
  endfacet
  facet normal -1 0 0
    outer loop
      vertex 1.524 -39.204 10.155
      vertex 1.524 -32.004 7.10632e-15
      vertex 1.524 -39.987 10.68
    endloop
  endfacet
  facet normal -1 0 0
    outer loop
      vertex 1.524 -38.385 9.726
      vertex 1.524 -32.004 7.10632e-15
      vertex 1.524 -39.204 10.155
    endloop
  endfacet
  facet normal -1 0 0
    outer loop
      vertex 1.524 -37.539 9.39
      vertex 1.524 -32.004 7.10632e-15
      vertex 1.524 -38.385 9.726
    endloop
  endfacet
  facet normal -1 0 0
    outer loop
      vertex 1.524 -36.666 9.159
      vertex 1.524 -32.004 7.10632e-15
      vertex 1.524 -37.539 9.39
    endloop
  endfacet
  facet normal -1 0 0
    outer loop
      vertex 1.524 -35.775 9.03
      vertex 1.524 -32.004 7.10632e-15
      vertex 1.524 -36.666 9.159
    endloop
  endfacet
  facet normal -1 0 0
    outer loop
      vertex 1.524 -34.875 9
      vertex 1.524 -32.004 7.10632e-15
      vertex 1.524 -35.775 9.03
    endloop
  endfacet
  facet normal -1 0 0
    outer loop
      vertex 1.524 -33.984 9.084
      vertex 1.524 -32.004 7.10632e-15
      vertex 1.524 -34.875 9
    endloop
  endfacet
  facet normal -1 0 0
    outer loop
      vertex 1.524 -33.093 9.264
      vertex 1.524 -32.004 7.10632e-15
      vertex 1.524 -33.984 9.084
    endloop
  endfacet
  facet normal -1 0 0
    outer loop
      vertex 1.524 -32.238 9.546
      vertex 1.524 -32.004 7.10632e-15
      vertex 1.524 -33.093 9.264
    endloop
  endfacet
  facet normal -1 0 0
    outer loop
      vertex 1.524 -32.004 9.65168
      vertex 1.524 -32.004 7.10632e-15
      vertex 1.524 -32.238 9.546
    endloop
  endfacet
  facet normal -1 0 0
    outer loop
      vertex 1.524 -43.389 23.574
      vertex 1.524 -49.784 38.1
      vertex 1.524 -43.002 24.519
    endloop
  endfacet
  facet normal -0.996195 -0.0871549 1.93523e-17
    outer loop
      vertex 1.524 -49.784 1.10543e-14
      vertex 1.56259 -50.2251 1.11522e-14
      vertex 1.524 -49.784 38.1
    endloop
  endfacet
  facet normal -0.996195 -0.0871549 1.93523e-17
    outer loop
      vertex 1.524 -49.784 38.1
      vertex 1.56259 -50.2251 1.11522e-14
      vertex 1.56259 -50.2251 38.1
    endloop
  endfacet
  facet normal -0.965926 -0.25882 5.74695e-17
    outer loop
      vertex 1.56259 -50.2251 1.11522e-14
      vertex 1.67718 -50.6527 1.12472e-14
      vertex 1.56259 -50.2251 38.1
    endloop
  endfacet
  facet normal -0.965926 -0.25882 5.74695e-17
    outer loop
      vertex 1.56259 -50.2251 38.1
      vertex 1.67718 -50.6527 1.12472e-14
      vertex 1.67718 -50.6527 38.1
    endloop
  endfacet
  facet normal -0.906308 -0.422618 9.384e-17
    outer loop
      vertex 1.67718 -50.6527 1.12472e-14
      vertex 1.86429 -51.054 1.13363e-14
      vertex 1.67718 -50.6527 38.1
    endloop
  endfacet
  facet normal -0.906308 -0.422618 9.384e-17
    outer loop
      vertex 1.67718 -50.6527 38.1
      vertex 1.86429 -51.054 1.13363e-14
      vertex 1.86429 -51.054 38.1
    endloop
  endfacet
  facet normal -0.81915 -0.57358 1.2736e-16
    outer loop
      vertex 1.86429 -51.054 1.13363e-14
      vertex 2.11825 -51.4167 1.14168e-14
      vertex 1.86429 -51.054 38.1
    endloop
  endfacet
  facet normal -0.81915 -0.57358 1.2736e-16
    outer loop
      vertex 1.86429 -51.054 38.1
      vertex 2.11825 -51.4167 1.14168e-14
      vertex 2.11825 -51.4167 38.1
    endloop
  endfacet
  facet normal -0.707111 -0.707102 1.57008e-16
    outer loop
      vertex 2.11825 -51.4167 1.14168e-14
      vertex 2.43132 -51.7298 1.14863e-14
      vertex 2.11825 -51.4167 38.1
    endloop
  endfacet
  facet normal -0.707111 -0.707102 1.57008e-16
    outer loop
      vertex 2.11825 -51.4167 38.1
      vertex 2.43132 -51.7298 1.14863e-14
      vertex 2.43132 -51.7298 38.1
    endloop
  endfacet
  facet normal -0.573576 -0.819152 1.81888e-16
    outer loop
      vertex 2.43132 -51.7298 38.1
      vertex 2.43132 -51.7298 1.14863e-14
      vertex 2.794 -51.9837 1.15427e-14
    endloop
  endfacet
  facet normal -0.573576 -0.819152 1.81888e-16
    outer loop
      vertex 2.794 -51.9837 38.1
      vertex 2.43132 -51.7298 38.1
      vertex 2.794 -51.9837 1.15427e-14
    endloop
  endfacet
  facet normal -0.422619 -0.906308 2.01241e-16
    outer loop
      vertex 2.794 -51.9837 38.1
      vertex 2.794 -51.9837 1.15427e-14
      vertex 3.19527 -52.1708 1.15842e-14
    endloop
  endfacet
  facet normal -0.422619 -0.906308 2.01241e-16
    outer loop
      vertex 3.19527 -52.1708 38.1
      vertex 2.794 -51.9837 38.1
      vertex 3.19527 -52.1708 1.15842e-14
    endloop
  endfacet
  facet normal -0.258822 -0.965925 2.14478e-16
    outer loop
      vertex 3.19527 -52.1708 38.1
      vertex 3.19527 -52.1708 1.15842e-14
      vertex 3.62293 -52.2854 1.16097e-14
    endloop
  endfacet
  facet normal -0.258822 -0.965925 2.14478e-16
    outer loop
      vertex 3.62293 -52.2854 38.1
      vertex 3.19527 -52.1708 38.1
      vertex 3.62293 -52.2854 1.16097e-14
    endloop
  endfacet
  facet normal -0.0871484 -0.996195 2.212e-16
    outer loop
      vertex 3.62293 -52.2854 38.1
      vertex 3.62293 -52.2854 1.16097e-14
      vertex 4.064 -52.324 1.16183e-14
    endloop
  endfacet
  facet normal -0.0871484 -0.996195 2.212e-16
    outer loop
      vertex 4.064 -52.324 38.1
      vertex 3.62293 -52.2854 38.1
      vertex 4.064 -52.324 1.16183e-14
    endloop
  endfacet
  facet normal 0 -1 2.22045e-16
    outer loop
      vertex 4.064 -52.324 38.1
      vertex 4.064 -52.324 1.16183e-14
      vertex 21.844 -52.324 1.16183e-14
    endloop
  endfacet
  facet normal 0 -1 2.22045e-16
    outer loop
      vertex 21.844 -52.324 38.1
      vertex 4.064 -52.324 38.1
      vertex 21.844 -52.324 1.16183e-14
    endloop
  endfacet
  facet normal -1 0 0
    outer loop
      vertex 21.844 -53.848 1.19567e-14
      vertex 21.844 -53.848 38.1
      vertex 21.844 -52.324 1.16183e-14
    endloop
  endfacet
  facet normal -1 0 0
    outer loop
      vertex 21.844 -52.324 1.16183e-14
      vertex 21.844 -53.848 38.1
      vertex 21.844 -52.324 38.1
    endloop
  endfacet
  facet normal 0 -1 2.22045e-16
    outer loop
      vertex 21.844 -53.848 38.1
      vertex 21.844 -53.848 1.19567e-14
      vertex 32.004 -53.848 1.19567e-14
    endloop
  endfacet
  facet normal 0 -1 2.22045e-16
    outer loop
      vertex 32.004 -53.848 38.1
      vertex 21.844 -53.848 38.1
      vertex 32.004 -53.848 1.19567e-14
    endloop
  endfacet
  facet normal 1 0 0
    outer loop
      vertex 32.004 -53.848 38.1
      vertex 32.004 -53.848 1.19567e-14
      vertex 32.004 -52.324 1.16183e-14
    endloop
  endfacet
  facet normal 1 0 0
    outer loop
      vertex 32.004 -52.324 38.1
      vertex 32.004 -53.848 38.1
      vertex 32.004 -52.324 1.16183e-14
    endloop
  endfacet
  facet normal 0 -1 2.22045e-16
    outer loop
      vertex 32.004 -52.324 38.1
      vertex 32.004 -52.324 1.16183e-14
      vertex 49.784 -52.324 1.16183e-14
    endloop
  endfacet
  facet normal 0 -1 2.22045e-16
    outer loop
      vertex 49.784 -52.324 38.1
      vertex 32.004 -52.324 38.1
      vertex 49.784 -52.324 1.16183e-14
    endloop
  endfacet
  facet normal 0.0871482 -0.996195 2.212e-16
    outer loop
      vertex 49.784 -52.324 38.1
      vertex 49.784 -52.324 1.16183e-14
      vertex 50.2251 -52.2854 1.16097e-14
    endloop
  endfacet
  facet normal 0.0871482 -0.996195 2.212e-16
    outer loop
      vertex 50.2251 -52.2854 38.1
      vertex 49.784 -52.324 38.1
      vertex 50.2251 -52.2854 1.16097e-14
    endloop
  endfacet
  facet normal 0.258822 -0.965925 2.14478e-16
    outer loop
      vertex 50.2251 -52.2854 38.1
      vertex 50.2251 -52.2854 1.16097e-14
      vertex 50.6527 -52.1708 1.15842e-14
    endloop
  endfacet
  facet normal 0.258822 -0.965925 2.14478e-16
    outer loop
      vertex 50.6527 -52.1708 38.1
      vertex 50.2251 -52.2854 38.1
      vertex 50.6527 -52.1708 1.15842e-14
    endloop
  endfacet
  facet normal 0.422619 -0.906307 2.01241e-16
    outer loop
      vertex 50.6527 -52.1708 38.1
      vertex 50.6527 -52.1708 1.15842e-14
      vertex 51.054 -51.9837 1.15427e-14
    endloop
  endfacet
  facet normal 0.422619 -0.906307 2.01241e-16
    outer loop
      vertex 51.054 -51.9837 38.1
      vertex 50.6527 -52.1708 38.1
      vertex 51.054 -51.9837 1.15427e-14
    endloop
  endfacet
  facet normal 0.57358 -0.81915 1.81888e-16
    outer loop
      vertex 51.054 -51.9837 38.1
      vertex 51.054 -51.9837 1.15427e-14
      vertex 51.4167 -51.7298 1.14863e-14
    endloop
  endfacet
  facet normal 0.57358 -0.81915 1.81888e-16
    outer loop
      vertex 51.4167 -51.7298 38.1
      vertex 51.054 -51.9837 38.1
      vertex 51.4167 -51.7298 1.14863e-14
    endloop
  endfacet
  facet normal 0.707107 -0.707107 1.57009e-16
    outer loop
      vertex 51.4167 -51.7298 38.1
      vertex 51.4167 -51.7298 1.14863e-14
      vertex 51.7298 -51.4167 1.14168e-14
    endloop
  endfacet
  facet normal 0.707107 -0.707107 1.57009e-16
    outer loop
      vertex 51.7298 -51.4167 38.1
      vertex 51.4167 -51.7298 38.1
      vertex 51.7298 -51.4167 1.14168e-14
    endloop
  endfacet
  facet normal 0.81915 -0.57358 1.2736e-16
    outer loop
      vertex 51.7298 -51.4167 38.1
      vertex 51.7298 -51.4167 1.14168e-14
      vertex 51.9837 -51.054 1.13363e-14
    endloop
  endfacet
  facet normal 0.81915 -0.57358 1.2736e-16
    outer loop
      vertex 51.9837 -51.054 38.1
      vertex 51.7298 -51.4167 38.1
      vertex 51.9837 -51.054 1.13363e-14
    endloop
  endfacet
  facet normal 0.906307 -0.422619 9.38404e-17
    outer loop
      vertex 51.9837 -51.054 38.1
      vertex 51.9837 -51.054 1.13363e-14
      vertex 52.1708 -50.6527 1.12472e-14
    endloop
  endfacet
  facet normal 0.906307 -0.422619 9.38404e-17
    outer loop
      vertex 52.1708 -50.6527 38.1
      vertex 51.9837 -51.054 38.1
      vertex 52.1708 -50.6527 1.12472e-14
    endloop
  endfacet
  facet normal 0.965925 -0.258822 5.747e-17
    outer loop
      vertex 52.1708 -50.6527 38.1
      vertex 52.1708 -50.6527 1.12472e-14
      vertex 52.2854 -50.2251 1.11522e-14
    endloop
  endfacet
  facet normal 0.965925 -0.258822 5.747e-17
    outer loop
      vertex 52.2854 -50.2251 38.1
      vertex 52.1708 -50.6527 38.1
      vertex 52.2854 -50.2251 1.11522e-14
    endloop
  endfacet
  facet normal 0.996195 -0.0871482 1.93508e-17
    outer loop
      vertex 52.2854 -50.2251 38.1
      vertex 52.2854 -50.2251 1.11522e-14
      vertex 52.324 -49.784 1.10543e-14
    endloop
  endfacet
  facet normal 0.996195 -0.0871482 1.93508e-17
    outer loop
      vertex 52.324 -49.784 38.1
      vertex 52.2854 -50.2251 38.1
      vertex 52.324 -49.784 1.10543e-14
    endloop
  endfacet
  facet normal 1 0 0
    outer loop
      vertex 52.324 -49.784 38.1
      vertex 52.324 -49.784 1.10543e-14
      vertex 52.324 -32.004 7.10632e-15
    endloop
  endfacet
  facet normal 1 0 0
    outer loop
      vertex 52.324 -32.004 38.1
      vertex 52.324 -49.784 38.1
      vertex 52.324 -32.004 7.10632e-15
    endloop
  endfacet
  facet normal 0 -1 2.22045e-16
    outer loop
      vertex 52.324 -32.004 38.1
      vertex 52.324 -32.004 7.10632e-15
      vertex 53.848 -32.004 7.10632e-15
    endloop
  endfacet
  facet normal 0 -1 2.22045e-16
    outer loop
      vertex 53.848 -32.004 38.1
      vertex 52.324 -32.004 38.1
      vertex 53.848 -32.004 7.10632e-15
    endloop
  endfacet
  facet normal 1 0 0
    outer loop
      vertex 53.848 -32.004 38.1
      vertex 53.848 -32.004 7.10632e-15
      vertex 53.848 -21.844 4.85034e-15
    endloop
  endfacet
  facet normal 1 0 0
    outer loop
      vertex 53.848 -21.844 38.1
      vertex 53.848 -32.004 38.1
      vertex 53.848 -21.844 4.85034e-15
    endloop
  endfacet
  facet normal 0 1 -2.22045e-16
    outer loop
      vertex 52.324 -21.844 4.85034e-15
      vertex 52.324 -21.844 38.1
      vertex 53.848 -21.844 4.85034e-15
    endloop
  endfacet
  facet normal 0 1 -2.22045e-16
    outer loop
      vertex 53.848 -21.844 4.85034e-15
      vertex 52.324 -21.844 38.1
      vertex 53.848 -21.844 38.1
    endloop
  endfacet
  facet normal 1 0 0
    outer loop
      vertex 52.324 -21.844 38.1
      vertex 52.324 -21.844 4.85034e-15
      vertex 52.324 -4.064 9.02389e-16
    endloop
  endfacet
  facet normal 1 0 0
    outer loop
      vertex 52.324 -4.064 38.1
      vertex 52.324 -21.844 38.1
      vertex 52.324 -4.064 9.02389e-16
    endloop
  endfacet
  facet normal 0.996195 0.0871482 -1.93508e-17
    outer loop
      vertex 52.324 -4.064 9.02389e-16
      vertex 52.2854 -3.62293 8.04453e-16
      vertex 52.2854 -3.62293 38.1
    endloop
  endfacet
  facet normal 0.996195 0.0871482 -1.93508e-17
    outer loop
      vertex 52.324 -4.064 38.1
      vertex 52.324 -4.064 9.02389e-16
      vertex 52.2854 -3.62293 38.1
    endloop
  endfacet
  facet normal 0.965925 0.258823 -5.74703e-17
    outer loop
      vertex 52.2854 -3.62293 8.04453e-16
      vertex 52.1708 -3.19527 7.09493e-16
      vertex 52.1708 -3.19527 38.1
    endloop
  endfacet
  facet normal 0.965925 0.258823 -5.74703e-17
    outer loop
      vertex 52.2854 -3.62293 38.1
      vertex 52.2854 -3.62293 8.04453e-16
      vertex 52.1708 -3.19527 38.1
    endloop
  endfacet
  facet normal 0.906308 0.422618 -9.384e-17
    outer loop
      vertex 52.1708 -3.19527 7.09493e-16
      vertex 51.9837 -2.794 6.20393e-16
      vertex 51.9837 -2.794 38.1
    endloop
  endfacet
  facet normal 0.906308 0.422618 -9.384e-17
    outer loop
      vertex 52.1708 -3.19527 38.1
      vertex 52.1708 -3.19527 7.09493e-16
      vertex 51.9837 -2.794 38.1
    endloop
  endfacet
  facet normal 0.819151 0.573579 -1.2736e-16
    outer loop
      vertex 51.9837 -2.794 6.20393e-16
      vertex 51.7298 -2.43132 5.39862e-16
      vertex 51.7298 -2.43132 38.1
    endloop
  endfacet
  facet normal 0.819151 0.573579 -1.2736e-16
    outer loop
      vertex 51.9837 -2.794 38.1
      vertex 51.9837 -2.794 6.20393e-16
      vertex 51.7298 -2.43132 38.1
    endloop
  endfacet
  facet normal 0.707105 0.707109 -1.5701e-16
    outer loop
      vertex 51.4167 -2.11825 4.70346e-16
      vertex 51.4167 -2.11825 38.1
      vertex 51.7298 -2.43132 5.39862e-16
    endloop
  endfacet
  facet normal 0.707105 0.707109 -1.5701e-16
    outer loop
      vertex 51.7298 -2.43132 5.39862e-16
      vertex 51.4167 -2.11825 38.1
      vertex 51.7298 -2.43132 38.1
    endloop
  endfacet
  facet normal 0.573581 0.819149 -1.81888e-16
    outer loop
      vertex 51.054 -1.86429 4.13957e-16
      vertex 51.054 -1.86429 38.1
      vertex 51.4167 -2.11825 4.70346e-16
    endloop
  endfacet
  facet normal 0.573581 0.819149 -1.81888e-16
    outer loop
      vertex 51.4167 -2.11825 4.70346e-16
      vertex 51.054 -1.86429 38.1
      vertex 51.4167 -2.11825 38.1
    endloop
  endfacet
  facet normal 0.422616 0.906309 -2.01241e-16
    outer loop
      vertex 50.6527 -1.67718 3.72409e-16
      vertex 50.6527 -1.67718 38.1
      vertex 51.054 -1.86429 4.13957e-16
    endloop
  endfacet
  facet normal 0.422616 0.906309 -2.01241e-16
    outer loop
      vertex 51.054 -1.86429 4.13957e-16
      vertex 50.6527 -1.67718 38.1
      vertex 51.054 -1.86429 38.1
    endloop
  endfacet
  facet normal 0.258822 0.965925 -2.14478e-16
    outer loop
      vertex 50.2251 -1.56259 3.46964e-16
      vertex 50.2251 -1.56259 38.1
      vertex 50.6527 -1.67718 3.72409e-16
    endloop
  endfacet
  facet normal 0.258822 0.965925 -2.14478e-16
    outer loop
      vertex 50.6527 -1.67718 3.72409e-16
      vertex 50.2251 -1.56259 38.1
      vertex 50.6527 -1.67718 38.1
    endloop
  endfacet
  facet normal 0.0871527 0.996195 -2.212e-16
    outer loop
      vertex 49.784 -1.524 3.38396e-16
      vertex 49.784 -1.524 38.1
      vertex 50.2251 -1.56259 3.46964e-16
    endloop
  endfacet
  facet normal 0.0871527 0.996195 -2.212e-16
    outer loop
      vertex 50.2251 -1.56259 3.46964e-16
      vertex 49.784 -1.524 38.1
      vertex 50.2251 -1.56259 38.1
    endloop
  endfacet
  facet normal 0 1 -2.22045e-16
    outer loop
      vertex 32.004 -1.524 3.38396e-16
      vertex 32.004 -1.524 38.1
      vertex 49.784 -1.524 3.38396e-16
    endloop
  endfacet
  facet normal 0 1 -2.22045e-16
    outer loop
      vertex 49.784 -1.524 3.38396e-16
      vertex 32.004 -1.524 38.1
      vertex 49.784 -1.524 38.1
    endloop
  endfacet
  facet normal 1 0 0
    outer loop
      vertex 32.004 -1.524 38.1
      vertex 32.004 -1.524 3.38396e-16
      vertex 32.004 0 0
    endloop
  endfacet
  facet normal 1 0 0
    outer loop
      vertex 32.004 8.4599e-15 38.1
      vertex 32.004 -1.524 38.1
      vertex 32.004 0 0
    endloop
  endfacet
  facet normal 0 1 -2.22045e-16
    outer loop
      vertex 21.844 0 0
      vertex 21.844 8.4599e-15 38.1
      vertex 32.004 0 0
    endloop
  endfacet
  facet normal 0 1 -2.22045e-16
    outer loop
      vertex 32.004 0 0
      vertex 21.844 8.4599e-15 38.1
      vertex 32.004 8.4599e-15 38.1
    endloop
  endfacet
  facet normal -1 0 0
    outer loop
      vertex 21.844 -1.524 3.38396e-16
      vertex 21.844 -1.524 38.1
      vertex 21.844 0 0
    endloop
  endfacet
  facet normal -1 0 0
    outer loop
      vertex 21.844 0 0
      vertex 21.844 -1.524 38.1
      vertex 21.844 8.4599e-15 38.1
    endloop
  endfacet
  facet normal 0 1 -2.22045e-16
    outer loop
      vertex 4.064 -1.524 3.38396e-16
      vertex 4.064 -1.524 38.1
      vertex 21.844 -1.524 3.38396e-16
    endloop
  endfacet
  facet normal 0 1 -2.22045e-16
    outer loop
      vertex 21.844 -1.524 3.38396e-16
      vertex 4.064 -1.524 38.1
      vertex 21.844 -1.524 38.1
    endloop
  endfacet
  facet normal -0.0871529 0.996195 -2.212e-16
    outer loop
      vertex 3.62293 -1.56259 3.46964e-16
      vertex 3.62293 -1.56259 38.1
      vertex 4.064 -1.524 3.38396e-16
    endloop
  endfacet
  facet normal -0.0871529 0.996195 -2.212e-16
    outer loop
      vertex 4.064 -1.524 3.38396e-16
      vertex 3.62293 -1.56259 38.1
      vertex 4.064 -1.524 38.1
    endloop
  endfacet
  facet normal -0.258822 0.965925 -2.14478e-16
    outer loop
      vertex 3.19527 -1.67718 3.72409e-16
      vertex 3.19527 -1.67718 38.1
      vertex 3.62293 -1.56259 3.46964e-16
    endloop
  endfacet
  facet normal -0.258822 0.965925 -2.14478e-16
    outer loop
      vertex 3.62293 -1.56259 3.46964e-16
      vertex 3.19527 -1.67718 38.1
      vertex 3.62293 -1.56259 38.1
    endloop
  endfacet
  facet normal -0.422615 0.906309 -2.01241e-16
    outer loop
      vertex 2.794 -1.86429 4.13957e-16
      vertex 2.794 -1.86429 38.1
      vertex 3.19527 -1.67718 3.72409e-16
    endloop
  endfacet
  facet normal -0.422615 0.906309 -2.01241e-16
    outer loop
      vertex 3.19527 -1.67718 3.72409e-16
      vertex 2.794 -1.86429 38.1
      vertex 3.19527 -1.67718 38.1
    endloop
  endfacet
  facet normal -0.573578 0.819151 -1.81888e-16
    outer loop
      vertex 2.43132 -2.11825 4.70346e-16
      vertex 2.43132 -2.11825 38.1
      vertex 2.794 -1.86429 4.13957e-16
    endloop
  endfacet
  facet normal -0.573578 0.819151 -1.81888e-16
    outer loop
      vertex 2.794 -1.86429 4.13957e-16
      vertex 2.43132 -2.11825 38.1
      vertex 2.794 -1.86429 38.1
    endloop
  endfacet
  facet normal -0.707109 0.707105 -1.57009e-16
    outer loop
      vertex 2.11825 -2.43132 5.39862e-16
      vertex 2.11825 -2.43132 38.1
      vertex 2.43132 -2.11825 4.70346e-16
    endloop
  endfacet
  facet normal -0.707109 0.707105 -1.57009e-16
    outer loop
      vertex 2.43132 -2.11825 4.70346e-16
      vertex 2.11825 -2.43132 38.1
      vertex 2.43132 -2.11825 38.1
    endloop
  endfacet
  facet normal -0.819151 0.573579 -1.2736e-16
    outer loop
      vertex 1.86429 -2.794 6.20393e-16
      vertex 1.86429 -2.794 38.1
      vertex 2.11825 -2.43132 5.39862e-16
    endloop
  endfacet
  facet normal -0.819151 0.573579 -1.2736e-16
    outer loop
      vertex 2.11825 -2.43132 5.39862e-16
      vertex 1.86429 -2.794 38.1
      vertex 2.11825 -2.43132 38.1
    endloop
  endfacet
  facet normal -0.906309 0.422616 -9.38396e-17
    outer loop
      vertex 1.67718 -3.19527 7.09493e-16
      vertex 1.67718 -3.19527 38.1
      vertex 1.86429 -2.794 6.20393e-16
    endloop
  endfacet
  facet normal -0.906309 0.422616 -9.38396e-17
    outer loop
      vertex 1.86429 -2.794 6.20393e-16
      vertex 1.67718 -3.19527 38.1
      vertex 1.86429 -2.794 38.1
    endloop
  endfacet
  facet normal -0.965925 0.258821 -5.74699e-17
    outer loop
      vertex 1.56259 -3.62293 8.04453e-16
      vertex 1.56259 -3.62293 38.1
      vertex 1.67718 -3.19527 7.09493e-16
    endloop
  endfacet
  facet normal -0.965925 0.258821 -5.74699e-17
    outer loop
      vertex 1.67718 -3.19527 7.09493e-16
      vertex 1.56259 -3.62293 38.1
      vertex 1.67718 -3.19527 38.1
    endloop
  endfacet
  facet normal -0.996195 0.0871549 -1.93523e-17
    outer loop
      vertex 1.524 -4.064 9.02389e-16
      vertex 1.524 -4.064 38.1
      vertex 1.56259 -3.62293 8.04453e-16
    endloop
  endfacet
  facet normal -0.996195 0.0871549 -1.93523e-17
    outer loop
      vertex 1.56259 -3.62293 8.04453e-16
      vertex 1.524 -4.064 38.1
      vertex 1.56259 -3.62293 38.1
    endloop
  endfacet
  facet normal -1 0 0
    outer loop
      vertex 1.524 -21.844 4.85034e-15
      vertex 1.524 -21.844 9
      vertex 1.524 -4.064 9.02389e-16
    endloop
  endfacet
  facet normal -1 0 0
    outer loop
      vertex 1.524 -4.064 9.02389e-16
      vertex 1.524 -21.844 9
      vertex 1.524 -21.6 9
    endloop
  endfacet
  facet normal -1 0 0
    outer loop
      vertex 1.524 -4.064 9.02389e-16
      vertex 1.524 -21.6 9
      vertex 1.524 -21.6 18
    endloop
  endfacet
  facet normal -1 0 0
    outer loop
      vertex 1.524 -21.6 21.0003
      vertex 1.524 -12.6003 30.0003
      vertex 1.524 -12.6003 21.0003
    endloop
  endfacet
  facet normal -1 0 0
    outer loop
      vertex 1.524 -12.6003 9
      vertex 1.524 -21.6 18
      vertex 1.524 -12.6003 18
    endloop
  endfacet
  facet normal -1 0 0
    outer loop
      vertex 1.524 -4.064 9.02389e-16
      vertex 1.524 -21.6 18
      vertex 1.524 -12.6003 9
    endloop
  endfacet
  facet normal -1 0 0
    outer loop
      vertex 1.524 -4.064 9.02389e-16
      vertex 1.524 -12.6003 9
      vertex 1.524 -9.6 9
    endloop
  endfacet
  facet normal -1 0 0
    outer loop
      vertex 1.524 -12.6003 30.0003
      vertex 1.524 -21.844 38.1
      vertex 1.524 -9.6 30.0003
    endloop
  endfacet
  facet normal -1 0 0
    outer loop
      vertex 1.524 -21.6 21.0003
      vertex 1.524 -21.6 30.0003
      vertex 1.524 -12.6003 30.0003
    endloop
  endfacet
  facet normal -1 0 0
    outer loop
      vertex 1.524 -21.6 30.0003
      vertex 1.524 -21.844 30.0003
      vertex 1.524 -21.844 38.1
    endloop
  endfacet
  facet normal -1 0 0
    outer loop
      vertex 1.524 -21.6 30.0003
      vertex 1.524 -21.844 38.1
      vertex 1.524 -12.6003 30.0003
    endloop
  endfacet
  facet normal -1 0 0
    outer loop
      vertex 1.524 -9.6 30.0003
      vertex 1.524 -21.844 38.1
      vertex 1.524 -4.064 38.1
    endloop
  endfacet
  facet normal -1 0 0
    outer loop
      vertex 1.524 -9.6 30.0003
      vertex 1.524 -4.064 38.1
      vertex 1.524 -4.064 9.02389e-16
    endloop
  endfacet
  facet normal -1 0 0
    outer loop
      vertex 1.524 -9.6 30.0003
      vertex 1.524 -4.064 9.02389e-16
      vertex 1.524 -9.6 9
    endloop
  endfacet
  facet normal 0 1 -2.22045e-16
    outer loop
      vertex 0 -21.844 4.85034e-15
      vertex 0 -21.844 9
      vertex 1.524 -21.844 4.85034e-15
    endloop
  endfacet
  facet normal 0 1 -2.22045e-16
    outer loop
      vertex 1.524 -21.844 4.85034e-15
      vertex 0 -21.844 9
      vertex 1.524 -21.844 9
    endloop
  endfacet
  facet normal 2.22045e-16 -4.93038e-32 1
    outer loop
      vertex 4.064 -24.6003 9
      vertex 4.064 -21.6 9
      vertex 1.524 -21.6 9
    endloop
  endfacet
  facet normal 2.22045e-16 -4.93038e-32 1
    outer loop
      vertex 0 -21.844 9
      vertex 4.064 -24.6003 9
      vertex 1.524 -21.844 9
    endloop
  endfacet
  facet normal 2.22045e-16 -4.93038e-32 1
    outer loop
      vertex 1.524 -21.844 9
      vertex 4.064 -24.6003 9
      vertex 1.524 -21.6 9
    endloop
  endfacet
  facet normal 2.22045e-16 -4.93038e-32 1
    outer loop
      vertex 0 -24.6003 9
      vertex 4.064 -24.6003 9
      vertex 0 -21.844 9
    endloop
  endfacet
  facet normal 2.22045e-16 1 -4.93038e-32
    outer loop
      vertex 4.064 -24.6003 30.0003
      vertex 4.064 -24.6003 9
      vertex 0 -24.6003 30.0003
    endloop
  endfacet
  facet normal 2.22045e-16 1 -4.93038e-32
    outer loop
      vertex 0 -24.6003 30.0003
      vertex 4.064 -24.6003 9
      vertex 0 -24.6003 9
    endloop
  endfacet
  facet normal -2.22045e-16 4.93038e-32 -1
    outer loop
      vertex 1.524 -21.844 30.0003
      vertex 1.524 -21.6 30.0003
      vertex 4.064 -21.6 30.0003
    endloop
  endfacet
  facet normal -2.22045e-16 4.93038e-32 -1
    outer loop
      vertex 1.524 -21.844 30.0003
      vertex 4.064 -21.6 30.0003
      vertex 4.064 -24.6003 30.0003
    endloop
  endfacet
  facet normal -2.22045e-16 4.93038e-32 -1
    outer loop
      vertex 1.524 -21.844 30.0003
      vertex 4.064 -24.6003 30.0003
      vertex 0 -21.844 30.0003
    endloop
  endfacet
  facet normal -2.22045e-16 4.93038e-32 -1
    outer loop
      vertex 4.064 -24.6003 30.0003
      vertex 0 -24.6003 30.0003
      vertex 0 -21.844 30.0003
    endloop
  endfacet
  facet normal 0 1 -2.22045e-16
    outer loop
      vertex 0 -21.844 30.0003
      vertex 0 -21.844 38.1
      vertex 1.524 -21.844 30.0003
    endloop
  endfacet
  facet normal 0 1 -2.22045e-16
    outer loop
      vertex 1.524 -21.844 30.0003
      vertex 0 -21.844 38.1
      vertex 1.524 -21.844 38.1
    endloop
  endfacet
  facet normal 0 2.22045e-16 1
    outer loop
      vertex 3.302 -3.302 38.1
      vertex 51.054 -1.86429 38.1
      vertex 50.6527 -1.67718 38.1
    endloop
  endfacet
  facet normal 0 2.22045e-16 1
    outer loop
      vertex 0 -21.844 38.1
      vertex 0 -32.004 38.1
      vertex 1.524 -32.004 38.1
    endloop
  endfacet
  facet normal 0 2.22045e-16 1
    outer loop
      vertex 3.302 -3.302 38.1
      vertex 50.6527 -1.67718 38.1
      vertex 50.2251 -1.56259 38.1
    endloop
  endfacet
  facet normal 0 2.22045e-16 1
    outer loop
      vertex 1.524 -49.784 38.1
      vertex 1.56259 -50.2251 38.1
      vertex 1.524 -32.004 38.1
    endloop
  endfacet
  facet normal 0 2.22045e-16 1
    outer loop
      vertex 1.56259 -50.2251 38.1
      vertex 1.67718 -50.6527 38.1
      vertex 1.524 -32.004 38.1
    endloop
  endfacet
  facet normal 0 2.22045e-16 1
    outer loop
      vertex 1.67718 -50.6527 38.1
      vertex 1.86429 -51.054 38.1
      vertex 1.524 -32.004 38.1
    endloop
  endfacet
  facet normal 0 2.22045e-16 1
    outer loop
      vertex 1.86429 -51.054 38.1
      vertex 2.11825 -51.4167 38.1
      vertex 1.524 -32.004 38.1
    endloop
  endfacet
  facet normal 0 2.22045e-16 1
    outer loop
      vertex 2.11825 -51.4167 38.1
      vertex 2.43132 -51.7298 38.1
      vertex 1.524 -32.004 38.1
    endloop
  endfacet
  facet normal 0 2.22045e-16 1
    outer loop
      vertex 2.43132 -51.7298 38.1
      vertex 2.794 -51.9837 38.1
      vertex 1.524 -32.004 38.1
    endloop
  endfacet
  facet normal 0 2.22045e-16 1
    outer loop
      vertex 2.794 -51.9837 38.1
      vertex 3.19527 -52.1708 38.1
      vertex 1.524 -32.004 38.1
    endloop
  endfacet
  facet normal 0 2.22045e-16 1
    outer loop
      vertex 3.302 -3.302 38.1
      vertex 32.004 -1.524 38.1
      vertex 21.844 -1.524 38.1
    endloop
  endfacet
  facet normal 0 2.22045e-16 1
    outer loop
      vertex 3.302 -3.302 38.1
      vertex 49.784 -1.524 38.1
      vertex 32.004 -1.524 38.1
    endloop
  endfacet
  facet normal 0 2.22045e-16 1
    outer loop
      vertex 3.302 -3.302 38.1
      vertex 50.2251 -1.56259 38.1
      vertex 49.784 -1.524 38.1
    endloop
  endfacet
  facet normal 0 2.22045e-16 1
    outer loop
      vertex 3.302 -3.302 38.1
      vertex 51.7298 -2.43132 38.1
      vertex 51.4167 -2.11825 38.1
    endloop
  endfacet
  facet normal 0 2.22045e-16 1
    outer loop
      vertex 21.844 -53.848 38.1
      vertex 32.004 -53.848 38.1
      vertex 21.844 -52.324 38.1
    endloop
  endfacet
  facet normal 0 2.22045e-16 1
    outer loop
      vertex 3.302 -3.302 38.1
      vertex 51.4167 -2.11825 38.1
      vertex 51.054 -1.86429 38.1
    endloop
  endfacet
  facet normal 0 2.22045e-16 1
    outer loop
      vertex 3.302 -3.302 38.1
      vertex 50.546 -3.302 38.1
      vertex 51.7298 -2.43132 38.1
    endloop
  endfacet
  facet normal 0 2.22045e-16 1
    outer loop
      vertex 53.848 -32.004 38.1
      vertex 53.848 -21.844 38.1
      vertex 52.324 -21.844 38.1
    endloop
  endfacet
  facet normal 0 2.22045e-16 1
    outer loop
      vertex 50.546 -50.546 38.1
      vertex 51.4167 -51.7298 38.1
      vertex 51.7298 -51.4167 38.1
    endloop
  endfacet
  facet normal 0 2.22045e-16 1
    outer loop
      vertex 50.546 -50.546 38.1
      vertex 51.054 -51.9837 38.1
      vertex 51.4167 -51.7298 38.1
    endloop
  endfacet
  facet normal 0 2.22045e-16 1
    outer loop
      vertex 50.546 -3.302 38.1
      vertex 51.9837 -2.794 38.1
      vertex 51.7298 -2.43132 38.1
    endloop
  endfacet
  facet normal 0 2.22045e-16 1
    outer loop
      vertex 50.546 -50.546 38.1
      vertex 49.784 -52.324 38.1
      vertex 50.2251 -52.2854 38.1
    endloop
  endfacet
  facet normal 0 2.22045e-16 1
    outer loop
      vertex 50.546 -50.546 38.1
      vertex 32.004 -52.324 38.1
      vertex 49.784 -52.324 38.1
    endloop
  endfacet
  facet normal 0 2.22045e-16 1
    outer loop
      vertex 32.004 -52.324 38.1
      vertex 21.844 -52.324 38.1
      vertex 32.004 -53.848 38.1
    endloop
  endfacet
  facet normal 0 2.22045e-16 1
    outer loop
      vertex 50.546 -50.546 38.1
      vertex 21.844 -52.324 38.1
      vertex 32.004 -52.324 38.1
    endloop
  endfacet
  facet normal 0 2.22045e-16 1
    outer loop
      vertex 50.546 -50.546 38.1
      vertex 4.064 -52.324 38.1
      vertex 21.844 -52.324 38.1
    endloop
  endfacet
  facet normal 0 2.22045e-16 1
    outer loop
      vertex 50.546 -50.546 38.1
      vertex 3.302 -50.546 38.1
      vertex 3.62293 -52.2854 38.1
    endloop
  endfacet
  facet normal 0 2.22045e-16 1
    outer loop
      vertex 50.546 -50.546 38.1
      vertex 3.62293 -52.2854 38.1
      vertex 4.064 -52.324 38.1
    endloop
  endfacet
  facet normal 0 2.22045e-16 1
    outer loop
      vertex 21.844 -1.524 38.1
      vertex 32.004 8.4599e-15 38.1
      vertex 21.844 8.4599e-15 38.1
    endloop
  endfacet
  facet normal 0 2.22045e-16 1
    outer loop
      vertex 1.524 -4.064 38.1
      vertex 1.67718 -3.19527 38.1
      vertex 1.56259 -3.62293 38.1
    endloop
  endfacet
  facet normal 0 2.22045e-16 1
    outer loop
      vertex 3.302 -3.302 38.1
      vertex 3.62293 -1.56259 38.1
      vertex 3.19527 -1.67718 38.1
    endloop
  endfacet
  facet normal 0 2.22045e-16 1
    outer loop
      vertex 1.524 -32.004 38.1
      vertex 1.524 -21.844 38.1
      vertex 0 -21.844 38.1
    endloop
  endfacet
  facet normal 0 2.22045e-16 1
    outer loop
      vertex 3.302 -50.546 38.1
      vertex 1.524 -21.844 38.1
      vertex 1.524 -32.004 38.1
    endloop
  endfacet
  facet normal 0 2.22045e-16 1
    outer loop
      vertex 3.302 -50.546 38.1
      vertex 1.524 -4.064 38.1
      vertex 1.524 -21.844 38.1
    endloop
  endfacet
  facet normal 0 2.22045e-16 1
    outer loop
      vertex 3.302 -50.546 38.1
      vertex 3.302 -3.302 38.1
      vertex 1.524 -4.064 38.1
    endloop
  endfacet
  facet normal 0 2.22045e-16 1
    outer loop
      vertex 3.19527 -52.1708 38.1
      vertex 3.302 -50.546 38.1
      vertex 1.524 -32.004 38.1
    endloop
  endfacet
  facet normal 0 2.22045e-16 1
    outer loop
      vertex 3.19527 -52.1708 38.1
      vertex 3.62293 -52.2854 38.1
      vertex 3.302 -50.546 38.1
    endloop
  endfacet
  facet normal 0 2.22045e-16 1
    outer loop
      vertex 50.546 -50.546 38.1
      vertex 50.2251 -52.2854 38.1
      vertex 50.6527 -52.1708 38.1
    endloop
  endfacet
  facet normal 0 2.22045e-16 1
    outer loop
      vertex 50.546 -50.546 38.1
      vertex 50.6527 -52.1708 38.1
      vertex 51.054 -51.9837 38.1
    endloop
  endfacet
  facet normal 0 2.22045e-16 1
    outer loop
      vertex 51.7298 -51.4167 38.1
      vertex 51.9837 -51.054 38.1
      vertex 50.546 -50.546 38.1
    endloop
  endfacet
  facet normal 0 2.22045e-16 1
    outer loop
      vertex 1.524 -4.064 38.1
      vertex 1.86429 -2.794 38.1
      vertex 1.67718 -3.19527 38.1
    endloop
  endfacet
  facet normal 0 2.22045e-16 1
    outer loop
      vertex 1.524 -4.064 38.1
      vertex 2.11825 -2.43132 38.1
      vertex 1.86429 -2.794 38.1
    endloop
  endfacet
  facet normal 0 2.22045e-16 1
    outer loop
      vertex 1.524 -4.064 38.1
      vertex 2.43132 -2.11825 38.1
      vertex 2.11825 -2.43132 38.1
    endloop
  endfacet
  facet normal 0 2.22045e-16 1
    outer loop
      vertex 1.524 -4.064 38.1
      vertex 2.794 -1.86429 38.1
      vertex 2.43132 -2.11825 38.1
    endloop
  endfacet
  facet normal 0 2.22045e-16 1
    outer loop
      vertex 1.524 -4.064 38.1
      vertex 3.19527 -1.67718 38.1
      vertex 2.794 -1.86429 38.1
    endloop
  endfacet
  facet normal 0 2.22045e-16 1
    outer loop
      vertex 1.524 -4.064 38.1
      vertex 3.302 -3.302 38.1
      vertex 3.19527 -1.67718 38.1
    endloop
  endfacet
  facet normal 0 2.22045e-16 1
    outer loop
      vertex 3.302 -3.302 38.1
      vertex 4.064 -1.524 38.1
      vertex 3.62293 -1.56259 38.1
    endloop
  endfacet
  facet normal 0 2.22045e-16 1
    outer loop
      vertex 3.302 -3.302 38.1
      vertex 21.844 -1.524 38.1
      vertex 4.064 -1.524 38.1
    endloop
  endfacet
  facet normal 0 2.22045e-16 1
    outer loop
      vertex 21.844 -1.524 38.1
      vertex 32.004 -1.524 38.1
      vertex 32.004 8.4599e-15 38.1
    endloop
  endfacet
  facet normal 0 2.22045e-16 1
    outer loop
      vertex 50.546 -3.302 38.1
      vertex 52.324 -4.064 38.1
      vertex 52.2854 -3.62293 38.1
    endloop
  endfacet
  facet normal 0 2.22045e-16 1
    outer loop
      vertex 50.546 -3.302 38.1
      vertex 52.324 -21.844 38.1
      vertex 52.324 -4.064 38.1
    endloop
  endfacet
  facet normal 0 2.22045e-16 1
    outer loop
      vertex 52.324 -21.844 38.1
      vertex 52.324 -32.004 38.1
      vertex 53.848 -32.004 38.1
    endloop
  endfacet
  facet normal 0 2.22045e-16 1
    outer loop
      vertex 50.546 -3.302 38.1
      vertex 52.324 -32.004 38.1
      vertex 52.324 -21.844 38.1
    endloop
  endfacet
  facet normal 0 2.22045e-16 1
    outer loop
      vertex 50.546 -3.302 38.1
      vertex 52.324 -49.784 38.1
      vertex 52.324 -32.004 38.1
    endloop
  endfacet
  facet normal 0 2.22045e-16 1
    outer loop
      vertex 50.546 -3.302 38.1
      vertex 52.2854 -50.2251 38.1
      vertex 52.324 -49.784 38.1
    endloop
  endfacet
  facet normal 0 2.22045e-16 1
    outer loop
      vertex 50.546 -3.302 38.1
      vertex 52.1708 -50.6527 38.1
      vertex 52.2854 -50.2251 38.1
    endloop
  endfacet
  facet normal 0 2.22045e-16 1
    outer loop
      vertex 50.546 -3.302 38.1
      vertex 51.9837 -51.054 38.1
      vertex 52.1708 -50.6527 38.1
    endloop
  endfacet
  facet normal 0 2.22045e-16 1
    outer loop
      vertex 50.546 -3.302 38.1
      vertex 52.1708 -3.19527 38.1
      vertex 51.9837 -2.794 38.1
    endloop
  endfacet
  facet normal 0 2.22045e-16 1
    outer loop
      vertex 50.546 -3.302 38.1
      vertex 52.2854 -3.62293 38.1
      vertex 52.1708 -3.19527 38.1
    endloop
  endfacet
  facet normal 0 2.22045e-16 1
    outer loop
      vertex 50.546 -3.302 38.1
      vertex 50.546 -50.546 38.1
      vertex 51.9837 -51.054 38.1
    endloop
  endfacet
  facet normal 0 -1 2.22045e-16
    outer loop
      vertex 0 -32.004 38.1
      vertex 0 -32.004 29.3483
      vertex 1.524 -32.004 29.3483
    endloop
  endfacet
  facet normal 0 -1 2.22045e-16
    outer loop
      vertex 1.524 -32.004 38.1
      vertex 0 -32.004 38.1
      vertex 1.524 -32.004 29.3483
    endloop
  endfacet
  facet normal -2.93756e-16 -0.411587 -0.911371
    outer loop
      vertex 4.064 -31.401 29.076
      vertex 4.064 -32.238 29.454
      vertex 0 -31.401 29.076
    endloop
  endfacet
  facet normal -2.93756e-16 -0.411587 -0.911371
    outer loop
      vertex 1.524 -32.004 29.3483
      vertex 4.064 -32.238 29.454
      vertex 1.524 -32.238 29.454
    endloop
  endfacet
  facet normal -2.93756e-16 -0.411587 -0.911371
    outer loop
      vertex 0 -31.401 29.076
      vertex 4.064 -32.238 29.454
      vertex 1.524 -32.004 29.3483
    endloop
  endfacet
  facet normal -2.93756e-16 -0.411587 -0.911371
    outer loop
      vertex 0 -32.004 29.3483
      vertex 0 -31.401 29.076
      vertex 1.524 -32.004 29.3483
    endloop
  endfacet
  facet normal -3.0481e-16 -0.516381 -0.856359
    outer loop
      vertex 4.064 -30.6 28.593
      vertex 4.064 -31.401 29.076
      vertex 0 -30.6 28.593
    endloop
  endfacet
  facet normal -3.0481e-16 -0.516381 -0.856359
    outer loop
      vertex 0 -30.6 28.593
      vertex 4.064 -31.401 29.076
      vertex 0 -31.401 29.076
    endloop
  endfacet
  facet normal -3.10862e-16 -0.6 -0.8
    outer loop
      vertex 4.064 -29.844 28.026
      vertex 4.064 -30.6 28.593
      vertex 0 -29.844 28.026
    endloop
  endfacet
  facet normal -3.10862e-16 -0.6 -0.8
    outer loop
      vertex 0 -29.844 28.026
      vertex 4.064 -30.6 28.593
      vertex 0 -30.6 28.593
    endloop
  endfacet
  facet normal -3.13796e-16 -0.67997 -0.73324
    outer loop
      vertex 4.064 -29.142 27.375
      vertex 4.064 -29.844 28.026
      vertex 0 -29.142 27.375
    endloop
  endfacet
  facet normal -3.13796e-16 -0.67997 -0.73324
    outer loop
      vertex 0 -29.142 27.375
      vertex 4.064 -29.844 28.026
      vertex 0 -29.844 28.026
    endloop
  endfacet
  facet normal -3.13255e-16 -0.754672 -0.656102
    outer loop
      vertex 0 -28.503 26.64
      vertex 4.064 -28.503 26.64
      vertex 4.064 -29.142 27.375
    endloop
  endfacet
  facet normal -3.13255e-16 -0.754672 -0.656102
    outer loop
      vertex 0 -29.142 27.375
      vertex 0 -28.503 26.64
      vertex 4.064 -29.142 27.375
    endloop
  endfacet
  facet normal -3.09998e-16 -0.81084 -0.585268
    outer loop
      vertex 0 -27.927 25.842
      vertex 4.064 -27.927 25.842
      vertex 4.064 -28.503 26.64
    endloop
  endfacet
  facet normal -3.09998e-16 -0.81084 -0.585268
    outer loop
      vertex 0 -28.503 26.64
      vertex 0 -27.927 25.842
      vertex 4.064 -28.503 26.64
    endloop
  endfacet
  facet normal -3.03317e-16 -0.866037 -0.49998
    outer loop
      vertex 0 -27.423 24.969
      vertex 4.064 -27.423 24.969
      vertex 4.064 -27.927 25.842
    endloop
  endfacet
  facet normal -3.03317e-16 -0.866037 -0.49998
    outer loop
      vertex 0 -27.927 25.842
      vertex 0 -27.423 24.969
      vertex 4.064 -27.927 25.842
    endloop
  endfacet
  facet normal -2.95724e-16 -0.903738 -0.428086
    outer loop
      vertex 0 -26.991 24.057
      vertex 4.064 -26.991 24.057
      vertex 4.064 -27.423 24.969
    endloop
  endfacet
  facet normal -2.95724e-16 -0.903738 -0.428086
    outer loop
      vertex 0 -27.423 24.969
      vertex 0 -26.991 24.057
      vertex 4.064 -27.423 24.969
    endloop
  endfacet
  facet normal -2.84525e-16 -0.939879 -0.341509
    outer loop
      vertex 0 -26.64 23.091
      vertex 4.064 -26.64 23.091
      vertex 4.064 -26.991 24.057
    endloop
  endfacet
  facet normal -2.84525e-16 -0.939879 -0.341509
    outer loop
      vertex 0 -26.991 24.057
      vertex 0 -26.64 23.091
      vertex 4.064 -26.991 24.057
    endloop
  endfacet
  facet normal -2.70961e-16 -0.967525 -0.252777
    outer loop
      vertex 0 -26.379 22.092
      vertex 4.064 -26.379 22.092
      vertex 4.064 -26.64 23.091
    endloop
  endfacet
  facet normal -2.70961e-16 -0.967525 -0.252777
    outer loop
      vertex 0 -26.64 23.091
      vertex 0 -26.379 22.092
      vertex 4.064 -26.64 23.091
    endloop
  endfacet
  facet normal -2.57074e-16 -0.984957 -0.172799
    outer loop
      vertex 0 -26.199 21.066
      vertex 4.064 -26.199 21.066
      vertex 4.064 -26.379 22.092
    endloop
  endfacet
  facet normal -2.57074e-16 -0.984957 -0.172799
    outer loop
      vertex 0 -26.379 22.092
      vertex 0 -26.199 21.066
      vertex 4.064 -26.379 22.092
    endloop
  endfacet
  facet normal -2.40345e-16 -0.996284 -0.086134
    outer loop
      vertex 0 -26.109 20.025
      vertex 4.064 -26.109 20.025
      vertex 4.064 -26.199 21.066
    endloop
  endfacet
  facet normal -2.40345e-16 -0.996284 -0.086134
    outer loop
      vertex 0 -26.199 21.066
      vertex 0 -26.109 20.025
      vertex 4.064 -26.199 21.066
    endloop
  endfacet
  facet normal -2.22045e-16 -1 4.93038e-32
    outer loop
      vertex 4.064 -26.109 18.975
      vertex 4.064 -26.109 20.025
      vertex 0 -26.109 20.025
    endloop
  endfacet
  facet normal -2.22045e-16 -1 4.93038e-32
    outer loop
      vertex 0 -26.109 18.975
      vertex 4.064 -26.109 18.975
      vertex 0 -26.109 20.025
    endloop
  endfacet
  facet normal -2.02094e-16 -0.996284 0.086134
    outer loop
      vertex 4.064 -26.199 17.934
      vertex 4.064 -26.109 18.975
      vertex 0 -26.109 18.975
    endloop
  endfacet
  facet normal -2.02094e-16 -0.996284 0.086134
    outer loop
      vertex 0 -26.199 17.934
      vertex 4.064 -26.199 17.934
      vertex 0 -26.109 18.975
    endloop
  endfacet
  facet normal -1.80335e-16 -0.984957 0.172799
    outer loop
      vertex 4.064 -26.379 16.908
      vertex 4.064 -26.199 17.934
      vertex 0 -26.199 17.934
    endloop
  endfacet
  facet normal -1.80335e-16 -0.984957 0.172799
    outer loop
      vertex 0 -26.379 16.908
      vertex 4.064 -26.379 16.908
      vertex 0 -26.199 17.934
    endloop
  endfacet
  facet normal -1.58706e-16 -0.967525 0.252777
    outer loop
      vertex 4.064 -26.64 15.909
      vertex 4.064 -26.379 16.908
      vertex 0 -26.379 16.908
    endloop
  endfacet
  facet normal -1.58706e-16 -0.967525 0.252777
    outer loop
      vertex 0 -26.64 15.909
      vertex 4.064 -26.64 15.909
      vertex 0 -26.379 16.908
    endloop
  endfacet
  facet normal -1.32865e-16 -0.939879 0.341509
    outer loop
      vertex 4.064 -26.991 14.943
      vertex 4.064 -26.64 15.909
      vertex 0 -26.64 15.909
    endloop
  endfacet
  facet normal -1.32865e-16 -0.939879 0.341509
    outer loop
      vertex 0 -26.991 14.943
      vertex 4.064 -26.991 14.943
      vertex 0 -26.64 15.909
    endloop
  endfacet
  facet normal -1.05616e-16 -0.903738 0.428086
    outer loop
      vertex 4.064 -27.423 14.031
      vertex 4.064 -26.991 14.943
      vertex 0 -26.991 14.943
    endloop
  endfacet
  facet normal -1.05616e-16 -0.903738 0.428086
    outer loop
      vertex 0 -27.423 14.031
      vertex 4.064 -27.423 14.031
      vertex 0 -26.991 14.943
    endloop
  endfacet
  facet normal -8.12809e-17 -0.866037 0.49998
    outer loop
      vertex 4.064 -27.927 13.158
      vertex 4.064 -27.423 14.031
      vertex 0 -27.423 14.031
    endloop
  endfacet
  facet normal -8.12809e-17 -0.866037 0.49998
    outer loop
      vertex 0 -27.927 13.158
      vertex 4.064 -27.927 13.158
      vertex 0 -27.423 14.031
    endloop
  endfacet
  facet normal -5.0087e-17 -0.81084 0.585268
    outer loop
      vertex 4.064 -28.503 12.36
      vertex 4.064 -27.927 13.158
      vertex 0 -27.927 13.158
    endloop
  endfacet
  facet normal -5.0087e-17 -0.81084 0.585268
    outer loop
      vertex 0 -28.503 12.36
      vertex 4.064 -28.503 12.36
      vertex 0 -27.927 13.158
    endloop
  endfacet
  facet normal -2.18868e-17 -0.754672 0.656102
    outer loop
      vertex 4.064 -29.142 11.625
      vertex 4.064 -28.503 12.36
      vertex 0 -28.503 12.36
    endloop
  endfacet
  facet normal -2.18868e-17 -0.754672 0.656102
    outer loop
      vertex 0 -29.142 11.625
      vertex 4.064 -29.142 11.625
      vertex 0 -28.503 12.36
    endloop
  endfacet
  facet normal 1.18282e-17 -0.67997 0.73324
    outer loop
      vertex 4.064 -29.844 10.974
      vertex 4.064 -29.142 11.625
      vertex 0 -29.142 11.625
    endloop
  endfacet
  facet normal 1.18282e-17 -0.67997 0.73324
    outer loop
      vertex 0 -29.844 10.974
      vertex 4.064 -29.844 10.974
      vertex 0 -29.142 11.625
    endloop
  endfacet
  facet normal 4.44089e-17 -0.6 0.8
    outer loop
      vertex 4.064 -30.6 10.407
      vertex 4.064 -29.844 10.974
      vertex 0 -29.844 10.974
    endloop
  endfacet
  facet normal 4.44089e-17 -0.6 0.8
    outer loop
      vertex 0 -30.6 10.407
      vertex 4.064 -30.6 10.407
      vertex 0 -29.844 10.974
    endloop
  endfacet
  facet normal 7.54902e-17 -0.516381 0.856359
    outer loop
      vertex 4.064 -31.401 9.924
      vertex 4.064 -30.6 10.407
      vertex 0 -30.6 10.407
    endloop
  endfacet
  facet normal 7.54902e-17 -0.516381 0.856359
    outer loop
      vertex 0 -31.401 9.924
      vertex 4.064 -31.401 9.924
      vertex 0 -30.6 10.407
    endloop
  endfacet
  facet normal 1.10974e-16 -0.411587 0.911371
    outer loop
      vertex 1.524 -32.004 9.65168
      vertex 1.524 -32.238 9.546
      vertex 4.064 -32.238 9.546
    endloop
  endfacet
  facet normal 1.10974e-16 -0.411587 0.911371
    outer loop
      vertex 0 -31.401 9.924
      vertex 1.524 -32.004 9.65168
      vertex 4.064 -31.401 9.924
    endloop
  endfacet
  facet normal 1.10974e-16 -0.411587 0.911371
    outer loop
      vertex 4.064 -31.401 9.924
      vertex 1.524 -32.004 9.65168
      vertex 4.064 -32.238 9.546
    endloop
  endfacet
  facet normal 1.10974e-16 -0.411587 0.911371
    outer loop
      vertex 0 -32.004 9.65168
      vertex 1.524 -32.004 9.65168
      vertex 0 -31.401 9.924
    endloop
  endfacet
  facet normal 1.41321e-16 -0.313227 0.949678
    outer loop
      vertex 4.064 -33.093 9.264
      vertex 4.064 -32.238 9.546
      vertex 1.524 -32.238 9.546
    endloop
  endfacet
  facet normal 1.41321e-16 -0.313227 0.949678
    outer loop
      vertex 1.524 -33.093 9.264
      vertex 4.064 -33.093 9.264
      vertex 1.524 -32.238 9.546
    endloop
  endfacet
  facet normal 1.73678e-16 -0.19802 0.980198
    outer loop
      vertex 4.064 -33.984 9.084
      vertex 4.064 -33.093 9.264
      vertex 1.524 -33.093 9.264
    endloop
  endfacet
  facet normal 1.73678e-16 -0.19802 0.980198
    outer loop
      vertex 1.524 -33.984 9.084
      vertex 4.064 -33.984 9.084
      vertex 1.524 -33.093 9.264
    endloop
  endfacet
  facet normal 2.00223e-16 -0.0938599 0.995585
    outer loop
      vertex 4.064 -34.875 9
      vertex 4.064 -33.984 9.084
      vertex 1.524 -33.984 9.084
    endloop
  endfacet
  facet normal 2.00223e-16 -0.0938599 0.995585
    outer loop
      vertex 1.524 -34.875 9
      vertex 4.064 -34.875 9
      vertex 1.524 -33.984 9.084
    endloop
  endfacet
  facet normal 2.29319e-16 0.0333148 0.999445
    outer loop
      vertex 4.064 -35.775 9.03
      vertex 4.064 -34.875 9
      vertex 1.524 -34.875 9
    endloop
  endfacet
  facet normal 2.29319e-16 0.0333148 0.999445
    outer loop
      vertex 1.524 -35.775 9.03
      vertex 4.064 -35.775 9.03
      vertex 1.524 -34.875 9
    endloop
  endfacet
  facet normal 2.5157e-16 0.143287 0.989681
    outer loop
      vertex 4.064 -36.666 9.159
      vertex 4.064 -35.775 9.03
      vertex 1.524 -35.775 9.03
    endloop
  endfacet
  facet normal 2.5157e-16 0.143287 0.989681
    outer loop
      vertex 1.524 -36.666 9.159
      vertex 4.064 -36.666 9.159
      vertex 1.524 -35.775 9.03
    endloop
  endfacet
  facet normal 2.71456e-16 0.255801 0.966729
    outer loop
      vertex 4.064 -37.539 9.39
      vertex 4.064 -36.666 9.159
      vertex 1.524 -36.666 9.159
    endloop
  endfacet
  facet normal 2.71456e-16 0.255801 0.966729
    outer loop
      vertex 1.524 -37.539 9.39
      vertex 4.064 -37.539 9.39
      vertex 1.524 -36.666 9.159
    endloop
  endfacet
  facet normal 2.88325e-16 0.369117 0.929383
    outer loop
      vertex 4.064 -38.385 9.726
      vertex 4.064 -37.539 9.39
      vertex 1.524 -37.539 9.39
    endloop
  endfacet
  facet normal 2.88325e-16 0.369117 0.929383
    outer loop
      vertex 1.524 -38.385 9.726
      vertex 4.064 -38.385 9.726
      vertex 1.524 -37.539 9.39
    endloop
  endfacet
  facet normal 2.99724e-16 0.464007 0.885832
    outer loop
      vertex 4.064 -39.204 10.155
      vertex 4.064 -38.385 9.726
      vertex 1.524 -38.385 9.726
    endloop
  endfacet
  facet normal 2.99724e-16 0.464007 0.885832
    outer loop
      vertex 1.524 -39.204 10.155
      vertex 4.064 -39.204 10.155
      vertex 1.524 -38.385 9.726
    endloop
  endfacet
  facet normal 3.08082e-16 0.556901 0.830579
    outer loop
      vertex 4.064 -39.987 10.68
      vertex 4.064 -39.204 10.155
      vertex 1.524 -39.204 10.155
    endloop
  endfacet
  facet normal 3.08082e-16 0.556901 0.830579
    outer loop
      vertex 1.524 -39.987 10.68
      vertex 4.064 -39.987 10.68
      vertex 1.524 -39.204 10.155
    endloop
  endfacet
  facet normal 3.12929e-16 0.6458 0.763507
    outer loop
      vertex 4.064 -40.707 11.289
      vertex 4.064 -39.987 10.68
      vertex 1.524 -39.987 10.68
    endloop
  endfacet
  facet normal 3.12929e-16 0.6458 0.763507
    outer loop
      vertex 1.524 -40.707 11.289
      vertex 4.064 -40.707 11.289
      vertex 1.524 -39.987 10.68
    endloop
  endfacet
  facet normal 3.13991e-16 0.716349 0.697742
    outer loop
      vertex 4.064 -40.707 11.289
      vertex 1.524 -40.707 11.289
      vertex 4.064 -41.382 11.982
    endloop
  endfacet
  facet normal 3.13991e-16 0.716349 0.697742
    outer loop
      vertex 4.064 -41.382 11.982
      vertex 1.524 -40.707 11.289
      vertex 1.524 -41.382 11.982
    endloop
  endfacet
  facet normal 3.12031e-16 0.78206 0.623204
    outer loop
      vertex 4.064 -41.382 11.982
      vertex 1.524 -41.382 11.982
      vertex 4.064 -41.994 12.75
    endloop
  endfacet
  facet normal 3.12031e-16 0.78206 0.623204
    outer loop
      vertex 4.064 -41.994 12.75
      vertex 1.524 -41.382 11.982
      vertex 1.524 -41.994 12.75
    endloop
  endfacet
  facet normal 3.06851e-16 0.841178 0.540758
    outer loop
      vertex 4.064 -41.994 12.75
      vertex 1.524 -41.994 12.75
      vertex 4.064 -42.534 13.59
    endloop
  endfacet
  facet normal 3.06851e-16 0.841178 0.540758
    outer loop
      vertex 4.064 -42.534 13.59
      vertex 1.524 -41.994 12.75
      vertex 1.524 -42.534 13.59
    endloop
  endfacet
  facet normal 2.9983e-16 0.885306 0.465009
    outer loop
      vertex 4.064 -42.534 13.59
      vertex 1.524 -42.534 13.59
      vertex 4.064 -43.002 14.481
    endloop
  endfacet
  facet normal 2.9983e-16 0.885306 0.465009
    outer loop
      vertex 4.064 -43.002 14.481
      vertex 1.524 -42.534 13.59
      vertex 1.524 -43.002 14.481
    endloop
  endfacet
  facet normal 2.89631e-16 0.925407 0.378976
    outer loop
      vertex 4.064 -43.002 14.481
      vertex 1.524 -43.002 14.481
      vertex 4.064 -43.389 15.426
    endloop
  endfacet
  facet normal 2.89631e-16 0.925407 0.378976
    outer loop
      vertex 4.064 -43.389 15.426
      vertex 1.524 -43.002 14.481
      vertex 1.524 -43.389 15.426
    endloop
  endfacet
  facet normal 2.79554e-16 0.951571 0.30743
    outer loop
      vertex 4.064 -43.389 15.426
      vertex 1.524 -43.389 15.426
      vertex 4.064 -43.704 16.401
    endloop
  endfacet
  facet normal 2.79554e-16 0.951571 0.30743
    outer loop
      vertex 4.064 -43.704 16.401
      vertex 1.524 -43.389 15.426
      vertex 1.524 -43.704 16.401
    endloop
  endfacet
  facet normal 2.63228e-16 0.978305 0.20717
    outer loop
      vertex 4.064 -43.704 16.401
      vertex 1.524 -43.704 16.401
      vertex 4.064 -43.92 17.421
    endloop
  endfacet
  facet normal 2.63228e-16 0.978305 0.20717
    outer loop
      vertex 4.064 -43.92 17.421
      vertex 1.524 -43.704 16.401
      vertex 1.524 -43.92 17.421
    endloop
  endfacet
  facet normal 2.49042e-16 0.991503 0.130081
    outer loop
      vertex 4.064 -43.92 17.421
      vertex 1.524 -43.92 17.421
      vertex 4.064 -44.055 18.45
    endloop
  endfacet
  facet normal 2.49042e-16 0.991503 0.130081
    outer loop
      vertex 4.064 -44.055 18.45
      vertex 1.524 -43.92 17.421
      vertex 1.524 -44.055 18.45
    endloop
  endfacet
  facet normal 2.31348e-16 0.999083 0.0428178
    outer loop
      vertex 4.064 -44.055 18.45
      vertex 1.524 -44.055 18.45
      vertex 4.064 -44.1 19.5
    endloop
  endfacet
  facet normal 2.31348e-16 0.999083 0.0428178
    outer loop
      vertex 4.064 -44.1 19.5
      vertex 1.524 -44.055 18.45
      vertex 1.524 -44.1 19.5
    endloop
  endfacet
  facet normal 2.12333e-16 0.999083 -0.0428178
    outer loop
      vertex 4.064 -44.055 20.55
      vertex 4.064 -44.1 19.5
      vertex 1.524 -44.055 20.55
    endloop
  endfacet
  facet normal 2.12333e-16 0.999083 -0.0428178
    outer loop
      vertex 1.524 -44.055 20.55
      vertex 4.064 -44.1 19.5
      vertex 1.524 -44.1 19.5
    endloop
  endfacet
  facet normal 1.91274e-16 0.991503 -0.130081
    outer loop
      vertex 4.064 -43.92 21.579
      vertex 4.064 -44.055 20.55
      vertex 1.524 -43.92 21.579
    endloop
  endfacet
  facet normal 1.91274e-16 0.991503 -0.130081
    outer loop
      vertex 1.524 -43.92 21.579
      vertex 4.064 -44.055 20.55
      vertex 1.524 -44.055 20.55
    endloop
  endfacet
  facet normal 1.71226e-16 0.978305 -0.20717
    outer loop
      vertex 4.064 -43.704 22.599
      vertex 4.064 -43.92 21.579
      vertex 1.524 -43.704 22.599
    endloop
  endfacet
  facet normal 1.71226e-16 0.978305 -0.20717
    outer loop
      vertex 1.524 -43.704 22.599
      vertex 4.064 -43.92 21.579
      vertex 1.524 -43.92 21.579
    endloop
  endfacet
  facet normal 1.43028e-16 0.951571 -0.30743
    outer loop
      vertex 4.064 -43.389 23.574
      vertex 4.064 -43.704 22.599
      vertex 1.524 -43.389 23.574
    endloop
  endfacet
  facet normal 1.43028e-16 0.951571 -0.30743
    outer loop
      vertex 1.524 -43.389 23.574
      vertex 4.064 -43.704 22.599
      vertex 1.524 -43.704 22.599
    endloop
  endfacet
  facet normal 1.21332e-16 0.925407 -0.378976
    outer loop
      vertex 4.064 -43.002 24.519
      vertex 4.064 -43.389 23.574
      vertex 1.524 -43.002 24.519
    endloop
  endfacet
  facet normal 1.21332e-16 0.925407 -0.378976
    outer loop
      vertex 1.524 -43.002 24.519
      vertex 4.064 -43.389 23.574
      vertex 1.524 -43.389 23.574
    endloop
  endfacet
  facet normal 9.33246e-17 0.885306 -0.465009
    outer loop
      vertex 4.064 -42.534 25.41
      vertex 4.064 -43.002 24.519
      vertex 1.524 -42.534 25.41
    endloop
  endfacet
  facet normal 9.33246e-17 0.885306 -0.465009
    outer loop
      vertex 1.524 -42.534 25.41
      vertex 4.064 -43.002 24.519
      vertex 1.524 -43.002 24.519
    endloop
  endfacet
  facet normal 6.67068e-17 0.841178 -0.540758
    outer loop
      vertex 4.064 -41.994 26.25
      vertex 4.064 -42.534 25.41
      vertex 1.524 -41.994 26.25
    endloop
  endfacet
  facet normal 6.67068e-17 0.841178 -0.540758
    outer loop
      vertex 1.524 -41.994 26.25
      vertex 4.064 -42.534 25.41
      vertex 1.524 -42.534 25.41
    endloop
  endfacet
  facet normal 3.52731e-17 0.78206 -0.623204
    outer loop
      vertex 4.064 -41.382 27.018
      vertex 4.064 -41.994 26.25
      vertex 1.524 -41.382 27.018
    endloop
  endfacet
  facet normal 3.52731e-17 0.78206 -0.623204
    outer loop
      vertex 1.524 -41.382 27.018
      vertex 4.064 -41.994 26.25
      vertex 1.524 -41.994 26.25
    endloop
  endfacet
  facet normal 4.13146e-18 0.716349 -0.697742
    outer loop
      vertex 4.064 -40.707 27.711
      vertex 4.064 -41.382 27.018
      vertex 1.524 -40.707 27.711
    endloop
  endfacet
  facet normal 4.13146e-18 0.716349 -0.697742
    outer loop
      vertex 1.524 -40.707 27.711
      vertex 4.064 -41.382 27.018
      vertex 1.524 -41.382 27.018
    endloop
  endfacet
  facet normal -2.61363e-17 0.6458 -0.763507
    outer loop
      vertex 4.064 -39.987 28.32
      vertex 4.064 -40.707 27.711
      vertex 1.524 -39.987 28.32
    endloop
  endfacet
  facet normal -2.61363e-17 0.6458 -0.763507
    outer loop
      vertex 1.524 -39.987 28.32
      vertex 4.064 -40.707 27.711
      vertex 1.524 -40.707 27.711
    endloop
  endfacet
  facet normal -6.07686e-17 0.556901 -0.830579
    outer loop
      vertex 4.064 -39.204 28.845
      vertex 4.064 -39.987 28.32
      vertex 1.524 -39.204 28.845
    endloop
  endfacet
  facet normal -6.07686e-17 0.556901 -0.830579
    outer loop
      vertex 1.524 -39.204 28.845
      vertex 4.064 -39.987 28.32
      vertex 1.524 -39.987 28.32
    endloop
  endfacet
  facet normal -9.36639e-17 0.464007 -0.885832
    outer loop
      vertex 4.064 -38.385 29.274
      vertex 4.064 -39.204 28.845
      vertex 1.524 -38.385 29.274
    endloop
  endfacet
  facet normal -9.36639e-17 0.464007 -0.885832
    outer loop
      vertex 1.524 -38.385 29.274
      vertex 4.064 -39.204 28.845
      vertex 1.524 -39.204 28.845
    endloop
  endfacet
  facet normal -1.24404e-16 0.369117 -0.929383
    outer loop
      vertex 4.064 -37.539 29.61
      vertex 4.064 -38.385 29.274
      vertex 1.524 -37.539 29.61
    endloop
  endfacet
  facet normal -1.24404e-16 0.369117 -0.929383
    outer loop
      vertex 1.524 -37.539 29.61
      vertex 4.064 -38.385 29.274
      vertex 1.524 -38.385 29.274
    endloop
  endfacet
  facet normal -1.57858e-16 0.255801 -0.966729
    outer loop
      vertex 4.064 -36.666 29.841
      vertex 4.064 -37.539 29.61
      vertex 1.524 -36.666 29.841
    endloop
  endfacet
  facet normal -1.57858e-16 0.255801 -0.966729
    outer loop
      vertex 1.524 -36.666 29.841
      vertex 4.064 -37.539 29.61
      vertex 1.524 -37.539 29.61
    endloop
  endfacet
  facet normal -1.87937e-16 0.143287 -0.989681
    outer loop
      vertex 4.064 -35.775 29.97
      vertex 4.064 -36.666 29.841
      vertex 1.524 -35.775 29.97
    endloop
  endfacet
  facet normal -1.87937e-16 0.143287 -0.989681
    outer loop
      vertex 1.524 -35.775 29.97
      vertex 4.064 -36.666 29.841
      vertex 1.524 -36.666 29.841
    endloop
  endfacet
  facet normal -2.14524e-16 0.0333148 -0.999445
    outer loop
      vertex 4.064 -34.875 30
      vertex 4.064 -35.775 29.97
      vertex 1.524 -34.875 30
    endloop
  endfacet
  facet normal -2.14524e-16 0.0333148 -0.999445
    outer loop
      vertex 1.524 -34.875 30
      vertex 4.064 -35.775 29.97
      vertex 1.524 -35.775 29.97
    endloop
  endfacet
  facet normal -2.41905e-16 -0.0938599 -0.995585
    outer loop
      vertex 4.064 -33.984 29.916
      vertex 4.064 -34.875 30
      vertex 1.524 -33.984 29.916
    endloop
  endfacet
  facet normal -2.41905e-16 -0.0938599 -0.995585
    outer loop
      vertex 1.524 -33.984 29.916
      vertex 4.064 -34.875 30
      vertex 1.524 -34.875 30
    endloop
  endfacet
  facet normal -2.61617e-16 -0.19802 -0.980198
    outer loop
      vertex 4.064 -33.093 29.736
      vertex 4.064 -33.984 29.916
      vertex 1.524 -33.093 29.736
    endloop
  endfacet
  facet normal -2.61617e-16 -0.19802 -0.980198
    outer loop
      vertex 1.524 -33.093 29.736
      vertex 4.064 -33.984 29.916
      vertex 1.524 -33.984 29.916
    endloop
  endfacet
  facet normal -2.80421e-16 -0.313227 -0.949678
    outer loop
      vertex 4.064 -32.238 29.454
      vertex 4.064 -33.093 29.736
      vertex 1.524 -32.238 29.454
    endloop
  endfacet
  facet normal -2.80421e-16 -0.313227 -0.949678
    outer loop
      vertex 1.524 -32.238 29.454
      vertex 4.064 -33.093 29.736
      vertex 1.524 -33.093 29.736
    endloop
  endfacet
  facet normal -2.22045e-16 -1 4.93038e-32
    outer loop
      vertex 4.064 -21.6 21.0003
      vertex 4.064 -21.6 30.0003
      vertex 1.524 -21.6 30.0003
    endloop
  endfacet
  facet normal -2.22045e-16 -1 4.93038e-32
    outer loop
      vertex 1.524 -21.6 21.0003
      vertex 4.064 -21.6 21.0003
      vertex 1.524 -21.6 30.0003
    endloop
  endfacet
  facet normal -2.22045e-16 4.93038e-32 -1
    outer loop
      vertex 4.064 -12.6003 21.0003
      vertex 4.064 -21.6 21.0003
      vertex 1.524 -12.6003 21.0003
    endloop
  endfacet
  facet normal -2.22045e-16 4.93038e-32 -1
    outer loop
      vertex 1.524 -12.6003 21.0003
      vertex 4.064 -21.6 21.0003
      vertex 1.524 -21.6 21.0003
    endloop
  endfacet
  facet normal 2.22045e-16 1 -4.93038e-32
    outer loop
      vertex 4.064 -12.6003 30.0003
      vertex 4.064 -12.6003 21.0003
      vertex 1.524 -12.6003 30.0003
    endloop
  endfacet
  facet normal 2.22045e-16 1 -4.93038e-32
    outer loop
      vertex 1.524 -12.6003 30.0003
      vertex 4.064 -12.6003 21.0003
      vertex 1.524 -12.6003 21.0003
    endloop
  endfacet
  facet normal -2.22045e-16 4.93038e-32 -1
    outer loop
      vertex 4.064 -9.6 30.0003
      vertex 4.064 -12.6003 30.0003
      vertex 1.524 -9.6 30.0003
    endloop
  endfacet
  facet normal -2.22045e-16 4.93038e-32 -1
    outer loop
      vertex 1.524 -9.6 30.0003
      vertex 4.064 -12.6003 30.0003
      vertex 1.524 -12.6003 30.0003
    endloop
  endfacet
  facet normal -2.22045e-16 -1 4.93038e-32
    outer loop
      vertex 4.064 -9.6 9
      vertex 4.064 -9.6 30.0003
      vertex 1.524 -9.6 30.0003
    endloop
  endfacet
  facet normal -2.22045e-16 -1 4.93038e-32
    outer loop
      vertex 1.524 -9.6 9
      vertex 4.064 -9.6 9
      vertex 1.524 -9.6 30.0003
    endloop
  endfacet
  facet normal 2.22045e-16 -4.93038e-32 1
    outer loop
      vertex 4.064 -12.6003 9
      vertex 4.064 -9.6 9
      vertex 1.524 -9.6 9
    endloop
  endfacet
  facet normal 2.22045e-16 -4.93038e-32 1
    outer loop
      vertex 1.524 -12.6003 9
      vertex 4.064 -12.6003 9
      vertex 1.524 -9.6 9
    endloop
  endfacet
  facet normal 2.22045e-16 1 -4.93038e-32
    outer loop
      vertex 4.064 -12.6003 18
      vertex 4.064 -12.6003 9
      vertex 1.524 -12.6003 18
    endloop
  endfacet
  facet normal 2.22045e-16 1 -4.93038e-32
    outer loop
      vertex 1.524 -12.6003 18
      vertex 4.064 -12.6003 9
      vertex 1.524 -12.6003 9
    endloop
  endfacet
  facet normal 2.22045e-16 -4.93038e-32 1
    outer loop
      vertex 4.064 -21.6 18
      vertex 4.064 -12.6003 18
      vertex 1.524 -12.6003 18
    endloop
  endfacet
  facet normal 2.22045e-16 -4.93038e-32 1
    outer loop
      vertex 1.524 -21.6 18
      vertex 4.064 -21.6 18
      vertex 1.524 -12.6003 18
    endloop
  endfacet
  facet normal -2.22045e-16 -1 4.93038e-32
    outer loop
      vertex 4.064 -21.6 9
      vertex 4.064 -21.6 18
      vertex 1.524 -21.6 18
    endloop
  endfacet
  facet normal -2.22045e-16 -1 4.93038e-32
    outer loop
      vertex 1.524 -21.6 9
      vertex 4.064 -21.6 9
      vertex 1.524 -21.6 18
    endloop
  endfacet
  facet normal 1 0 0
    outer loop
      vertex 4.064 -32.238 9.546
      vertex 4.064 -49.784 2.54
      vertex 4.064 -4.064 2.54
    endloop
  endfacet
  facet normal 1 0 0
    outer loop
      vertex 4.064 -21.6 9
      vertex 4.064 -24.6003 9
      vertex 4.064 -4.064 2.54
    endloop
  endfacet
  facet normal 1 0 0
    outer loop
      vertex 4.064 -49.784 37.338
      vertex 4.064 -49.784 2.54
      vertex 4.064 -44.055 18.45
    endloop
  endfacet
  facet normal 1 0 0
    outer loop
      vertex 4.064 -49.784 37.338
      vertex 4.064 -44.055 18.45
      vertex 4.064 -44.1 19.5
    endloop
  endfacet
  facet normal 1 0 0
    outer loop
      vertex 4.064 -49.784 37.338
      vertex 4.064 -44.1 19.5
      vertex 4.064 -44.055 20.55
    endloop
  endfacet
  facet normal 1 0 0
    outer loop
      vertex 4.064 -49.784 37.338
      vertex 4.064 -44.055 20.55
      vertex 4.064 -43.92 21.579
    endloop
  endfacet
  facet normal 1 0 0
    outer loop
      vertex 4.064 -49.784 37.338
      vertex 4.064 -43.92 21.579
      vertex 4.064 -43.704 22.599
    endloop
  endfacet
  facet normal 1 0 0
    outer loop
      vertex 4.064 -49.784 37.338
      vertex 4.064 -43.704 22.599
      vertex 4.064 -43.389 23.574
    endloop
  endfacet
  facet normal 1 0 0
    outer loop
      vertex 4.064 -49.784 37.338
      vertex 4.064 -43.389 23.574
      vertex 4.064 -43.002 24.519
    endloop
  endfacet
  facet normal 1 0 0
    outer loop
      vertex 4.064 -49.784 37.338
      vertex 4.064 -43.002 24.519
      vertex 4.064 -42.534 25.41
    endloop
  endfacet
  facet normal 1 0 0
    outer loop
      vertex 4.064 -49.784 37.338
      vertex 4.064 -42.534 25.41
      vertex 4.064 -41.994 26.25
    endloop
  endfacet
  facet normal 1 0 0
    outer loop
      vertex 4.064 -49.784 37.338
      vertex 4.064 -41.994 26.25
      vertex 4.064 -41.382 27.018
    endloop
  endfacet
  facet normal 1 0 0
    outer loop
      vertex 4.064 -49.784 37.338
      vertex 4.064 -41.382 27.018
      vertex 4.064 -40.707 27.711
    endloop
  endfacet
  facet normal 1 0 0
    outer loop
      vertex 4.064 -49.784 37.338
      vertex 4.064 -40.707 27.711
      vertex 4.064 -39.987 28.32
    endloop
  endfacet
  facet normal 1 0 0
    outer loop
      vertex 4.064 -49.784 37.338
      vertex 4.064 -39.987 28.32
      vertex 4.064 -39.204 28.845
    endloop
  endfacet
  facet normal 1 0 0
    outer loop
      vertex 4.064 -37.539 29.61
      vertex 4.064 -49.784 37.338
      vertex 4.064 -38.385 29.274
    endloop
  endfacet
  facet normal 1 0 0
    outer loop
      vertex 4.064 -36.666 29.841
      vertex 4.064 -49.784 37.338
      vertex 4.064 -37.539 29.61
    endloop
  endfacet
  facet normal 1 0 0
    outer loop
      vertex 4.064 -35.775 29.97
      vertex 4.064 -34.875 30
      vertex 4.064 -4.064 37.338
    endloop
  endfacet
  facet normal 1 0 0
    outer loop
      vertex 4.064 -4.064 37.338
      vertex 4.064 -49.784 37.338
      vertex 4.064 -36.666 29.841
    endloop
  endfacet
  facet normal 1 0 0
    outer loop
      vertex 4.064 -4.064 37.338
      vertex 4.064 -34.875 30
      vertex 4.064 -33.984 29.916
    endloop
  endfacet
  facet normal 1 0 0
    outer loop
      vertex 4.064 -4.064 37.338
      vertex 4.064 -33.984 29.916
      vertex 4.064 -33.093 29.736
    endloop
  endfacet
  facet normal 1 0 0
    outer loop
      vertex 4.064 -4.064 37.338
      vertex 4.064 -33.093 29.736
      vertex 4.064 -32.238 29.454
    endloop
  endfacet
  facet normal 1 0 0
    outer loop
      vertex 4.064 -4.064 37.338
      vertex 4.064 -32.238 29.454
      vertex 4.064 -31.401 29.076
    endloop
  endfacet
  facet normal 1 0 0
    outer loop
      vertex 4.064 -4.064 37.338
      vertex 4.064 -31.401 29.076
      vertex 4.064 -30.6 28.593
    endloop
  endfacet
  facet normal 1 0 0
    outer loop
      vertex 4.064 -24.6003 30.0003
      vertex 4.064 -30.6 28.593
      vertex 4.064 -29.844 28.026
    endloop
  endfacet
  facet normal 1 0 0
    outer loop
      vertex 4.064 -24.6003 9
      vertex 4.064 -29.142 11.625
      vertex 4.064 -29.844 10.974
    endloop
  endfacet
  facet normal 1 0 0
    outer loop
      vertex 4.064 -24.6003 9
      vertex 4.064 -30.6 10.407
      vertex 4.064 -4.064 2.54
    endloop
  endfacet
  facet normal 1 0 0
    outer loop
      vertex 4.064 -30.6 10.407
      vertex 4.064 -31.401 9.924
      vertex 4.064 -4.064 2.54
    endloop
  endfacet
  facet normal 1 0 0
    outer loop
      vertex 4.064 -31.401 9.924
      vertex 4.064 -32.238 9.546
      vertex 4.064 -4.064 2.54
    endloop
  endfacet
  facet normal 1 0 0
    outer loop
      vertex 4.064 -33.093 9.264
      vertex 4.064 -33.984 9.084
      vertex 4.064 -49.784 2.54
    endloop
  endfacet
  facet normal 1 0 0
    outer loop
      vertex 4.064 -33.984 9.084
      vertex 4.064 -34.875 9
      vertex 4.064 -49.784 2.54
    endloop
  endfacet
  facet normal 1 0 0
    outer loop
      vertex 4.064 -34.875 9
      vertex 4.064 -35.775 9.03
      vertex 4.064 -49.784 2.54
    endloop
  endfacet
  facet normal 1 0 0
    outer loop
      vertex 4.064 -36.666 9.159
      vertex 4.064 -49.784 2.54
      vertex 4.064 -35.775 9.03
    endloop
  endfacet
  facet normal 1 0 0
    outer loop
      vertex 4.064 -37.539 9.39
      vertex 4.064 -49.784 2.54
      vertex 4.064 -36.666 9.159
    endloop
  endfacet
  facet normal 1 0 0
    outer loop
      vertex 4.064 -38.385 9.726
      vertex 4.064 -49.784 2.54
      vertex 4.064 -37.539 9.39
    endloop
  endfacet
  facet normal 1 0 0
    outer loop
      vertex 4.064 -39.204 10.155
      vertex 4.064 -49.784 2.54
      vertex 4.064 -38.385 9.726
    endloop
  endfacet
  facet normal 1 0 0
    outer loop
      vertex 4.064 -39.987 10.68
      vertex 4.064 -49.784 2.54
      vertex 4.064 -39.204 10.155
    endloop
  endfacet
  facet normal 1 0 0
    outer loop
      vertex 4.064 -40.707 11.289
      vertex 4.064 -49.784 2.54
      vertex 4.064 -39.987 10.68
    endloop
  endfacet
  facet normal 1 0 0
    outer loop
      vertex 4.064 -41.382 11.982
      vertex 4.064 -49.784 2.54
      vertex 4.064 -40.707 11.289
    endloop
  endfacet
  facet normal 1 0 0
    outer loop
      vertex 4.064 -41.994 12.75
      vertex 4.064 -49.784 2.54
      vertex 4.064 -41.382 11.982
    endloop
  endfacet
  facet normal 1 0 0
    outer loop
      vertex 4.064 -42.534 13.59
      vertex 4.064 -49.784 2.54
      vertex 4.064 -41.994 12.75
    endloop
  endfacet
  facet normal 1 0 0
    outer loop
      vertex 4.064 -43.002 14.481
      vertex 4.064 -49.784 2.54
      vertex 4.064 -42.534 13.59
    endloop
  endfacet
  facet normal 1 0 0
    outer loop
      vertex 4.064 -43.389 15.426
      vertex 4.064 -49.784 2.54
      vertex 4.064 -43.002 14.481
    endloop
  endfacet
  facet normal 1 0 0
    outer loop
      vertex 4.064 -43.704 16.401
      vertex 4.064 -49.784 2.54
      vertex 4.064 -43.389 15.426
    endloop
  endfacet
  facet normal 1 0 0
    outer loop
      vertex 4.064 -43.92 17.421
      vertex 4.064 -49.784 2.54
      vertex 4.064 -43.704 16.401
    endloop
  endfacet
  facet normal 1 0 0
    outer loop
      vertex 4.064 -44.055 18.45
      vertex 4.064 -49.784 2.54
      vertex 4.064 -43.92 17.421
    endloop
  endfacet
  facet normal 1 0 0
    outer loop
      vertex 4.064 -24.6003 30.0003
      vertex 4.064 -21.6 30.0003
      vertex 4.064 -4.064 37.338
    endloop
  endfacet
  facet normal 1 0 0
    outer loop
      vertex 4.064 -29.844 10.974
      vertex 4.064 -30.6 10.407
      vertex 4.064 -24.6003 9
    endloop
  endfacet
  facet normal 1 0 0
    outer loop
      vertex 4.064 -4.064 37.338
      vertex 4.064 -30.6 28.593
      vertex 4.064 -24.6003 30.0003
    endloop
  endfacet
  facet normal 1 0 0
    outer loop
      vertex 4.064 -21.6 21.0003
      vertex 4.064 -12.6003 21.0003
      vertex 4.064 -21.6 30.0003
    endloop
  endfacet
  facet normal 1 0 0
    outer loop
      vertex 4.064 -9.6 9
      vertex 4.064 -12.6003 9
      vertex 4.064 -4.064 2.54
    endloop
  endfacet
  facet normal 1 0 0
    outer loop
      vertex 4.064 -12.6003 30.0003
      vertex 4.064 -21.6 30.0003
      vertex 4.064 -12.6003 21.0003
    endloop
  endfacet
  facet normal 1 0 0
    outer loop
      vertex 4.064 -4.064 37.338
      vertex 4.064 -21.6 30.0003
      vertex 4.064 -12.6003 30.0003
    endloop
  endfacet
  facet normal 1 0 0
    outer loop
      vertex 4.064 -4.064 37.338
      vertex 4.064 -12.6003 30.0003
      vertex 4.064 -9.6 30.0003
    endloop
  endfacet
  facet normal 1 0 0
    outer loop
      vertex 4.064 -9.6 30.0003
      vertex 4.064 -4.064 2.54
      vertex 4.064 -4.064 37.338
    endloop
  endfacet
  facet normal 1 0 0
    outer loop
      vertex 4.064 -9.6 30.0003
      vertex 4.064 -9.6 9
      vertex 4.064 -4.064 2.54
    endloop
  endfacet
  facet normal 1 0 0
    outer loop
      vertex 4.064 -36.666 29.841
      vertex 4.064 -35.775 29.97
      vertex 4.064 -4.064 37.338
    endloop
  endfacet
  facet normal 1 0 0
    outer loop
      vertex 4.064 -12.6003 18
      vertex 4.064 -21.6 18
      vertex 4.064 -12.6003 9
    endloop
  endfacet
  facet normal 1 0 0
    outer loop
      vertex 4.064 -32.238 9.546
      vertex 4.064 -33.093 9.264
      vertex 4.064 -49.784 2.54
    endloop
  endfacet
  facet normal 1 0 0
    outer loop
      vertex 4.064 -39.204 28.845
      vertex 4.064 -38.385 29.274
      vertex 4.064 -49.784 37.338
    endloop
  endfacet
  facet normal 1 0 0
    outer loop
      vertex 4.064 -12.6003 9
      vertex 4.064 -21.6 9
      vertex 4.064 -4.064 2.54
    endloop
  endfacet
  facet normal 1 0 0
    outer loop
      vertex 4.064 -21.6 18
      vertex 4.064 -21.6 9
      vertex 4.064 -12.6003 9
    endloop
  endfacet
  facet normal 1 0 0
    outer loop
      vertex 4.064 -24.6003 9
      vertex 4.064 -28.503 12.36
      vertex 4.064 -29.142 11.625
    endloop
  endfacet
  facet normal 1 0 0
    outer loop
      vertex 4.064 -24.6003 9
      vertex 4.064 -27.927 13.158
      vertex 4.064 -28.503 12.36
    endloop
  endfacet
  facet normal 1 0 0
    outer loop
      vertex 4.064 -24.6003 9
      vertex 4.064 -27.423 14.031
      vertex 4.064 -27.927 13.158
    endloop
  endfacet
  facet normal 1 0 0
    outer loop
      vertex 4.064 -24.6003 9
      vertex 4.064 -26.991 14.943
      vertex 4.064 -27.423 14.031
    endloop
  endfacet
  facet normal 1 0 0
    outer loop
      vertex 4.064 -24.6003 9
      vertex 4.064 -26.64 15.909
      vertex 4.064 -26.991 14.943
    endloop
  endfacet
  facet normal 1 0 0
    outer loop
      vertex 4.064 -24.6003 9
      vertex 4.064 -26.379 16.908
      vertex 4.064 -26.64 15.909
    endloop
  endfacet
  facet normal 1 0 0
    outer loop
      vertex 4.064 -24.6003 9
      vertex 4.064 -26.199 17.934
      vertex 4.064 -26.379 16.908
    endloop
  endfacet
  facet normal 1 0 0
    outer loop
      vertex 4.064 -24.6003 9
      vertex 4.064 -26.109 18.975
      vertex 4.064 -26.199 17.934
    endloop
  endfacet
  facet normal 1 0 0
    outer loop
      vertex 4.064 -24.6003 9
      vertex 4.064 -26.109 20.025
      vertex 4.064 -26.109 18.975
    endloop
  endfacet
  facet normal 1 0 0
    outer loop
      vertex 4.064 -24.6003 9
      vertex 4.064 -26.199 21.066
      vertex 4.064 -26.109 20.025
    endloop
  endfacet
  facet normal 1 0 0
    outer loop
      vertex 4.064 -29.142 27.375
      vertex 4.064 -24.6003 30.0003
      vertex 4.064 -29.844 28.026
    endloop
  endfacet
  facet normal 1 0 0
    outer loop
      vertex 4.064 -28.503 26.64
      vertex 4.064 -24.6003 30.0003
      vertex 4.064 -29.142 27.375
    endloop
  endfacet
  facet normal 1 0 0
    outer loop
      vertex 4.064 -27.927 25.842
      vertex 4.064 -24.6003 30.0003
      vertex 4.064 -28.503 26.64
    endloop
  endfacet
  facet normal 1 0 0
    outer loop
      vertex 4.064 -27.423 24.969
      vertex 4.064 -24.6003 30.0003
      vertex 4.064 -27.927 25.842
    endloop
  endfacet
  facet normal 1 0 0
    outer loop
      vertex 4.064 -26.991 24.057
      vertex 4.064 -24.6003 30.0003
      vertex 4.064 -27.423 24.969
    endloop
  endfacet
  facet normal 1 0 0
    outer loop
      vertex 4.064 -26.64 23.091
      vertex 4.064 -24.6003 30.0003
      vertex 4.064 -26.991 24.057
    endloop
  endfacet
  facet normal 1 0 0
    outer loop
      vertex 4.064 -26.379 22.092
      vertex 4.064 -24.6003 30.0003
      vertex 4.064 -26.64 23.091
    endloop
  endfacet
  facet normal 1 0 0
    outer loop
      vertex 4.064 -26.199 21.066
      vertex 4.064 -24.6003 30.0003
      vertex 4.064 -26.379 22.092
    endloop
  endfacet
  facet normal 1 0 0
    outer loop
      vertex 4.064 -24.6003 9
      vertex 4.064 -24.6003 30.0003
      vertex 4.064 -26.199 21.066
    endloop
  endfacet
  facet normal 0 0.707107 0.707107
    outer loop
      vertex 3.302 -50.546 38.1
      vertex 50.546 -50.546 38.1
      vertex 4.064 -49.784 37.338
    endloop
  endfacet
  facet normal 0 0.707107 0.707107
    outer loop
      vertex 4.064 -49.784 37.338
      vertex 50.546 -50.546 38.1
      vertex 49.784 -49.784 37.338
    endloop
  endfacet
  facet normal 0.707107 1.57009e-16 0.707106
    outer loop
      vertex 3.302 -3.302 38.1
      vertex 3.302 -50.546 38.1
      vertex 4.064 -49.784 37.338
    endloop
  endfacet
  facet normal 0.707107 1.57009e-16 0.707106
    outer loop
      vertex 4.064 -4.064 37.338
      vertex 3.302 -3.302 38.1
      vertex 4.064 -49.784 37.338
    endloop
  endfacet
  facet normal -0.707107 1.57009e-16 0.707107
    outer loop
      vertex 49.784 -49.784 37.338
      vertex 50.546 -50.546 38.1
      vertex 49.784 -4.064 37.338
    endloop
  endfacet
  facet normal -0.707107 1.57009e-16 0.707107
    outer loop
      vertex 49.784 -4.064 37.338
      vertex 50.546 -50.546 38.1
      vertex 50.546 -3.302 38.1
    endloop
  endfacet
  facet normal 0 -0.707107 0.707106
    outer loop
      vertex 50.546 -3.302 38.1
      vertex 3.302 -3.302 38.1
      vertex 4.064 -4.064 37.338
    endloop
  endfacet
  facet normal 0 -0.707107 0.707106
    outer loop
      vertex 49.784 -4.064 37.338
      vertex 50.546 -3.302 38.1
      vertex 4.064 -4.064 37.338
    endloop
  endfacet
  facet normal 0 1 -2.22045e-16
    outer loop
      vertex 4.064 -49.784 2.54
      vertex 4.064 -49.784 37.338
      vertex 49.784 -49.784 2.54
    endloop
  endfacet
  facet normal 0 1 -2.22045e-16
    outer loop
      vertex 49.784 -49.784 2.54
      vertex 4.064 -49.784 37.338
      vertex 49.784 -49.784 37.338
    endloop
  endfacet
  facet normal 0 -1 2.22045e-16
    outer loop
      vertex 4.064 -4.064 37.338
      vertex 4.064 -4.064 2.54
      vertex 49.784 -4.064 2.54
    endloop
  endfacet
  facet normal 0 -1 2.22045e-16
    outer loop
      vertex 49.784 -4.064 37.338
      vertex 4.064 -4.064 37.338
      vertex 49.784 -4.064 2.54
    endloop
  endfacet
  facet normal 0 2.22045e-16 1
    outer loop
      vertex 4.064 -4.064 2.54
      vertex 4.064 -49.784 2.54
      vertex 49.784 -49.784 2.54
    endloop
  endfacet
  facet normal 0 2.22045e-16 1
    outer loop
      vertex 49.784 -4.064 2.54
      vertex 4.064 -4.064 2.54
      vertex 49.784 -49.784 2.54
    endloop
  endfacet
  facet normal -1 0 0
    outer loop
      vertex 49.784 -49.784 2.54
      vertex 49.784 -49.784 37.338
      vertex 49.784 -4.064 2.54
    endloop
  endfacet
  facet normal -1 0 0
    outer loop
      vertex 49.784 -4.064 2.54
      vertex 49.784 -49.784 37.338
      vertex 49.784 -4.064 37.338
    endloop
  endfacet
endsolid OpenSCAD_Model
