solid OpenSCAD_Model
  facet normal 0 -2.22045e-16 -1
    outer loop
      vertex 0 -32.004 7.10632e-15
      vertex 0 -21.844 4.85034e-15
      vertex 1.524 -32.004 7.10632e-15
    endloop
  endfacet
  facet normal 0 -2.22045e-16 -1
    outer loop
      vertex 1.524 -32.004 7.10632e-15
      vertex 0 -21.844 4.85034e-15
      vertex 1.524 -21.844 4.85034e-15
    endloop
  endfacet
  facet normal 0 -2.22045e-16 -1
    outer loop
      vertex 1.524 -21.844 4.85034e-15
      vertex 1.524 -4.064 9.02389e-16
      vertex 1.56259 -3.62293 8.04453e-16
    endloop
  endfacet
  facet normal 0 -2.22045e-16 -1
    outer loop
      vertex 1.524 -21.844 4.85034e-15
      vertex 1.56259 -3.62293 8.04453e-16
      vertex 1.524 -32.004 7.10632e-15
    endloop
  endfacet
  facet normal 0 -2.22045e-16 -1
    outer loop
      vertex 1.524 -32.004 7.10632e-15
      vertex 1.56259 -3.62293 8.04453e-16
      vertex 1.67718 -3.19527 7.09493e-16
    endloop
  endfacet
  facet normal 0 -2.22045e-16 -1
    outer loop
      vertex 1.524 -32.004 7.10632e-15
      vertex 1.67718 -3.19527 7.09493e-16
      vertex 1.86429 -2.794 6.20393e-16
    endloop
  endfacet
  facet normal 0 -2.22045e-16 -1
    outer loop
      vertex 1.524 -32.004 7.10632e-15
      vertex 1.86429 -2.794 6.20393e-16
      vertex 2.11825 -2.43132 5.39862e-16
    endloop
  endfacet
  facet normal 0 -2.22045e-16 -1
    outer loop
      vertex 1.524 -32.004 7.10632e-15
      vertex 2.11825 -2.43132 5.39862e-16
      vertex 2.43132 -2.11825 4.70346e-16
    endloop
  endfacet
  facet normal 0 -2.22045e-16 -1
    outer loop
      vertex 1.524 -32.004 7.10632e-15
      vertex 2.43132 -2.11825 4.70346e-16
      vertex 2.794 -1.86429 4.13957e-16
    endloop
  endfacet
  facet normal 0 -2.22045e-16 -1
    outer loop
      vertex 1.524 -32.004 7.10632e-15
      vertex 2.794 -1.86429 4.13957e-16
      vertex 3.19527 -1.67718 3.72409e-16
    endloop
  endfacet
  facet normal 0 -2.22045e-16 -1
    outer loop
      vertex 1.524 -32.004 7.10632e-15
      vertex 3.19527 -1.67718 3.72409e-16
      vertex 3.62293 -1.56259 3.46964e-16
    endloop
  endfacet
  facet normal 0 -2.22045e-16 -1
    outer loop
      vertex 1.524 -32.004 7.10632e-15
      vertex 3.62293 -1.56259 3.46964e-16
      vertex 4.064 -1.524 3.38396e-16
    endloop
  endfacet
  facet normal 0 -2.22045e-16 -1
    outer loop
      vertex 1.524 -32.004 7.10632e-15
      vertex 4.064 -1.524 3.38396e-16
      vertex 21.844 -1.524 3.38396e-16
    endloop
  endfacet
  facet normal 0 -2.22045e-16 -1
    outer loop
      vertex 21.844 -1.524 3.38396e-16
      vertex 21.844 0 0
      vertex 32.004 0 0
    endloop
  endfacet
  facet normal 0 -2.22045e-16 -1
    outer loop
      vertex 21.844 -1.524 3.38396e-16
      vertex 32.004 0 0
      vertex 1.524 -32.004 7.10632e-15
    endloop
  endfacet
  facet normal 0 -2.22045e-16 -1
    outer loop
      vertex 1.524 -32.004 7.10632e-15
      vertex 32.004 0 0
      vertex 32.004 -1.524 3.38396e-16
    endloop
  endfacet
  facet normal 0 -2.22045e-16 -1
    outer loop
      vertex 1.524 -32.004 7.10632e-15
      vertex 32.004 -1.524 3.38396e-16
      vertex 49.784 -1.524 3.38396e-16
    endloop
  endfacet
  facet normal 0 -2.22045e-16 -1
    outer loop
      vertex 1.524 -32.004 7.10632e-15
      vertex 49.784 -1.524 3.38396e-16
      vertex 50.2251 -1.56259 3.46964e-16
    endloop
  endfacet
  facet normal 0 -2.22045e-16 -1
    outer loop
      vertex 1.524 -32.004 7.10632e-15
      vertex 50.2251 -1.56259 3.46964e-16
      vertex 50.6527 -1.67718 3.72409e-16
    endloop
  endfacet
  facet normal 0 -2.22045e-16 -1
    outer loop
      vertex 1.524 -32.004 7.10632e-15
      vertex 50.6527 -1.67718 3.72409e-16
      vertex 51.054 -1.86429 4.13957e-16
    endloop
  endfacet
  facet normal 0 -2.22045e-16 -1
    outer loop
      vertex 1.524 -32.004 7.10632e-15
      vertex 51.054 -1.86429 4.13957e-16
      vertex 51.4167 -2.11825 4.70346e-16
    endloop
  endfacet
  facet normal 0 -2.22045e-16 -1
    outer loop
      vertex 1.524 -32.004 7.10632e-15
      vertex 51.4167 -2.11825 4.70346e-16
      vertex 51.7298 -2.43132 5.39862e-16
    endloop
  endfacet
  facet normal 0 -2.22045e-16 -1
    outer loop
      vertex 1.524 -32.004 7.10632e-15
      vertex 51.7298 -2.43132 5.39862e-16
      vertex 51.9837 -2.794 6.20393e-16
    endloop
  endfacet
  facet normal 0 -2.22045e-16 -1
    outer loop
      vertex 1.524 -32.004 7.10632e-15
      vertex 51.9837 -2.794 6.20393e-16
      vertex 52.1708 -3.19527 7.09493e-16
    endloop
  endfacet
  facet normal 0 -2.22045e-16 -1
    outer loop
      vertex 1.524 -32.004 7.10632e-15
      vertex 52.1708 -3.19527 7.09493e-16
      vertex 52.2854 -3.62293 8.04453e-16
    endloop
  endfacet
  facet normal 0 -2.22045e-16 -1
    outer loop
      vertex 1.524 -32.004 7.10632e-15
      vertex 52.2854 -3.62293 8.04453e-16
      vertex 52.324 -4.064 9.02389e-16
    endloop
  endfacet
  facet normal 0 -2.22045e-16 -1
    outer loop
      vertex 1.524 -32.004 7.10632e-15
      vertex 52.324 -4.064 9.02389e-16
      vertex 52.324 -21.844 4.85034e-15
    endloop
  endfacet
  facet normal 0 -2.22045e-16 -1
    outer loop
      vertex 1.524 -32.004 7.10632e-15
      vertex 52.324 -21.844 4.85034e-15
      vertex 53.848 -21.844 4.85034e-15
    endloop
  endfacet
  facet normal 0 -2.22045e-16 -1
    outer loop
      vertex 52.324 -32.004 7.10632e-15
      vertex 53.848 -21.844 4.85034e-15
      vertex 53.848 -32.004 7.10632e-15
    endloop
  endfacet
  facet normal 0 -2.22045e-16 -1
    outer loop
      vertex 1.524 -32.004 7.10632e-15
      vertex 53.848 -21.844 4.85034e-15
      vertex 52.324 -32.004 7.10632e-15
    endloop
  endfacet
  facet normal 0 -2.22045e-16 -1
    outer loop
      vertex 4.064 -52.324 1.16183e-14
      vertex 1.524 -32.004 7.10632e-15
      vertex 21.844 -52.324 1.16183e-14
    endloop
  endfacet
  facet normal 0 -2.22045e-16 -1
    outer loop
      vertex 52.324 -32.004 7.10632e-15
      vertex 52.324 -49.784 1.10543e-14
      vertex 1.524 -32.004 7.10632e-15
    endloop
  endfacet
  facet normal 0 -2.22045e-16 -1
    outer loop
      vertex 32.004 -53.848 1.19567e-14
      vertex 21.844 -53.848 1.19567e-14
      vertex 21.844 -52.324 1.16183e-14
    endloop
  endfacet
  facet normal 0 -2.22045e-16 -1
    outer loop
      vertex 1.524 -32.004 7.10632e-15
      vertex 52.324 -49.784 1.10543e-14
      vertex 52.2854 -50.2251 1.11522e-14
    endloop
  endfacet
  facet normal 0 -2.22045e-16 -1
    outer loop
      vertex 1.524 -32.004 7.10632e-15
      vertex 52.2854 -50.2251 1.11522e-14
      vertex 52.1708 -50.6527 1.12472e-14
    endloop
  endfacet
  facet normal 0 -2.22045e-16 -1
    outer loop
      vertex 1.524 -32.004 7.10632e-15
      vertex 52.1708 -50.6527 1.12472e-14
      vertex 51.9837 -51.054 1.13363e-14
    endloop
  endfacet
  facet normal 0 -2.22045e-16 -1
    outer loop
      vertex 1.524 -32.004 7.10632e-15
      vertex 51.9837 -51.054 1.13363e-14
      vertex 51.7298 -51.4167 1.14168e-14
    endloop
  endfacet
  facet normal 0 -2.22045e-16 -1
    outer loop
      vertex 1.524 -32.004 7.10632e-15
      vertex 51.7298 -51.4167 1.14168e-14
      vertex 51.4167 -51.7298 1.14863e-14
    endloop
  endfacet
  facet normal 0 -2.22045e-16 -1
    outer loop
      vertex 1.524 -32.004 7.10632e-15
      vertex 51.4167 -51.7298 1.14863e-14
      vertex 51.054 -51.9837 1.15427e-14
    endloop
  endfacet
  facet normal 0 -2.22045e-16 -1
    outer loop
      vertex 1.524 -32.004 7.10632e-15
      vertex 51.054 -51.9837 1.15427e-14
      vertex 50.6527 -52.1708 1.15842e-14
    endloop
  endfacet
  facet normal 0 -2.22045e-16 -1
    outer loop
      vertex 1.524 -32.004 7.10632e-15
      vertex 50.6527 -52.1708 1.15842e-14
      vertex 50.2251 -52.2854 1.16097e-14
    endloop
  endfacet
  facet normal 0 -2.22045e-16 -1
    outer loop
      vertex 1.524 -32.004 7.10632e-15
      vertex 50.2251 -52.2854 1.16097e-14
      vertex 49.784 -52.324 1.16183e-14
    endloop
  endfacet
  facet normal 0 -2.22045e-16 -1
    outer loop
      vertex 1.524 -32.004 7.10632e-15
      vertex 49.784 -52.324 1.16183e-14
      vertex 32.004 -52.324 1.16183e-14
    endloop
  endfacet
  facet normal 0 -2.22045e-16 -1
    outer loop
      vertex 1.524 -32.004 7.10632e-15
      vertex 32.004 -52.324 1.16183e-14
      vertex 32.004 -53.848 1.19567e-14
    endloop
  endfacet
  facet normal 0 -2.22045e-16 -1
    outer loop
      vertex 1.524 -32.004 7.10632e-15
      vertex 32.004 -53.848 1.19567e-14
      vertex 21.844 -52.324 1.16183e-14
    endloop
  endfacet
  facet normal 0 -2.22045e-16 -1
    outer loop
      vertex 1.524 -32.004 7.10632e-15
      vertex 4.064 -52.324 1.16183e-14
      vertex 3.62293 -52.2854 1.16097e-14
    endloop
  endfacet
  facet normal 0 -2.22045e-16 -1
    outer loop
      vertex 1.524 -32.004 7.10632e-15
      vertex 3.62293 -52.2854 1.16097e-14
      vertex 3.19527 -52.1708 1.15842e-14
    endloop
  endfacet
  facet normal 0 -2.22045e-16 -1
    outer loop
      vertex 1.524 -32.004 7.10632e-15
      vertex 3.19527 -52.1708 1.15842e-14
      vertex 2.794 -51.9837 1.15427e-14
    endloop
  endfacet
  facet normal 0 -2.22045e-16 -1
    outer loop
      vertex 1.524 -32.004 7.10632e-15
      vertex 2.794 -51.9837 1.15427e-14
      vertex 2.43132 -51.7298 1.14863e-14
    endloop
  endfacet
  facet normal 0 -2.22045e-16 -1
    outer loop
      vertex 1.524 -32.004 7.10632e-15
      vertex 2.43132 -51.7298 1.14863e-14
      vertex 2.11825 -51.4167 1.14168e-14
    endloop
  endfacet
  facet normal 0 -2.22045e-16 -1
    outer loop
      vertex 1.524 -32.004 7.10632e-15
      vertex 2.11825 -51.4167 1.14168e-14
      vertex 1.86429 -51.054 1.13363e-14
    endloop
  endfacet
  facet normal 0 -2.22045e-16 -1
    outer loop
      vertex 1.524 -32.004 7.10632e-15
      vertex 1.86429 -51.054 1.13363e-14
      vertex 1.67718 -50.6527 1.12472e-14
    endloop
  endfacet
  facet normal 0 -2.22045e-16 -1
    outer loop
      vertex 1.524 -32.004 7.10632e-15
      vertex 1.67718 -50.6527 1.12472e-14
      vertex 1.56259 -50.2251 1.11522e-14
    endloop
  endfacet
  facet normal 0 -2.22045e-16 -1
    outer loop
      vertex 1.524 -32.004 7.10632e-15
      vertex 1.56259 -50.2251 1.11522e-14
      vertex 1.524 -49.784 1.10543e-14
    endloop
  endfacet
  facet normal -1 0 0
    outer loop
      vertex 0 -32.004 7.10632e-15
      vertex 0 -32.004 10
      vertex 0 -21.844 4.85034e-15
    endloop
  endfacet
  facet normal -1 0 0
    outer loop
      vertex 0 -21.844 4.85034e-15
      vertex 0 -32.004 10
      vertex 0 -31 10
    endloop
  endfacet
  facet normal -1 0 0
    outer loop
      vertex 0 -21.844 4.85034e-15
      vertex 0 -31 10
      vertex 0 -31 13
    endloop
  endfacet
  facet normal -1 0 0
    outer loop
      vertex 0 -21.844 4.85034e-15
      vertex 0 -31 13
      vertex 0 -28 13
    endloop
  endfacet
  facet normal -1 0 0
    outer loop
      vertex 0 -25.0003 10
      vertex 0 -28 13
      vertex 0 -28 28.0003
    endloop
  endfacet
  facet normal -1 0 0
    outer loop
      vertex 0 -28 28.0003
      vertex 0 -31 28.0003
      vertex 0 -31 31.0003
    endloop
  endfacet
  facet normal -1 0 0
    outer loop
      vertex 0 -31 31.0003
      vertex 0 -32.004 31.0003
      vertex 0 -32.004 38.1
    endloop
  endfacet
  facet normal -1 0 0
    outer loop
      vertex 0 -31 31.0003
      vertex 0 -32.004 38.1
      vertex 0 -28 28.0003
    endloop
  endfacet
  facet normal -1 0 0
    outer loop
      vertex 0 -28 28.0003
      vertex 0 -32.004 38.1
      vertex 0 -21.844 38.1
    endloop
  endfacet
  facet normal -1 0 0
    outer loop
      vertex 0 -22 31.0003
      vertex 0 -21.844 38.1
      vertex 0 -21.844 22.0003
    endloop
  endfacet
  facet normal -1 0 0
    outer loop
      vertex 0 -25.0003 31.0003
      vertex 0 -21.844 38.1
      vertex 0 -22 31.0003
    endloop
  endfacet
  facet normal -1 0 0
    outer loop
      vertex 0 -25.0003 10
      vertex 0 -28 28.0003
      vertex 0 -25.0003 31.0003
    endloop
  endfacet
  facet normal -1 0 0
    outer loop
      vertex 0 -28 28.0003
      vertex 0 -21.844 38.1
      vertex 0 -25.0003 31.0003
    endloop
  endfacet
  facet normal -1 0 0
    outer loop
      vertex 0 -21.844 4.85034e-15
      vertex 0 -28 13
      vertex 0 -25.0003 10
    endloop
  endfacet
  facet normal -1 0 0
    outer loop
      vertex 0 -22 10
      vertex 0 -21.844 4.85034e-15
      vertex 0 -25.0003 10
    endloop
  endfacet
  facet normal -1 0 0
    outer loop
      vertex 0 -22 10
      vertex 0 -22 19
      vertex 0 -21.844 4.85034e-15
    endloop
  endfacet
  facet normal -1 0 0
    outer loop
      vertex 0 -22 31.0003
      vertex 0 -21.844 22.0003
      vertex 0 -22 22.0003
    endloop
  endfacet
  facet normal -1 0 0
    outer loop
      vertex 0 -21.844 19
      vertex 0 -21.844 4.85034e-15
      vertex 0 -22 19
    endloop
  endfacet
  facet normal 0 -1 2.22045e-16
    outer loop
      vertex 0 -32.004 10
      vertex 0 -32.004 7.10632e-15
      vertex 1.524 -32.004 7.10632e-15
    endloop
  endfacet
  facet normal 0 -1 2.22045e-16
    outer loop
      vertex 1.524 -32.004 10
      vertex 0 -32.004 10
      vertex 1.524 -32.004 7.10632e-15
    endloop
  endfacet
  facet normal -1 0 0
    outer loop
      vertex 1.524 -32.004 31.0003
      vertex 1.524 -49.784 38.1
      vertex 1.524 -32.004 38.1
    endloop
  endfacet
  facet normal -1 0 0
    outer loop
      vertex 1.524 -40.0003 31.0003
      vertex 1.524 -49.784 38.1
      vertex 1.524 -32.004 31.0003
    endloop
  endfacet
  facet normal -1 0 0
    outer loop
      vertex 1.524 -40.0003 28.0003
      vertex 1.524 -49.784 38.1
      vertex 1.524 -40.0003 31.0003
    endloop
  endfacet
  facet normal -1 0 0
    outer loop
      vertex 1.524 -43.0003 28.0003
      vertex 1.524 -49.784 38.1
      vertex 1.524 -40.0003 28.0003
    endloop
  endfacet
  facet normal -1 0 0
    outer loop
      vertex 1.524 -49.784 1.10543e-14
      vertex 1.524 -49.784 38.1
      vertex 1.524 -43.0003 13
    endloop
  endfacet
  facet normal -1 0 0
    outer loop
      vertex 1.524 -49.784 1.10543e-14
      vertex 1.524 -43.0003 13
      vertex 1.524 -32.004 7.10632e-15
    endloop
  endfacet
  facet normal -1 0 0
    outer loop
      vertex 1.524 -32.004 10
      vertex 1.524 -32.004 7.10632e-15
      vertex 1.524 -40.0003 10
    endloop
  endfacet
  facet normal -1 0 0
    outer loop
      vertex 1.524 -43.0003 13
      vertex 1.524 -40.0003 13
      vertex 1.524 -40.0003 10
    endloop
  endfacet
  facet normal -1 0 0
    outer loop
      vertex 1.524 -43.0003 13
      vertex 1.524 -40.0003 10
      vertex 1.524 -32.004 7.10632e-15
    endloop
  endfacet
  facet normal -1 0 0
    outer loop
      vertex 1.524 -43.0003 13
      vertex 1.524 -49.784 38.1
      vertex 1.524 -43.0003 28.0003
    endloop
  endfacet
  facet normal -0.996195 -0.0871549 1.93523e-17
    outer loop
      vertex 1.524 -49.784 1.10543e-14
      vertex 1.56259 -50.2251 1.11522e-14
      vertex 1.524 -49.784 38.1
    endloop
  endfacet
  facet normal -0.996195 -0.0871549 1.93523e-17
    outer loop
      vertex 1.524 -49.784 38.1
      vertex 1.56259 -50.2251 1.11522e-14
      vertex 1.56259 -50.2251 38.1
    endloop
  endfacet
  facet normal -0.965926 -0.25882 5.74695e-17
    outer loop
      vertex 1.56259 -50.2251 1.11522e-14
      vertex 1.67718 -50.6527 1.12472e-14
      vertex 1.56259 -50.2251 38.1
    endloop
  endfacet
  facet normal -0.965926 -0.25882 5.74695e-17
    outer loop
      vertex 1.56259 -50.2251 38.1
      vertex 1.67718 -50.6527 1.12472e-14
      vertex 1.67718 -50.6527 38.1
    endloop
  endfacet
  facet normal -0.906308 -0.422618 9.384e-17
    outer loop
      vertex 1.67718 -50.6527 1.12472e-14
      vertex 1.86429 -51.054 1.13363e-14
      vertex 1.67718 -50.6527 38.1
    endloop
  endfacet
  facet normal -0.906308 -0.422618 9.384e-17
    outer loop
      vertex 1.67718 -50.6527 38.1
      vertex 1.86429 -51.054 1.13363e-14
      vertex 1.86429 -51.054 38.1
    endloop
  endfacet
  facet normal -0.81915 -0.57358 1.2736e-16
    outer loop
      vertex 1.86429 -51.054 1.13363e-14
      vertex 2.11825 -51.4167 1.14168e-14
      vertex 1.86429 -51.054 38.1
    endloop
  endfacet
  facet normal -0.81915 -0.57358 1.2736e-16
    outer loop
      vertex 1.86429 -51.054 38.1
      vertex 2.11825 -51.4167 1.14168e-14
      vertex 2.11825 -51.4167 38.1
    endloop
  endfacet
  facet normal -0.707111 -0.707102 1.57008e-16
    outer loop
      vertex 2.11825 -51.4167 1.14168e-14
      vertex 2.43132 -51.7298 1.14863e-14
      vertex 2.11825 -51.4167 38.1
    endloop
  endfacet
  facet normal -0.707111 -0.707102 1.57008e-16
    outer loop
      vertex 2.11825 -51.4167 38.1
      vertex 2.43132 -51.7298 1.14863e-14
      vertex 2.43132 -51.7298 38.1
    endloop
  endfacet
  facet normal -0.573576 -0.819152 1.81888e-16
    outer loop
      vertex 2.43132 -51.7298 38.1
      vertex 2.43132 -51.7298 1.14863e-14
      vertex 2.794 -51.9837 1.15427e-14
    endloop
  endfacet
  facet normal -0.573576 -0.819152 1.81888e-16
    outer loop
      vertex 2.794 -51.9837 38.1
      vertex 2.43132 -51.7298 38.1
      vertex 2.794 -51.9837 1.15427e-14
    endloop
  endfacet
  facet normal -0.422619 -0.906308 2.01241e-16
    outer loop
      vertex 2.794 -51.9837 38.1
      vertex 2.794 -51.9837 1.15427e-14
      vertex 3.19527 -52.1708 1.15842e-14
    endloop
  endfacet
  facet normal -0.422619 -0.906308 2.01241e-16
    outer loop
      vertex 3.19527 -52.1708 38.1
      vertex 2.794 -51.9837 38.1
      vertex 3.19527 -52.1708 1.15842e-14
    endloop
  endfacet
  facet normal -0.258822 -0.965925 2.14478e-16
    outer loop
      vertex 3.19527 -52.1708 38.1
      vertex 3.19527 -52.1708 1.15842e-14
      vertex 3.62293 -52.2854 1.16097e-14
    endloop
  endfacet
  facet normal -0.258822 -0.965925 2.14478e-16
    outer loop
      vertex 3.62293 -52.2854 38.1
      vertex 3.19527 -52.1708 38.1
      vertex 3.62293 -52.2854 1.16097e-14
    endloop
  endfacet
  facet normal -0.0871484 -0.996195 2.212e-16
    outer loop
      vertex 3.62293 -52.2854 38.1
      vertex 3.62293 -52.2854 1.16097e-14
      vertex 4.064 -52.324 1.16183e-14
    endloop
  endfacet
  facet normal -0.0871484 -0.996195 2.212e-16
    outer loop
      vertex 4.064 -52.324 38.1
      vertex 3.62293 -52.2854 38.1
      vertex 4.064 -52.324 1.16183e-14
    endloop
  endfacet
  facet normal 0 -1 2.22045e-16
    outer loop
      vertex 4.064 -52.324 38.1
      vertex 4.064 -52.324 1.16183e-14
      vertex 21.844 -52.324 1.16183e-14
    endloop
  endfacet
  facet normal 0 -1 2.22045e-16
    outer loop
      vertex 21.844 -52.324 38.1
      vertex 4.064 -52.324 38.1
      vertex 21.844 -52.324 1.16183e-14
    endloop
  endfacet
  facet normal -1 0 0
    outer loop
      vertex 21.844 -53.848 1.19567e-14
      vertex 21.844 -53.848 38.1
      vertex 21.844 -52.324 1.16183e-14
    endloop
  endfacet
  facet normal -1 0 0
    outer loop
      vertex 21.844 -52.324 1.16183e-14
      vertex 21.844 -53.848 38.1
      vertex 21.844 -52.324 38.1
    endloop
  endfacet
  facet normal 0 -1 2.22045e-16
    outer loop
      vertex 21.844 -53.848 38.1
      vertex 21.844 -53.848 1.19567e-14
      vertex 32.004 -53.848 1.19567e-14
    endloop
  endfacet
  facet normal 0 -1 2.22045e-16
    outer loop
      vertex 32.004 -53.848 38.1
      vertex 21.844 -53.848 38.1
      vertex 32.004 -53.848 1.19567e-14
    endloop
  endfacet
  facet normal 1 0 0
    outer loop
      vertex 32.004 -53.848 38.1
      vertex 32.004 -53.848 1.19567e-14
      vertex 32.004 -52.324 1.16183e-14
    endloop
  endfacet
  facet normal 1 0 0
    outer loop
      vertex 32.004 -52.324 38.1
      vertex 32.004 -53.848 38.1
      vertex 32.004 -52.324 1.16183e-14
    endloop
  endfacet
  facet normal 0 -1 2.22045e-16
    outer loop
      vertex 32.004 -52.324 38.1
      vertex 32.004 -52.324 1.16183e-14
      vertex 49.784 -52.324 1.16183e-14
    endloop
  endfacet
  facet normal 0 -1 2.22045e-16
    outer loop
      vertex 49.784 -52.324 38.1
      vertex 32.004 -52.324 38.1
      vertex 49.784 -52.324 1.16183e-14
    endloop
  endfacet
  facet normal 0.0871482 -0.996195 2.212e-16
    outer loop
      vertex 49.784 -52.324 38.1
      vertex 49.784 -52.324 1.16183e-14
      vertex 50.2251 -52.2854 1.16097e-14
    endloop
  endfacet
  facet normal 0.0871482 -0.996195 2.212e-16
    outer loop
      vertex 50.2251 -52.2854 38.1
      vertex 49.784 -52.324 38.1
      vertex 50.2251 -52.2854 1.16097e-14
    endloop
  endfacet
  facet normal 0.258822 -0.965925 2.14478e-16
    outer loop
      vertex 50.2251 -52.2854 38.1
      vertex 50.2251 -52.2854 1.16097e-14
      vertex 50.6527 -52.1708 1.15842e-14
    endloop
  endfacet
  facet normal 0.258822 -0.965925 2.14478e-16
    outer loop
      vertex 50.6527 -52.1708 38.1
      vertex 50.2251 -52.2854 38.1
      vertex 50.6527 -52.1708 1.15842e-14
    endloop
  endfacet
  facet normal 0.422619 -0.906307 2.01241e-16
    outer loop
      vertex 50.6527 -52.1708 38.1
      vertex 50.6527 -52.1708 1.15842e-14
      vertex 51.054 -51.9837 1.15427e-14
    endloop
  endfacet
  facet normal 0.422619 -0.906307 2.01241e-16
    outer loop
      vertex 51.054 -51.9837 38.1
      vertex 50.6527 -52.1708 38.1
      vertex 51.054 -51.9837 1.15427e-14
    endloop
  endfacet
  facet normal 0.57358 -0.81915 1.81888e-16
    outer loop
      vertex 51.054 -51.9837 38.1
      vertex 51.054 -51.9837 1.15427e-14
      vertex 51.4167 -51.7298 1.14863e-14
    endloop
  endfacet
  facet normal 0.57358 -0.81915 1.81888e-16
    outer loop
      vertex 51.4167 -51.7298 38.1
      vertex 51.054 -51.9837 38.1
      vertex 51.4167 -51.7298 1.14863e-14
    endloop
  endfacet
  facet normal 0.707107 -0.707107 1.57009e-16
    outer loop
      vertex 51.4167 -51.7298 38.1
      vertex 51.4167 -51.7298 1.14863e-14
      vertex 51.7298 -51.4167 1.14168e-14
    endloop
  endfacet
  facet normal 0.707107 -0.707107 1.57009e-16
    outer loop
      vertex 51.7298 -51.4167 38.1
      vertex 51.4167 -51.7298 38.1
      vertex 51.7298 -51.4167 1.14168e-14
    endloop
  endfacet
  facet normal 0.81915 -0.57358 1.2736e-16
    outer loop
      vertex 51.7298 -51.4167 38.1
      vertex 51.7298 -51.4167 1.14168e-14
      vertex 51.9837 -51.054 1.13363e-14
    endloop
  endfacet
  facet normal 0.81915 -0.57358 1.2736e-16
    outer loop
      vertex 51.9837 -51.054 38.1
      vertex 51.7298 -51.4167 38.1
      vertex 51.9837 -51.054 1.13363e-14
    endloop
  endfacet
  facet normal 0.906307 -0.422619 9.38404e-17
    outer loop
      vertex 51.9837 -51.054 38.1
      vertex 51.9837 -51.054 1.13363e-14
      vertex 52.1708 -50.6527 1.12472e-14
    endloop
  endfacet
  facet normal 0.906307 -0.422619 9.38404e-17
    outer loop
      vertex 52.1708 -50.6527 38.1
      vertex 51.9837 -51.054 38.1
      vertex 52.1708 -50.6527 1.12472e-14
    endloop
  endfacet
  facet normal 0.965925 -0.258822 5.747e-17
    outer loop
      vertex 52.1708 -50.6527 38.1
      vertex 52.1708 -50.6527 1.12472e-14
      vertex 52.2854 -50.2251 1.11522e-14
    endloop
  endfacet
  facet normal 0.965925 -0.258822 5.747e-17
    outer loop
      vertex 52.2854 -50.2251 38.1
      vertex 52.1708 -50.6527 38.1
      vertex 52.2854 -50.2251 1.11522e-14
    endloop
  endfacet
  facet normal 0.996195 -0.0871482 1.93508e-17
    outer loop
      vertex 52.2854 -50.2251 38.1
      vertex 52.2854 -50.2251 1.11522e-14
      vertex 52.324 -49.784 1.10543e-14
    endloop
  endfacet
  facet normal 0.996195 -0.0871482 1.93508e-17
    outer loop
      vertex 52.324 -49.784 38.1
      vertex 52.2854 -50.2251 38.1
      vertex 52.324 -49.784 1.10543e-14
    endloop
  endfacet
  facet normal 1 0 0
    outer loop
      vertex 52.324 -49.784 38.1
      vertex 52.324 -49.784 1.10543e-14
      vertex 52.324 -32.004 7.10632e-15
    endloop
  endfacet
  facet normal 1 0 0
    outer loop
      vertex 52.324 -32.004 38.1
      vertex 52.324 -49.784 38.1
      vertex 52.324 -32.004 7.10632e-15
    endloop
  endfacet
  facet normal 0 -1 2.22045e-16
    outer loop
      vertex 52.324 -32.004 38.1
      vertex 52.324 -32.004 7.10632e-15
      vertex 53.848 -32.004 7.10632e-15
    endloop
  endfacet
  facet normal 0 -1 2.22045e-16
    outer loop
      vertex 53.848 -32.004 38.1
      vertex 52.324 -32.004 38.1
      vertex 53.848 -32.004 7.10632e-15
    endloop
  endfacet
  facet normal 1 0 0
    outer loop
      vertex 53.848 -32.004 38.1
      vertex 53.848 -32.004 7.10632e-15
      vertex 53.848 -21.844 4.85034e-15
    endloop
  endfacet
  facet normal 1 0 0
    outer loop
      vertex 53.848 -21.844 38.1
      vertex 53.848 -32.004 38.1
      vertex 53.848 -21.844 4.85034e-15
    endloop
  endfacet
  facet normal 0 1 -2.22045e-16
    outer loop
      vertex 52.324 -21.844 4.85034e-15
      vertex 52.324 -21.844 38.1
      vertex 53.848 -21.844 4.85034e-15
    endloop
  endfacet
  facet normal 0 1 -2.22045e-16
    outer loop
      vertex 53.848 -21.844 4.85034e-15
      vertex 52.324 -21.844 38.1
      vertex 53.848 -21.844 38.1
    endloop
  endfacet
  facet normal 1 0 0
    outer loop
      vertex 52.324 -21.844 38.1
      vertex 52.324 -21.844 4.85034e-15
      vertex 52.324 -4.064 9.02389e-16
    endloop
  endfacet
  facet normal 1 0 0
    outer loop
      vertex 52.324 -4.064 38.1
      vertex 52.324 -21.844 38.1
      vertex 52.324 -4.064 9.02389e-16
    endloop
  endfacet
  facet normal 0.996195 0.0871482 -1.93508e-17
    outer loop
      vertex 52.324 -4.064 9.02389e-16
      vertex 52.2854 -3.62293 8.04453e-16
      vertex 52.2854 -3.62293 38.1
    endloop
  endfacet
  facet normal 0.996195 0.0871482 -1.93508e-17
    outer loop
      vertex 52.324 -4.064 38.1
      vertex 52.324 -4.064 9.02389e-16
      vertex 52.2854 -3.62293 38.1
    endloop
  endfacet
  facet normal 0.965925 0.258823 -5.74703e-17
    outer loop
      vertex 52.2854 -3.62293 8.04453e-16
      vertex 52.1708 -3.19527 7.09493e-16
      vertex 52.1708 -3.19527 38.1
    endloop
  endfacet
  facet normal 0.965925 0.258823 -5.74703e-17
    outer loop
      vertex 52.2854 -3.62293 38.1
      vertex 52.2854 -3.62293 8.04453e-16
      vertex 52.1708 -3.19527 38.1
    endloop
  endfacet
  facet normal 0.906308 0.422618 -9.384e-17
    outer loop
      vertex 52.1708 -3.19527 7.09493e-16
      vertex 51.9837 -2.794 6.20393e-16
      vertex 51.9837 -2.794 38.1
    endloop
  endfacet
  facet normal 0.906308 0.422618 -9.384e-17
    outer loop
      vertex 52.1708 -3.19527 38.1
      vertex 52.1708 -3.19527 7.09493e-16
      vertex 51.9837 -2.794 38.1
    endloop
  endfacet
  facet normal 0.819151 0.573579 -1.2736e-16
    outer loop
      vertex 51.9837 -2.794 6.20393e-16
      vertex 51.7298 -2.43132 5.39862e-16
      vertex 51.7298 -2.43132 38.1
    endloop
  endfacet
  facet normal 0.819151 0.573579 -1.2736e-16
    outer loop
      vertex 51.9837 -2.794 38.1
      vertex 51.9837 -2.794 6.20393e-16
      vertex 51.7298 -2.43132 38.1
    endloop
  endfacet
  facet normal 0.707105 0.707109 -1.5701e-16
    outer loop
      vertex 51.4167 -2.11825 4.70346e-16
      vertex 51.4167 -2.11825 38.1
      vertex 51.7298 -2.43132 5.39862e-16
    endloop
  endfacet
  facet normal 0.707105 0.707109 -1.5701e-16
    outer loop
      vertex 51.7298 -2.43132 5.39862e-16
      vertex 51.4167 -2.11825 38.1
      vertex 51.7298 -2.43132 38.1
    endloop
  endfacet
  facet normal 0.573581 0.819149 -1.81888e-16
    outer loop
      vertex 51.054 -1.86429 4.13957e-16
      vertex 51.054 -1.86429 38.1
      vertex 51.4167 -2.11825 4.70346e-16
    endloop
  endfacet
  facet normal 0.573581 0.819149 -1.81888e-16
    outer loop
      vertex 51.4167 -2.11825 4.70346e-16
      vertex 51.054 -1.86429 38.1
      vertex 51.4167 -2.11825 38.1
    endloop
  endfacet
  facet normal 0.422616 0.906309 -2.01241e-16
    outer loop
      vertex 50.6527 -1.67718 3.72409e-16
      vertex 50.6527 -1.67718 38.1
      vertex 51.054 -1.86429 4.13957e-16
    endloop
  endfacet
  facet normal 0.422616 0.906309 -2.01241e-16
    outer loop
      vertex 51.054 -1.86429 4.13957e-16
      vertex 50.6527 -1.67718 38.1
      vertex 51.054 -1.86429 38.1
    endloop
  endfacet
  facet normal 0.258822 0.965925 -2.14478e-16
    outer loop
      vertex 50.2251 -1.56259 3.46964e-16
      vertex 50.2251 -1.56259 38.1
      vertex 50.6527 -1.67718 3.72409e-16
    endloop
  endfacet
  facet normal 0.258822 0.965925 -2.14478e-16
    outer loop
      vertex 50.6527 -1.67718 3.72409e-16
      vertex 50.2251 -1.56259 38.1
      vertex 50.6527 -1.67718 38.1
    endloop
  endfacet
  facet normal 0.0871527 0.996195 -2.212e-16
    outer loop
      vertex 49.784 -1.524 3.38396e-16
      vertex 49.784 -1.524 38.1
      vertex 50.2251 -1.56259 3.46964e-16
    endloop
  endfacet
  facet normal 0.0871527 0.996195 -2.212e-16
    outer loop
      vertex 50.2251 -1.56259 3.46964e-16
      vertex 49.784 -1.524 38.1
      vertex 50.2251 -1.56259 38.1
    endloop
  endfacet
  facet normal 0 1 -2.22045e-16
    outer loop
      vertex 32.004 -1.524 3.38396e-16
      vertex 32.004 -1.524 38.1
      vertex 49.784 -1.524 3.38396e-16
    endloop
  endfacet
  facet normal 0 1 -2.22045e-16
    outer loop
      vertex 49.784 -1.524 3.38396e-16
      vertex 32.004 -1.524 38.1
      vertex 49.784 -1.524 38.1
    endloop
  endfacet
  facet normal 1 0 0
    outer loop
      vertex 32.004 -1.524 38.1
      vertex 32.004 -1.524 3.38396e-16
      vertex 32.004 0 0
    endloop
  endfacet
  facet normal 1 0 0
    outer loop
      vertex 32.004 8.4599e-15 38.1
      vertex 32.004 -1.524 38.1
      vertex 32.004 0 0
    endloop
  endfacet
  facet normal 0 1 -2.22045e-16
    outer loop
      vertex 21.844 0 0
      vertex 21.844 8.4599e-15 38.1
      vertex 32.004 0 0
    endloop
  endfacet
  facet normal 0 1 -2.22045e-16
    outer loop
      vertex 32.004 0 0
      vertex 21.844 8.4599e-15 38.1
      vertex 32.004 8.4599e-15 38.1
    endloop
  endfacet
  facet normal -1 0 0
    outer loop
      vertex 21.844 -1.524 3.38396e-16
      vertex 21.844 -1.524 38.1
      vertex 21.844 0 0
    endloop
  endfacet
  facet normal -1 0 0
    outer loop
      vertex 21.844 0 0
      vertex 21.844 -1.524 38.1
      vertex 21.844 8.4599e-15 38.1
    endloop
  endfacet
  facet normal 0 1 -2.22045e-16
    outer loop
      vertex 4.064 -1.524 3.38396e-16
      vertex 4.064 -1.524 38.1
      vertex 21.844 -1.524 3.38396e-16
    endloop
  endfacet
  facet normal 0 1 -2.22045e-16
    outer loop
      vertex 21.844 -1.524 3.38396e-16
      vertex 4.064 -1.524 38.1
      vertex 21.844 -1.524 38.1
    endloop
  endfacet
  facet normal -0.0871529 0.996195 -2.212e-16
    outer loop
      vertex 3.62293 -1.56259 3.46964e-16
      vertex 3.62293 -1.56259 38.1
      vertex 4.064 -1.524 3.38396e-16
    endloop
  endfacet
  facet normal -0.0871529 0.996195 -2.212e-16
    outer loop
      vertex 4.064 -1.524 3.38396e-16
      vertex 3.62293 -1.56259 38.1
      vertex 4.064 -1.524 38.1
    endloop
  endfacet
  facet normal -0.258822 0.965925 -2.14478e-16
    outer loop
      vertex 3.19527 -1.67718 3.72409e-16
      vertex 3.19527 -1.67718 38.1
      vertex 3.62293 -1.56259 3.46964e-16
    endloop
  endfacet
  facet normal -0.258822 0.965925 -2.14478e-16
    outer loop
      vertex 3.62293 -1.56259 3.46964e-16
      vertex 3.19527 -1.67718 38.1
      vertex 3.62293 -1.56259 38.1
    endloop
  endfacet
  facet normal -0.422615 0.906309 -2.01241e-16
    outer loop
      vertex 2.794 -1.86429 4.13957e-16
      vertex 2.794 -1.86429 38.1
      vertex 3.19527 -1.67718 3.72409e-16
    endloop
  endfacet
  facet normal -0.422615 0.906309 -2.01241e-16
    outer loop
      vertex 3.19527 -1.67718 3.72409e-16
      vertex 2.794 -1.86429 38.1
      vertex 3.19527 -1.67718 38.1
    endloop
  endfacet
  facet normal -0.573578 0.819151 -1.81888e-16
    outer loop
      vertex 2.43132 -2.11825 4.70346e-16
      vertex 2.43132 -2.11825 38.1
      vertex 2.794 -1.86429 4.13957e-16
    endloop
  endfacet
  facet normal -0.573578 0.819151 -1.81888e-16
    outer loop
      vertex 2.794 -1.86429 4.13957e-16
      vertex 2.43132 -2.11825 38.1
      vertex 2.794 -1.86429 38.1
    endloop
  endfacet
  facet normal -0.707109 0.707105 -1.57009e-16
    outer loop
      vertex 2.11825 -2.43132 5.39862e-16
      vertex 2.11825 -2.43132 38.1
      vertex 2.43132 -2.11825 4.70346e-16
    endloop
  endfacet
  facet normal -0.707109 0.707105 -1.57009e-16
    outer loop
      vertex 2.43132 -2.11825 4.70346e-16
      vertex 2.11825 -2.43132 38.1
      vertex 2.43132 -2.11825 38.1
    endloop
  endfacet
  facet normal -0.819151 0.573579 -1.2736e-16
    outer loop
      vertex 1.86429 -2.794 6.20393e-16
      vertex 1.86429 -2.794 38.1
      vertex 2.11825 -2.43132 5.39862e-16
    endloop
  endfacet
  facet normal -0.819151 0.573579 -1.2736e-16
    outer loop
      vertex 2.11825 -2.43132 5.39862e-16
      vertex 1.86429 -2.794 38.1
      vertex 2.11825 -2.43132 38.1
    endloop
  endfacet
  facet normal -0.906309 0.422616 -9.38396e-17
    outer loop
      vertex 1.67718 -3.19527 7.09493e-16
      vertex 1.67718 -3.19527 38.1
      vertex 1.86429 -2.794 6.20393e-16
    endloop
  endfacet
  facet normal -0.906309 0.422616 -9.38396e-17
    outer loop
      vertex 1.86429 -2.794 6.20393e-16
      vertex 1.67718 -3.19527 38.1
      vertex 1.86429 -2.794 38.1
    endloop
  endfacet
  facet normal -0.965925 0.258821 -5.74699e-17
    outer loop
      vertex 1.56259 -3.62293 8.04453e-16
      vertex 1.56259 -3.62293 38.1
      vertex 1.67718 -3.19527 7.09493e-16
    endloop
  endfacet
  facet normal -0.965925 0.258821 -5.74699e-17
    outer loop
      vertex 1.67718 -3.19527 7.09493e-16
      vertex 1.56259 -3.62293 38.1
      vertex 1.67718 -3.19527 38.1
    endloop
  endfacet
  facet normal -0.996195 0.0871549 -1.93523e-17
    outer loop
      vertex 1.524 -4.064 9.02389e-16
      vertex 1.524 -4.064 38.1
      vertex 1.56259 -3.62293 8.04453e-16
    endloop
  endfacet
  facet normal -0.996195 0.0871549 -1.93523e-17
    outer loop
      vertex 1.56259 -3.62293 8.04453e-16
      vertex 1.524 -4.064 38.1
      vertex 1.56259 -3.62293 38.1
    endloop
  endfacet
  facet normal -1 0 0
    outer loop
      vertex 1.524 -21.844 4.85034e-15
      vertex 1.524 -21.844 19
      vertex 1.524 -4.064 9.02389e-16
    endloop
  endfacet
  facet normal -1 0 0
    outer loop
      vertex 1.524 -21.844 22.0003
      vertex 1.524 -13.0003 31.0003
      vertex 1.524 -13.0003 22.0003
    endloop
  endfacet
  facet normal -1 0 0
    outer loop
      vertex 1.524 -13.0003 10
      vertex 1.524 -21.844 19
      vertex 1.524 -13.0003 19
    endloop
  endfacet
  facet normal -1 0 0
    outer loop
      vertex 1.524 -4.064 9.02389e-16
      vertex 1.524 -21.844 19
      vertex 1.524 -13.0003 10
    endloop
  endfacet
  facet normal -1 0 0
    outer loop
      vertex 1.524 -4.064 9.02389e-16
      vertex 1.524 -13.0003 10
      vertex 1.524 -10 10
    endloop
  endfacet
  facet normal -1 0 0
    outer loop
      vertex 1.524 -13.0003 31.0003
      vertex 1.524 -21.844 22.0003
      vertex 1.524 -21.844 38.1
    endloop
  endfacet
  facet normal -1 0 0
    outer loop
      vertex 1.524 -13.0003 31.0003
      vertex 1.524 -21.844 38.1
      vertex 1.524 -10 31.0003
    endloop
  endfacet
  facet normal -1 0 0
    outer loop
      vertex 1.524 -10 31.0003
      vertex 1.524 -21.844 38.1
      vertex 1.524 -4.064 38.1
    endloop
  endfacet
  facet normal -1 0 0
    outer loop
      vertex 1.524 -10 31.0003
      vertex 1.524 -4.064 38.1
      vertex 1.524 -4.064 9.02389e-16
    endloop
  endfacet
  facet normal -1 0 0
    outer loop
      vertex 1.524 -10 31.0003
      vertex 1.524 -4.064 9.02389e-16
      vertex 1.524 -10 10
    endloop
  endfacet
  facet normal 0 1 -2.22045e-16
    outer loop
      vertex 0 -21.844 4.85034e-15
      vertex 0 -21.844 19
      vertex 1.524 -21.844 4.85034e-15
    endloop
  endfacet
  facet normal 0 1 -2.22045e-16
    outer loop
      vertex 1.524 -21.844 4.85034e-15
      vertex 0 -21.844 19
      vertex 1.524 -21.844 19
    endloop
  endfacet
  facet normal 2.22045e-16 -4.93038e-32 1
    outer loop
      vertex 4.064 -22 19
      vertex 4.064 -13.0003 19
      vertex 1.524 -13.0003 19
    endloop
  endfacet
  facet normal 2.22045e-16 -4.93038e-32 1
    outer loop
      vertex 0 -21.844 19
      vertex 4.064 -22 19
      vertex 1.524 -21.844 19
    endloop
  endfacet
  facet normal 2.22045e-16 -4.93038e-32 1
    outer loop
      vertex 1.524 -21.844 19
      vertex 4.064 -22 19
      vertex 1.524 -13.0003 19
    endloop
  endfacet
  facet normal 2.22045e-16 -4.93038e-32 1
    outer loop
      vertex 0 -22 19
      vertex 4.064 -22 19
      vertex 0 -21.844 19
    endloop
  endfacet
  facet normal -2.22045e-16 -1 4.93038e-32
    outer loop
      vertex 4.064 -22 10
      vertex 4.064 -22 19
      vertex 0 -22 19
    endloop
  endfacet
  facet normal -2.22045e-16 -1 4.93038e-32
    outer loop
      vertex 0 -22 10
      vertex 4.064 -22 10
      vertex 0 -22 19
    endloop
  endfacet
  facet normal 2.22045e-16 -4.93038e-32 1
    outer loop
      vertex 4.064 -25.0003 10
      vertex 4.064 -22 10
      vertex 0 -22 10
    endloop
  endfacet
  facet normal 2.22045e-16 -4.93038e-32 1
    outer loop
      vertex 0 -25.0003 10
      vertex 4.064 -25.0003 10
      vertex 0 -22 10
    endloop
  endfacet
  facet normal 2.22045e-16 1 -4.93038e-32
    outer loop
      vertex 4.064 -25.0003 31.0003
      vertex 4.064 -25.0003 10
      vertex 0 -25.0003 31.0003
    endloop
  endfacet
  facet normal 2.22045e-16 1 -4.93038e-32
    outer loop
      vertex 0 -25.0003 31.0003
      vertex 4.064 -25.0003 10
      vertex 0 -25.0003 10
    endloop
  endfacet
  facet normal -2.22045e-16 4.93038e-32 -1
    outer loop
      vertex 4.064 -22 31.0003
      vertex 4.064 -25.0003 31.0003
      vertex 0 -22 31.0003
    endloop
  endfacet
  facet normal -2.22045e-16 4.93038e-32 -1
    outer loop
      vertex 0 -22 31.0003
      vertex 4.064 -25.0003 31.0003
      vertex 0 -25.0003 31.0003
    endloop
  endfacet
  facet normal -2.22045e-16 -1 4.93038e-32
    outer loop
      vertex 4.064 -22 22.0003
      vertex 4.064 -22 31.0003
      vertex 0 -22 31.0003
    endloop
  endfacet
  facet normal -2.22045e-16 -1 4.93038e-32
    outer loop
      vertex 0 -22 22.0003
      vertex 4.064 -22 22.0003
      vertex 0 -22 31.0003
    endloop
  endfacet
  facet normal -2.22045e-16 4.93038e-32 -1
    outer loop
      vertex 1.524 -21.844 22.0003
      vertex 1.524 -13.0003 22.0003
      vertex 4.064 -13.0003 22.0003
    endloop
  endfacet
  facet normal -2.22045e-16 4.93038e-32 -1
    outer loop
      vertex 1.524 -21.844 22.0003
      vertex 4.064 -13.0003 22.0003
      vertex 4.064 -22 22.0003
    endloop
  endfacet
  facet normal -2.22045e-16 4.93038e-32 -1
    outer loop
      vertex 1.524 -21.844 22.0003
      vertex 4.064 -22 22.0003
      vertex 0 -21.844 22.0003
    endloop
  endfacet
  facet normal -2.22045e-16 4.93038e-32 -1
    outer loop
      vertex 4.064 -22 22.0003
      vertex 0 -22 22.0003
      vertex 0 -21.844 22.0003
    endloop
  endfacet
  facet normal 0 1 -2.22045e-16
    outer loop
      vertex 0 -21.844 22.0003
      vertex 0 -21.844 38.1
      vertex 1.524 -21.844 22.0003
    endloop
  endfacet
  facet normal 0 1 -2.22045e-16
    outer loop
      vertex 1.524 -21.844 22.0003
      vertex 0 -21.844 38.1
      vertex 1.524 -21.844 38.1
    endloop
  endfacet
  facet normal 0 2.22045e-16 1
    outer loop
      vertex 3.302 -3.302 38.1
      vertex 51.054 -1.86429 38.1
      vertex 50.6527 -1.67718 38.1
    endloop
  endfacet
  facet normal 0 2.22045e-16 1
    outer loop
      vertex 0 -21.844 38.1
      vertex 0 -32.004 38.1
      vertex 1.524 -32.004 38.1
    endloop
  endfacet
  facet normal 0 2.22045e-16 1
    outer loop
      vertex 3.302 -3.302 38.1
      vertex 50.6527 -1.67718 38.1
      vertex 50.2251 -1.56259 38.1
    endloop
  endfacet
  facet normal 0 2.22045e-16 1
    outer loop
      vertex 1.524 -49.784 38.1
      vertex 1.56259 -50.2251 38.1
      vertex 1.524 -32.004 38.1
    endloop
  endfacet
  facet normal 0 2.22045e-16 1
    outer loop
      vertex 1.56259 -50.2251 38.1
      vertex 1.67718 -50.6527 38.1
      vertex 1.524 -32.004 38.1
    endloop
  endfacet
  facet normal 0 2.22045e-16 1
    outer loop
      vertex 1.67718 -50.6527 38.1
      vertex 1.86429 -51.054 38.1
      vertex 1.524 -32.004 38.1
    endloop
  endfacet
  facet normal 0 2.22045e-16 1
    outer loop
      vertex 1.86429 -51.054 38.1
      vertex 2.11825 -51.4167 38.1
      vertex 1.524 -32.004 38.1
    endloop
  endfacet
  facet normal 0 2.22045e-16 1
    outer loop
      vertex 2.11825 -51.4167 38.1
      vertex 2.43132 -51.7298 38.1
      vertex 1.524 -32.004 38.1
    endloop
  endfacet
  facet normal 0 2.22045e-16 1
    outer loop
      vertex 2.43132 -51.7298 38.1
      vertex 2.794 -51.9837 38.1
      vertex 1.524 -32.004 38.1
    endloop
  endfacet
  facet normal 0 2.22045e-16 1
    outer loop
      vertex 2.794 -51.9837 38.1
      vertex 3.19527 -52.1708 38.1
      vertex 1.524 -32.004 38.1
    endloop
  endfacet
  facet normal 0 2.22045e-16 1
    outer loop
      vertex 3.302 -3.302 38.1
      vertex 32.004 -1.524 38.1
      vertex 21.844 -1.524 38.1
    endloop
  endfacet
  facet normal 0 2.22045e-16 1
    outer loop
      vertex 3.302 -3.302 38.1
      vertex 49.784 -1.524 38.1
      vertex 32.004 -1.524 38.1
    endloop
  endfacet
  facet normal 0 2.22045e-16 1
    outer loop
      vertex 3.302 -3.302 38.1
      vertex 50.2251 -1.56259 38.1
      vertex 49.784 -1.524 38.1
    endloop
  endfacet
  facet normal 0 2.22045e-16 1
    outer loop
      vertex 3.302 -3.302 38.1
      vertex 51.7298 -2.43132 38.1
      vertex 51.4167 -2.11825 38.1
    endloop
  endfacet
  facet normal 0 2.22045e-16 1
    outer loop
      vertex 21.844 -53.848 38.1
      vertex 32.004 -53.848 38.1
      vertex 21.844 -52.324 38.1
    endloop
  endfacet
  facet normal 0 2.22045e-16 1
    outer loop
      vertex 3.302 -3.302 38.1
      vertex 51.4167 -2.11825 38.1
      vertex 51.054 -1.86429 38.1
    endloop
  endfacet
  facet normal 0 2.22045e-16 1
    outer loop
      vertex 3.302 -3.302 38.1
      vertex 50.546 -3.302 38.1
      vertex 51.7298 -2.43132 38.1
    endloop
  endfacet
  facet normal 0 2.22045e-16 1
    outer loop
      vertex 53.848 -32.004 38.1
      vertex 53.848 -21.844 38.1
      vertex 52.324 -21.844 38.1
    endloop
  endfacet
  facet normal 0 2.22045e-16 1
    outer loop
      vertex 50.546 -50.546 38.1
      vertex 51.4167 -51.7298 38.1
      vertex 51.7298 -51.4167 38.1
    endloop
  endfacet
  facet normal 0 2.22045e-16 1
    outer loop
      vertex 50.546 -50.546 38.1
      vertex 51.054 -51.9837 38.1
      vertex 51.4167 -51.7298 38.1
    endloop
  endfacet
  facet normal 0 2.22045e-16 1
    outer loop
      vertex 50.546 -3.302 38.1
      vertex 51.9837 -2.794 38.1
      vertex 51.7298 -2.43132 38.1
    endloop
  endfacet
  facet normal 0 2.22045e-16 1
    outer loop
      vertex 50.546 -50.546 38.1
      vertex 49.784 -52.324 38.1
      vertex 50.2251 -52.2854 38.1
    endloop
  endfacet
  facet normal 0 2.22045e-16 1
    outer loop
      vertex 50.546 -50.546 38.1
      vertex 32.004 -52.324 38.1
      vertex 49.784 -52.324 38.1
    endloop
  endfacet
  facet normal 0 2.22045e-16 1
    outer loop
      vertex 32.004 -52.324 38.1
      vertex 21.844 -52.324 38.1
      vertex 32.004 -53.848 38.1
    endloop
  endfacet
  facet normal 0 2.22045e-16 1
    outer loop
      vertex 50.546 -50.546 38.1
      vertex 21.844 -52.324 38.1
      vertex 32.004 -52.324 38.1
    endloop
  endfacet
  facet normal 0 2.22045e-16 1
    outer loop
      vertex 50.546 -50.546 38.1
      vertex 4.064 -52.324 38.1
      vertex 21.844 -52.324 38.1
    endloop
  endfacet
  facet normal 0 2.22045e-16 1
    outer loop
      vertex 50.546 -50.546 38.1
      vertex 3.302 -50.546 38.1
      vertex 3.62293 -52.2854 38.1
    endloop
  endfacet
  facet normal 0 2.22045e-16 1
    outer loop
      vertex 50.546 -50.546 38.1
      vertex 3.62293 -52.2854 38.1
      vertex 4.064 -52.324 38.1
    endloop
  endfacet
  facet normal 0 2.22045e-16 1
    outer loop
      vertex 21.844 -1.524 38.1
      vertex 32.004 8.4599e-15 38.1
      vertex 21.844 8.4599e-15 38.1
    endloop
  endfacet
  facet normal 0 2.22045e-16 1
    outer loop
      vertex 1.524 -4.064 38.1
      vertex 1.67718 -3.19527 38.1
      vertex 1.56259 -3.62293 38.1
    endloop
  endfacet
  facet normal 0 2.22045e-16 1
    outer loop
      vertex 3.302 -3.302 38.1
      vertex 3.62293 -1.56259 38.1
      vertex 3.19527 -1.67718 38.1
    endloop
  endfacet
  facet normal 0 2.22045e-16 1
    outer loop
      vertex 1.524 -32.004 38.1
      vertex 1.524 -21.844 38.1
      vertex 0 -21.844 38.1
    endloop
  endfacet
  facet normal 0 2.22045e-16 1
    outer loop
      vertex 3.302 -50.546 38.1
      vertex 1.524 -21.844 38.1
      vertex 1.524 -32.004 38.1
    endloop
  endfacet
  facet normal 0 2.22045e-16 1
    outer loop
      vertex 3.302 -50.546 38.1
      vertex 1.524 -4.064 38.1
      vertex 1.524 -21.844 38.1
    endloop
  endfacet
  facet normal 0 2.22045e-16 1
    outer loop
      vertex 3.302 -50.546 38.1
      vertex 3.302 -3.302 38.1
      vertex 1.524 -4.064 38.1
    endloop
  endfacet
  facet normal 0 2.22045e-16 1
    outer loop
      vertex 3.19527 -52.1708 38.1
      vertex 3.302 -50.546 38.1
      vertex 1.524 -32.004 38.1
    endloop
  endfacet
  facet normal 0 2.22045e-16 1
    outer loop
      vertex 3.19527 -52.1708 38.1
      vertex 3.62293 -52.2854 38.1
      vertex 3.302 -50.546 38.1
    endloop
  endfacet
  facet normal 0 2.22045e-16 1
    outer loop
      vertex 50.546 -50.546 38.1
      vertex 50.2251 -52.2854 38.1
      vertex 50.6527 -52.1708 38.1
    endloop
  endfacet
  facet normal 0 2.22045e-16 1
    outer loop
      vertex 50.546 -50.546 38.1
      vertex 50.6527 -52.1708 38.1
      vertex 51.054 -51.9837 38.1
    endloop
  endfacet
  facet normal 0 2.22045e-16 1
    outer loop
      vertex 51.7298 -51.4167 38.1
      vertex 51.9837 -51.054 38.1
      vertex 50.546 -50.546 38.1
    endloop
  endfacet
  facet normal 0 2.22045e-16 1
    outer loop
      vertex 1.524 -4.064 38.1
      vertex 1.86429 -2.794 38.1
      vertex 1.67718 -3.19527 38.1
    endloop
  endfacet
  facet normal 0 2.22045e-16 1
    outer loop
      vertex 1.524 -4.064 38.1
      vertex 2.11825 -2.43132 38.1
      vertex 1.86429 -2.794 38.1
    endloop
  endfacet
  facet normal 0 2.22045e-16 1
    outer loop
      vertex 1.524 -4.064 38.1
      vertex 2.43132 -2.11825 38.1
      vertex 2.11825 -2.43132 38.1
    endloop
  endfacet
  facet normal 0 2.22045e-16 1
    outer loop
      vertex 1.524 -4.064 38.1
      vertex 2.794 -1.86429 38.1
      vertex 2.43132 -2.11825 38.1
    endloop
  endfacet
  facet normal 0 2.22045e-16 1
    outer loop
      vertex 1.524 -4.064 38.1
      vertex 3.19527 -1.67718 38.1
      vertex 2.794 -1.86429 38.1
    endloop
  endfacet
  facet normal 0 2.22045e-16 1
    outer loop
      vertex 1.524 -4.064 38.1
      vertex 3.302 -3.302 38.1
      vertex 3.19527 -1.67718 38.1
    endloop
  endfacet
  facet normal 0 2.22045e-16 1
    outer loop
      vertex 3.302 -3.302 38.1
      vertex 4.064 -1.524 38.1
      vertex 3.62293 -1.56259 38.1
    endloop
  endfacet
  facet normal 0 2.22045e-16 1
    outer loop
      vertex 3.302 -3.302 38.1
      vertex 21.844 -1.524 38.1
      vertex 4.064 -1.524 38.1
    endloop
  endfacet
  facet normal 0 2.22045e-16 1
    outer loop
      vertex 21.844 -1.524 38.1
      vertex 32.004 -1.524 38.1
      vertex 32.004 8.4599e-15 38.1
    endloop
  endfacet
  facet normal 0 2.22045e-16 1
    outer loop
      vertex 50.546 -3.302 38.1
      vertex 52.324 -4.064 38.1
      vertex 52.2854 -3.62293 38.1
    endloop
  endfacet
  facet normal 0 2.22045e-16 1
    outer loop
      vertex 50.546 -3.302 38.1
      vertex 52.324 -21.844 38.1
      vertex 52.324 -4.064 38.1
    endloop
  endfacet
  facet normal 0 2.22045e-16 1
    outer loop
      vertex 52.324 -21.844 38.1
      vertex 52.324 -32.004 38.1
      vertex 53.848 -32.004 38.1
    endloop
  endfacet
  facet normal 0 2.22045e-16 1
    outer loop
      vertex 50.546 -3.302 38.1
      vertex 52.324 -32.004 38.1
      vertex 52.324 -21.844 38.1
    endloop
  endfacet
  facet normal 0 2.22045e-16 1
    outer loop
      vertex 50.546 -3.302 38.1
      vertex 52.324 -49.784 38.1
      vertex 52.324 -32.004 38.1
    endloop
  endfacet
  facet normal 0 2.22045e-16 1
    outer loop
      vertex 50.546 -3.302 38.1
      vertex 52.2854 -50.2251 38.1
      vertex 52.324 -49.784 38.1
    endloop
  endfacet
  facet normal 0 2.22045e-16 1
    outer loop
      vertex 50.546 -3.302 38.1
      vertex 52.1708 -50.6527 38.1
      vertex 52.2854 -50.2251 38.1
    endloop
  endfacet
  facet normal 0 2.22045e-16 1
    outer loop
      vertex 50.546 -3.302 38.1
      vertex 51.9837 -51.054 38.1
      vertex 52.1708 -50.6527 38.1
    endloop
  endfacet
  facet normal 0 2.22045e-16 1
    outer loop
      vertex 50.546 -3.302 38.1
      vertex 52.1708 -3.19527 38.1
      vertex 51.9837 -2.794 38.1
    endloop
  endfacet
  facet normal 0 2.22045e-16 1
    outer loop
      vertex 50.546 -3.302 38.1
      vertex 52.2854 -3.62293 38.1
      vertex 52.1708 -3.19527 38.1
    endloop
  endfacet
  facet normal 0 2.22045e-16 1
    outer loop
      vertex 50.546 -3.302 38.1
      vertex 50.546 -50.546 38.1
      vertex 51.9837 -51.054 38.1
    endloop
  endfacet
  facet normal 0 -1 2.22045e-16
    outer loop
      vertex 0 -32.004 38.1
      vertex 0 -32.004 31.0003
      vertex 1.524 -32.004 31.0003
    endloop
  endfacet
  facet normal 0 -1 2.22045e-16
    outer loop
      vertex 1.524 -32.004 38.1
      vertex 0 -32.004 38.1
      vertex 1.524 -32.004 31.0003
    endloop
  endfacet
  facet normal -2.22045e-16 4.93038e-32 -1
    outer loop
      vertex 0 -32.004 31.0003
      vertex 0 -31 31.0003
      vertex 1.524 -32.004 31.0003
    endloop
  endfacet
  facet normal -2.22045e-16 4.93038e-32 -1
    outer loop
      vertex 4.064 -31 31.0003
      vertex 4.064 -40.0003 31.0003
      vertex 1.524 -32.004 31.0003
    endloop
  endfacet
  facet normal -2.22045e-16 4.93038e-32 -1
    outer loop
      vertex 4.064 -31 31.0003
      vertex 1.524 -32.004 31.0003
      vertex 0 -31 31.0003
    endloop
  endfacet
  facet normal -2.22045e-16 4.93038e-32 -1
    outer loop
      vertex 1.524 -32.004 31.0003
      vertex 4.064 -40.0003 31.0003
      vertex 1.524 -40.0003 31.0003
    endloop
  endfacet
  facet normal -2.22045e-16 -1 4.93038e-32
    outer loop
      vertex 4.064 -31 28.0003
      vertex 4.064 -31 31.0003
      vertex 0 -31 31.0003
    endloop
  endfacet
  facet normal -2.22045e-16 -1 4.93038e-32
    outer loop
      vertex 0 -31 28.0003
      vertex 4.064 -31 28.0003
      vertex 0 -31 31.0003
    endloop
  endfacet
  facet normal -2.22045e-16 4.93038e-32 -1
    outer loop
      vertex 4.064 -28 28.0003
      vertex 4.064 -31 28.0003
      vertex 0 -28 28.0003
    endloop
  endfacet
  facet normal -2.22045e-16 4.93038e-32 -1
    outer loop
      vertex 0 -28 28.0003
      vertex 4.064 -31 28.0003
      vertex 0 -31 28.0003
    endloop
  endfacet
  facet normal -2.22045e-16 -1 4.93038e-32
    outer loop
      vertex 4.064 -28 13
      vertex 4.064 -28 28.0003
      vertex 0 -28 28.0003
    endloop
  endfacet
  facet normal -2.22045e-16 -1 4.93038e-32
    outer loop
      vertex 0 -28 13
      vertex 4.064 -28 13
      vertex 0 -28 28.0003
    endloop
  endfacet
  facet normal 2.22045e-16 -4.93038e-32 1
    outer loop
      vertex 4.064 -31 13
      vertex 4.064 -28 13
      vertex 0 -28 13
    endloop
  endfacet
  facet normal 2.22045e-16 -4.93038e-32 1
    outer loop
      vertex 0 -31 13
      vertex 4.064 -31 13
      vertex 0 -28 13
    endloop
  endfacet
  facet normal -2.22045e-16 -1 4.93038e-32
    outer loop
      vertex 4.064 -31 10
      vertex 4.064 -31 13
      vertex 0 -31 13
    endloop
  endfacet
  facet normal -2.22045e-16 -1 4.93038e-32
    outer loop
      vertex 0 -31 10
      vertex 4.064 -31 10
      vertex 0 -31 13
    endloop
  endfacet
  facet normal 2.22045e-16 -4.93038e-32 1
    outer loop
      vertex 1.524 -32.004 10
      vertex 1.524 -40.0003 10
      vertex 4.064 -40.0003 10
    endloop
  endfacet
  facet normal 2.22045e-16 -4.93038e-32 1
    outer loop
      vertex 0 -31 10
      vertex 1.524 -32.004 10
      vertex 4.064 -31 10
    endloop
  endfacet
  facet normal 2.22045e-16 -4.93038e-32 1
    outer loop
      vertex 4.064 -31 10
      vertex 1.524 -32.004 10
      vertex 4.064 -40.0003 10
    endloop
  endfacet
  facet normal 2.22045e-16 -4.93038e-32 1
    outer loop
      vertex 0 -32.004 10
      vertex 1.524 -32.004 10
      vertex 0 -31 10
    endloop
  endfacet
  facet normal 2.22045e-16 1 -4.93038e-32
    outer loop
      vertex 4.064 -40.0003 13
      vertex 4.064 -40.0003 10
      vertex 1.524 -40.0003 13
    endloop
  endfacet
  facet normal 2.22045e-16 1 -4.93038e-32
    outer loop
      vertex 1.524 -40.0003 13
      vertex 4.064 -40.0003 10
      vertex 1.524 -40.0003 10
    endloop
  endfacet
  facet normal 2.22045e-16 -4.93038e-32 1
    outer loop
      vertex 4.064 -43.0003 13
      vertex 4.064 -40.0003 13
      vertex 1.524 -40.0003 13
    endloop
  endfacet
  facet normal 2.22045e-16 -4.93038e-32 1
    outer loop
      vertex 1.524 -43.0003 13
      vertex 4.064 -43.0003 13
      vertex 1.524 -40.0003 13
    endloop
  endfacet
  facet normal 2.22045e-16 1 -4.93038e-32
    outer loop
      vertex 4.064 -43.0003 28.0003
      vertex 4.064 -43.0003 13
      vertex 1.524 -43.0003 28.0003
    endloop
  endfacet
  facet normal 2.22045e-16 1 -4.93038e-32
    outer loop
      vertex 1.524 -43.0003 28.0003
      vertex 4.064 -43.0003 13
      vertex 1.524 -43.0003 13
    endloop
  endfacet
  facet normal -2.22045e-16 4.93038e-32 -1
    outer loop
      vertex 4.064 -40.0003 28.0003
      vertex 4.064 -43.0003 28.0003
      vertex 1.524 -40.0003 28.0003
    endloop
  endfacet
  facet normal -2.22045e-16 4.93038e-32 -1
    outer loop
      vertex 1.524 -40.0003 28.0003
      vertex 4.064 -43.0003 28.0003
      vertex 1.524 -43.0003 28.0003
    endloop
  endfacet
  facet normal 2.22045e-16 1 -4.93038e-32
    outer loop
      vertex 4.064 -40.0003 31.0003
      vertex 4.064 -40.0003 28.0003
      vertex 1.524 -40.0003 31.0003
    endloop
  endfacet
  facet normal 2.22045e-16 1 -4.93038e-32
    outer loop
      vertex 1.524 -40.0003 31.0003
      vertex 4.064 -40.0003 28.0003
      vertex 1.524 -40.0003 28.0003
    endloop
  endfacet
  facet normal 2.22045e-16 1 -4.93038e-32
    outer loop
      vertex 4.064 -13.0003 31.0003
      vertex 4.064 -13.0003 22.0003
      vertex 1.524 -13.0003 31.0003
    endloop
  endfacet
  facet normal 2.22045e-16 1 -4.93038e-32
    outer loop
      vertex 1.524 -13.0003 31.0003
      vertex 4.064 -13.0003 22.0003
      vertex 1.524 -13.0003 22.0003
    endloop
  endfacet
  facet normal -2.22045e-16 4.93038e-32 -1
    outer loop
      vertex 4.064 -10 31.0003
      vertex 4.064 -13.0003 31.0003
      vertex 1.524 -10 31.0003
    endloop
  endfacet
  facet normal -2.22045e-16 4.93038e-32 -1
    outer loop
      vertex 1.524 -10 31.0003
      vertex 4.064 -13.0003 31.0003
      vertex 1.524 -13.0003 31.0003
    endloop
  endfacet
  facet normal -2.22045e-16 -1 4.93038e-32
    outer loop
      vertex 4.064 -10 10
      vertex 4.064 -10 31.0003
      vertex 1.524 -10 31.0003
    endloop
  endfacet
  facet normal -2.22045e-16 -1 4.93038e-32
    outer loop
      vertex 1.524 -10 10
      vertex 4.064 -10 10
      vertex 1.524 -10 31.0003
    endloop
  endfacet
  facet normal 2.22045e-16 -4.93038e-32 1
    outer loop
      vertex 4.064 -13.0003 10
      vertex 4.064 -10 10
      vertex 1.524 -10 10
    endloop
  endfacet
  facet normal 2.22045e-16 -4.93038e-32 1
    outer loop
      vertex 1.524 -13.0003 10
      vertex 4.064 -13.0003 10
      vertex 1.524 -10 10
    endloop
  endfacet
  facet normal 2.22045e-16 1 -4.93038e-32
    outer loop
      vertex 4.064 -13.0003 19
      vertex 4.064 -13.0003 10
      vertex 1.524 -13.0003 19
    endloop
  endfacet
  facet normal 2.22045e-16 1 -4.93038e-32
    outer loop
      vertex 1.524 -13.0003 19
      vertex 4.064 -13.0003 10
      vertex 1.524 -13.0003 10
    endloop
  endfacet
  facet normal 1 0 0
    outer loop
      vertex 4.064 -40.0003 10
      vertex 4.064 -49.784 2.54
      vertex 4.064 -4.064 2.54
    endloop
  endfacet
  facet normal 1 0 0
    outer loop
      vertex 4.064 -40.0003 10
      vertex 4.064 -40.0003 13
      vertex 4.064 -43.0003 13
    endloop
  endfacet
  facet normal 1 0 0
    outer loop
      vertex 4.064 -49.784 37.338
      vertex 4.064 -49.784 2.54
      vertex 4.064 -43.0003 13
    endloop
  endfacet
  facet normal 1 0 0
    outer loop
      vertex 4.064 -31 10
      vertex 4.064 -40.0003 10
      vertex 4.064 -4.064 2.54
    endloop
  endfacet
  facet normal 1 0 0
    outer loop
      vertex 4.064 -49.784 37.338
      vertex 4.064 -43.0003 13
      vertex 4.064 -43.0003 28.0003
    endloop
  endfacet
  facet normal 1 0 0
    outer loop
      vertex 4.064 -31 28.0003
      vertex 4.064 -28 28.0003
      vertex 4.064 -31 31.0003
    endloop
  endfacet
  facet normal 1 0 0
    outer loop
      vertex 4.064 -49.784 37.338
      vertex 4.064 -43.0003 28.0003
      vertex 4.064 -40.0003 28.0003
    endloop
  endfacet
  facet normal 1 0 0
    outer loop
      vertex 4.064 -4.064 37.338
      vertex 4.064 -49.784 37.338
      vertex 4.064 -40.0003 31.0003
    endloop
  endfacet
  facet normal 1 0 0
    outer loop
      vertex 4.064 -4.064 37.338
      vertex 4.064 -40.0003 31.0003
      vertex 4.064 -31 31.0003
    endloop
  endfacet
  facet normal 1 0 0
    outer loop
      vertex 4.064 -25.0003 31.0003
      vertex 4.064 -31 31.0003
      vertex 4.064 -28 28.0003
    endloop
  endfacet
  facet normal 1 0 0
    outer loop
      vertex 4.064 -22 10
      vertex 4.064 -25.0003 10
      vertex 4.064 -4.064 2.54
    endloop
  endfacet
  facet normal 1 0 0
    outer loop
      vertex 4.064 -22 31.0003
      vertex 4.064 -22 22.0003
      vertex 4.064 -13.0003 31.0003
    endloop
  endfacet
  facet normal 1 0 0
    outer loop
      vertex 4.064 -25.0003 10
      vertex 4.064 -31 10
      vertex 4.064 -4.064 2.54
    endloop
  endfacet
  facet normal 1 0 0
    outer loop
      vertex 4.064 -43.0003 13
      vertex 4.064 -49.784 2.54
      vertex 4.064 -40.0003 10
    endloop
  endfacet
  facet normal 1 0 0
    outer loop
      vertex 4.064 -22 31.0003
      vertex 4.064 -13.0003 31.0003
      vertex 4.064 -4.064 37.338
    endloop
  endfacet
  facet normal 1 0 0
    outer loop
      vertex 4.064 -31 13
      vertex 4.064 -31 10
      vertex 4.064 -25.0003 10
    endloop
  endfacet
  facet normal 1 0 0
    outer loop
      vertex 4.064 -13.0003 31.0003
      vertex 4.064 -10 31.0003
      vertex 4.064 -4.064 37.338
    endloop
  endfacet
  facet normal 1 0 0
    outer loop
      vertex 4.064 -4.064 37.338
      vertex 4.064 -31 31.0003
      vertex 4.064 -25.0003 31.0003
    endloop
  endfacet
  facet normal 1 0 0
    outer loop
      vertex 4.064 -4.064 37.338
      vertex 4.064 -25.0003 31.0003
      vertex 4.064 -22 31.0003
    endloop
  endfacet
  facet normal 1 0 0
    outer loop
      vertex 4.064 -13.0003 19
      vertex 4.064 -22 19
      vertex 4.064 -13.0003 10
    endloop
  endfacet
  facet normal 1 0 0
    outer loop
      vertex 4.064 -10 31.0003
      vertex 4.064 -10 10
      vertex 4.064 -4.064 2.54
    endloop
  endfacet
  facet normal 1 0 0
    outer loop
      vertex 4.064 -13.0003 22.0003
      vertex 4.064 -13.0003 31.0003
      vertex 4.064 -22 22.0003
    endloop
  endfacet
  facet normal 1 0 0
    outer loop
      vertex 4.064 -10 10
      vertex 4.064 -13.0003 10
      vertex 4.064 -4.064 2.54
    endloop
  endfacet
  facet normal 1 0 0
    outer loop
      vertex 4.064 -10 31.0003
      vertex 4.064 -4.064 2.54
      vertex 4.064 -4.064 37.338
    endloop
  endfacet
  facet normal 1 0 0
    outer loop
      vertex 4.064 -22 19
      vertex 4.064 -22 10
      vertex 4.064 -13.0003 10
    endloop
  endfacet
  facet normal 1 0 0
    outer loop
      vertex 4.064 -13.0003 10
      vertex 4.064 -22 10
      vertex 4.064 -4.064 2.54
    endloop
  endfacet
  facet normal 1 0 0
    outer loop
      vertex 4.064 -40.0003 28.0003
      vertex 4.064 -40.0003 31.0003
      vertex 4.064 -49.784 37.338
    endloop
  endfacet
  facet normal 1 0 0
    outer loop
      vertex 4.064 -25.0003 10
      vertex 4.064 -28 13
      vertex 4.064 -31 13
    endloop
  endfacet
  facet normal 1 0 0
    outer loop
      vertex 4.064 -25.0003 10
      vertex 4.064 -28 28.0003
      vertex 4.064 -28 13
    endloop
  endfacet
  facet normal 1 0 0
    outer loop
      vertex 4.064 -25.0003 10
      vertex 4.064 -25.0003 31.0003
      vertex 4.064 -28 28.0003
    endloop
  endfacet
  facet normal 0 0.707107 0.707107
    outer loop
      vertex 3.302 -50.546 38.1
      vertex 50.546 -50.546 38.1
      vertex 4.064 -49.784 37.338
    endloop
  endfacet
  facet normal 0 0.707107 0.707107
    outer loop
      vertex 4.064 -49.784 37.338
      vertex 50.546 -50.546 38.1
      vertex 49.784 -49.784 37.338
    endloop
  endfacet
  facet normal 0.707107 1.57009e-16 0.707106
    outer loop
      vertex 3.302 -3.302 38.1
      vertex 3.302 -50.546 38.1
      vertex 4.064 -49.784 37.338
    endloop
  endfacet
  facet normal 0.707107 1.57009e-16 0.707106
    outer loop
      vertex 4.064 -4.064 37.338
      vertex 3.302 -3.302 38.1
      vertex 4.064 -49.784 37.338
    endloop
  endfacet
  facet normal -0.707107 1.57009e-16 0.707107
    outer loop
      vertex 49.784 -49.784 37.338
      vertex 50.546 -50.546 38.1
      vertex 49.784 -4.064 37.338
    endloop
  endfacet
  facet normal -0.707107 1.57009e-16 0.707107
    outer loop
      vertex 49.784 -4.064 37.338
      vertex 50.546 -50.546 38.1
      vertex 50.546 -3.302 38.1
    endloop
  endfacet
  facet normal 0 -0.707107 0.707106
    outer loop
      vertex 50.546 -3.302 38.1
      vertex 3.302 -3.302 38.1
      vertex 4.064 -4.064 37.338
    endloop
  endfacet
  facet normal 0 -0.707107 0.707106
    outer loop
      vertex 49.784 -4.064 37.338
      vertex 50.546 -3.302 38.1
      vertex 4.064 -4.064 37.338
    endloop
  endfacet
  facet normal 0 1 -2.22045e-16
    outer loop
      vertex 4.064 -49.784 2.54
      vertex 4.064 -49.784 37.338
      vertex 49.784 -49.784 2.54
    endloop
  endfacet
  facet normal 0 1 -2.22045e-16
    outer loop
      vertex 49.784 -49.784 2.54
      vertex 4.064 -49.784 37.338
      vertex 49.784 -49.784 37.338
    endloop
  endfacet
  facet normal 0 -1 2.22045e-16
    outer loop
      vertex 4.064 -4.064 37.338
      vertex 4.064 -4.064 2.54
      vertex 49.784 -4.064 2.54
    endloop
  endfacet
  facet normal 0 -1 2.22045e-16
    outer loop
      vertex 49.784 -4.064 37.338
      vertex 4.064 -4.064 37.338
      vertex 49.784 -4.064 2.54
    endloop
  endfacet
  facet normal 0 2.22045e-16 1
    outer loop
      vertex 4.064 -4.064 2.54
      vertex 4.064 -49.784 2.54
      vertex 49.784 -49.784 2.54
    endloop
  endfacet
  facet normal 0 2.22045e-16 1
    outer loop
      vertex 49.784 -4.064 2.54
      vertex 4.064 -4.064 2.54
      vertex 49.784 -49.784 2.54
    endloop
  endfacet
  facet normal -1 0 0
    outer loop
      vertex 49.784 -49.784 2.54
      vertex 49.784 -49.784 37.338
      vertex 49.784 -4.064 2.54
    endloop
  endfacet
  facet normal -1 0 0
    outer loop
      vertex 49.784 -4.064 2.54
      vertex 49.784 -49.784 37.338
      vertex 49.784 -4.064 37.338
    endloop
  endfacet
endsolid OpenSCAD_Model
