solid UB121100
facet normal 0.321439465303228 1.96706955929485e-29 0.946930129495083
outer loop
vertex 315.904828261118 -162.75 235.245002504839
vertex 315.652613969761 -155.75 235.330617720186
vertex 315.652613969761 -162.75 235.330617720186
endloop
endfacet
facet normal 0.321439465303228 1.96706955929485e-29 0.946930129495083
outer loop
vertex 315.652613969761 -155.75 235.330617720186
vertex 315.904828261118 -162.75 235.245002504839
vertex 315.904828261118 -155.75 235.245002504839
endloop
endfacet
facet normal 0.321439465303247 0.0 0.946930129495077
outer loop
vertex 36.4930119012442 -162.75 235.245002504839
vertex 36.2407976098877 -155.75 235.330617720186
vertex 36.2407976098877 -162.75 235.330617720186
endloop
endfacet
facet normal 0.321439465303247 0.0 0.946930129495077
outer loop
vertex 36.2407976098877 -155.75 235.330617720186
vertex 36.4930119012442 -162.75 235.245002504839
vertex 36.4930119012442 -155.75 235.245002504839
endloop
endfacet
facet normal 0.751839807478988 0.0 0.659345815100056
outer loop
vertex 37.3292233587757 -155.75 234.603354885818
vertex 37.153606982937 -162.75 234.803606982937
vertex 37.3292233587757 -162.75 234.603354885818
endloop
endfacet
facet normal 0.751839807478988 0.0 0.659345815100056
outer loop
vertex 37.153606982937 -162.75 234.803606982937
vertex 37.3292233587757 -155.75 234.603354885818
vertex 37.153606982937 -155.75 234.803606982937
endloop
endfacet
facet normal 0.980785280403237 4.05263516069045e-30 0.195090322016096
outer loop
vertex 37.7325799144229 -155.75 233.629566018702
vertex 37.6806177201858 -162.75 233.890797609888
vertex 37.7325799144229 -162.75 233.629566018702
endloop
endfacet
facet normal 0.980785280403237 4.05263516069045e-30 0.195090322016096
outer loop
vertex 37.6806177201858 -162.75 233.890797609888
vertex 37.7325799144229 -155.75 233.629566018702
vertex 37.6806177201858 -155.75 233.890797609888
endloop
endfacet
facet normal 0.946930129495091 0.0 0.321439465303204
outer loop
vertex 37.6806177201858 -155.75 233.890797609888
vertex 37.5950025048386 -162.75 234.143011901244
vertex 37.6806177201858 -162.75 233.890797609888
endloop
endfacet
facet normal 0.946930129495091 0.0 0.321439465303204
outer loop
vertex 37.5950025048386 -162.75 234.143011901244
vertex 37.6806177201858 -155.75 233.890797609888
vertex 37.5950025048386 -155.75 234.143011901244
endloop
endfacet
facet normal -0.751839807478978 1.47786056162844e-18 0.659345815100068
outer loop
vertex 292.258209376937 -155.75 234.803606982937
vertex 292.082593001098 -162.75 234.603354885818
vertex 292.258209376937 -162.75 234.803606982937
endloop
endfacet
facet normal -0.751839807478978 1.47786056162844e-18 0.659345815100068
outer loop
vertex 292.082593001098 -162.75 234.603354885818
vertex 292.258209376937 -155.75 234.803606982937
vertex 292.082593001098 -155.75 234.603354885818
endloop
endfacet
facet normal 0.942955197385633 2.52459067386917e-29 -0.332919653555363
outer loop
vertex 300.404256770984 -155.75 226.31490852761
vertex 300.907016326597 -162.75 227.303929434643
vertex 300.404256770984 -162.75 226.31490852761
endloop
endfacet
facet normal 0.824658831359237 5.53661235387711e-30 -0.565630455210129
outer loop
vertex 300.907016326597 -162.75 227.303929434643
vertex 300.404256770984 -155.75 226.31490852761
vertex 300.907016326597 -155.75 227.303929434643
endloop
endfacet
facet normal -0.56563045521014 -1.92486213547184e-18 -0.824658831359229
outer loop
vertex 306.815745794517 -155.75 228.404800033277
vertex 305.826724887484 -162.75 228.907559588889
vertex 305.826724887484 -155.75 228.907559588889
endloop
endfacet
facet normal -0.332919653555359 6.91578075088733e-30 -0.942955197385634
outer loop
vertex 305.826724887484 -162.75 228.907559588889
vertex 306.815745794517 -155.75 228.404800033277
vertex 306.815745794517 -162.75 228.404800033277
endloop
endfacet
facet normal 0.0775209276865231 -4.42650112512895e-19 0.99699072501735
outer loop
vertex 304.082352417206 -162.75 220.662789418676
vertex 302.996907832263 -155.75 220.892440411111
vertex 302.996907832263 -162.75 220.892440411111
endloop
endfacet
facet normal 0.332919653555363 -5.96066601004433e-19 0.942955197385633
outer loop
vertex 302.996907832263 -155.75 220.892440411111
vertex 304.082352417206 -162.75 220.662789418676
vertex 304.082352417206 -155.75 220.662789418676
endloop
endfacet
facet normal -0.195090322016137 3.50022187323939e-19 0.980785280403229
outer loop
vertex 293.432250341172 -162.75 235.382579914423
vertex 293.171018749986 -155.75 235.330617720186
vertex 293.171018749986 -162.75 235.330617720186
endloop
endfacet
facet normal -0.195090322016137 3.50022187323939e-19 0.980785280403229
outer loop
vertex 293.171018749986 -155.75 235.330617720186
vertex 293.432250341172 -162.75 235.382579914423
vertex 293.432250341172 -155.75 235.382579914423
endloop
endfacet
facet normal 0.99699072501735 0.0 -0.0775209276865245
outer loop
vertex 20.7627894186762 -155.75 225.229463942668
vertex 20.992440411111 -162.75 226.31490852761
vertex 20.7627894186762 -162.75 225.229463942668
endloop
endfacet
facet normal 0.942955197385634 0.0 -0.33291965355536
outer loop
vertex 20.992440411111 -162.75 226.31490852761
vertex 20.7627894186762 -155.75 225.229463942668
vertex 20.992440411111 -155.75 226.31490852761
endloop
endfacet
facet normal -0.902179759045752 0.0 -0.43136026980721
outer loop
vertex 28.8342639759445 -155.75 226.733281146681
vertex 29.1781026749629 -162.75 225.678433065503
vertex 28.8342639759445 -162.75 226.733281146681
endloop
endfacet
facet normal -0.983082982344209 0.0 -0.183160721294757
outer loop
vertex 29.1781026749629 -162.75 225.678433065503
vertex 28.8342639759445 -155.75 226.733281146681
vertex 29.1781026749629 -155.75 225.678433065503
endloop
endfacet
facet normal 0.946930129495117 4.58860657799299e-19 0.321439465303128
outer loop
vertex 317.092434080059 -155.75 233.890797609888
vertex 317.006818864712 -162.75 234.143011901244
vertex 317.092434080059 -162.75 233.890797609888
endloop
endfacet
facet normal 0.946930129495117 4.58860657799299e-19 0.321439465303128
outer loop
vertex 317.006818864712 -162.75 234.143011901244
vertex 317.092434080059 -155.75 233.890797609888
vertex 317.006818864712 -155.75 234.143011901244
endloop
endfacet
facet normal -0.751839807478986 0.0 0.659345815100059
outer loop
vertex 12.846393017063 -155.75 234.803606982937
vertex 12.6707766412243 -162.75 234.603354885818
vertex 12.846393017063 -162.75 234.803606982937
endloop
endfacet
facet normal -0.751839807478986 0.0 0.659345815100059
outer loop
vertex 12.6707766412243 -162.75 234.603354885818
vertex 12.846393017063 -155.75 234.803606982937
vertex 12.6707766412243 -155.75 234.603354885818
endloop
endfacet
facet normal -0.99999955610942 0.000706919531395749 0.000622933173980313
outer loop
vertex 291.67923644545 -155.75 233.629566018702
vertex 291.661816359873 -162.75 233.363786872639
vertex 291.67923644545 -162.75 233.629566018702
endloop
endfacet
facet normal -0.99999955610942 0.000706919531395749 0.000622933173980313
outer loop
vertex 291.661816359873 -162.75 233.363786872639
vertex 291.67923644545 -155.75 233.629566018702
vertex 291.661816359873 -162.75 213.4
endloop
endfacet
facet normal -0.99999955610942 0.000706919531395749 0.000622933173980313
outer loop
vertex 291.661816359873 -162.75 213.4
vertex 291.67923644545 -155.75 233.629566018702
vertex 291.661816359873 -155.75 213.4
endloop
endfacet
facet normal 0.896872741532673 0.0 0.442288690219033
outer loop
vertex 317.006818864712 -155.75 234.143011901244
vertex 316.889015528326 -162.75 234.381893436319
vertex 317.006818864712 -162.75 234.143011901244
endloop
endfacet
facet normal 0.896872741532673 0.0 0.442288690219033
outer loop
vertex 316.889015528326 -162.75 234.381893436319
vertex 317.006818864712 -155.75 234.143011901244
vertex 316.889015528326 -155.75 234.381893436319
endloop
endfacet
facet normal 0.99699072501735 -1.53416488466294e-19 -0.0775209276865231
outer loop
vertex 300.17460577855 -155.75 225.229463942668
vertex 300.404256770984 -162.75 226.31490852761
vertex 300.17460577855 -162.75 225.229463942668
endloop
endfacet
facet normal 0.942955197385633 2.52459067386917e-29 -0.332919653555363
outer loop
vertex 300.404256770984 -162.75 226.31490852761
vertex 300.17460577855 -155.75 225.229463942668
vertex 300.404256770984 -155.75 226.31490852761
endloop
endfacet
facet normal 0.555570233019604 2.30818570321747e-29 0.831469612302544
outer loop
vertex 316.365171245691 -162.75 234.979223358776
vertex 316.143709796193 -155.75 235.127199168453
vertex 316.143709796193 -162.75 235.127199168453
endloop
endfacet
facet normal 0.555570233019604 2.30818570321747e-29 0.831469612302544
outer loop
vertex 316.143709796193 -155.75 235.127199168453
vertex 316.365171245691 -162.75 234.979223358776
vertex 316.365171245691 -155.75 234.979223358776
endloop
endfacet
facet normal 0.751839807478978 9.41228091391685e-19 0.659345815100068
outer loop
vertex 316.741039718649 -155.75 234.603354885818
vertex 316.56542334281 -162.75 234.803606982937
vertex 316.741039718649 -162.75 234.603354885818
endloop
endfacet
facet normal 0.751839807478978 9.41228091391685e-19 0.659345815100068
outer loop
vertex 316.56542334281 -162.75 234.803606982937
vertex 316.741039718649 -155.75 234.603354885818
vertex 316.56542334281 -155.75 234.803606982937
endloop
endfacet
facet normal -0.759794476090868 0.0 -0.650163328788854
outer loop
vertex 28.2291265233862 -155.75 227.663194147353
vertex 28.8342639759445 -162.75 226.733281146681
vertex 28.2291265233862 -162.75 227.663194147353
endloop
endfacet
facet normal -0.902179759045752 0.0 -0.43136026980721
outer loop
vertex 28.8342639759445 -162.75 226.733281146681
vertex 28.2291265233862 -155.75 227.663194147353
vertex 28.8342639759445 -155.75 226.733281146681
endloop
endfacet
facet normal 0.0 0.0 -1.0
outer loop
vertex 317.161816359874 -155.75 213.4
vertex 291.661816359873 -162.75 213.4
vertex 291.661816359873 -155.75 213.4
endloop
endfacet
facet normal 0.0 0.0 -1.0
outer loop
vertex 291.661816359873 -162.75 213.4
vertex 317.161816359874 -155.75 213.4
vertex 317.161816359874 -162.75 213.4
endloop
endfacet
facet normal -0.831469612302524 0.0 0.555570233019634
outer loop
vertex 12.6707766412243 -155.75 234.603354885818
vertex 12.522800831547 -162.75 234.381893436319
vertex 12.6707766412243 -162.75 234.603354885818
endloop
endfacet
facet normal -0.831469612302524 0.0 0.555570233019634
outer loop
vertex 12.522800831547 -162.75 234.381893436319
vertex 12.6707766412243 -155.75 234.603354885818
vertex 12.522800831547 -155.75 234.381893436319
endloop
endfacet
facet normal 0.442288690218913 0.0 0.896872741532732
outer loop
vertex 36.7318934363194 -162.75 235.127199168453
vertex 36.4930119012442 -155.75 235.245002504839
vertex 36.4930119012442 -162.75 235.245002504839
endloop
endfacet
facet normal 0.442288690218913 0.0 0.896872741532732
outer loop
vertex 36.4930119012442 -155.75 235.245002504839
vertex 36.7318934363194 -162.75 235.127199168453
vertex 36.7318934363194 -155.75 235.127199168453
endloop
endfacet
facet normal 0.659345815100068 0.0 0.751839807478978
outer loop
vertex 37.153606982937 -162.75 234.803606982937
vertex 36.9533548858175 -155.75 234.979223358776
vertex 36.9533548858175 -162.75 234.979223358776
endloop
endfacet
facet normal 0.659345815100068 0.0 0.751839807478978
outer loop
vertex 36.9533548858175 -155.75 234.979223358776
vertex 37.153606982937 -162.75 234.803606982937
vertex 37.153606982937 -155.75 234.803606982937
endloop
endfacet
facet normal 0.195090322016157 3.50022187320391e-19 0.980785280403225
outer loop
vertex 36.2407976098877 -162.75 235.330617720186
vertex 35.9795660187017 -155.75 235.382579914423
vertex 35.9795660187017 -162.75 235.382579914423
endloop
endfacet
facet normal 0.195090322016157 3.50022187320391e-19 0.980785280403225
outer loop
vertex 35.9795660187017 -155.75 235.382579914423
vertex 36.2407976098877 -162.75 235.330617720186
vertex 36.2407976098877 -155.75 235.330617720186
endloop
endfacet
facet normal 0.896872741532698 0.0 0.442288690218982
outer loop
vertex 37.5950025048386 -155.75 234.143011901244
vertex 37.4771991684529 -162.75 234.381893436319
vertex 37.5950025048386 -162.75 234.143011901244
endloop
endfacet
facet normal 0.896872741532698 0.0 0.442288690218982
outer loop
vertex 37.4771991684529 -162.75 234.381893436319
vertex 37.5950025048386 -155.75 234.143011901244
vertex 37.4771991684529 -155.75 234.381893436319
endloop
endfacet
facet normal 0.555570233019652 0.0 0.831469612302512
outer loop
vertex 36.9533548858175 -162.75 234.979223358776
vertex 36.7318934363194 -155.75 235.127199168453
vertex 36.7318934363194 -162.75 235.127199168453
endloop
endfacet
facet normal 0.555570233019652 0.0 0.831469612302512
outer loop
vertex 36.7318934363194 -155.75 235.127199168453
vertex 36.9533548858175 -162.75 234.979223358776
vertex 36.9533548858175 -155.75 234.979223358776
endloop
endfacet
facet normal 0.831469612302521 0.0 0.555570233019638
outer loop
vertex 37.4771991684529 -155.75 234.381893436319
vertex 37.3292233587757 -162.75 234.603354885818
vertex 37.4771991684529 -162.75 234.381893436319
endloop
endfacet
facet normal 0.831469612302521 0.0 0.555570233019638
outer loop
vertex 37.3292233587757 -162.75 234.603354885818
vertex 37.4771991684529 -155.75 234.381893436319
vertex 37.3292233587757 -155.75 234.603354885818
endloop
endfacet
facet normal 0.983082982344209 0.0 0.183160721294757
outer loop
vertex 20.8218973250371 -155.75 224.121566934497
vertex 20.7627894186762 -162.75 225.229463942668
vertex 20.8218973250371 -162.75 224.121566934497
endloop
endfacet
facet normal 0.99699072501735 0.0 -0.0775209276865245
outer loop
vertex 20.7627894186762 -162.75 225.229463942668
vertex 20.8218973250371 -155.75 224.121566934497
vertex 20.7627894186762 -155.75 225.229463942668
endloop
endfacet
facet normal 0.983082982344209 -3.61387882502205e-19 0.183160721294757
outer loop
vertex 300.233713684911 -155.75 224.121566934497
vertex 300.17460577855 -162.75 225.229463942668
vertex 300.233713684911 -162.75 224.121566934497
endloop
endfacet
facet normal 0.99699072501735 -1.53416488466294e-19 -0.0775209276865231
outer loop
vertex 300.17460577855 -162.75 225.229463942668
vertex 300.233713684911 -155.75 224.121566934497
vertex 300.17460577855 -155.75 225.229463942668
endloop
endfacet
facet normal -0.946930129495093 0.0 0.321439465303199
outer loop
vertex 12.4049974951614 -155.75 234.143011901244
vertex 12.3193822798142 -162.75 233.890797609888
vertex 12.4049974951614 -162.75 234.143011901244
endloop
endfacet
facet normal -0.946930129495093 0.0 0.321439465303199
outer loop
vertex 12.3193822798142 -162.75 233.890797609888
vertex 12.4049974951614 -155.75 234.143011901244
vertex 12.3193822798142 -155.75 233.890797609888
endloop
endfacet
facet normal -0.555570233019648 0.0 0.831469612302515
outer loop
vertex 13.2681065636806 -162.75 235.127199168453
vertex 13.0466451141825 -155.75 234.979223358776
vertex 13.0466451141825 -162.75 234.979223358776
endloop
endfacet
facet normal -0.555570233019648 0.0 0.831469612302515
outer loop
vertex 13.0466451141825 -155.75 234.979223358776
vertex 13.2681065636806 -162.75 235.127199168453
vertex 13.2681065636806 -155.75 235.127199168453
endloop
endfacet
facet normal 0.83146961230257 5.93468964455587e-19 0.555570233019565
outer loop
vertex 316.889015528326 -155.75 234.381893436319
vertex 316.741039718649 -162.75 234.603354885818
vertex 316.889015528326 -162.75 234.381893436319
endloop
endfacet
facet normal 0.83146961230257 5.93468964455587e-19 0.555570233019565
outer loop
vertex 316.741039718649 -162.75 234.603354885818
vertex 316.889015528326 -155.75 234.381893436319
vertex 316.741039718649 -155.75 234.603354885818
endloop
endfacet
facet normal -0.89687274153274 -1.86308473400363e-29 0.442288690218897
outer loop
vertex 291.934617191421 -155.75 234.381893436319
vertex 291.816813855035 -162.75 234.143011901244
vertex 291.934617191421 -162.75 234.381893436319
endloop
endfacet
facet normal -0.89687274153274 -1.86308473400363e-29 0.442288690218897
outer loop
vertex 291.816813855035 -162.75 234.143011901244
vertex 291.934617191421 -155.75 234.381893436319
vertex 291.816813855035 -155.75 234.143011901244
endloop
endfacet
facet normal 0.442288690218964 -6.31375114837817e-19 0.896872741532707
outer loop
vertex 316.143709796193 -162.75 235.127199168453
vertex 315.904828261118 -155.75 235.245002504839
vertex 315.904828261118 -162.75 235.245002504839
endloop
endfacet
facet normal 0.442288690218964 -6.31375114837817e-19 0.896872741532707
outer loop
vertex 315.904828261118 -155.75 235.245002504839
vertex 316.143709796193 -162.75 235.127199168453
vertex 316.143709796193 -155.75 235.127199168453
endloop
endfacet
facet normal -0.0775209276865208 0.0 -0.99699072501735
outer loop
vertex 25.3294639426677 -155.75 229.137210581324
vertex 24.2215669344973 -162.75 229.078102674963
vertex 24.2215669344973 -155.75 229.078102674963
endloop
endfacet
facet normal 0.183160721294761 0.0 -0.983082982344208
outer loop
vertex 24.2215669344973 -162.75 229.078102674963
vertex 25.3294639426677 -155.75 229.137210581324
vertex 25.3294639426677 -162.75 229.137210581324
endloop
endfacet
facet normal 0.565630455210135 0.0 0.824658831359233
outer loop
vertex 22.5960705653569 -162.75 221.395199966723
vertex 21.7708734766138 -155.75 222.136805852647
vertex 21.7708734766138 -162.75 222.136805852647
endloop
endfacet
facet normal 0.759794476090868 0.0 0.650163328788854
outer loop
vertex 21.7708734766138 -155.75 222.136805852647
vertex 22.5960705653569 -162.75 221.395199966723
vertex 22.5960705653569 -155.75 221.395199966723
endloop
endfacet
facet normal -0.896872741532698 0.0 0.442288690218982
outer loop
vertex 12.522800831547 -155.75 234.381893436319
vertex 12.4049974951614 -162.75 234.143011901244
vertex 12.522800831547 -162.75 234.381893436319
endloop
endfacet
facet normal -0.896872741532698 0.0 0.442288690218982
outer loop
vertex 12.4049974951614 -162.75 234.143011901244
vertex 12.522800831547 -155.75 234.381893436319
vertex 12.4049974951614 -155.75 234.143011901244
endloop
endfacet
facet normal 5.64878247673791e-19 0.00124429086368677 0.999999225869824
outer loop
vertex 293.698029487235 -162.75 235.4
vertex 293.432250341172 -155.75 235.382579914423
vertex 293.432250341172 -162.75 235.382579914423
endloop
endfacet
facet normal 5.64878247673791e-19 0.00124429086368677 0.999999225869824
outer loop
vertex 293.432250341172 -155.75 235.382579914423
vertex 293.698029487235 -162.75 235.4
vertex 315.391382378575 -155.75 235.382579914423
endloop
endfacet
facet normal 5.64878247673791e-19 0.00124429086368677 0.999999225869824
outer loop
vertex 315.391382378575 -155.75 235.382579914423
vertex 293.698029487235 -162.75 235.4
vertex 315.125603232512 -162.75 235.4
endloop
endfacet
facet normal 5.64878247673791e-19 0.00124429086368677 0.999999225869824
outer loop
vertex 315.391382378575 -155.75 235.382579914423
vertex 315.125603232512 -162.75 235.4
vertex 315.391382378575 -162.75 235.382579914423
endloop
endfacet
facet normal 0.332919653555363 -5.96066601004433e-19 0.942955197385633
outer loop
vertex 302.996907832263 -162.75 220.892440411111
vertex 302.00788692523 -155.75 221.395199966723
vertex 302.00788692523 -162.75 221.395199966723
endloop
endfacet
facet normal 0.565630455210129 -5.53661235387711e-30 0.824658831359237
outer loop
vertex 302.00788692523 -155.75 221.395199966723
vertex 302.996907832263 -162.75 220.892440411111
vertex 302.996907832263 -155.75 220.892440411111
endloop
endfacet
facet normal -0.983082982344209 0.0 -0.183160721294757
outer loop
vertex 29.1781026749629 -155.75 225.678433065503
vertex 29.2372105813237 -162.75 224.570536057332
vertex 29.1781026749629 -162.75 225.678433065503
endloop
endfacet
facet normal -0.99699072501735 0.0 0.0775209276865257
outer loop
vertex 29.2372105813237 -162.75 224.570536057332
vertex 29.1781026749629 -155.75 225.678433065503
vertex 29.2372105813237 -155.75 224.570536057332
endloop
endfacet
facet normal -0.980785280403235 4.05263516069066e-30 0.195090322016106
outer loop
vertex 12.3193822798142 -155.75 233.890797609888
vertex 12.267420085577 -162.75 233.629566018702
vertex 12.3193822798142 -162.75 233.890797609888
endloop
endfacet
facet normal -0.980785280403235 4.05263516069066e-30 0.195090322016106
outer loop
vertex 12.267420085577 -162.75 233.629566018702
vertex 12.3193822798142 -155.75 233.890797609888
vertex 12.267420085577 -155.75 233.629566018702
endloop
endfacet
facet normal -0.759794476090868 0.0 -0.650163328788854
outer loop
vertex 28.2291265233862 -155.75 227.663194147353
vertex 27.4039294346431 -162.75 228.404800033277
vertex 27.4039294346431 -155.75 228.404800033277
endloop
endfacet
facet normal -0.565630455210135 0.0 -0.824658831359233
outer loop
vertex 27.4039294346431 -162.75 228.404800033277
vertex 28.2291265233862 -155.75 227.663194147353
vertex 28.2291265233862 -162.75 227.663194147353
endloop
endfacet
facet normal 0.195090322016169 3.50022187319884e-19 0.980785280403222
outer loop
vertex 315.652613969761 -162.75 235.330617720186
vertex 315.391382378575 -155.75 235.382579914423
vertex 315.391382378575 -162.75 235.382579914423
endloop
endfacet
facet normal 0.195090322016169 3.50022187319884e-19 0.980785280403222
outer loop
vertex 315.391382378575 -155.75 235.382579914423
vertex 315.652613969761 -162.75 235.330617720186
vertex 315.652613969761 -155.75 235.330617720186
endloop
endfacet
facet normal 0.759794476090868 0.0 0.650163328788854
outer loop
vertex 21.7708734766138 -155.75 222.136805852647
vertex 21.1657360240555 -162.75 223.066718853319
vertex 21.7708734766138 -162.75 222.136805852647
endloop
endfacet
facet normal 0.902179759045752 0.0 0.43136026980721
outer loop
vertex 21.1657360240555 -162.75 223.066718853319
vertex 21.7708734766138 -155.75 222.136805852647
vertex 21.1657360240555 -155.75 223.066718853319
endloop
endfacet
facet normal -0.555570233019682 -1.1540928516089e-29 0.831469612302492
outer loop
vertex 292.679922923554 -162.75 235.127199168453
vertex 292.458461474056 -155.75 234.979223358776
vertex 292.458461474056 -162.75 234.979223358776
endloop
endfacet
facet normal -0.555570233019682 -1.1540928516089e-29 0.831469612302492
outer loop
vertex 292.458461474056 -155.75 234.979223358776
vertex 292.679922923554 -162.75 235.127199168453
vertex 292.679922923554 -155.75 235.127199168453
endloop
endfacet
facet normal 0.183160721294763 -5.31056615315469e-19 -0.983082982344208
outer loop
vertex 303.633383294371 -155.75 229.078102674963
vertex 302.578535213193 -162.75 228.734263975944
vertex 302.578535213193 -155.75 228.734263975944
endloop
endfacet
facet normal 0.431360269807201 -6.84473103811042e-19 -0.902179759045756
outer loop
vertex 302.578535213193 -162.75 228.734263975944
vertex 303.633383294371 -155.75 229.078102674963
vertex 303.633383294371 -162.75 229.078102674963
endloop
endfacet
facet normal 1.24962487405606e-30 -1.0 6.84995885130601e-46
outer loop
vertex 317.161816359874 -162.75 213.4
vertex 306.245097506554 -162.75 221.065736024056
vertex 291.661816359873 -162.75 213.4
endloop
endfacet
facet normal 1.24962487405606e-30 -1.0 6.84995885130601e-46
outer loop
vertex 306.245097506554 -162.75 221.065736024056
vertex 317.161816359874 -162.75 213.4
vertex 307.175010507226 -162.75 221.670873476614
endloop
endfacet
facet normal 1.24962487405606e-30 -1.0 6.84995885130601e-46
outer loop
vertex 307.175010507226 -162.75 221.670873476614
vertex 317.161816359874 -162.75 213.4
vertex 307.91661639315 -162.75 222.496070565357
endloop
endfacet
facet normal 1.24962487405606e-30 -1.0 6.84995885130601e-46
outer loop
vertex 307.91661639315 -162.75 222.496070565357
vertex 317.161816359874 -162.75 213.4
vertex 317.161816359873 -162.75 233.363786872639
endloop
endfacet
facet normal 1.24962487405606e-30 -1.0 6.84995885130601e-46
outer loop
vertex 291.661816359873 -162.75 213.4
vertex 306.245097506554 -162.75 221.065736024056
vertex 305.190249425376 -162.75 220.721897325037
endloop
endfacet
facet normal 1.24962487405606e-30 -1.0 6.84995885130601e-46
outer loop
vertex 291.661816359873 -162.75 213.4
vertex 305.190249425376 -162.75 220.721897325037
vertex 304.082352417206 -162.75 220.662789418676
endloop
endfacet
facet normal 1.24962487405606e-30 -1.0 6.84995885130601e-46
outer loop
vertex 307.91661639315 -162.75 222.496070565357
vertex 317.161816359873 -162.75 233.363786872639
vertex 308.419375948762 -162.75 223.48509147239
endloop
endfacet
facet normal 1.24962487405606e-30 -1.0 6.84995885130601e-46
outer loop
vertex 308.419375948762 -162.75 223.48509147239
vertex 317.161816359873 -162.75 233.363786872639
vertex 308.649026941197 -162.75 224.570536057332
endloop
endfacet
facet normal 1.24962487405606e-30 -1.0 6.84995885130601e-46
outer loop
vertex 308.649026941197 -162.75 224.570536057332
vertex 317.161816359873 -162.75 233.363786872639
vertex 308.589919034836 -162.75 225.678433065503
endloop
endfacet
facet normal 1.24962487405606e-30 -1.0 6.84995885130601e-46
outer loop
vertex 308.589919034836 -162.75 225.678433065503
vertex 317.161816359873 -162.75 233.363786872639
vertex 308.246080335818 -162.75 226.733281146681
endloop
endfacet
facet normal 1.24962487405606e-30 -1.0 6.84995885130601e-46
outer loop
vertex 308.246080335818 -162.75 226.733281146681
vertex 317.161816359873 -162.75 233.363786872639
vertex 307.64094288326 -162.75 227.663194147353
endloop
endfacet
facet normal 1.24962487405606e-30 -1.0 6.84995885130601e-46
outer loop
vertex 307.64094288326 -162.75 227.663194147353
vertex 317.161816359873 -162.75 233.363786872639
vertex 306.815745794517 -162.75 228.404800033277
endloop
endfacet
facet normal 1.24962487405606e-30 -1.0 6.84995885130601e-46
outer loop
vertex 306.815745794517 -162.75 228.404800033277
vertex 317.161816359873 -162.75 233.363786872639
vertex 305.826724887484 -162.75 228.907559588889
endloop
endfacet
facet normal 1.24962487405606e-30 -1.0 6.84995885130601e-46
outer loop
vertex 305.826724887484 -162.75 228.907559588889
vertex 317.161816359873 -162.75 233.363786872639
vertex 304.741280302541 -162.75 229.137210581324
endloop
endfacet
facet normal 1.24962487405606e-30 -1.0 6.84995885130601e-46
outer loop
vertex 291.661816359873 -162.75 213.4
vertex 301.182689836487 -162.75 222.136805852647
vertex 291.661816359873 -162.75 233.363786872639
endloop
endfacet
facet normal 1.24962487405606e-30 -1.0 6.84995885130601e-46
outer loop
vertex 301.182689836487 -162.75 222.136805852647
vertex 291.661816359873 -162.75 213.4
vertex 302.00788692523 -162.75 221.395199966723
endloop
endfacet
facet normal 1.24962487405606e-30 -1.0 6.84995885130601e-46
outer loop
vertex 302.00788692523 -162.75 221.395199966723
vertex 291.661816359873 -162.75 213.4
vertex 302.996907832263 -162.75 220.892440411111
endloop
endfacet
facet normal 1.24962487405606e-30 -1.0 6.84995885130601e-46
outer loop
vertex 302.996907832263 -162.75 220.892440411111
vertex 291.661816359873 -162.75 213.4
vertex 304.082352417206 -162.75 220.662789418676
endloop
endfacet
facet normal 1.24962487405606e-30 -1.0 6.84995885130601e-46
outer loop
vertex 291.661816359873 -162.75 233.363786872639
vertex 301.182689836487 -162.75 222.136805852647
vertex 300.577552383929 -162.75 223.066718853319
endloop
endfacet
facet normal 1.24962487405606e-30 -1.0 6.84995885130601e-46
outer loop
vertex 291.661816359873 -162.75 233.363786872639
vertex 300.577552383929 -162.75 223.066718853319
vertex 300.233713684911 -162.75 224.121566934497
endloop
endfacet
facet normal 1.24962487405606e-30 -1.0 6.84995885130601e-46
outer loop
vertex 291.661816359873 -162.75 233.363786872639
vertex 300.233713684911 -162.75 224.121566934497
vertex 300.17460577855 -162.75 225.229463942668
endloop
endfacet
facet normal 1.24962487405606e-30 -1.0 6.84995885130601e-46
outer loop
vertex 291.661816359873 -162.75 233.363786872639
vertex 300.17460577855 -162.75 225.229463942668
vertex 300.404256770984 -162.75 226.31490852761
endloop
endfacet
facet normal 1.24962487405606e-30 -1.0 6.84995885130601e-46
outer loop
vertex 291.661816359873 -162.75 233.363786872639
vertex 300.404256770984 -162.75 226.31490852761
vertex 300.907016326597 -162.75 227.303929434643
endloop
endfacet
facet normal 1.24962487405606e-30 -1.0 6.84995885130601e-46
outer loop
vertex 291.661816359873 -162.75 233.363786872639
vertex 300.907016326597 -162.75 227.303929434643
vertex 301.648622212521 -162.75 228.129126523386
endloop
endfacet
facet normal 1.24962487405606e-30 -1.0 6.84995885130601e-46
outer loop
vertex 291.661816359873 -162.75 233.363786872639
vertex 301.648622212521 -162.75 228.129126523386
vertex 302.578535213193 -162.75 228.734263975944
endloop
endfacet
facet normal 1.24962487405606e-30 -1.0 6.84995885130601e-46
outer loop
vertex 291.661816359873 -162.75 233.363786872639
vertex 302.578535213193 -162.75 228.734263975944
vertex 303.633383294371 -162.75 229.078102674963
endloop
endfacet
facet normal 1.24962487405606e-30 -1.0 6.84995885130601e-46
outer loop
vertex 291.661816359873 -162.75 233.363786872639
vertex 303.633383294371 -162.75 229.078102674963
vertex 304.741280302541 -162.75 229.137210581324
endloop
endfacet
facet normal 1.24962487405606e-30 -1.0 6.84995885130601e-46
outer loop
vertex 291.661816359873 -162.75 233.363786872639
vertex 304.741280302541 -162.75 229.137210581324
vertex 317.161816359873 -162.75 233.363786872639
endloop
endfacet
facet normal 1.24962487405606e-30 -1.0 6.84995885130601e-46
outer loop
vertex 291.661816359873 -162.75 233.363786872639
vertex 317.161816359873 -162.75 233.363786872639
vertex 317.144396274296 -162.75 233.629566018702
endloop
endfacet
facet normal 1.24962487405606e-30 -1.0 6.84995885130601e-46
outer loop
vertex 291.661816359873 -162.75 233.363786872639
vertex 317.144396274296 -162.75 233.629566018702
vertex 291.67923644545 -162.75 233.629566018702
endloop
endfacet
facet normal 1.24962487405606e-30 -1.0 6.84995885130601e-46
outer loop
vertex 291.67923644545 -162.75 233.629566018702
vertex 317.144396274296 -162.75 233.629566018702
vertex 317.092434080059 -162.75 233.890797609888
endloop
endfacet
facet normal 1.24962487405606e-30 -1.0 6.84995885130601e-46
outer loop
vertex 291.67923644545 -162.75 233.629566018702
vertex 317.092434080059 -162.75 233.890797609888
vertex 291.731198639688 -162.75 233.890797609888
endloop
endfacet
facet normal 1.24962487405606e-30 -1.0 6.84995885130601e-46
outer loop
vertex 291.731198639688 -162.75 233.890797609888
vertex 317.092434080059 -162.75 233.890797609888
vertex 317.006818864712 -162.75 234.143011901244
endloop
endfacet
facet normal 1.24962487405606e-30 -1.0 6.84995885130601e-46
outer loop
vertex 291.731198639688 -162.75 233.890797609888
vertex 317.006818864712 -162.75 234.143011901244
vertex 291.816813855035 -162.75 234.143011901244
endloop
endfacet
facet normal 1.24962487405606e-30 -1.0 6.84995885130601e-46
outer loop
vertex 291.816813855035 -162.75 234.143011901244
vertex 317.006818864712 -162.75 234.143011901244
vertex 316.889015528326 -162.75 234.381893436319
endloop
endfacet
facet normal 1.24962487405606e-30 -1.0 6.84995885130601e-46
outer loop
vertex 291.816813855035 -162.75 234.143011901244
vertex 316.889015528326 -162.75 234.381893436319
vertex 291.934617191421 -162.75 234.381893436319
endloop
endfacet
facet normal 1.24962487405606e-30 -1.0 6.84995885130601e-46
outer loop
vertex 291.934617191421 -162.75 234.381893436319
vertex 316.889015528326 -162.75 234.381893436319
vertex 316.741039718649 -162.75 234.603354885818
endloop
endfacet
facet normal 1.24962487405606e-30 -1.0 6.84995885130601e-46
outer loop
vertex 291.934617191421 -162.75 234.381893436319
vertex 316.741039718649 -162.75 234.603354885818
vertex 292.082593001098 -162.75 234.603354885818
endloop
endfacet
facet normal 1.24962487405606e-30 -1.0 6.84995885130601e-46
outer loop
vertex 292.082593001098 -162.75 234.603354885818
vertex 316.741039718649 -162.75 234.603354885818
vertex 316.56542334281 -162.75 234.803606982937
endloop
endfacet
facet normal 1.24962487405606e-30 -1.0 6.84995885130601e-46
outer loop
vertex 292.082593001098 -162.75 234.603354885818
vertex 316.56542334281 -162.75 234.803606982937
vertex 292.258209376937 -162.75 234.803606982937
endloop
endfacet
facet normal 1.24962487405606e-30 -1.0 6.84995885130601e-46
outer loop
vertex 292.258209376937 -162.75 234.803606982937
vertex 316.56542334281 -162.75 234.803606982937
vertex 316.365171245691 -162.75 234.979223358776
endloop
endfacet
facet normal 1.24962487405606e-30 -1.0 6.84995885130601e-46
outer loop
vertex 292.258209376937 -162.75 234.803606982937
vertex 316.365171245691 -162.75 234.979223358776
vertex 292.458461474056 -162.75 234.979223358776
endloop
endfacet
facet normal 1.24962487405606e-30 -1.0 6.84995885130601e-46
outer loop
vertex 292.458461474056 -162.75 234.979223358776
vertex 316.365171245691 -162.75 234.979223358776
vertex 316.143709796193 -162.75 235.127199168453
endloop
endfacet
facet normal 1.24962487405606e-30 -1.0 6.84995885130601e-46
outer loop
vertex 292.458461474056 -162.75 234.979223358776
vertex 316.143709796193 -162.75 235.127199168453
vertex 292.679922923554 -162.75 235.127199168453
endloop
endfacet
facet normal 1.24962487405606e-30 -1.0 6.84995885130601e-46
outer loop
vertex 292.679922923554 -162.75 235.127199168453
vertex 316.143709796193 -162.75 235.127199168453
vertex 315.904828261118 -162.75 235.245002504839
endloop
endfacet
facet normal 1.24962487405606e-30 -1.0 6.84995885130601e-46
outer loop
vertex 292.679922923554 -162.75 235.127199168453
vertex 315.904828261118 -162.75 235.245002504839
vertex 292.918804458629 -162.75 235.245002504839
endloop
endfacet
facet normal 1.24962487405606e-30 -1.0 6.84995885130601e-46
outer loop
vertex 292.918804458629 -162.75 235.245002504839
vertex 315.904828261118 -162.75 235.245002504839
vertex 315.652613969761 -162.75 235.330617720186
endloop
endfacet
facet normal 1.24962487405606e-30 -1.0 6.84995885130601e-46
outer loop
vertex 292.918804458629 -162.75 235.245002504839
vertex 315.652613969761 -162.75 235.330617720186
vertex 293.171018749986 -162.75 235.330617720186
endloop
endfacet
facet normal 1.24962487405606e-30 -1.0 6.84995885130601e-46
outer loop
vertex 293.171018749986 -162.75 235.330617720186
vertex 315.652613969761 -162.75 235.330617720186
vertex 315.391382378575 -162.75 235.382579914423
endloop
endfacet
facet normal 1.24962487405606e-30 -1.0 6.84995885130601e-46
outer loop
vertex 293.171018749986 -162.75 235.330617720186
vertex 315.391382378575 -162.75 235.382579914423
vertex 293.432250341172 -162.75 235.382579914423
endloop
endfacet
facet normal 1.24962487405606e-30 -1.0 6.84995885130601e-46
outer loop
vertex 293.432250341172 -162.75 235.382579914423
vertex 315.391382378575 -162.75 235.382579914423
vertex 315.125603232512 -162.75 235.4
endloop
endfacet
facet normal 1.24962487405606e-30 -1.0 6.84995885130601e-46
outer loop
vertex 293.432250341172 -162.75 235.382579914423
vertex 315.125603232512 -162.75 235.4
vertex 293.698029487235 -162.75 235.4
endloop
endfacet
facet normal 0.902179759045752 0.0 0.43136026980721
outer loop
vertex 21.1657360240555 -155.75 223.066718853319
vertex 20.8218973250371 -162.75 224.121566934497
vertex 21.1657360240555 -162.75 223.066718853319
endloop
endfacet
facet normal 0.983082982344209 0.0 0.183160721294757
outer loop
vertex 20.8218973250371 -162.75 224.121566934497
vertex 21.1657360240555 -155.75 223.066718853319
vertex 20.8218973250371 -155.75 224.121566934497
endloop
endfacet
facet normal -0.980785280403229 -3.50022187315834e-19 0.195090322016137
outer loop
vertex 291.731198639688 -155.75 233.890797609888
vertex 291.67923644545 -162.75 233.629566018702
vertex 291.731198639688 -162.75 233.890797609888
endloop
endfacet
facet normal -0.980785280403229 -3.50022187315834e-19 0.195090322016137
outer loop
vertex 291.67923644545 -162.75 233.629566018702
vertex 291.731198639688 -155.75 233.890797609888
vertex 291.67923644545 -155.75 233.629566018702
endloop
endfacet
facet normal -0.431360269807207 0.0 0.902179759045753
outer loop
vertex 26.8332811466806 -162.75 221.065736024056
vertex 25.7784330655027 -155.75 220.721897325037
vertex 25.7784330655027 -162.75 220.721897325037
endloop
endfacet
facet normal -0.18316072129476 0.0 0.983082982344208
outer loop
vertex 25.7784330655027 -155.75 220.721897325037
vertex 26.8332811466806 -162.75 221.065736024056
vertex 26.8332811466806 -155.75 221.065736024056
endloop
endfacet
facet normal -0.942955197385634 0.0 0.33291965355536
outer loop
vertex 29.0075595888889 -155.75 223.48509147239
vertex 28.5048000332767 -162.75 222.496070565357
vertex 29.0075595888889 -162.75 223.48509147239
endloop
endfacet
facet normal -0.824658831359234 0.0 0.565630455210134
outer loop
vertex 28.5048000332767 -162.75 222.496070565357
vertex 29.0075595888889 -155.75 223.48509147239
vertex 28.5048000332767 -155.75 222.496070565357
endloop
endfacet
facet normal 0.33291965355536 0.0 0.942955197385633
outer loop
vertex 23.5850914723897 -162.75 220.892440411111
vertex 22.5960705653569 -155.75 221.395199966723
vertex 22.5960705653569 -162.75 221.395199966723
endloop
endfacet
facet normal 0.565630455210135 0.0 0.824658831359233
outer loop
vertex 22.5960705653569 -155.75 221.395199966723
vertex 23.5850914723897 -162.75 220.892440411111
vertex 23.5850914723897 -155.75 220.892440411111
endloop
endfacet
facet normal -0.565630455210135 0.0 -0.824658831359233
outer loop
vertex 27.4039294346431 -155.75 228.404800033277
vertex 26.4149085276103 -162.75 228.907559588889
vertex 26.4149085276103 -155.75 228.907559588889
endloop
endfacet
facet normal -0.33291965355536 0.0 -0.942955197385633
outer loop
vertex 26.4149085276103 -162.75 228.907559588889
vertex 27.4039294346431 -155.75 228.404800033277
vertex 27.4039294346431 -162.75 228.404800033277
endloop
endfacet
facet normal 0.0775209276865207 0.0 0.99699072501735
outer loop
vertex 24.6705360573323 -162.75 220.662789418676
vertex 23.5850914723897 -155.75 220.892440411111
vertex 23.5850914723897 -162.75 220.892440411111
endloop
endfacet
facet normal 0.33291965355536 0.0 0.942955197385633
outer loop
vertex 23.5850914723897 -155.75 220.892440411111
vertex 24.6705360573323 -162.75 220.662789418676
vertex 24.6705360573323 -155.75 220.662789418676
endloop
endfacet
facet normal 0.431360269807201 -6.84473103811042e-19 -0.902179759045756
outer loop
vertex 302.578535213193 -155.75 228.734263975944
vertex 301.648622212521 -162.75 228.129126523386
vertex 301.648622212521 -155.75 228.129126523386
endloop
endfacet
facet normal 0.650163328788851 -7.99138681748217e-30 -0.759794476090871
outer loop
vertex 301.648622212521 -162.75 228.129126523386
vertex 302.578535213193 -155.75 228.734263975944
vertex 302.578535213193 -162.75 228.734263975944
endloop
endfacet
facet normal -0.18316072129476 0.0 0.983082982344208
outer loop
vertex 25.7784330655027 -162.75 220.721897325037
vertex 24.6705360573323 -155.75 220.662789418676
vertex 24.6705360573323 -162.75 220.662789418676
endloop
endfacet
facet normal 0.0775209276865207 0.0 0.99699072501735
outer loop
vertex 24.6705360573323 -155.75 220.662789418676
vertex 25.7784330655027 -162.75 220.721897325037
vertex 25.7784330655027 -155.75 220.721897325037
endloop
endfacet
facet normal -0.99699072501735 0.0 0.0775209276865257
outer loop
vertex 29.2372105813237 -155.75 224.570536057332
vertex 29.0075595888889 -162.75 223.48509147239
vertex 29.2372105813237 -162.75 224.570536057332
endloop
endfacet
facet normal -0.942955197385634 0.0 0.33291965355536
outer loop
vertex 29.0075595888889 -162.75 223.48509147239
vertex 29.2372105813237 -155.75 224.570536057332
vertex 29.0075595888889 -155.75 223.48509147239
endloop
endfacet
facet normal 0.824658831359234 0.0 -0.565630455210134
outer loop
vertex 21.4951999667232 -155.75 227.303929434643
vertex 22.2368058526474 -162.75 228.129126523386
vertex 21.4951999667232 -162.75 227.303929434643
endloop
endfacet
facet normal 0.650163328788854 0.0 -0.759794476090868
outer loop
vertex 22.2368058526474 -162.75 228.129126523386
vertex 21.4951999667232 -155.75 227.303929434643
vertex 22.2368058526474 -155.75 228.129126523386
endloop
endfacet
facet normal -0.33291965355536 0.0 -0.942955197385633
outer loop
vertex 26.4149085276103 -155.75 228.907559588889
vertex 25.3294639426677 -162.75 229.137210581324
vertex 25.3294639426677 -155.75 229.137210581324
endloop
endfacet
facet normal -0.0775209276865208 0.0 -0.99699072501735
outer loop
vertex 25.3294639426677 -162.75 229.137210581324
vertex 26.4149085276103 -155.75 228.907559588889
vertex 26.4149085276103 -162.75 228.907559588889
endloop
endfacet
facet normal -0.650163328788859 -1.57065388949169e-18 0.759794476090864
outer loop
vertex 307.175010507226 -162.75 221.670873476614
vertex 306.245097506554 -155.75 221.065736024056
vertex 306.245097506554 -162.75 221.065736024056
endloop
endfacet
facet normal -0.431360269807206 -1.36268249546148e-18 0.902179759045754
outer loop
vertex 306.245097506554 -155.75 221.065736024056
vertex 307.175010507226 -162.75 221.670873476614
vertex 307.175010507226 -155.75 221.670873476614
endloop
endfacet
facet normal -0.759794476090872 -3.54208246017255e-19 -0.650163328788849
outer loop
vertex 307.64094288326 -155.75 227.663194147353
vertex 306.815745794517 -162.75 228.404800033277
vertex 306.815745794517 -155.75 228.404800033277
endloop
endfacet
facet normal -0.56563045521014 -1.92486213547184e-18 -0.824658831359229
outer loop
vertex 306.815745794517 -162.75 228.404800033277
vertex 307.64094288326 -155.75 227.663194147353
vertex 307.64094288326 -162.75 227.663194147353
endloop
endfacet
facet normal 0.565630455210129 -5.53661235387711e-30 0.824658831359237
outer loop
vertex 302.00788692523 -162.75 221.395199966723
vertex 301.182689836487 -155.75 222.136805852647
vertex 301.182689836487 -162.75 222.136805852647
endloop
endfacet
facet normal 0.759794476090864 1.5706538894761e-18 0.650163328788859
outer loop
vertex 301.182689836487 -155.75 222.136805852647
vertex 302.00788692523 -162.75 221.395199966723
vertex 302.00788692523 -155.75 221.395199966723
endloop
endfacet
facet normal -0.32143946530328 4.58860657819186e-19 0.946930129495066
outer loop
vertex 293.171018749986 -162.75 235.330617720186
vertex 292.918804458629 -155.75 235.245002504839
vertex 292.918804458629 -162.75 235.245002504839
endloop
endfacet
facet normal -0.32143946530328 4.58860657819186e-19 0.946930129495066
outer loop
vertex 292.918804458629 -155.75 235.245002504839
vertex 293.171018749986 -162.75 235.330617720186
vertex 293.171018749986 -155.75 235.330617720186
endloop
endfacet
facet normal 0.0 1.0 0.0
outer loop
vertex 291.661816359873 -155.75 213.4
vertex 302.00788692523 -155.75 221.395199966723
vertex 317.161816359874 -155.75 213.4
endloop
endfacet
facet normal 0.0 1.0 0.0
outer loop
vertex 302.00788692523 -155.75 221.395199966723
vertex 291.661816359873 -155.75 213.4
vertex 301.182689836487 -155.75 222.136805852647
endloop
endfacet
facet normal 0.0 1.0 0.0
outer loop
vertex 301.182689836487 -155.75 222.136805852647
vertex 291.661816359873 -155.75 213.4
vertex 291.67923644545 -155.75 233.629566018702
endloop
endfacet
facet normal 0.0 1.0 0.0
outer loop
vertex 317.161816359874 -155.75 213.4
vertex 302.00788692523 -155.75 221.395199966723
vertex 302.996907832263 -155.75 220.892440411111
endloop
endfacet
facet normal 0.0 1.0 0.0
outer loop
vertex 317.161816359874 -155.75 213.4
vertex 302.996907832263 -155.75 220.892440411111
vertex 304.082352417206 -155.75 220.662789418676
endloop
endfacet
facet normal 0.0 1.0 0.0
outer loop
vertex 301.182689836487 -155.75 222.136805852647
vertex 291.67923644545 -155.75 233.629566018702
vertex 300.577552383929 -155.75 223.066718853319
endloop
endfacet
facet normal 0.0 1.0 0.0
outer loop
vertex 300.577552383929 -155.75 223.066718853319
vertex 291.67923644545 -155.75 233.629566018702
vertex 300.233713684911 -155.75 224.121566934497
endloop
endfacet
facet normal 0.0 1.0 0.0
outer loop
vertex 300.233713684911 -155.75 224.121566934497
vertex 291.67923644545 -155.75 233.629566018702
vertex 300.17460577855 -155.75 225.229463942668
endloop
endfacet
facet normal 0.0 1.0 0.0
outer loop
vertex 300.17460577855 -155.75 225.229463942668
vertex 291.67923644545 -155.75 233.629566018702
vertex 300.404256770984 -155.75 226.31490852761
endloop
endfacet
facet normal 0.0 1.0 0.0
outer loop
vertex 300.404256770984 -155.75 226.31490852761
vertex 291.67923644545 -155.75 233.629566018702
vertex 300.907016326597 -155.75 227.303929434643
endloop
endfacet
facet normal 0.0 1.0 0.0
outer loop
vertex 300.907016326597 -155.75 227.303929434643
vertex 291.67923644545 -155.75 233.629566018702
vertex 301.648622212521 -155.75 228.129126523386
endloop
endfacet
facet normal 0.0 1.0 0.0
outer loop
vertex 301.648622212521 -155.75 228.129126523386
vertex 291.67923644545 -155.75 233.629566018702
vertex 302.578535213193 -155.75 228.734263975944
endloop
endfacet
facet normal 0.0 1.0 0.0
outer loop
vertex 302.578535213193 -155.75 228.734263975944
vertex 291.67923644545 -155.75 233.629566018702
vertex 303.633383294371 -155.75 229.078102674963
endloop
endfacet
facet normal 0.0 1.0 0.0
outer loop
vertex 303.633383294371 -155.75 229.078102674963
vertex 291.67923644545 -155.75 233.629566018702
vertex 304.741280302541 -155.75 229.137210581324
endloop
endfacet
facet normal 0.0 1.0 0.0
outer loop
vertex 317.161816359874 -155.75 213.4
vertex 307.91661639315 -155.75 222.496070565357
vertex 317.144396274296 -155.75 233.629566018702
endloop
endfacet
facet normal 0.0 1.0 0.0
outer loop
vertex 307.91661639315 -155.75 222.496070565357
vertex 317.161816359874 -155.75 213.4
vertex 307.175010507226 -155.75 221.670873476614
endloop
endfacet
facet normal 0.0 1.0 0.0
outer loop
vertex 307.175010507226 -155.75 221.670873476614
vertex 317.161816359874 -155.75 213.4
vertex 306.245097506554 -155.75 221.065736024056
endloop
endfacet
facet normal 0.0 1.0 0.0
outer loop
vertex 306.245097506554 -155.75 221.065736024056
vertex 317.161816359874 -155.75 213.4
vertex 305.190249425376 -155.75 220.721897325037
endloop
endfacet
facet normal 0.0 1.0 0.0
outer loop
vertex 305.190249425376 -155.75 220.721897325037
vertex 317.161816359874 -155.75 213.4
vertex 304.082352417206 -155.75 220.662789418676
endloop
endfacet
facet normal 0.0 1.0 0.0
outer loop
vertex 317.144396274296 -155.75 233.629566018702
vertex 307.91661639315 -155.75 222.496070565357
vertex 308.419375948762 -155.75 223.48509147239
endloop
endfacet
facet normal 0.0 1.0 0.0
outer loop
vertex 317.144396274296 -155.75 233.629566018702
vertex 308.419375948762 -155.75 223.48509147239
vertex 308.649026941197 -155.75 224.570536057332
endloop
endfacet
facet normal 0.0 1.0 0.0
outer loop
vertex 317.144396274296 -155.75 233.629566018702
vertex 308.649026941197 -155.75 224.570536057332
vertex 308.589919034836 -155.75 225.678433065503
endloop
endfacet
facet normal 0.0 1.0 0.0
outer loop
vertex 317.144396274296 -155.75 233.629566018702
vertex 308.589919034836 -155.75 225.678433065503
vertex 308.246080335818 -155.75 226.733281146681
endloop
endfacet
facet normal 0.0 1.0 0.0
outer loop
vertex 317.144396274296 -155.75 233.629566018702
vertex 308.246080335818 -155.75 226.733281146681
vertex 307.64094288326 -155.75 227.663194147353
endloop
endfacet
facet normal 0.0 1.0 0.0
outer loop
vertex 317.144396274296 -155.75 233.629566018702
vertex 307.64094288326 -155.75 227.663194147353
vertex 306.815745794517 -155.75 228.404800033277
endloop
endfacet
facet normal 0.0 1.0 0.0
outer loop
vertex 317.144396274296 -155.75 233.629566018702
vertex 306.815745794517 -155.75 228.404800033277
vertex 305.826724887484 -155.75 228.907559588889
endloop
endfacet
facet normal 0.0 1.0 0.0
outer loop
vertex 317.144396274296 -155.75 233.629566018702
vertex 305.826724887484 -155.75 228.907559588889
vertex 304.741280302541 -155.75 229.137210581324
endloop
endfacet
facet normal 0.0 1.0 0.0
outer loop
vertex 317.144396274296 -155.75 233.629566018702
vertex 304.741280302541 -155.75 229.137210581324
vertex 291.67923644545 -155.75 233.629566018702
endloop
endfacet
facet normal 0.0 1.0 0.0
outer loop
vertex 317.144396274296 -155.75 233.629566018702
vertex 291.67923644545 -155.75 233.629566018702
vertex 291.731198639688 -155.75 233.890797609888
endloop
endfacet
facet normal 0.0 1.0 0.0
outer loop
vertex 317.144396274296 -155.75 233.629566018702
vertex 291.731198639688 -155.75 233.890797609888
vertex 317.092434080059 -155.75 233.890797609888
endloop
endfacet
facet normal 0.0 1.0 0.0
outer loop
vertex 317.092434080059 -155.75 233.890797609888
vertex 291.731198639688 -155.75 233.890797609888
vertex 291.816813855035 -155.75 234.143011901244
endloop
endfacet
facet normal 0.0 1.0 0.0
outer loop
vertex 317.092434080059 -155.75 233.890797609888
vertex 291.816813855035 -155.75 234.143011901244
vertex 317.006818864712 -155.75 234.143011901244
endloop
endfacet
facet normal 0.0 1.0 0.0
outer loop
vertex 317.006818864712 -155.75 234.143011901244
vertex 291.816813855035 -155.75 234.143011901244
vertex 291.934617191421 -155.75 234.381893436319
endloop
endfacet
facet normal 0.0 1.0 0.0
outer loop
vertex 317.006818864712 -155.75 234.143011901244
vertex 291.934617191421 -155.75 234.381893436319
vertex 316.889015528326 -155.75 234.381893436319
endloop
endfacet
facet normal 0.0 1.0 0.0
outer loop
vertex 316.889015528326 -155.75 234.381893436319
vertex 291.934617191421 -155.75 234.381893436319
vertex 292.082593001098 -155.75 234.603354885818
endloop
endfacet
facet normal 0.0 1.0 0.0
outer loop
vertex 316.889015528326 -155.75 234.381893436319
vertex 292.082593001098 -155.75 234.603354885818
vertex 316.741039718649 -155.75 234.603354885818
endloop
endfacet
facet normal 0.0 1.0 0.0
outer loop
vertex 316.741039718649 -155.75 234.603354885818
vertex 292.082593001098 -155.75 234.603354885818
vertex 292.258209376937 -155.75 234.803606982937
endloop
endfacet
facet normal 0.0 1.0 0.0
outer loop
vertex 316.741039718649 -155.75 234.603354885818
vertex 292.258209376937 -155.75 234.803606982937
vertex 316.56542334281 -155.75 234.803606982937
endloop
endfacet
facet normal 0.0 1.0 0.0
outer loop
vertex 316.56542334281 -155.75 234.803606982937
vertex 292.258209376937 -155.75 234.803606982937
vertex 292.458461474056 -155.75 234.979223358776
endloop
endfacet
facet normal 0.0 1.0 0.0
outer loop
vertex 316.56542334281 -155.75 234.803606982937
vertex 292.458461474056 -155.75 234.979223358776
vertex 316.365171245691 -155.75 234.979223358776
endloop
endfacet
facet normal 0.0 1.0 0.0
outer loop
vertex 316.365171245691 -155.75 234.979223358776
vertex 292.458461474056 -155.75 234.979223358776
vertex 292.679922923554 -155.75 235.127199168453
endloop
endfacet
facet normal 0.0 1.0 0.0
outer loop
vertex 316.365171245691 -155.75 234.979223358776
vertex 292.679922923554 -155.75 235.127199168453
vertex 316.143709796193 -155.75 235.127199168453
endloop
endfacet
facet normal 0.0 1.0 0.0
outer loop
vertex 316.143709796193 -155.75 235.127199168453
vertex 292.679922923554 -155.75 235.127199168453
vertex 292.918804458629 -155.75 235.245002504839
endloop
endfacet
facet normal 0.0 1.0 0.0
outer loop
vertex 316.143709796193 -155.75 235.127199168453
vertex 292.918804458629 -155.75 235.245002504839
vertex 315.904828261118 -155.75 235.245002504839
endloop
endfacet
facet normal 0.0 1.0 0.0
outer loop
vertex 315.904828261118 -155.75 235.245002504839
vertex 292.918804458629 -155.75 235.245002504839
vertex 293.171018749986 -155.75 235.330617720186
endloop
endfacet
facet normal 0.0 1.0 0.0
outer loop
vertex 315.904828261118 -155.75 235.245002504839
vertex 293.171018749986 -155.75 235.330617720186
vertex 315.652613969761 -155.75 235.330617720186
endloop
endfacet
facet normal 0.0 1.0 0.0
outer loop
vertex 315.652613969761 -155.75 235.330617720186
vertex 293.171018749986 -155.75 235.330617720186
vertex 293.432250341172 -155.75 235.382579914423
endloop
endfacet
facet normal 0.0 1.0 0.0
outer loop
vertex 315.652613969761 -155.75 235.330617720186
vertex 293.432250341172 -155.75 235.382579914423
vertex 315.391382378575 -155.75 235.382579914423
endloop
endfacet
facet normal -0.077520927686519 1.53416488488961e-19 -0.99699072501735
outer loop
vertex 304.741280302541 -155.75 229.137210581324
vertex 303.633383294371 -162.75 229.078102674963
vertex 303.633383294371 -155.75 229.078102674963
endloop
endfacet
facet normal 0.183160721294763 -5.31056615315469e-19 -0.983082982344208
outer loop
vertex 303.633383294371 -162.75 229.078102674963
vertex 304.741280302541 -155.75 229.137210581324
vertex 304.741280302541 -162.75 229.137210581324
endloop
endfacet
facet normal 0.980785280403229 3.50022187323939e-19 0.195090322016137
outer loop
vertex 317.144396274296 -155.75 233.629566018702
vertex 317.092434080059 -162.75 233.890797609888
vertex 317.144396274296 -162.75 233.629566018702
endloop
endfacet
facet normal 0.980785280403229 3.50022187323939e-19 0.195090322016137
outer loop
vertex 317.092434080059 -162.75 233.890797609888
vertex 317.144396274296 -155.75 233.629566018702
vertex 317.092434080059 -155.75 233.890797609888
endloop
endfacet
facet normal 0.0 0.0 -1.0
outer loop
vertex 37.75 -155.75 213.4
vertex 12.25 -162.75 213.4
vertex 12.25 -155.75 213.4
endloop
endfacet
facet normal 0.0 0.0 -1.0
outer loop
vertex 12.25 -162.75 213.4
vertex 37.75 -155.75 213.4
vertex 37.75 -162.75 213.4
endloop
endfacet
facet normal -6.24812437028028e-31 -1.0 -7.90379867458283e-47
outer loop
vertex 37.75 -162.75 213.4
vertex 26.8332811466806 -162.75 221.065736024056
vertex 12.25 -162.75 213.4
endloop
endfacet
facet normal -6.24812437028028e-31 -1.0 -7.90379867458283e-47
outer loop
vertex 26.8332811466806 -162.75 221.065736024056
vertex 37.75 -162.75 213.4
vertex 27.7631941473526 -162.75 221.670873476614
endloop
endfacet
facet normal -6.24812437028028e-31 -1.0 -7.90379867458283e-47
outer loop
vertex 27.7631941473526 -162.75 221.670873476614
vertex 37.75 -162.75 213.4
vertex 28.5048000332767 -162.75 222.496070565357
endloop
endfacet
facet normal -6.24812437028028e-31 -1.0 -7.90379867458283e-47
outer loop
vertex 28.5048000332767 -162.75 222.496070565357
vertex 37.75 -162.75 213.4
vertex 37.75 -162.75 233.363786872639
endloop
endfacet
facet normal -6.24812437028028e-31 -1.0 -7.90379867458283e-47
outer loop
vertex 12.25 -162.75 213.4
vertex 26.8332811466806 -162.75 221.065736024056
vertex 25.7784330655027 -162.75 220.721897325037
endloop
endfacet
facet normal -6.24812437028028e-31 -1.0 -7.90379867458283e-47
outer loop
vertex 12.25 -162.75 213.4
vertex 25.7784330655027 -162.75 220.721897325037
vertex 24.6705360573323 -162.75 220.662789418676
endloop
endfacet
facet normal -6.24812437028028e-31 -1.0 -7.90379867458283e-47
outer loop
vertex 28.5048000332767 -162.75 222.496070565357
vertex 37.75 -162.75 233.363786872639
vertex 29.0075595888889 -162.75 223.48509147239
endloop
endfacet
facet normal -6.24812437028028e-31 -1.0 -7.90379867458283e-47
outer loop
vertex 29.0075595888889 -162.75 223.48509147239
vertex 37.75 -162.75 233.363786872639
vertex 29.2372105813237 -162.75 224.570536057332
endloop
endfacet
facet normal -6.24812437028028e-31 -1.0 -7.90379867458283e-47
outer loop
vertex 29.2372105813237 -162.75 224.570536057332
vertex 37.75 -162.75 233.363786872639
vertex 29.1781026749629 -162.75 225.678433065503
endloop
endfacet
facet normal -6.24812437028028e-31 -1.0 -7.90379867458283e-47
outer loop
vertex 29.1781026749629 -162.75 225.678433065503
vertex 37.75 -162.75 233.363786872639
vertex 28.8342639759445 -162.75 226.733281146681
endloop
endfacet
facet normal -6.24812437028028e-31 -1.0 -7.90379867458283e-47
outer loop
vertex 28.8342639759445 -162.75 226.733281146681
vertex 37.75 -162.75 233.363786872639
vertex 28.2291265233862 -162.75 227.663194147353
endloop
endfacet
facet normal -6.24812437028028e-31 -1.0 -7.90379867458283e-47
outer loop
vertex 28.2291265233862 -162.75 227.663194147353
vertex 37.75 -162.75 233.363786872639
vertex 27.4039294346431 -162.75 228.404800033277
endloop
endfacet
facet normal -6.24812437028028e-31 -1.0 -7.90379867458283e-47
outer loop
vertex 27.4039294346431 -162.75 228.404800033277
vertex 37.75 -162.75 233.363786872639
vertex 26.4149085276103 -162.75 228.907559588889
endloop
endfacet
facet normal -6.24812437028028e-31 -1.0 -7.90379867458283e-47
outer loop
vertex 26.4149085276103 -162.75 228.907559588889
vertex 37.75 -162.75 233.363786872639
vertex 25.3294639426677 -162.75 229.137210581324
endloop
endfacet
facet normal -6.24812437028028e-31 -1.0 -7.90379867458283e-47
outer loop
vertex 12.25 -162.75 213.4
vertex 21.7708734766138 -162.75 222.136805852647
vertex 12.25 -162.75 233.363786872639
endloop
endfacet
facet normal -6.24812437028028e-31 -1.0 -7.90379867458283e-47
outer loop
vertex 21.7708734766138 -162.75 222.136805852647
vertex 12.25 -162.75 213.4
vertex 22.5960705653569 -162.75 221.395199966723
endloop
endfacet
facet normal -6.24812437028028e-31 -1.0 -7.90379867458283e-47
outer loop
vertex 22.5960705653569 -162.75 221.395199966723
vertex 12.25 -162.75 213.4
vertex 23.5850914723897 -162.75 220.892440411111
endloop
endfacet
facet normal -6.24812437028028e-31 -1.0 -7.90379867458283e-47
outer loop
vertex 23.5850914723897 -162.75 220.892440411111
vertex 12.25 -162.75 213.4
vertex 24.6705360573323 -162.75 220.662789418676
endloop
endfacet
facet normal -6.24812437028028e-31 -1.0 -7.90379867458283e-47
outer loop
vertex 12.25 -162.75 233.363786872639
vertex 21.7708734766138 -162.75 222.136805852647
vertex 21.1657360240555 -162.75 223.066718853319
endloop
endfacet
facet normal -6.24812437028028e-31 -1.0 -7.90379867458283e-47
outer loop
vertex 12.25 -162.75 233.363786872639
vertex 21.1657360240555 -162.75 223.066718853319
vertex 20.8218973250371 -162.75 224.121566934497
endloop
endfacet
facet normal -6.24812437028028e-31 -1.0 -7.90379867458283e-47
outer loop
vertex 12.25 -162.75 233.363786872639
vertex 20.8218973250371 -162.75 224.121566934497
vertex 20.7627894186762 -162.75 225.229463942668
endloop
endfacet
facet normal -6.24812437028028e-31 -1.0 -7.90379867458283e-47
outer loop
vertex 12.25 -162.75 233.363786872639
vertex 20.7627894186762 -162.75 225.229463942668
vertex 20.992440411111 -162.75 226.31490852761
endloop
endfacet
facet normal -6.24812437028028e-31 -1.0 -7.90379867458283e-47
outer loop
vertex 12.25 -162.75 233.363786872639
vertex 20.992440411111 -162.75 226.31490852761
vertex 21.4951999667232 -162.75 227.303929434643
endloop
endfacet
facet normal -6.24812437028028e-31 -1.0 -7.90379867458283e-47
outer loop
vertex 12.25 -162.75 233.363786872639
vertex 21.4951999667232 -162.75 227.303929434643
vertex 22.2368058526474 -162.75 228.129126523386
endloop
endfacet
facet normal -6.24812437028028e-31 -1.0 -7.90379867458283e-47
outer loop
vertex 12.25 -162.75 233.363786872639
vertex 22.2368058526474 -162.75 228.129126523386
vertex 23.1667188533193 -162.75 228.734263975944
endloop
endfacet
facet normal -6.24812437028028e-31 -1.0 -7.90379867458283e-47
outer loop
vertex 12.25 -162.75 233.363786872639
vertex 23.1667188533193 -162.75 228.734263975944
vertex 24.2215669344973 -162.75 229.078102674963
endloop
endfacet
facet normal -6.24812437028028e-31 -1.0 -7.90379867458283e-47
outer loop
vertex 12.25 -162.75 233.363786872639
vertex 24.2215669344973 -162.75 229.078102674963
vertex 25.3294639426677 -162.75 229.137210581324
endloop
endfacet
facet normal -6.24812437028028e-31 -1.0 -7.90379867458283e-47
outer loop
vertex 12.25 -162.75 233.363786872639
vertex 25.3294639426677 -162.75 229.137210581324
vertex 37.75 -162.75 233.363786872639
endloop
endfacet
facet normal -6.24812437028028e-31 -1.0 -7.90379867458283e-47
outer loop
vertex 12.25 -162.75 233.363786872639
vertex 37.75 -162.75 233.363786872639
vertex 37.7325799144229 -162.75 233.629566018702
endloop
endfacet
facet normal -6.24812437028028e-31 -1.0 -7.90379867458283e-47
outer loop
vertex 12.25 -162.75 233.363786872639
vertex 37.7325799144229 -162.75 233.629566018702
vertex 12.267420085577 -162.75 233.629566018702
endloop
endfacet
facet normal -6.24812437028028e-31 -1.0 -7.90379867458283e-47
outer loop
vertex 12.267420085577 -162.75 233.629566018702
vertex 37.7325799144229 -162.75 233.629566018702
vertex 37.6806177201858 -162.75 233.890797609888
endloop
endfacet
facet normal -6.24812437028028e-31 -1.0 -7.90379867458283e-47
outer loop
vertex 12.267420085577 -162.75 233.629566018702
vertex 37.6806177201858 -162.75 233.890797609888
vertex 12.3193822798142 -162.75 233.890797609888
endloop
endfacet
facet normal -6.24812437028028e-31 -1.0 -7.90379867458283e-47
outer loop
vertex 12.3193822798142 -162.75 233.890797609888
vertex 37.6806177201858 -162.75 233.890797609888
vertex 37.5950025048386 -162.75 234.143011901244
endloop
endfacet
facet normal -6.24812437028028e-31 -1.0 -7.90379867458283e-47
outer loop
vertex 12.3193822798142 -162.75 233.890797609888
vertex 37.5950025048386 -162.75 234.143011901244
vertex 12.4049974951614 -162.75 234.143011901244
endloop
endfacet
facet normal -6.24812437028028e-31 -1.0 -7.90379867458283e-47
outer loop
vertex 12.4049974951614 -162.75 234.143011901244
vertex 37.5950025048386 -162.75 234.143011901244
vertex 37.4771991684529 -162.75 234.381893436319
endloop
endfacet
facet normal -6.24812437028028e-31 -1.0 -7.90379867458283e-47
outer loop
vertex 12.4049974951614 -162.75 234.143011901244
vertex 37.4771991684529 -162.75 234.381893436319
vertex 12.522800831547 -162.75 234.381893436319
endloop
endfacet
facet normal -6.24812437028028e-31 -1.0 -7.90379867458283e-47
outer loop
vertex 12.522800831547 -162.75 234.381893436319
vertex 37.4771991684529 -162.75 234.381893436319
vertex 37.3292233587757 -162.75 234.603354885818
endloop
endfacet
facet normal -6.24812437028028e-31 -1.0 -7.90379867458283e-47
outer loop
vertex 12.522800831547 -162.75 234.381893436319
vertex 37.3292233587757 -162.75 234.603354885818
vertex 12.6707766412243 -162.75 234.603354885818
endloop
endfacet
facet normal -6.24812437028028e-31 -1.0 -7.90379867458283e-47
outer loop
vertex 12.6707766412243 -162.75 234.603354885818
vertex 37.3292233587757 -162.75 234.603354885818
vertex 37.153606982937 -162.75 234.803606982937
endloop
endfacet
facet normal -6.24812437028028e-31 -1.0 -7.90379867458283e-47
outer loop
vertex 12.6707766412243 -162.75 234.603354885818
vertex 37.153606982937 -162.75 234.803606982937
vertex 12.846393017063 -162.75 234.803606982937
endloop
endfacet
facet normal -6.24812437028028e-31 -1.0 -7.90379867458283e-47
outer loop
vertex 12.846393017063 -162.75 234.803606982937
vertex 37.153606982937 -162.75 234.803606982937
vertex 36.9533548858175 -162.75 234.979223358776
endloop
endfacet
facet normal -6.24812437028028e-31 -1.0 -7.90379867458283e-47
outer loop
vertex 12.846393017063 -162.75 234.803606982937
vertex 36.9533548858175 -162.75 234.979223358776
vertex 13.0466451141825 -162.75 234.979223358776
endloop
endfacet
facet normal -6.24812437028028e-31 -1.0 -7.90379867458283e-47
outer loop
vertex 13.0466451141825 -162.75 234.979223358776
vertex 36.9533548858175 -162.75 234.979223358776
vertex 36.7318934363194 -162.75 235.127199168453
endloop
endfacet
facet normal -6.24812437028028e-31 -1.0 -7.90379867458283e-47
outer loop
vertex 13.0466451141825 -162.75 234.979223358776
vertex 36.7318934363194 -162.75 235.127199168453
vertex 13.2681065636806 -162.75 235.127199168453
endloop
endfacet
facet normal -6.24812437028028e-31 -1.0 -7.90379867458283e-47
outer loop
vertex 13.2681065636806 -162.75 235.127199168453
vertex 36.7318934363194 -162.75 235.127199168453
vertex 36.4930119012442 -162.75 235.245002504839
endloop
endfacet
facet normal -6.24812437028028e-31 -1.0 -7.90379867458283e-47
outer loop
vertex 13.2681065636806 -162.75 235.127199168453
vertex 36.4930119012442 -162.75 235.245002504839
vertex 13.5069880987557 -162.75 235.245002504839
endloop
endfacet
facet normal -6.24812437028028e-31 -1.0 -7.90379867458283e-47
outer loop
vertex 13.5069880987557 -162.75 235.245002504839
vertex 36.4930119012442 -162.75 235.245002504839
vertex 36.2407976098877 -162.75 235.330617720186
endloop
endfacet
facet normal -6.24812437028028e-31 -1.0 -7.90379867458283e-47
outer loop
vertex 13.5069880987557 -162.75 235.245002504839
vertex 36.2407976098877 -162.75 235.330617720186
vertex 13.7592023901123 -162.75 235.330617720186
endloop
endfacet
facet normal -6.24812437028028e-31 -1.0 -7.90379867458283e-47
outer loop
vertex 13.7592023901123 -162.75 235.330617720186
vertex 36.2407976098877 -162.75 235.330617720186
vertex 35.9795660187017 -162.75 235.382579914423
endloop
endfacet
facet normal -6.24812437028028e-31 -1.0 -7.90379867458283e-47
outer loop
vertex 13.7592023901123 -162.75 235.330617720186
vertex 35.9795660187017 -162.75 235.382579914423
vertex 14.0204339812982 -162.75 235.382579914423
endloop
endfacet
facet normal -6.24812437028028e-31 -1.0 -7.90379867458283e-47
outer loop
vertex 14.0204339812982 -162.75 235.382579914423
vertex 35.9795660187017 -162.75 235.382579914423
vertex 35.7137868726388 -162.75 235.4
endloop
endfacet
facet normal -6.24812437028028e-31 -1.0 -7.90379867458283e-47
outer loop
vertex 14.0204339812982 -162.75 235.382579914423
vertex 35.7137868726388 -162.75 235.4
vertex 14.2862131273612 -162.75 235.4
endloop
endfacet
facet normal 0.431360269807207 0.0 -0.902179759045754
outer loop
vertex 23.1667188533193 -155.75 228.734263975944
vertex 22.2368058526474 -162.75 228.129126523386
vertex 22.2368058526474 -155.75 228.129126523386
endloop
endfacet
facet normal 0.650163328788854 0.0 -0.759794476090868
outer loop
vertex 22.2368058526474 -162.75 228.129126523386
vertex 23.1667188533193 -155.75 228.734263975944
vertex 23.1667188533193 -162.75 228.734263975944
endloop
endfacet
facet normal -0.650163328788854 0.0 0.759794476090868
outer loop
vertex 27.7631941473526 -162.75 221.670873476614
vertex 26.8332811466806 -155.75 221.065736024056
vertex 26.8332811466806 -162.75 221.065736024056
endloop
endfacet
facet normal -0.431360269807207 0.0 0.902179759045753
outer loop
vertex 26.8332811466806 -155.75 221.065736024056
vertex 27.7631941473526 -162.75 221.670873476614
vertex 27.7631941473526 -155.75 221.670873476614
endloop
endfacet
facet normal -0.442288690218897 1.86308473400363e-29 0.89687274153274
outer loop
vertex 292.918804458629 -162.75 235.245002504839
vertex 292.679922923554 -155.75 235.127199168453
vertex 292.679922923554 -162.75 235.127199168453
endloop
endfacet
facet normal -0.442288690218897 1.86308473400363e-29 0.89687274153274
outer loop
vertex 292.679922923554 -155.75 235.127199168453
vertex 292.918804458629 -162.75 235.245002504839
vertex 292.918804458629 -155.75 235.245002504839
endloop
endfacet
facet normal -0.431360269807206 -1.36268249546148e-18 0.902179759045754
outer loop
vertex 306.245097506554 -162.75 221.065736024056
vertex 305.190249425376 -155.75 220.721897325037
vertex 305.190249425376 -162.75 220.721897325037
endloop
endfacet
facet normal -0.183160721294757 3.61387882502205e-19 0.983082982344209
outer loop
vertex 305.190249425376 -155.75 220.721897325037
vertex 306.245097506554 -162.75 221.065736024056
vertex 306.245097506554 -155.75 221.065736024056
endloop
endfacet
facet normal -0.659345815100068 9.41228091391685e-19 0.751839807478978
outer loop
vertex 292.458461474056 -162.75 234.979223358776
vertex 292.258209376937 -155.75 234.803606982937
vertex 292.258209376937 -162.75 234.803606982937
endloop
endfacet
facet normal -0.659345815100068 9.41228091391685e-19 0.751839807478978
outer loop
vertex 292.258209376937 -155.75 234.803606982937
vertex 292.458461474056 -162.75 234.979223358776
vertex 292.458461474056 -155.75 234.979223358776
endloop
endfacet
facet normal 0.99999955610942 0.000706919531395725 0.000622933173982551
outer loop
vertex 317.161816359874 -155.75 213.4
vertex 317.161816359873 -162.75 233.363786872639
vertex 317.161816359874 -162.75 213.4
endloop
endfacet
facet normal 0.99999955610942 0.000706919531395725 0.000622933173982551
outer loop
vertex 317.161816359873 -162.75 233.363786872639
vertex 317.161816359874 -155.75 213.4
vertex 317.144396274296 -162.75 233.629566018702
endloop
endfacet
facet normal 0.99999955610942 0.000706919531395725 0.000622933173982551
outer loop
vertex 317.144396274296 -162.75 233.629566018702
vertex 317.161816359874 -155.75 213.4
vertex 317.144396274296 -155.75 233.629566018702
endloop
endfacet
facet normal 0.0 0.00124429086368677 0.999999225869824
outer loop
vertex 14.2862131273612 -162.75 235.4
vertex 14.0204339812982 -155.75 235.382579914423
vertex 14.0204339812982 -162.75 235.382579914423
endloop
endfacet
facet normal 0.0 0.00124429086368677 0.999999225869824
outer loop
vertex 14.0204339812982 -155.75 235.382579914423
vertex 14.2862131273612 -162.75 235.4
vertex 35.9795660187017 -155.75 235.382579914423
endloop
endfacet
facet normal 0.0 0.00124429086368677 0.999999225869824
outer loop
vertex 35.9795660187017 -155.75 235.382579914423
vertex 14.2862131273612 -162.75 235.4
vertex 35.7137868726388 -162.75 235.4
endloop
endfacet
facet normal 0.0 0.00124429086368677 0.999999225869824
outer loop
vertex 35.9795660187017 -155.75 235.382579914423
vertex 35.7137868726388 -162.75 235.4
vertex 35.9795660187017 -162.75 235.382579914423
endloop
endfacet
facet normal -0.942955197385633 -1.28351792459753e-18 0.332919653555363
outer loop
vertex 308.419375948762 -155.75 223.48509147239
vertex 307.91661639315 -162.75 222.496070565357
vertex 308.419375948762 -162.75 223.48509147239
endloop
endfacet
facet normal -0.824658831359237 -1.28351792461232e-18 0.565630455210129
outer loop
vertex 307.91661639315 -162.75 222.496070565357
vertex 308.419375948762 -155.75 223.48509147239
vertex 307.91661639315 -155.75 222.496070565357
endloop
endfacet
facet normal 0.759794476090864 1.5706538894761e-18 0.650163328788859
outer loop
vertex 301.182689836487 -155.75 222.136805852647
vertex 300.577552383929 -162.75 223.066718853319
vertex 301.182689836487 -162.75 222.136805852647
endloop
endfacet
facet normal 0.902179759045754 1.36268249546148e-18 0.431360269807206
outer loop
vertex 300.577552383929 -162.75 223.066718853319
vertex 301.182689836487 -155.75 222.136805852647
vertex 300.577552383929 -155.75 223.066718853319
endloop
endfacet
facet normal -0.183160721294757 3.61387882502205e-19 0.983082982344209
outer loop
vertex 305.190249425376 -162.75 220.721897325037
vertex 304.082352417206 -155.75 220.662789418676
vertex 304.082352417206 -162.75 220.662789418676
endloop
endfacet
facet normal 0.0775209276865231 -4.42650112512895e-19 0.99699072501735
outer loop
vertex 304.082352417206 -155.75 220.662789418676
vertex 305.190249425376 -162.75 220.721897325037
vertex 305.190249425376 -155.75 220.721897325037
endloop
endfacet
facet normal -0.99999955610942 0.000706919531396264 0.000622933173980766
outer loop
vertex 12.267420085577 -155.75 233.629566018702
vertex 12.25 -162.75 233.363786872639
vertex 12.267420085577 -162.75 233.629566018702
endloop
endfacet
facet normal -0.99999955610942 0.000706919531396264 0.000622933173980766
outer loop
vertex 12.25 -162.75 233.363786872639
vertex 12.267420085577 -155.75 233.629566018702
vertex 12.25 -162.75 213.4
endloop
endfacet
facet normal -0.99999955610942 0.000706919531396264 0.000622933173980766
outer loop
vertex 12.25 -162.75 213.4
vertex 12.267420085577 -155.75 233.629566018702
vertex 12.25 -155.75 213.4
endloop
endfacet
facet normal -0.902179759045754 1.36268249544392e-18 -0.431360269807206
outer loop
vertex 308.246080335818 -155.75 226.733281146681
vertex 308.589919034836 -162.75 225.678433065503
vertex 308.246080335818 -162.75 226.733281146681
endloop
endfacet
facet normal -0.983082982344209 -3.61387882502205e-19 -0.183160721294757
outer loop
vertex 308.589919034836 -162.75 225.678433065503
vertex 308.246080335818 -155.75 226.733281146681
vertex 308.589919034836 -155.75 225.678433065503
endloop
endfacet
facet normal -0.195090322016159 3.50022187319632e-19 0.980785280403224
outer loop
vertex 14.0204339812982 -162.75 235.382579914423
vertex 13.7592023901123 -155.75 235.330617720186
vertex 13.7592023901123 -162.75 235.330617720186
endloop
endfacet
facet normal -0.195090322016159 3.50022187319632e-19 0.980785280403224
outer loop
vertex 13.7592023901123 -155.75 235.330617720186
vertex 14.0204339812982 -162.75 235.382579914423
vertex 14.0204339812982 -155.75 235.382579914423
endloop
endfacet
facet normal 0.659345815100068 -9.41228091391685e-19 0.751839807478978
outer loop
vertex 316.56542334281 -162.75 234.803606982937
vertex 316.365171245691 -155.75 234.979223358776
vertex 316.365171245691 -162.75 234.979223358776
endloop
endfacet
facet normal 0.659345815100068 -9.41228091391685e-19 0.751839807478978
outer loop
vertex 316.365171245691 -155.75 234.979223358776
vertex 316.56542334281 -162.75 234.803606982937
vertex 316.56542334281 -155.75 234.803606982937
endloop
endfacet
facet normal -0.332919653555359 6.91578075088733e-30 -0.942955197385634
outer loop
vertex 305.826724887484 -155.75 228.907559588889
vertex 304.741280302541 -162.75 229.137210581324
vertex 304.741280302541 -155.75 229.137210581324
endloop
endfacet
facet normal -0.077520927686519 1.53416488488961e-19 -0.99699072501735
outer loop
vertex 304.741280302541 -162.75 229.137210581324
vertex 305.826724887484 -155.75 228.907559588889
vertex 305.826724887484 -162.75 228.907559588889
endloop
endfacet
facet normal -0.442288690218918 0.0 0.89687274153273
outer loop
vertex 13.5069880987557 -162.75 235.245002504839
vertex 13.2681065636806 -155.75 235.127199168453
vertex 13.2681065636806 -162.75 235.127199168453
endloop
endfacet
facet normal -0.442288690218918 0.0 0.89687274153273
outer loop
vertex 13.2681065636806 -155.75 235.127199168453
vertex 13.5069880987557 -162.75 235.245002504839
vertex 13.5069880987557 -155.75 235.245002504839
endloop
endfacet
facet normal 0.99999955610942 0.000706919531396204 0.000622933173980996
outer loop
vertex 37.75 -155.75 213.4
vertex 37.75 -162.75 233.363786872639
vertex 37.75 -162.75 213.4
endloop
endfacet
facet normal 0.99999955610942 0.000706919531396204 0.000622933173980996
outer loop
vertex 37.75 -162.75 233.363786872639
vertex 37.75 -155.75 213.4
vertex 37.7325799144229 -162.75 233.629566018702
endloop
endfacet
facet normal 0.99999955610942 0.000706919531396204 0.000622933173980996
outer loop
vertex 37.7325799144229 -162.75 233.629566018702
vertex 37.75 -155.75 213.4
vertex 37.7325799144229 -155.75 233.629566018702
endloop
endfacet
facet normal -0.659345815100079 0.0 0.751839807478969
outer loop
vertex 13.0466451141825 -162.75 234.979223358776
vertex 12.846393017063 -155.75 234.803606982937
vertex 12.846393017063 -162.75 234.803606982937
endloop
endfacet
facet normal -0.659345815100079 0.0 0.751839807478969
outer loop
vertex 12.846393017063 -155.75 234.803606982937
vertex 13.0466451141825 -162.75 234.979223358776
vertex 13.0466451141825 -155.75 234.979223358776
endloop
endfacet
facet normal -0.321439465303241 0.0 0.946930129495079
outer loop
vertex 13.7592023901123 -162.75 235.330617720186
vertex 13.5069880987557 -155.75 235.245002504839
vertex 13.5069880987557 -162.75 235.245002504839
endloop
endfacet
facet normal -0.321439465303241 0.0 0.946930129495079
outer loop
vertex 13.5069880987557 -155.75 235.245002504839
vertex 13.7592023901123 -162.75 235.330617720186
vertex 13.7592023901123 -155.75 235.330617720186
endloop
endfacet
facet normal -0.824658831359234 0.0 0.565630455210134
outer loop
vertex 28.5048000332767 -155.75 222.496070565357
vertex 27.7631941473526 -162.75 221.670873476614
vertex 28.5048000332767 -162.75 222.496070565357
endloop
endfacet
facet normal -0.650163328788854 0.0 0.759794476090868
outer loop
vertex 27.7631941473526 -162.75 221.670873476614
vertex 28.5048000332767 -155.75 222.496070565357
vertex 27.7631941473526 -155.75 221.670873476614
endloop
endfacet
facet normal -0.983082982344209 -3.61387882502205e-19 -0.183160721294757
outer loop
vertex 308.589919034836 -155.75 225.678433065503
vertex 308.649026941197 -162.75 224.570536057332
vertex 308.589919034836 -162.75 225.678433065503
endloop
endfacet
facet normal -0.99699072501735 -1.53416488486792e-19 0.0775209276865231
outer loop
vertex 308.649026941197 -162.75 224.570536057332
vertex 308.589919034836 -155.75 225.678433065503
vertex 308.649026941197 -155.75 224.570536057332
endloop
endfacet
facet normal -0.824658831359237 -1.28351792461232e-18 0.565630455210129
outer loop
vertex 307.91661639315 -155.75 222.496070565357
vertex 307.175010507226 -162.75 221.670873476614
vertex 307.91661639315 -162.75 222.496070565357
endloop
endfacet
facet normal -0.650163328788859 -1.57065388949169e-18 0.759794476090864
outer loop
vertex 307.175010507226 -162.75 221.670873476614
vertex 307.91661639315 -155.75 222.496070565357
vertex 307.175010507226 -155.75 221.670873476614
endloop
endfacet
facet normal -0.831469612302492 -1.1540928516089e-29 0.555570233019682
outer loop
vertex 292.082593001098 -155.75 234.603354885818
vertex 291.934617191421 -162.75 234.381893436319
vertex 292.082593001098 -162.75 234.603354885818
endloop
endfacet
facet normal -0.831469612302492 -1.1540928516089e-29 0.555570233019682
outer loop
vertex 291.934617191421 -162.75 234.381893436319
vertex 292.082593001098 -155.75 234.603354885818
vertex 291.934617191421 -155.75 234.381893436319
endloop
endfacet
facet normal 0.183160721294761 0.0 -0.983082982344208
outer loop
vertex 24.2215669344973 -155.75 229.078102674963
vertex 23.1667188533193 -162.75 228.734263975944
vertex 23.1667188533193 -155.75 228.734263975944
endloop
endfacet
facet normal 0.431360269807207 0.0 -0.902179759045754
outer loop
vertex 23.1667188533193 -162.75 228.734263975944
vertex 24.2215669344973 -155.75 229.078102674963
vertex 24.2215669344973 -162.75 229.078102674963
endloop
endfacet
facet normal 0.902179759045754 1.36268249546148e-18 0.431360269807206
outer loop
vertex 300.577552383929 -155.75 223.066718853319
vertex 300.233713684911 -162.75 224.121566934497
vertex 300.577552383929 -162.75 223.066718853319
endloop
endfacet
facet normal 0.983082982344209 -3.61387882502205e-19 0.183160721294757
outer loop
vertex 300.233713684911 -162.75 224.121566934497
vertex 300.577552383929 -155.75 223.066718853319
vertex 300.233713684911 -155.75 224.121566934497
endloop
endfacet
facet normal -0.759794476090872 -3.54208246017255e-19 -0.650163328788849
outer loop
vertex 307.64094288326 -155.75 227.663194147353
vertex 308.246080335818 -162.75 226.733281146681
vertex 307.64094288326 -162.75 227.663194147353
endloop
endfacet
facet normal -0.902179759045754 1.36268249544392e-18 -0.431360269807206
outer loop
vertex 308.246080335818 -162.75 226.733281146681
vertex 307.64094288326 -155.75 227.663194147353
vertex 308.246080335818 -155.75 226.733281146681
endloop
endfacet
facet normal -0.946930129495066 4.58860657819186e-19 0.32143946530328
outer loop
vertex 291.816813855035 -155.75 234.143011901244
vertex 291.731198639688 -162.75 233.890797609888
vertex 291.816813855035 -162.75 234.143011901244
endloop
endfacet
facet normal -0.946930129495066 4.58860657819186e-19 0.32143946530328
outer loop
vertex 291.731198639688 -162.75 233.890797609888
vertex 291.816813855035 -155.75 234.143011901244
vertex 291.731198639688 -155.75 233.890797609888
endloop
endfacet
facet normal 0.0 1.0 0.0
outer loop
vertex 12.25 -155.75 213.4
vertex 22.5960705653569 -155.75 221.395199966723
vertex 37.75 -155.75 213.4
endloop
endfacet
facet normal 0.0 1.0 0.0
outer loop
vertex 22.5960705653569 -155.75 221.395199966723
vertex 12.25 -155.75 213.4
vertex 21.7708734766138 -155.75 222.136805852647
endloop
endfacet
facet normal 0.0 1.0 0.0
outer loop
vertex 21.7708734766138 -155.75 222.136805852647
vertex 12.25 -155.75 213.4
vertex 12.267420085577 -155.75 233.629566018702
endloop
endfacet
facet normal 0.0 1.0 0.0
outer loop
vertex 37.75 -155.75 213.4
vertex 22.5960705653569 -155.75 221.395199966723
vertex 23.5850914723897 -155.75 220.892440411111
endloop
endfacet
facet normal 0.0 1.0 0.0
outer loop
vertex 37.75 -155.75 213.4
vertex 23.5850914723897 -155.75 220.892440411111
vertex 24.6705360573323 -155.75 220.662789418676
endloop
endfacet
facet normal 0.0 1.0 0.0
outer loop
vertex 21.7708734766138 -155.75 222.136805852647
vertex 12.267420085577 -155.75 233.629566018702
vertex 21.1657360240555 -155.75 223.066718853319
endloop
endfacet
facet normal 0.0 1.0 0.0
outer loop
vertex 21.1657360240555 -155.75 223.066718853319
vertex 12.267420085577 -155.75 233.629566018702
vertex 20.8218973250371 -155.75 224.121566934497
endloop
endfacet
facet normal 0.0 1.0 0.0
outer loop
vertex 20.8218973250371 -155.75 224.121566934497
vertex 12.267420085577 -155.75 233.629566018702
vertex 20.7627894186762 -155.75 225.229463942668
endloop
endfacet
facet normal 0.0 1.0 0.0
outer loop
vertex 20.7627894186762 -155.75 225.229463942668
vertex 12.267420085577 -155.75 233.629566018702
vertex 20.992440411111 -155.75 226.31490852761
endloop
endfacet
facet normal 0.0 1.0 0.0
outer loop
vertex 20.992440411111 -155.75 226.31490852761
vertex 12.267420085577 -155.75 233.629566018702
vertex 21.4951999667232 -155.75 227.303929434643
endloop
endfacet
facet normal 0.0 1.0 0.0
outer loop
vertex 21.4951999667232 -155.75 227.303929434643
vertex 12.267420085577 -155.75 233.629566018702
vertex 22.2368058526474 -155.75 228.129126523386
endloop
endfacet
facet normal 0.0 1.0 0.0
outer loop
vertex 22.2368058526474 -155.75 228.129126523386
vertex 12.267420085577 -155.75 233.629566018702
vertex 23.1667188533193 -155.75 228.734263975944
endloop
endfacet
facet normal 0.0 1.0 0.0
outer loop
vertex 23.1667188533193 -155.75 228.734263975944
vertex 12.267420085577 -155.75 233.629566018702
vertex 24.2215669344973 -155.75 229.078102674963
endloop
endfacet
facet normal 0.0 1.0 0.0
outer loop
vertex 24.2215669344973 -155.75 229.078102674963
vertex 12.267420085577 -155.75 233.629566018702
vertex 25.3294639426677 -155.75 229.137210581324
endloop
endfacet
facet normal 0.0 1.0 0.0
outer loop
vertex 37.75 -155.75 213.4
vertex 28.5048000332767 -155.75 222.496070565357
vertex 37.7325799144229 -155.75 233.629566018702
endloop
endfacet
facet normal 0.0 1.0 0.0
outer loop
vertex 28.5048000332767 -155.75 222.496070565357
vertex 37.75 -155.75 213.4
vertex 27.7631941473526 -155.75 221.670873476614
endloop
endfacet
facet normal 0.0 1.0 0.0
outer loop
vertex 27.7631941473526 -155.75 221.670873476614
vertex 37.75 -155.75 213.4
vertex 26.8332811466806 -155.75 221.065736024056
endloop
endfacet
facet normal 0.0 1.0 0.0
outer loop
vertex 26.8332811466806 -155.75 221.065736024056
vertex 37.75 -155.75 213.4
vertex 25.7784330655027 -155.75 220.721897325037
endloop
endfacet
facet normal 0.0 1.0 0.0
outer loop
vertex 25.7784330655027 -155.75 220.721897325037
vertex 37.75 -155.75 213.4
vertex 24.6705360573323 -155.75 220.662789418676
endloop
endfacet
facet normal 0.0 1.0 0.0
outer loop
vertex 37.7325799144229 -155.75 233.629566018702
vertex 28.5048000332767 -155.75 222.496070565357
vertex 29.0075595888889 -155.75 223.48509147239
endloop
endfacet
facet normal 0.0 1.0 0.0
outer loop
vertex 37.7325799144229 -155.75 233.629566018702
vertex 29.0075595888889 -155.75 223.48509147239
vertex 29.2372105813237 -155.75 224.570536057332
endloop
endfacet
facet normal 0.0 1.0 0.0
outer loop
vertex 37.7325799144229 -155.75 233.629566018702
vertex 29.2372105813237 -155.75 224.570536057332
vertex 29.1781026749629 -155.75 225.678433065503
endloop
endfacet
facet normal 0.0 1.0 0.0
outer loop
vertex 37.7325799144229 -155.75 233.629566018702
vertex 29.1781026749629 -155.75 225.678433065503
vertex 28.8342639759445 -155.75 226.733281146681
endloop
endfacet
facet normal 0.0 1.0 0.0
outer loop
vertex 37.7325799144229 -155.75 233.629566018702
vertex 28.8342639759445 -155.75 226.733281146681
vertex 28.2291265233862 -155.75 227.663194147353
endloop
endfacet
facet normal 0.0 1.0 0.0
outer loop
vertex 37.7325799144229 -155.75 233.629566018702
vertex 28.2291265233862 -155.75 227.663194147353
vertex 27.4039294346431 -155.75 228.404800033277
endloop
endfacet
facet normal 0.0 1.0 0.0
outer loop
vertex 37.7325799144229 -155.75 233.629566018702
vertex 27.4039294346431 -155.75 228.404800033277
vertex 26.4149085276103 -155.75 228.907559588889
endloop
endfacet
facet normal 0.0 1.0 0.0
outer loop
vertex 37.7325799144229 -155.75 233.629566018702
vertex 26.4149085276103 -155.75 228.907559588889
vertex 25.3294639426677 -155.75 229.137210581324
endloop
endfacet
facet normal 0.0 1.0 0.0
outer loop
vertex 37.7325799144229 -155.75 233.629566018702
vertex 25.3294639426677 -155.75 229.137210581324
vertex 12.267420085577 -155.75 233.629566018702
endloop
endfacet
facet normal 0.0 1.0 0.0
outer loop
vertex 37.7325799144229 -155.75 233.629566018702
vertex 12.267420085577 -155.75 233.629566018702
vertex 12.3193822798142 -155.75 233.890797609888
endloop
endfacet
facet normal 0.0 1.0 0.0
outer loop
vertex 37.7325799144229 -155.75 233.629566018702
vertex 12.3193822798142 -155.75 233.890797609888
vertex 37.6806177201858 -155.75 233.890797609888
endloop
endfacet
facet normal 0.0 1.0 0.0
outer loop
vertex 37.6806177201858 -155.75 233.890797609888
vertex 12.3193822798142 -155.75 233.890797609888
vertex 12.4049974951614 -155.75 234.143011901244
endloop
endfacet
facet normal 0.0 1.0 0.0
outer loop
vertex 37.6806177201858 -155.75 233.890797609888
vertex 12.4049974951614 -155.75 234.143011901244
vertex 37.5950025048386 -155.75 234.143011901244
endloop
endfacet
facet normal 0.0 1.0 0.0
outer loop
vertex 37.5950025048386 -155.75 234.143011901244
vertex 12.4049974951614 -155.75 234.143011901244
vertex 12.522800831547 -155.75 234.381893436319
endloop
endfacet
facet normal 0.0 1.0 0.0
outer loop
vertex 37.5950025048386 -155.75 234.143011901244
vertex 12.522800831547 -155.75 234.381893436319
vertex 37.4771991684529 -155.75 234.381893436319
endloop
endfacet
facet normal 0.0 1.0 0.0
outer loop
vertex 37.4771991684529 -155.75 234.381893436319
vertex 12.522800831547 -155.75 234.381893436319
vertex 12.6707766412243 -155.75 234.603354885818
endloop
endfacet
facet normal 0.0 1.0 0.0
outer loop
vertex 37.4771991684529 -155.75 234.381893436319
vertex 12.6707766412243 -155.75 234.603354885818
vertex 37.3292233587757 -155.75 234.603354885818
endloop
endfacet
facet normal 0.0 1.0 0.0
outer loop
vertex 37.3292233587757 -155.75 234.603354885818
vertex 12.6707766412243 -155.75 234.603354885818
vertex 12.846393017063 -155.75 234.803606982937
endloop
endfacet
facet normal 0.0 1.0 0.0
outer loop
vertex 37.3292233587757 -155.75 234.603354885818
vertex 12.846393017063 -155.75 234.803606982937
vertex 37.153606982937 -155.75 234.803606982937
endloop
endfacet
facet normal 0.0 1.0 0.0
outer loop
vertex 37.153606982937 -155.75 234.803606982937
vertex 12.846393017063 -155.75 234.803606982937
vertex 13.0466451141825 -155.75 234.979223358776
endloop
endfacet
facet normal 0.0 1.0 0.0
outer loop
vertex 37.153606982937 -155.75 234.803606982937
vertex 13.0466451141825 -155.75 234.979223358776
vertex 36.9533548858175 -155.75 234.979223358776
endloop
endfacet
facet normal 0.0 1.0 0.0
outer loop
vertex 36.9533548858175 -155.75 234.979223358776
vertex 13.0466451141825 -155.75 234.979223358776
vertex 13.2681065636806 -155.75 235.127199168453
endloop
endfacet
facet normal 0.0 1.0 0.0
outer loop
vertex 36.9533548858175 -155.75 234.979223358776
vertex 13.2681065636806 -155.75 235.127199168453
vertex 36.7318934363194 -155.75 235.127199168453
endloop
endfacet
facet normal 0.0 1.0 0.0
outer loop
vertex 36.7318934363194 -155.75 235.127199168453
vertex 13.2681065636806 -155.75 235.127199168453
vertex 13.5069880987557 -155.75 235.245002504839
endloop
endfacet
facet normal 0.0 1.0 0.0
outer loop
vertex 36.7318934363194 -155.75 235.127199168453
vertex 13.5069880987557 -155.75 235.245002504839
vertex 36.4930119012442 -155.75 235.245002504839
endloop
endfacet
facet normal 0.0 1.0 0.0
outer loop
vertex 36.4930119012442 -155.75 235.245002504839
vertex 13.5069880987557 -155.75 235.245002504839
vertex 13.7592023901123 -155.75 235.330617720186
endloop
endfacet
facet normal 0.0 1.0 0.0
outer loop
vertex 36.4930119012442 -155.75 235.245002504839
vertex 13.7592023901123 -155.75 235.330617720186
vertex 36.2407976098877 -155.75 235.330617720186
endloop
endfacet
facet normal 0.0 1.0 0.0
outer loop
vertex 36.2407976098877 -155.75 235.330617720186
vertex 13.7592023901123 -155.75 235.330617720186
vertex 14.0204339812982 -155.75 235.382579914423
endloop
endfacet
facet normal 0.0 1.0 0.0
outer loop
vertex 36.2407976098877 -155.75 235.330617720186
vertex 14.0204339812982 -155.75 235.382579914423
vertex 35.9795660187017 -155.75 235.382579914423
endloop
endfacet
facet normal 0.824658831359237 5.53661235387711e-30 -0.565630455210129
outer loop
vertex 300.907016326597 -155.75 227.303929434643
vertex 301.648622212521 -162.75 228.129126523386
vertex 300.907016326597 -162.75 227.303929434643
endloop
endfacet
facet normal 0.650163328788851 -7.99138681748217e-30 -0.759794476090871
outer loop
vertex 301.648622212521 -162.75 228.129126523386
vertex 300.907016326597 -155.75 227.303929434643
vertex 301.648622212521 -155.75 228.129126523386
endloop
endfacet
facet normal -0.99699072501735 -1.53416488486792e-19 0.0775209276865231
outer loop
vertex 308.649026941197 -155.75 224.570536057332
vertex 308.419375948762 -162.75 223.48509147239
vertex 308.649026941197 -162.75 224.570536057332
endloop
endfacet
facet normal -0.942955197385633 -1.28351792459753e-18 0.332919653555363
outer loop
vertex 308.419375948762 -162.75 223.48509147239
vertex 308.649026941197 -155.75 224.570536057332
vertex 308.419375948762 -155.75 223.48509147239
endloop
endfacet
facet normal 0.942955197385634 0.0 -0.33291965355536
outer loop
vertex 20.992440411111 -155.75 226.31490852761
vertex 21.4951999667232 -162.75 227.303929434643
vertex 20.992440411111 -162.75 226.31490852761
endloop
endfacet
facet normal 0.824658831359234 0.0 -0.565630455210134
outer loop
vertex 21.4951999667232 -162.75 227.303929434643
vertex 20.992440411111 -155.75 226.31490852761
vertex 21.4951999667232 -155.75 227.303929434643
endloop
endfacet
facet normal 0.0 1.0 0.0
outer loop
vertex 0.0 0.0 213.4
vertex 329.4 0.0 0.0
vertex 0.0 0.0 0.0
endloop
endfacet
facet normal 0.0 1.0 0.0
outer loop
vertex 329.4 0.0 0.0
vertex 0.0 0.0 213.4
vertex 329.4 0.0 213.4
endloop
endfacet
facet normal -1.0 -0.0 -0.0
outer loop
vertex 0.0 0.0 213.4
vertex 0.0 -175.0 0.0
vertex 0.0 -175.0 213.4
endloop
endfacet
facet normal -1.0 -0.0 -0.0
outer loop
vertex 0.0 -175.0 0.0
vertex 0.0 0.0 213.4
vertex 0.0 0.0 0.0
endloop
endfacet
facet normal 1.0 0.0 0.0
outer loop
vertex 329.4 0.0 0.0
vertex 329.4 -175.0 213.4
vertex 329.4 -175.0 0.0
endloop
endfacet
facet normal 1.0 0.0 0.0
outer loop
vertex 329.4 -175.0 213.4
vertex 329.4 0.0 0.0
vertex 329.4 0.0 213.4
endloop
endfacet
facet normal 0.0 0.0 -1.0
outer loop
vertex 329.4 0.0 0.0
vertex 0.0 -175.0 0.0
vertex 0.0 0.0 0.0
endloop
endfacet
facet normal 0.0 0.0 -1.0
outer loop
vertex 0.0 -175.0 0.0
vertex 329.4 0.0 0.0
vertex 329.4 -175.0 0.0
endloop
endfacet
facet normal 0.0 -1.0 0.0
outer loop
vertex 329.4 -175.0 213.4
vertex 0.0 -175.0 0.0
vertex 329.4 -175.0 0.0
endloop
endfacet
facet normal 0.0 -1.0 0.0
outer loop
vertex 0.0 -175.0 0.0
vertex 329.4 -175.0 213.4
vertex 0.0 -175.0 213.4
endloop
endfacet
facet normal 0.0 0.0 1.0
outer loop
vertex 329.4 -175.0 213.4
vertex 0.0 0.0 213.4
vertex 0.0 -175.0 213.4
endloop
endfacet
facet normal 0.0 0.0 1.0
outer loop
vertex 0.0 0.0 213.4
vertex 329.4 -175.0 213.4
vertex 329.4 0.0 213.4
endloop
endfacet
endsolid UB121100
