solid sunsaver-mppt
facet normal -1.0 0.0 0.0
outer loop
vertex 1332.05556249724 949.346120511453 380.0
vertex 1332.05556249724 902.746120511453 0.0
vertex 1332.05556249724 902.746120511453 380.0
endloop
endfacet
facet normal -1.0 0.0 0.0
outer loop
vertex 1332.05556249724 902.746120511453 0.0
vertex 1332.05556249724 949.346120511453 380.0
vertex 1332.05556249724 949.346120511453 0.0
endloop
endfacet
facet normal -0.0 -1.0 -0.0
outer loop
vertex 1351.35556249724 902.746120511453 380.0
vertex 1332.05556249724 902.746120511453 0.0
vertex 1351.35556249724 902.746120511453 0.0
endloop
endfacet
facet normal -0.0 -1.0 -0.0
outer loop
vertex 1332.05556249724 902.746120511453 0.0
vertex 1351.35556249724 902.746120511453 380.0
vertex 1332.05556249724 902.746120511453 380.0
endloop
endfacet
facet normal 1.0 0.0 0.0
outer loop
vertex 1351.35556249724 949.346120511453 0.0
vertex 1351.35556249724 902.746120511453 380.0
vertex 1351.35556249724 902.746120511453 0.0
endloop
endfacet
facet normal 1.0 0.0 0.0
outer loop
vertex 1351.35556249724 902.746120511453 380.0
vertex 1351.35556249724 949.346120511453 0.0
vertex 1351.35556249724 949.346120511453 380.0
endloop
endfacet
facet normal -0.0 -1.0 -0.0
outer loop
vertex 1383.84928908457 949.346120511453 380.0
vertex 1351.35556249724 949.346120511453 0.0
vertex 1383.84928908457 949.346120511453 0.0
endloop
endfacet
facet normal -0.0 -1.0 -0.0
outer loop
vertex 1351.35556249724 949.346120511453 0.0
vertex 1383.84928908457 949.346120511453 380.0
vertex 1351.35556249724 949.346120511453 380.0
endloop
endfacet
facet normal -1.0 0.0 0.0
outer loop
vertex 1383.84928908457 949.346120511453 380.0
vertex 1383.84928908457 902.746120511453 0.0
vertex 1383.84928908457 902.746120511453 380.0
endloop
endfacet
facet normal -1.0 0.0 0.0
outer loop
vertex 1383.84928908457 902.746120511453 0.0
vertex 1383.84928908457 949.346120511453 380.0
vertex 1383.84928908457 949.346120511453 0.0
endloop
endfacet
facet normal -0.0 -1.0 -0.0
outer loop
vertex 1402.64928908457 902.746120511453 380.0
vertex 1383.84928908457 902.746120511453 0.0
vertex 1402.64928908457 902.746120511453 0.0
endloop
endfacet
facet normal -0.0 -1.0 -0.0
outer loop
vertex 1383.84928908457 902.746120511453 0.0
vertex 1402.64928908457 902.746120511453 380.0
vertex 1383.84928908457 902.746120511453 380.0
endloop
endfacet
facet normal 1.0 0.0 0.0
outer loop
vertex 1402.64928908457 949.346120511453 0.0
vertex 1402.64928908457 902.746120511453 380.0
vertex 1402.64928908457 902.746120511453 0.0
endloop
endfacet
facet normal 1.0 0.0 0.0
outer loop
vertex 1402.64928908457 902.746120511453 380.0
vertex 1402.64928908457 949.346120511453 0.0
vertex 1402.64928908457 949.346120511453 380.0
endloop
endfacet
facet normal -0.0 -1.0 -0.0
outer loop
vertex 1434.79783495262 949.346120511453 380.0
vertex 1402.64928908457 949.346120511453 0.0
vertex 1434.79783495262 949.346120511453 0.0
endloop
endfacet
facet normal -0.0 -1.0 -0.0
outer loop
vertex 1402.64928908457 949.346120511453 0.0
vertex 1434.79783495262 949.346120511453 380.0
vertex 1402.64928908457 949.346120511453 380.0
endloop
endfacet
facet normal -1.0 0.0 0.0
outer loop
vertex 1434.79783495262 949.346120511453 380.0
vertex 1434.79783495262 902.746120511453 0.0
vertex 1434.79783495262 902.746120511453 380.0
endloop
endfacet
facet normal -1.0 0.0 0.0
outer loop
vertex 1434.79783495262 902.746120511453 0.0
vertex 1434.79783495262 949.346120511453 380.0
vertex 1434.79783495262 949.346120511453 0.0
endloop
endfacet
facet normal -0.0 -1.0 -0.0
outer loop
vertex 1454.99783495262 902.746120511453 380.0
vertex 1434.79783495262 902.746120511453 0.0
vertex 1454.99783495262 902.746120511453 0.0
endloop
endfacet
facet normal -0.0 -1.0 -0.0
outer loop
vertex 1434.79783495262 902.746120511453 0.0
vertex 1454.99783495262 902.746120511453 380.0
vertex 1434.79783495262 902.746120511453 380.0
endloop
endfacet
facet normal 1.0 0.0 0.0
outer loop
vertex 1454.99783495262 949.346120511453 0.0
vertex 1454.99783495262 902.746120511453 380.0
vertex 1454.99783495262 902.746120511453 0.0
endloop
endfacet
facet normal 1.0 0.0 0.0
outer loop
vertex 1454.99783495262 902.746120511453 380.0
vertex 1454.99783495262 949.346120511453 0.0
vertex 1454.99783495262 949.346120511453 380.0
endloop
endfacet
facet normal -0.0 -1.0 -0.0
outer loop
vertex 1486.67647862896 949.346120511453 380.0
vertex 1454.99783495262 949.346120511453 0.0
vertex 1486.67647862896 949.346120511453 0.0
endloop
endfacet
facet normal -0.0 -1.0 -0.0
outer loop
vertex 1454.99783495262 949.346120511453 0.0
vertex 1486.67647862896 949.346120511453 380.0
vertex 1454.99783495262 949.346120511453 380.0
endloop
endfacet
facet normal -1.0 0.0 0.0
outer loop
vertex 1486.67647862896 949.346120511453 380.0
vertex 1486.67647862896 902.746120511453 0.0
vertex 1486.67647862896 902.746120511453 380.0
endloop
endfacet
facet normal -1.0 0.0 0.0
outer loop
vertex 1486.67647862896 902.746120511453 0.0
vertex 1486.67647862896 949.346120511453 380.0
vertex 1486.67647862896 949.346120511453 0.0
endloop
endfacet
facet normal -0.0 -1.0 -0.0
outer loop
vertex 1507.07647862896 902.746120511453 380.0
vertex 1486.67647862896 902.746120511453 0.0
vertex 1507.07647862896 902.746120511453 0.0
endloop
endfacet
facet normal -0.0 -1.0 -0.0
outer loop
vertex 1486.67647862896 902.746120511453 0.0
vertex 1507.07647862896 902.746120511453 380.0
vertex 1486.67647862896 902.746120511453 380.0
endloop
endfacet
facet normal 1.0 0.0 0.0
outer loop
vertex 1507.07647862896 949.346120511453 0.0
vertex 1507.07647862896 902.746120511453 380.0
vertex 1507.07647862896 902.746120511453 0.0
endloop
endfacet
facet normal 1.0 0.0 0.0
outer loop
vertex 1507.07647862896 902.746120511453 380.0
vertex 1507.07647862896 949.346120511453 0.0
vertex 1507.07647862896 949.346120511453 380.0
endloop
endfacet
facet normal -0.0 -1.0 -0.0
outer loop
vertex 1538.66194812188 949.346120511453 380.0
vertex 1507.07647862896 949.346120511453 0.0
vertex 1538.66194812188 949.346120511453 0.0
endloop
endfacet
facet normal -0.0 -1.0 -0.0
outer loop
vertex 1507.07647862896 949.346120511453 0.0
vertex 1538.66194812188 949.346120511453 380.0
vertex 1507.07647862896 949.346120511453 380.0
endloop
endfacet
facet normal -1.0 0.0 0.0
outer loop
vertex 1538.66194812188 949.346120511453 380.0
vertex 1538.66194812188 902.646120511453 0.0
vertex 1538.66194812188 902.646120511453 380.0
endloop
endfacet
facet normal -1.0 0.0 0.0
outer loop
vertex 1538.66194812188 902.646120511453 0.0
vertex 1538.66194812188 949.346120511453 380.0
vertex 1538.66194812188 949.346120511453 0.0
endloop
endfacet
facet normal -0.0 -1.0 -0.0
outer loop
vertex 1558.26194812188 902.646120511453 380.0
vertex 1538.66194812188 902.646120511453 0.0
vertex 1558.26194812188 902.646120511453 0.0
endloop
endfacet
facet normal -0.0 -1.0 -0.0
outer loop
vertex 1538.66194812188 902.646120511453 0.0
vertex 1558.26194812188 902.646120511453 380.0
vertex 1538.66194812188 902.646120511453 380.0
endloop
endfacet
facet normal 1.0 0.0 0.0
outer loop
vertex 1558.26194812188 949.346120511453 0.0
vertex 1558.26194812188 902.646120511453 380.0
vertex 1558.26194812188 902.646120511453 0.0
endloop
endfacet
facet normal 1.0 0.0 0.0
outer loop
vertex 1558.26194812188 902.646120511453 380.0
vertex 1558.26194812188 949.346120511453 0.0
vertex 1558.26194812188 949.346120511453 380.0
endloop
endfacet
facet normal -0.0 -1.0 -0.0
outer loop
vertex 1590.22042771145 949.346120511453 380.0
vertex 1558.26194812188 949.346120511453 0.0
vertex 1590.22042771145 949.346120511453 0.0
endloop
endfacet
facet normal -0.0 -1.0 -0.0
outer loop
vertex 1558.26194812188 949.346120511453 0.0
vertex 1590.22042771145 949.346120511453 380.0
vertex 1558.26194812188 949.346120511453 380.0
endloop
endfacet
facet normal -1.0 0.0 0.0
outer loop
vertex 1590.22042771145 949.346120511453 380.0
vertex 1590.22042771145 902.446120511453 0.0
vertex 1590.22042771145 902.446120511453 380.0
endloop
endfacet
facet normal -1.0 0.0 0.0
outer loop
vertex 1590.22042771145 902.446120511453 0.0
vertex 1590.22042771145 949.346120511453 380.0
vertex 1590.22042771145 949.346120511453 0.0
endloop
endfacet
facet normal -0.0 -1.0 -0.0
outer loop
vertex 1609.92042771145 902.446120511453 380.0
vertex 1590.22042771145 902.446120511453 0.0
vertex 1609.92042771145 902.446120511453 0.0
endloop
endfacet
facet normal -0.0 -1.0 -0.0
outer loop
vertex 1590.22042771145 902.446120511453 0.0
vertex 1609.92042771145 902.446120511453 380.0
vertex 1590.22042771145 902.446120511453 380.0
endloop
endfacet
facet normal 1.0 0.0 0.0
outer loop
vertex 1609.92042771145 949.346120511453 0.0
vertex 1609.92042771145 902.446120511453 380.0
vertex 1609.92042771145 902.446120511453 0.0
endloop
endfacet
facet normal 1.0 0.0 0.0
outer loop
vertex 1609.92042771145 902.446120511453 380.0
vertex 1609.92042771145 949.346120511453 0.0
vertex 1609.92042771145 949.346120511453 380.0
endloop
endfacet
facet normal -0.0 -1.0 -0.0
outer loop
vertex 1641.54075364815 949.346120511453 380.0
vertex 1609.92042771145 949.346120511453 0.0
vertex 1641.54075364815 949.346120511453 0.0
endloop
endfacet
facet normal -0.0 -1.0 -0.0
outer loop
vertex 1609.92042771145 949.346120511453 0.0
vertex 1641.54075364815 949.346120511453 380.0
vertex 1609.92042771145 949.346120511453 380.0
endloop
endfacet
facet normal -1.0 0.0 0.0
outer loop
vertex 1641.54075364815 949.346120511453 380.0
vertex 1641.54075364815 902.546120511453 0.0
vertex 1641.54075364815 902.546120511453 380.0
endloop
endfacet
facet normal -1.0 0.0 0.0
outer loop
vertex 1641.54075364815 902.546120511453 0.0
vertex 1641.54075364815 949.346120511453 380.0
vertex 1641.54075364815 949.346120511453 0.0
endloop
endfacet
facet normal -0.0 -1.0 -0.0
outer loop
vertex 1661.44075364815 902.546120511453 380.0
vertex 1641.54075364815 902.546120511453 0.0
vertex 1661.44075364815 902.546120511453 0.0
endloop
endfacet
facet normal -0.0 -1.0 -0.0
outer loop
vertex 1641.54075364815 902.546120511453 0.0
vertex 1661.44075364815 902.546120511453 380.0
vertex 1641.54075364815 902.546120511453 380.0
endloop
endfacet
facet normal 1.0 0.0 0.0
outer loop
vertex 1661.44075364815 949.346120511453 0.0
vertex 1661.44075364815 902.546120511453 380.0
vertex 1661.44075364815 902.546120511453 0.0
endloop
endfacet
facet normal 1.0 0.0 0.0
outer loop
vertex 1661.44075364815 902.546120511453 380.0
vertex 1661.44075364815 949.346120511453 0.0
vertex 1661.44075364815 949.346120511453 380.0
endloop
endfacet
facet normal -0.0 -1.0 -0.0
outer loop
vertex 1693.14081981529 949.346120511453 380.0
vertex 1661.44075364815 949.346120511453 0.0
vertex 1693.14081981529 949.346120511453 0.0
endloop
endfacet
facet normal -0.0 -1.0 -0.0
outer loop
vertex 1661.44075364815 949.346120511453 0.0
vertex 1693.14081981529 949.346120511453 380.0
vertex 1661.44075364815 949.346120511453 380.0
endloop
endfacet
facet normal -1.0 0.0 0.0
outer loop
vertex 1693.14081981529 949.346120511453 380.0
vertex 1693.14081981529 902.446120511453 0.0
vertex 1693.14081981529 902.446120511453 380.0
endloop
endfacet
facet normal -1.0 0.0 0.0
outer loop
vertex 1693.14081981529 902.446120511453 0.0
vertex 1693.14081981529 949.346120511453 380.0
vertex 1693.14081981529 949.346120511453 0.0
endloop
endfacet
facet normal -0.0 -1.0 -0.0
outer loop
vertex 1713.34081981529 902.446120511453 380.0
vertex 1693.14081981529 902.446120511453 0.0
vertex 1713.34081981529 902.446120511453 0.0
endloop
endfacet
facet normal -0.0 -1.0 -0.0
outer loop
vertex 1693.14081981529 902.446120511453 0.0
vertex 1713.34081981529 902.446120511453 380.0
vertex 1693.14081981529 902.446120511453 380.0
endloop
endfacet
facet normal 1.0 0.0 0.0
outer loop
vertex 1713.34081981529 949.346120511453 0.0
vertex 1713.34081981529 902.446120511453 380.0
vertex 1713.34081981529 902.446120511453 0.0
endloop
endfacet
facet normal 1.0 0.0 0.0
outer loop
vertex 1713.34081981529 902.446120511453 380.0
vertex 1713.34081981529 949.346120511453 0.0
vertex 1713.34081981529 949.346120511453 380.0
endloop
endfacet
facet normal -0.0 -1.0 -0.0
outer loop
vertex 1745.57046903979 949.346120511453 380.0
vertex 1713.34081981529 949.346120511453 0.0
vertex 1745.57046903979 949.346120511453 0.0
endloop
endfacet
facet normal -0.0 -1.0 -0.0
outer loop
vertex 1713.34081981529 949.346120511453 0.0
vertex 1745.57046903979 949.346120511453 380.0
vertex 1713.34081981529 949.346120511453 380.0
endloop
endfacet
facet normal -1.0 0.0 0.0
outer loop
vertex 1745.57046903979 949.346120511453 380.0
vertex 1745.57046903979 902.746120511453 0.0
vertex 1745.57046903979 902.746120511453 380.0
endloop
endfacet
facet normal -1.0 0.0 0.0
outer loop
vertex 1745.57046903979 902.746120511453 0.0
vertex 1745.57046903979 949.346120511453 380.0
vertex 1745.57046903979 949.346120511453 0.0
endloop
endfacet
facet normal -0.0 -1.0 -0.0
outer loop
vertex 1765.17046903979 902.746120511453 380.0
vertex 1745.57046903979 902.746120511453 0.0
vertex 1765.17046903979 902.746120511453 0.0
endloop
endfacet
facet normal -0.0 -1.0 -0.0
outer loop
vertex 1745.57046903979 902.746120511453 0.0
vertex 1765.17046903979 902.746120511453 380.0
vertex 1745.57046903979 902.746120511453 380.0
endloop
endfacet
facet normal 1.0 0.0 0.0
outer loop
vertex 1765.17046903979 949.346120511453 0.0
vertex 1765.17046903979 902.746120511453 380.0
vertex 1765.17046903979 902.746120511453 0.0
endloop
endfacet
facet normal 1.0 0.0 0.0
outer loop
vertex 1765.17046903979 902.746120511453 380.0
vertex 1765.17046903979 949.346120511453 0.0
vertex 1765.17046903979 949.346120511453 380.0
endloop
endfacet
facet normal -0.0 -1.0 -0.0
outer loop
vertex 1797.17053520693 949.346120511453 380.0
vertex 1765.17046903979 949.346120511453 0.0
vertex 1797.17053520693 949.346120511453 0.0
endloop
endfacet
facet normal -0.0 -1.0 -0.0
outer loop
vertex 1765.17046903979 949.346120511453 0.0
vertex 1797.17053520693 949.346120511453 380.0
vertex 1765.17046903979 949.346120511453 380.0
endloop
endfacet
facet normal -1.0 0.0 0.0
outer loop
vertex 1797.17053520693 949.346120511453 380.0
vertex 1797.17053520693 902.446120511453 0.0
vertex 1797.17053520693 902.446120511453 380.0
endloop
endfacet
facet normal -1.0 0.0 0.0
outer loop
vertex 1797.17053520693 902.446120511453 0.0
vertex 1797.17053520693 949.346120511453 380.0
vertex 1797.17053520693 949.346120511453 0.0
endloop
endfacet
facet normal -0.0 -1.0 -0.0
outer loop
vertex 1816.77053520693 902.446120511453 380.0
vertex 1797.17053520693 902.446120511453 0.0
vertex 1816.77053520693 902.446120511453 0.0
endloop
endfacet
facet normal -0.0 -1.0 -0.0
outer loop
vertex 1797.17053520693 902.446120511453 0.0
vertex 1816.77053520693 902.446120511453 380.0
vertex 1797.17053520693 902.446120511453 380.0
endloop
endfacet
facet normal 1.0 0.0 0.0
outer loop
vertex 1816.77053520693 949.346120511453 0.0
vertex 1816.77053520693 902.446120511453 380.0
vertex 1816.77053520693 902.446120511453 0.0
endloop
endfacet
facet normal 1.0 0.0 0.0
outer loop
vertex 1816.77053520693 902.446120511453 380.0
vertex 1816.77053520693 949.346120511453 0.0
vertex 1816.77053520693 949.346120511453 380.0
endloop
endfacet
facet normal -0.0 -1.0 -0.0
outer loop
vertex 1848.44136604752 949.346120511453 380.0
vertex 1816.77053520693 949.346120511453 0.0
vertex 1848.44136604752 949.346120511453 0.0
endloop
endfacet
facet normal -0.0 -1.0 -0.0
outer loop
vertex 1816.77053520693 949.346120511453 0.0
vertex 1848.44136604752 949.346120511453 380.0
vertex 1816.77053520693 949.346120511453 380.0
endloop
endfacet
facet normal -1.0 0.0 0.0
outer loop
vertex 1848.44136604752 949.346120511453 380.0
vertex 1848.44136604752 902.746120511453 0.0
vertex 1848.44136604752 902.746120511453 380.0
endloop
endfacet
facet normal -1.0 0.0 0.0
outer loop
vertex 1848.44136604752 902.746120511453 0.0
vertex 1848.44136604752 949.346120511453 380.0
vertex 1848.44136604752 949.346120511453 0.0
endloop
endfacet
facet normal -0.0 -1.0 -0.0
outer loop
vertex 1869.14136604752 902.746120511453 380.0
vertex 1848.44136604752 902.746120511453 0.0
vertex 1869.14136604752 902.746120511453 0.0
endloop
endfacet
facet normal -0.0 -1.0 -0.0
outer loop
vertex 1848.44136604752 902.746120511453 0.0
vertex 1869.14136604752 902.746120511453 380.0
vertex 1848.44136604752 902.746120511453 380.0
endloop
endfacet
facet normal 1.0 0.0 0.0
outer loop
vertex 1869.14136604752 949.346120511453 0.0
vertex 1869.14136604752 902.746120511453 380.0
vertex 1869.14136604752 902.746120511453 0.0
endloop
endfacet
facet normal 1.0 0.0 0.0
outer loop
vertex 1869.14136604752 902.746120511453 380.0
vertex 1869.14136604752 949.346120511453 0.0
vertex 1869.14136604752 949.346120511453 380.0
endloop
endfacet
facet normal -0.0 -1.0 -0.0
outer loop
vertex 1900.03883431828 949.346120511453 380.0
vertex 1869.14136604752 949.346120511453 0.0
vertex 1900.03883431828 949.346120511453 0.0
endloop
endfacet
facet normal -0.0 -1.0 -0.0
outer loop
vertex 1869.14136604752 949.346120511453 0.0
vertex 1900.03883431828 949.346120511453 380.0
vertex 1869.14136604752 949.346120511453 380.0
endloop
endfacet
facet normal -1.0 0.0 0.0
outer loop
vertex 1900.03883431828 949.346120511453 380.0
vertex 1900.03883431828 902.546120511453 0.0
vertex 1900.03883431828 902.546120511453 380.0
endloop
endfacet
facet normal -1.0 0.0 0.0
outer loop
vertex 1900.03883431828 902.546120511453 0.0
vertex 1900.03883431828 949.346120511453 380.0
vertex 1900.03883431828 949.346120511453 0.0
endloop
endfacet
facet normal -0.0 -1.0 -0.0
outer loop
vertex 1920.13883431828 902.546120511453 380.0
vertex 1900.03883431828 902.546120511453 0.0
vertex 1920.13883431828 902.546120511453 0.0
endloop
endfacet
facet normal -0.0 -1.0 -0.0
outer loop
vertex 1900.03883431828 902.546120511453 0.0
vertex 1920.13883431828 902.546120511453 380.0
vertex 1900.03883431828 902.546120511453 380.0
endloop
endfacet
facet normal 1.0 0.0 0.0
outer loop
vertex 1920.13883431828 949.346120511453 0.0
vertex 1920.13883431828 902.546120511453 380.0
vertex 1920.13883431828 902.546120511453 0.0
endloop
endfacet
facet normal 1.0 0.0 0.0
outer loop
vertex 1920.13883431828 902.546120511453 380.0
vertex 1920.13883431828 949.346120511453 0.0
vertex 1920.13883431828 949.346120511453 380.0
endloop
endfacet
facet normal -0.0 -1.0 -0.0
outer loop
vertex 1952.15381045996 949.346120511453 380.0
vertex 1920.13883431828 949.346120511453 0.0
vertex 1952.15381045996 949.346120511453 0.0
endloop
endfacet
facet normal -0.0 -1.0 -0.0
outer loop
vertex 1920.13883431828 949.346120511453 0.0
vertex 1952.15381045996 949.346120511453 380.0
vertex 1920.13883431828 949.346120511453 380.0
endloop
endfacet
facet normal -1.0 0.0 0.0
outer loop
vertex 1952.15381045996 949.346120511453 380.0
vertex 1952.15381045996 902.746120511453 0.0
vertex 1952.15381045996 902.746120511453 380.0
endloop
endfacet
facet normal -1.0 0.0 0.0
outer loop
vertex 1952.15381045996 902.746120511453 0.0
vertex 1952.15381045996 949.346120511453 380.0
vertex 1952.15381045996 949.346120511453 0.0
endloop
endfacet
facet normal -0.0 -1.0 -0.0
outer loop
vertex 1971.55381045996 902.746120511453 380.0
vertex 1952.15381045996 902.746120511453 0.0
vertex 1971.55381045996 902.746120511453 0.0
endloop
endfacet
facet normal -0.0 -1.0 -0.0
outer loop
vertex 1952.15381045996 902.746120511453 0.0
vertex 1971.55381045996 902.746120511453 380.0
vertex 1952.15381045996 902.746120511453 380.0
endloop
endfacet
facet normal 1.0 0.0 0.0
outer loop
vertex 1971.55381045996 949.346120511453 0.0
vertex 1971.55381045996 902.746120511453 380.0
vertex 1971.55381045996 902.746120511453 0.0
endloop
endfacet
facet normal 1.0 0.0 0.0
outer loop
vertex 1971.55381045996 902.746120511453 380.0
vertex 1971.55381045996 949.346120511453 0.0
vertex 1971.55381045996 949.346120511453 380.0
endloop
endfacet
facet normal -0.0 -1.0 -0.0
outer loop
vertex 2000.19296131238 949.346120511453 380.0
vertex 1971.55381045996 949.346120511453 0.0
vertex 2000.19296131238 949.346120511453 0.0
endloop
endfacet
facet normal -0.0 -1.0 -0.0
outer loop
vertex 1971.55381045996 949.346120511453 0.0
vertex 2000.19296131238 949.346120511453 380.0
vertex 1971.55381045996 949.346120511453 380.0
endloop
endfacet
facet normal -1.0 0.0 0.0
outer loop
vertex 2000.19296131238 949.346120511453 380.0
vertex 2000.19296131238 897.146120511453 0.0
vertex 2000.19296131238 897.146120511453 380.0
endloop
endfacet
facet normal -1.0 0.0 0.0
outer loop
vertex 2000.19296131238 897.146120511453 0.0
vertex 2000.19296131238 949.346120511453 380.0
vertex 2000.19296131238 949.346120511453 0.0
endloop
endfacet
facet normal -0.0 -1.0 -0.0
outer loop
vertex 2131.69296131238 897.146120511453 380.0
vertex 2000.19296131238 897.146120511453 0.0
vertex 2131.69296131238 897.146120511453 0.0
endloop
endfacet
facet normal -0.0 -1.0 -0.0
outer loop
vertex 2000.19296131238 897.146120511453 0.0
vertex 2131.69296131238 897.146120511453 380.0
vertex 2000.19296131238 897.146120511453 380.0
endloop
endfacet
facet normal 1.0 0.0 0.0
outer loop
vertex 2131.69296131238 920.746120511453 0.0
vertex 2131.69296131238 897.146120511453 380.0
vertex 2131.69296131238 897.146120511453 0.0
endloop
endfacet
facet normal 1.0 0.0 0.0
outer loop
vertex 2131.69296131238 897.146120511453 380.0
vertex 2131.69296131238 920.746120511453 0.0
vertex 2131.69296131238 920.746120511453 380.0
endloop
endfacet
facet normal 0.0 1.0 0.0
outer loop
vertex 2059.31139927699 920.746120511453 380.0
vertex 2131.69296131238 920.746120511453 0.0
vertex 2059.31139927699 920.746120511453 0.0
endloop
endfacet
facet normal 0.0 1.0 0.0
outer loop
vertex 2131.69296131238 920.746120511453 0.0
vertex 2059.31139927699 920.746120511453 380.0
vertex 2131.69296131238 920.746120511453 380.0
endloop
endfacet
facet normal 0.964307741394025 0.26478402498556 0.0
outer loop
vertex 2043.09296131238 979.811486269241 0.0
vertex 2059.31139927699 920.746120511453 380.0
vertex 2059.31139927699 920.746120511453 0.0
endloop
endfacet
facet normal 0.964307741394025 0.26478402498556 0.0
outer loop
vertex 2059.31139927699 920.746120511453 380.0
vertex 2043.09296131238 979.811486269241 0.0
vertex 2043.09296131238 979.811486269241 380.0
endloop
endfacet
facet normal 1.0 0.0 0.0
outer loop
vertex 2043.09296131238 1054.34612051145 0.0
vertex 2043.09296131238 979.811486269241 380.0
vertex 2043.09296131238 979.811486269241 0.0
endloop
endfacet
facet normal 1.0 0.0 0.0
outer loop
vertex 2043.09296131238 979.811486269241 380.0
vertex 2043.09296131238 1054.34612051145 0.0
vertex 2043.09296131238 1054.34612051145 380.0
endloop
endfacet
facet normal 0.0 1.0 0.0
outer loop
vertex 1207.99296131238 1054.34612051145 380.0
vertex 2043.09296131238 1054.34612051145 0.0
vertex 1207.99296131238 1054.34612051145 0.0
endloop
endfacet
facet normal 0.0 1.0 0.0
outer loop
vertex 2043.09296131238 1054.34612051145 0.0
vertex 1207.99296131238 1054.34612051145 380.0
vertex 2043.09296131238 1054.34612051145 380.0
endloop
endfacet
facet normal -1.0 0.0 0.0
outer loop
vertex 1207.99296131238 1054.34612051145 380.0
vertex 1207.99296131238 967.124441633234 0.0
vertex 1207.99296131238 967.124441633234 380.0
endloop
endfacet
facet normal -1.0 0.0 0.0
outer loop
vertex 1207.99296131238 967.124441633234 0.0
vertex 1207.99296131238 1054.34612051145 380.0
vertex 1207.99296131238 1054.34612051145 0.0
endloop
endfacet
facet normal -0.965765167428227 0.259417889480138 0.0
outer loop
vertex 1207.99296131238 967.124441633234 380.0
vertex 1195.86827918427 921.986476441486 0.0
vertex 1195.86827918427 921.986476441486 380.0
endloop
endfacet
facet normal -0.965765167428227 0.259417889480138 0.0
outer loop
vertex 1195.86827918427 921.986476441486 0.0
vertex 1207.99296131238 967.124441633234 380.0
vertex 1207.99296131238 967.124441633234 0.0
endloop
endfacet
facet normal 0.0 1.0 0.0
outer loop
vertex 1120.3587552114 921.986476441486 380.0
vertex 1195.86827918427 921.986476441486 0.0
vertex 1120.3587552114 921.986476441486 0.0
endloop
endfacet
facet normal 0.0 1.0 0.0
outer loop
vertex 1195.86827918427 921.986476441486 0.0
vertex 1120.3587552114 921.986476441486 380.0
vertex 1195.86827918427 921.986476441486 380.0
endloop
endfacet
facet normal -1.0 0.0 0.0
outer loop
vertex 1120.3587552114 921.986476441486 380.0
vertex 1120.3587552114 898.835108712367 0.0
vertex 1120.3587552114 898.835108712367 380.0
endloop
endfacet
facet normal -1.0 0.0 0.0
outer loop
vertex 1120.3587552114 898.835108712367 0.0
vertex 1120.3587552114 921.986476441486 380.0
vertex 1120.3587552114 921.986476441486 0.0
endloop
endfacet
facet normal -0.0 -1.0 -0.0
outer loop
vertex 1247.53821962798 898.835108712367 380.0
vertex 1120.3587552114 898.835108712367 0.0
vertex 1247.53821962798 898.835108712367 0.0
endloop
endfacet
facet normal -0.0 -1.0 -0.0
outer loop
vertex 1120.3587552114 898.835108712367 0.0
vertex 1247.53821962798 898.835108712367 380.0
vertex 1120.3587552114 898.835108712367 380.0
endloop
endfacet
facet normal 1.0 0.0 0.0
outer loop
vertex 1247.53821962798 949.346120511453 0.0
vertex 1247.53821962798 898.835108712367 380.0
vertex 1247.53821962798 898.835108712367 0.0
endloop
endfacet
facet normal 1.0 0.0 0.0
outer loop
vertex 1247.53821962798 898.835108712367 380.0
vertex 1247.53821962798 949.346120511453 0.0
vertex 1247.53821962798 949.346120511453 380.0
endloop
endfacet
facet normal -0.0 -1.0 -0.0
outer loop
vertex 1280.63596279553 949.346120511453 380.0
vertex 1247.53821962798 949.346120511453 0.0
vertex 1280.63596279553 949.346120511453 0.0
endloop
endfacet
facet normal -0.0 -1.0 -0.0
outer loop
vertex 1247.53821962798 949.346120511453 0.0
vertex 1280.63596279553 949.346120511453 380.0
vertex 1247.53821962798 949.346120511453 380.0
endloop
endfacet
facet normal -1.0 0.0 0.0
outer loop
vertex 1280.63596279553 949.346120511453 380.0
vertex 1280.63596279553 902.846120511453 0.0
vertex 1280.63596279553 902.846120511453 380.0
endloop
endfacet
facet normal -1.0 0.0 0.0
outer loop
vertex 1280.63596279553 902.846120511453 0.0
vertex 1280.63596279553 949.346120511453 380.0
vertex 1280.63596279553 949.346120511453 0.0
endloop
endfacet
facet normal -0.0 -1.0 -0.0
outer loop
vertex 1299.23596279553 902.846120511453 380.0
vertex 1280.63596279553 902.846120511453 0.0
vertex 1299.23596279553 902.846120511453 0.0
endloop
endfacet
facet normal -0.0 -1.0 -0.0
outer loop
vertex 1280.63596279553 902.846120511453 0.0
vertex 1299.23596279553 902.846120511453 380.0
vertex 1280.63596279553 902.846120511453 380.0
endloop
endfacet
facet normal 0.0 0.0 -1.0
outer loop
vertex 2043.09296131238 1054.34612051145 0.0
vertex 1207.99296131238 967.124441633234 0.0
vertex 1207.99296131238 1054.34612051145 0.0
endloop
endfacet
facet normal 0.0 0.0 -1.0
outer loop
vertex 1207.99296131238 967.124441633234 0.0
vertex 2043.09296131238 1054.34612051145 0.0
vertex 1247.53821962798 949.346120511453 0.0
endloop
endfacet
facet normal 0.0 0.0 -1.0
outer loop
vertex 1247.53821962798 949.346120511453 0.0
vertex 2043.09296131238 1054.34612051145 0.0
vertex 1280.63596279553 949.346120511453 0.0
endloop
endfacet
facet normal 0.0 0.0 -1.0
outer loop
vertex 1280.63596279553 949.346120511453 0.0
vertex 2043.09296131238 1054.34612051145 0.0
vertex 1299.23596279553 949.346120511453 0.0
endloop
endfacet
facet normal 0.0 0.0 -1.0
outer loop
vertex 1280.63596279553 949.346120511453 0.0
vertex 1299.23596279553 949.346120511453 0.0
vertex 1280.63596279553 902.846120511453 0.0
endloop
endfacet
facet normal 0.0 0.0 -1.0
outer loop
vertex 1299.23596279553 949.346120511453 0.0
vertex 2043.09296131238 1054.34612051145 0.0
vertex 1332.05556249724 949.346120511453 0.0
endloop
endfacet
facet normal 0.0 0.0 -1.0
outer loop
vertex 1332.05556249724 949.346120511453 0.0
vertex 2043.09296131238 1054.34612051145 0.0
vertex 1351.35556249724 949.346120511453 0.0
endloop
endfacet
facet normal 0.0 0.0 -1.0
outer loop
vertex 1332.05556249724 949.346120511453 0.0
vertex 1351.35556249724 949.346120511453 0.0
vertex 1332.05556249724 902.746120511453 0.0
endloop
endfacet
facet normal 0.0 0.0 -1.0
outer loop
vertex 1351.35556249724 949.346120511453 0.0
vertex 2043.09296131238 1054.34612051145 0.0
vertex 1383.84928908457 949.346120511453 0.0
endloop
endfacet
facet normal 0.0 0.0 -1.0
outer loop
vertex 1383.84928908457 949.346120511453 0.0
vertex 2043.09296131238 1054.34612051145 0.0
vertex 1402.64928908457 949.346120511453 0.0
endloop
endfacet
facet normal 0.0 0.0 -1.0
outer loop
vertex 1383.84928908457 949.346120511453 0.0
vertex 1402.64928908457 949.346120511453 0.0
vertex 1383.84928908457 902.746120511453 0.0
endloop
endfacet
facet normal 0.0 0.0 -1.0
outer loop
vertex 1402.64928908457 949.346120511453 0.0
vertex 2043.09296131238 1054.34612051145 0.0
vertex 1434.79783495262 949.346120511453 0.0
endloop
endfacet
facet normal 0.0 0.0 -1.0
outer loop
vertex 1434.79783495262 949.346120511453 0.0
vertex 2043.09296131238 1054.34612051145 0.0
vertex 1454.99783495262 949.346120511453 0.0
endloop
endfacet
facet normal 0.0 0.0 -1.0
outer loop
vertex 1434.79783495262 949.346120511453 0.0
vertex 1454.99783495262 949.346120511453 0.0
vertex 1434.79783495262 902.746120511453 0.0
endloop
endfacet
facet normal 0.0 0.0 -1.0
outer loop
vertex 1454.99783495262 949.346120511453 0.0
vertex 2043.09296131238 1054.34612051145 0.0
vertex 1486.67647862896 949.346120511453 0.0
endloop
endfacet
facet normal 0.0 0.0 -1.0
outer loop
vertex 1486.67647862896 949.346120511453 0.0
vertex 2043.09296131238 1054.34612051145 0.0
vertex 1507.07647862896 949.346120511453 0.0
endloop
endfacet
facet normal 0.0 0.0 -1.0
outer loop
vertex 1486.67647862896 949.346120511453 0.0
vertex 1507.07647862896 949.346120511453 0.0
vertex 1486.67647862896 902.746120511453 0.0
endloop
endfacet
facet normal 0.0 0.0 -1.0
outer loop
vertex 1507.07647862896 949.346120511453 0.0
vertex 2043.09296131238 1054.34612051145 0.0
vertex 1538.66194812188 949.346120511453 0.0
endloop
endfacet
facet normal 0.0 0.0 -1.0
outer loop
vertex 1538.66194812188 949.346120511453 0.0
vertex 2043.09296131238 1054.34612051145 0.0
vertex 1558.26194812188 949.346120511453 0.0
endloop
endfacet
facet normal 0.0 0.0 -1.0
outer loop
vertex 1538.66194812188 949.346120511453 0.0
vertex 1558.26194812188 949.346120511453 0.0
vertex 1538.66194812188 902.646120511453 0.0
endloop
endfacet
facet normal 0.0 0.0 -1.0
outer loop
vertex 1558.26194812188 949.346120511453 0.0
vertex 2043.09296131238 1054.34612051145 0.0
vertex 1590.22042771145 949.346120511453 0.0
endloop
endfacet
facet normal 0.0 0.0 -1.0
outer loop
vertex 1590.22042771145 949.346120511453 0.0
vertex 2043.09296131238 1054.34612051145 0.0
vertex 1609.92042771145 949.346120511453 0.0
endloop
endfacet
facet normal 0.0 0.0 -1.0
outer loop
vertex 1590.22042771145 949.346120511453 0.0
vertex 1609.92042771145 949.346120511453 0.0
vertex 1590.22042771145 902.446120511453 0.0
endloop
endfacet
facet normal 0.0 0.0 -1.0
outer loop
vertex 1609.92042771145 949.346120511453 0.0
vertex 2043.09296131238 1054.34612051145 0.0
vertex 1641.54075364815 949.346120511453 0.0
endloop
endfacet
facet normal 0.0 0.0 -1.0
outer loop
vertex 1641.54075364815 949.346120511453 0.0
vertex 2043.09296131238 1054.34612051145 0.0
vertex 1661.44075364815 949.346120511453 0.0
endloop
endfacet
facet normal 0.0 0.0 -1.0
outer loop
vertex 1641.54075364815 949.346120511453 0.0
vertex 1661.44075364815 949.346120511453 0.0
vertex 1641.54075364815 902.546120511453 0.0
endloop
endfacet
facet normal 0.0 0.0 -1.0
outer loop
vertex 1661.44075364815 949.346120511453 0.0
vertex 2043.09296131238 1054.34612051145 0.0
vertex 1693.14081981529 949.346120511453 0.0
endloop
endfacet
facet normal 0.0 0.0 -1.0
outer loop
vertex 1693.14081981529 949.346120511453 0.0
vertex 2043.09296131238 1054.34612051145 0.0
vertex 1713.34081981529 949.346120511453 0.0
endloop
endfacet
facet normal 0.0 0.0 -1.0
outer loop
vertex 1693.14081981529 949.346120511453 0.0
vertex 1713.34081981529 949.346120511453 0.0
vertex 1693.14081981529 902.446120511453 0.0
endloop
endfacet
facet normal 0.0 0.0 -1.0
outer loop
vertex 1713.34081981529 949.346120511453 0.0
vertex 2043.09296131238 1054.34612051145 0.0
vertex 1745.57046903979 949.346120511453 0.0
endloop
endfacet
facet normal 0.0 0.0 -1.0
outer loop
vertex 1745.57046903979 949.346120511453 0.0
vertex 2043.09296131238 1054.34612051145 0.0
vertex 1765.17046903979 949.346120511453 0.0
endloop
endfacet
facet normal 0.0 0.0 -1.0
outer loop
vertex 1745.57046903979 949.346120511453 0.0
vertex 1765.17046903979 949.346120511453 0.0
vertex 1745.57046903979 902.746120511453 0.0
endloop
endfacet
facet normal 0.0 0.0 -1.0
outer loop
vertex 1765.17046903979 949.346120511453 0.0
vertex 2043.09296131238 1054.34612051145 0.0
vertex 1797.17053520693 949.346120511453 0.0
endloop
endfacet
facet normal 0.0 0.0 -1.0
outer loop
vertex 1797.17053520693 949.346120511453 0.0
vertex 2043.09296131238 1054.34612051145 0.0
vertex 1816.77053520693 949.346120511453 0.0
endloop
endfacet
facet normal 0.0 0.0 -1.0
outer loop
vertex 1797.17053520693 949.346120511453 0.0
vertex 1816.77053520693 949.346120511453 0.0
vertex 1797.17053520693 902.446120511453 0.0
endloop
endfacet
facet normal 0.0 0.0 -1.0
outer loop
vertex 1816.77053520693 949.346120511453 0.0
vertex 2043.09296131238 1054.34612051145 0.0
vertex 1848.44136604752 949.346120511453 0.0
endloop
endfacet
facet normal 0.0 0.0 -1.0
outer loop
vertex 1848.44136604752 949.346120511453 0.0
vertex 2043.09296131238 1054.34612051145 0.0
vertex 1869.14136604752 949.346120511453 0.0
endloop
endfacet
facet normal 0.0 0.0 -1.0
outer loop
vertex 1848.44136604752 949.346120511453 0.0
vertex 1869.14136604752 949.346120511453 0.0
vertex 1848.44136604752 902.746120511453 0.0
endloop
endfacet
facet normal 0.0 0.0 -1.0
outer loop
vertex 1869.14136604752 949.346120511453 0.0
vertex 2043.09296131238 1054.34612051145 0.0
vertex 1900.03883431828 949.346120511453 0.0
endloop
endfacet
facet normal 0.0 0.0 -1.0
outer loop
vertex 1900.03883431828 949.346120511453 0.0
vertex 2043.09296131238 1054.34612051145 0.0
vertex 1920.13883431828 949.346120511453 0.0
endloop
endfacet
facet normal 0.0 0.0 -1.0
outer loop
vertex 1900.03883431828 949.346120511453 0.0
vertex 1920.13883431828 949.346120511453 0.0
vertex 1900.03883431828 902.546120511453 0.0
endloop
endfacet
facet normal 0.0 0.0 -1.0
outer loop
vertex 1920.13883431828 949.346120511453 0.0
vertex 2043.09296131238 1054.34612051145 0.0
vertex 1952.15381045996 949.346120511453 0.0
endloop
endfacet
facet normal 0.0 0.0 -1.0
outer loop
vertex 1952.15381045996 949.346120511453 0.0
vertex 2043.09296131238 1054.34612051145 0.0
vertex 1971.55381045996 949.346120511453 0.0
endloop
endfacet
facet normal 0.0 0.0 -1.0
outer loop
vertex 1952.15381045996 949.346120511453 0.0
vertex 1971.55381045996 949.346120511453 0.0
vertex 1952.15381045996 902.746120511453 0.0
endloop
endfacet
facet normal 0.0 0.0 -1.0
outer loop
vertex 1971.55381045996 949.346120511453 0.0
vertex 2043.09296131238 1054.34612051145 0.0
vertex 2000.19296131238 949.346120511453 0.0
endloop
endfacet
facet normal 0.0 0.0 -1.0
outer loop
vertex 2000.19296131238 949.346120511453 0.0
vertex 2043.09296131238 1054.34612051145 0.0
vertex 2000.19296131238 897.146120511453 0.0
endloop
endfacet
facet normal 0.0 0.0 -1.0
outer loop
vertex 2000.19296131238 897.146120511453 0.0
vertex 2043.09296131238 1054.34612051145 0.0
vertex 2043.09296131238 979.811486269241 0.0
endloop
endfacet
facet normal 0.0 0.0 -1.0
outer loop
vertex 2000.19296131238 897.146120511453 0.0
vertex 2043.09296131238 979.811486269241 0.0
vertex 2059.31139927699 920.746120511453 0.0
endloop
endfacet
facet normal 0.0 0.0 -1.0
outer loop
vertex 2000.19296131238 897.146120511453 0.0
vertex 2059.31139927699 920.746120511453 0.0
vertex 2131.69296131238 897.146120511453 0.0
endloop
endfacet
facet normal 0.0 0.0 -1.0
outer loop
vertex 2131.69296131238 897.146120511453 0.0
vertex 2059.31139927699 920.746120511453 0.0
vertex 2131.69296131238 920.746120511453 0.0
endloop
endfacet
facet normal 0.0 0.0 -1.0
outer loop
vertex 1971.55381045996 902.746120511453 0.0
vertex 1952.15381045996 902.746120511453 0.0
vertex 1971.55381045996 949.346120511453 0.0
endloop
endfacet
facet normal 0.0 0.0 -1.0
outer loop
vertex 1920.13883431828 902.546120511453 0.0
vertex 1900.03883431828 902.546120511453 0.0
vertex 1920.13883431828 949.346120511453 0.0
endloop
endfacet
facet normal 0.0 0.0 -1.0
outer loop
vertex 1869.14136604752 902.746120511453 0.0
vertex 1848.44136604752 902.746120511453 0.0
vertex 1869.14136604752 949.346120511453 0.0
endloop
endfacet
facet normal 0.0 0.0 -1.0
outer loop
vertex 1816.77053520693 902.446120511453 0.0
vertex 1797.17053520693 902.446120511453 0.0
vertex 1816.77053520693 949.346120511453 0.0
endloop
endfacet
facet normal 0.0 0.0 -1.0
outer loop
vertex 1765.17046903979 902.746120511453 0.0
vertex 1745.57046903979 902.746120511453 0.0
vertex 1765.17046903979 949.346120511453 0.0
endloop
endfacet
facet normal 0.0 0.0 -1.0
outer loop
vertex 1713.34081981529 902.446120511453 0.0
vertex 1693.14081981529 902.446120511453 0.0
vertex 1713.34081981529 949.346120511453 0.0
endloop
endfacet
facet normal 0.0 0.0 -1.0
outer loop
vertex 1661.44075364815 902.546120511453 0.0
vertex 1641.54075364815 902.546120511453 0.0
vertex 1661.44075364815 949.346120511453 0.0
endloop
endfacet
facet normal 0.0 0.0 -1.0
outer loop
vertex 1609.92042771145 902.446120511453 0.0
vertex 1590.22042771145 902.446120511453 0.0
vertex 1609.92042771145 949.346120511453 0.0
endloop
endfacet
facet normal 0.0 0.0 -1.0
outer loop
vertex 1558.26194812188 902.646120511453 0.0
vertex 1538.66194812188 902.646120511453 0.0
vertex 1558.26194812188 949.346120511453 0.0
endloop
endfacet
facet normal 0.0 0.0 -1.0
outer loop
vertex 1507.07647862896 902.746120511453 0.0
vertex 1486.67647862896 902.746120511453 0.0
vertex 1507.07647862896 949.346120511453 0.0
endloop
endfacet
facet normal 0.0 0.0 -1.0
outer loop
vertex 1454.99783495262 902.746120511453 0.0
vertex 1434.79783495262 902.746120511453 0.0
vertex 1454.99783495262 949.346120511453 0.0
endloop
endfacet
facet normal 0.0 0.0 -1.0
outer loop
vertex 1402.64928908457 902.746120511453 0.0
vertex 1383.84928908457 902.746120511453 0.0
vertex 1402.64928908457 949.346120511453 0.0
endloop
endfacet
facet normal 0.0 0.0 -1.0
outer loop
vertex 1351.35556249724 902.746120511453 0.0
vertex 1332.05556249724 902.746120511453 0.0
vertex 1351.35556249724 949.346120511453 0.0
endloop
endfacet
facet normal 0.0 0.0 -1.0
outer loop
vertex 1299.23596279553 902.846120511453 0.0
vertex 1280.63596279553 902.846120511453 0.0
vertex 1299.23596279553 949.346120511453 0.0
endloop
endfacet
facet normal 0.0 0.0 -1.0
outer loop
vertex 1195.86827918427 921.986476441486 0.0
vertex 1120.3587552114 898.835108712367 0.0
vertex 1120.3587552114 921.986476441486 0.0
endloop
endfacet
facet normal 0.0 0.0 -1.0
outer loop
vertex 1120.3587552114 898.835108712367 0.0
vertex 1195.86827918427 921.986476441486 0.0
vertex 1247.53821962798 898.835108712367 0.0
endloop
endfacet
facet normal 0.0 0.0 -1.0
outer loop
vertex 1247.53821962798 898.835108712367 0.0
vertex 1195.86827918427 921.986476441486 0.0
vertex 1207.99296131238 967.124441633234 0.0
endloop
endfacet
facet normal 0.0 0.0 -1.0
outer loop
vertex 1247.53821962798 898.835108712367 0.0
vertex 1207.99296131238 967.124441633234 0.0
vertex 1247.53821962798 949.346120511453 0.0
endloop
endfacet
facet normal 1.0 0.0 0.0
outer loop
vertex 1299.23596279553 949.346120511453 0.0
vertex 1299.23596279553 902.846120511453 380.0
vertex 1299.23596279553 902.846120511453 0.0
endloop
endfacet
facet normal 1.0 0.0 0.0
outer loop
vertex 1299.23596279553 902.846120511453 380.0
vertex 1299.23596279553 949.346120511453 0.0
vertex 1299.23596279553 949.346120511453 380.0
endloop
endfacet
facet normal -0.0 -1.0 -0.0
outer loop
vertex 1332.05556249724 949.346120511453 380.0
vertex 1299.23596279553 949.346120511453 0.0
vertex 1332.05556249724 949.346120511453 0.0
endloop
endfacet
facet normal -0.0 -1.0 -0.0
outer loop
vertex 1299.23596279553 949.346120511453 0.0
vertex 1332.05556249724 949.346120511453 380.0
vertex 1299.23596279553 949.346120511453 380.0
endloop
endfacet
facet normal 0.0 0.0 1.0
outer loop
vertex 1299.23596279553 902.846120511453 380.0
vertex 1280.63596279553 949.346120511453 380.0
vertex 1280.63596279553 902.846120511453 380.0
endloop
endfacet
facet normal 0.0 0.0 1.0
outer loop
vertex 1351.35556249724 902.746120511453 380.0
vertex 1332.05556249724 949.346120511453 380.0
vertex 1332.05556249724 902.746120511453 380.0
endloop
endfacet
facet normal 0.0 0.0 1.0
outer loop
vertex 1402.64928908457 902.746120511453 380.0
vertex 1383.84928908457 949.346120511453 380.0
vertex 1383.84928908457 902.746120511453 380.0
endloop
endfacet
facet normal 0.0 0.0 1.0
outer loop
vertex 1454.99783495262 902.746120511453 380.0
vertex 1434.79783495262 949.346120511453 380.0
vertex 1434.79783495262 902.746120511453 380.0
endloop
endfacet
facet normal 0.0 0.0 1.0
outer loop
vertex 1507.07647862896 902.746120511453 380.0
vertex 1486.67647862896 949.346120511453 380.0
vertex 1486.67647862896 902.746120511453 380.0
endloop
endfacet
facet normal 0.0 0.0 1.0
outer loop
vertex 1558.26194812188 902.646120511453 380.0
vertex 1538.66194812188 949.346120511453 380.0
vertex 1538.66194812188 902.646120511453 380.0
endloop
endfacet
facet normal 0.0 0.0 1.0
outer loop
vertex 1609.92042771145 902.446120511453 380.0
vertex 1590.22042771145 949.346120511453 380.0
vertex 1590.22042771145 902.446120511453 380.0
endloop
endfacet
facet normal 0.0 0.0 1.0
outer loop
vertex 1661.44075364815 902.546120511453 380.0
vertex 1641.54075364815 949.346120511453 380.0
vertex 1641.54075364815 902.546120511453 380.0
endloop
endfacet
facet normal 0.0 0.0 1.0
outer loop
vertex 1713.34081981529 902.446120511453 380.0
vertex 1693.14081981529 949.346120511453 380.0
vertex 1693.14081981529 902.446120511453 380.0
endloop
endfacet
facet normal 0.0 0.0 1.0
outer loop
vertex 1765.17046903979 902.746120511453 380.0
vertex 1745.57046903979 949.346120511453 380.0
vertex 1745.57046903979 902.746120511453 380.0
endloop
endfacet
facet normal 0.0 0.0 1.0
outer loop
vertex 1816.77053520693 902.446120511453 380.0
vertex 1797.17053520693 949.346120511453 380.0
vertex 1797.17053520693 902.446120511453 380.0
endloop
endfacet
facet normal 0.0 0.0 1.0
outer loop
vertex 1869.14136604752 902.746120511453 380.0
vertex 1848.44136604752 949.346120511453 380.0
vertex 1848.44136604752 902.746120511453 380.0
endloop
endfacet
facet normal 0.0 0.0 1.0
outer loop
vertex 1920.13883431828 902.546120511453 380.0
vertex 1900.03883431828 949.346120511453 380.0
vertex 1900.03883431828 902.546120511453 380.0
endloop
endfacet
facet normal 0.0 0.0 1.0
outer loop
vertex 1971.55381045996 902.746120511453 380.0
vertex 1952.15381045996 949.346120511453 380.0
vertex 1952.15381045996 902.746120511453 380.0
endloop
endfacet
facet normal 0.0 0.0 1.0
outer loop
vertex 2000.19296131238 897.146120511453 380.0
vertex 2059.31139927699 920.746120511453 380.0
vertex 2000.19296131238 949.346120511453 380.0
endloop
endfacet
facet normal 0.0 0.0 1.0
outer loop
vertex 2059.31139927699 920.746120511453 380.0
vertex 2000.19296131238 897.146120511453 380.0
vertex 2131.69296131238 897.146120511453 380.0
endloop
endfacet
facet normal 0.0 0.0 1.0
outer loop
vertex 2000.19296131238 949.346120511453 380.0
vertex 2059.31139927699 920.746120511453 380.0
vertex 2043.09296131238 979.811486269241 380.0
endloop
endfacet
facet normal 0.0 0.0 1.0
outer loop
vertex 2059.31139927699 920.746120511453 380.0
vertex 2131.69296131238 897.146120511453 380.0
vertex 2131.69296131238 920.746120511453 380.0
endloop
endfacet
facet normal 0.0 0.0 1.0
outer loop
vertex 1247.53821962798 898.835108712367 380.0
vertex 1120.3587552114 921.986476441486 380.0
vertex 1120.3587552114 898.835108712367 380.0
endloop
endfacet
facet normal 0.0 0.0 1.0
outer loop
vertex 1120.3587552114 921.986476441486 380.0
vertex 1247.53821962798 898.835108712367 380.0
vertex 1195.86827918427 921.986476441486 380.0
endloop
endfacet
facet normal 0.0 0.0 1.0
outer loop
vertex 1195.86827918427 921.986476441486 380.0
vertex 1247.53821962798 898.835108712367 380.0
vertex 1207.99296131238 967.124441633234 380.0
endloop
endfacet
facet normal 0.0 0.0 1.0
outer loop
vertex 1207.99296131238 967.124441633234 380.0
vertex 1247.53821962798 898.835108712367 380.0
vertex 1207.99296131238 1054.34612051145 380.0
endloop
endfacet
facet normal 0.0 0.0 1.0
outer loop
vertex 1207.99296131238 1054.34612051145 380.0
vertex 1247.53821962798 898.835108712367 380.0
vertex 1247.53821962798 949.346120511453 380.0
endloop
endfacet
facet normal 0.0 0.0 1.0
outer loop
vertex 1207.99296131238 1054.34612051145 380.0
vertex 1247.53821962798 949.346120511453 380.0
vertex 2043.09296131238 1054.34612051145 380.0
endloop
endfacet
facet normal 0.0 0.0 1.0
outer loop
vertex 2043.09296131238 1054.34612051145 380.0
vertex 1247.53821962798 949.346120511453 380.0
vertex 1280.63596279553 949.346120511453 380.0
endloop
endfacet
facet normal 0.0 0.0 1.0
outer loop
vertex 2043.09296131238 1054.34612051145 380.0
vertex 1280.63596279553 949.346120511453 380.0
vertex 1299.23596279553 949.346120511453 380.0
endloop
endfacet
facet normal 0.0 0.0 1.0
outer loop
vertex 1299.23596279553 949.346120511453 380.0
vertex 1280.63596279553 949.346120511453 380.0
vertex 1299.23596279553 902.846120511453 380.0
endloop
endfacet
facet normal 0.0 0.0 1.0
outer loop
vertex 2043.09296131238 1054.34612051145 380.0
vertex 1299.23596279553 949.346120511453 380.0
vertex 1332.05556249724 949.346120511453 380.0
endloop
endfacet
facet normal 0.0 0.0 1.0
outer loop
vertex 2043.09296131238 1054.34612051145 380.0
vertex 1332.05556249724 949.346120511453 380.0
vertex 1351.35556249724 949.346120511453 380.0
endloop
endfacet
facet normal 0.0 0.0 1.0
outer loop
vertex 1351.35556249724 949.346120511453 380.0
vertex 1332.05556249724 949.346120511453 380.0
vertex 1351.35556249724 902.746120511453 380.0
endloop
endfacet
facet normal 0.0 0.0 1.0
outer loop
vertex 2043.09296131238 1054.34612051145 380.0
vertex 1351.35556249724 949.346120511453 380.0
vertex 1383.84928908457 949.346120511453 380.0
endloop
endfacet
facet normal 0.0 0.0 1.0
outer loop
vertex 2043.09296131238 1054.34612051145 380.0
vertex 1383.84928908457 949.346120511453 380.0
vertex 1402.64928908457 949.346120511453 380.0
endloop
endfacet
facet normal 0.0 0.0 1.0
outer loop
vertex 1402.64928908457 949.346120511453 380.0
vertex 1383.84928908457 949.346120511453 380.0
vertex 1402.64928908457 902.746120511453 380.0
endloop
endfacet
facet normal 0.0 0.0 1.0
outer loop
vertex 2043.09296131238 1054.34612051145 380.0
vertex 1402.64928908457 949.346120511453 380.0
vertex 1434.79783495262 949.346120511453 380.0
endloop
endfacet
facet normal 0.0 0.0 1.0
outer loop
vertex 2043.09296131238 1054.34612051145 380.0
vertex 1434.79783495262 949.346120511453 380.0
vertex 1454.99783495262 949.346120511453 380.0
endloop
endfacet
facet normal 0.0 0.0 1.0
outer loop
vertex 1454.99783495262 949.346120511453 380.0
vertex 1434.79783495262 949.346120511453 380.0
vertex 1454.99783495262 902.746120511453 380.0
endloop
endfacet
facet normal 0.0 0.0 1.0
outer loop
vertex 2043.09296131238 1054.34612051145 380.0
vertex 1454.99783495262 949.346120511453 380.0
vertex 1486.67647862896 949.346120511453 380.0
endloop
endfacet
facet normal 0.0 0.0 1.0
outer loop
vertex 2043.09296131238 1054.34612051145 380.0
vertex 1486.67647862896 949.346120511453 380.0
vertex 1507.07647862896 949.346120511453 380.0
endloop
endfacet
facet normal 0.0 0.0 1.0
outer loop
vertex 1507.07647862896 949.346120511453 380.0
vertex 1486.67647862896 949.346120511453 380.0
vertex 1507.07647862896 902.746120511453 380.0
endloop
endfacet
facet normal 0.0 0.0 1.0
outer loop
vertex 2043.09296131238 1054.34612051145 380.0
vertex 1507.07647862896 949.346120511453 380.0
vertex 1538.66194812188 949.346120511453 380.0
endloop
endfacet
facet normal 0.0 0.0 1.0
outer loop
vertex 2043.09296131238 1054.34612051145 380.0
vertex 1538.66194812188 949.346120511453 380.0
vertex 1558.26194812188 949.346120511453 380.0
endloop
endfacet
facet normal 0.0 0.0 1.0
outer loop
vertex 1558.26194812188 949.346120511453 380.0
vertex 1538.66194812188 949.346120511453 380.0
vertex 1558.26194812188 902.646120511453 380.0
endloop
endfacet
facet normal 0.0 0.0 1.0
outer loop
vertex 2043.09296131238 1054.34612051145 380.0
vertex 1558.26194812188 949.346120511453 380.0
vertex 1590.22042771145 949.346120511453 380.0
endloop
endfacet
facet normal 0.0 0.0 1.0
outer loop
vertex 2043.09296131238 1054.34612051145 380.0
vertex 1590.22042771145 949.346120511453 380.0
vertex 1609.92042771145 949.346120511453 380.0
endloop
endfacet
facet normal 0.0 0.0 1.0
outer loop
vertex 1609.92042771145 949.346120511453 380.0
vertex 1590.22042771145 949.346120511453 380.0
vertex 1609.92042771145 902.446120511453 380.0
endloop
endfacet
facet normal 0.0 0.0 1.0
outer loop
vertex 2043.09296131238 1054.34612051145 380.0
vertex 1609.92042771145 949.346120511453 380.0
vertex 1641.54075364815 949.346120511453 380.0
endloop
endfacet
facet normal 0.0 0.0 1.0
outer loop
vertex 2043.09296131238 1054.34612051145 380.0
vertex 1641.54075364815 949.346120511453 380.0
vertex 1661.44075364815 949.346120511453 380.0
endloop
endfacet
facet normal 0.0 0.0 1.0
outer loop
vertex 1661.44075364815 949.346120511453 380.0
vertex 1641.54075364815 949.346120511453 380.0
vertex 1661.44075364815 902.546120511453 380.0
endloop
endfacet
facet normal 0.0 0.0 1.0
outer loop
vertex 2043.09296131238 1054.34612051145 380.0
vertex 1661.44075364815 949.346120511453 380.0
vertex 1693.14081981529 949.346120511453 380.0
endloop
endfacet
facet normal 0.0 0.0 1.0
outer loop
vertex 2043.09296131238 1054.34612051145 380.0
vertex 1693.14081981529 949.346120511453 380.0
vertex 1713.34081981529 949.346120511453 380.0
endloop
endfacet
facet normal 0.0 0.0 1.0
outer loop
vertex 1713.34081981529 949.346120511453 380.0
vertex 1693.14081981529 949.346120511453 380.0
vertex 1713.34081981529 902.446120511453 380.0
endloop
endfacet
facet normal 0.0 0.0 1.0
outer loop
vertex 2043.09296131238 1054.34612051145 380.0
vertex 1713.34081981529 949.346120511453 380.0
vertex 1745.57046903979 949.346120511453 380.0
endloop
endfacet
facet normal 0.0 0.0 1.0
outer loop
vertex 2043.09296131238 1054.34612051145 380.0
vertex 1745.57046903979 949.346120511453 380.0
vertex 1765.17046903979 949.346120511453 380.0
endloop
endfacet
facet normal 0.0 0.0 1.0
outer loop
vertex 1765.17046903979 949.346120511453 380.0
vertex 1745.57046903979 949.346120511453 380.0
vertex 1765.17046903979 902.746120511453 380.0
endloop
endfacet
facet normal 0.0 0.0 1.0
outer loop
vertex 2043.09296131238 1054.34612051145 380.0
vertex 1765.17046903979 949.346120511453 380.0
vertex 1797.17053520693 949.346120511453 380.0
endloop
endfacet
facet normal 0.0 0.0 1.0
outer loop
vertex 2043.09296131238 1054.34612051145 380.0
vertex 1797.17053520693 949.346120511453 380.0
vertex 1816.77053520693 949.346120511453 380.0
endloop
endfacet
facet normal 0.0 0.0 1.0
outer loop
vertex 1816.77053520693 949.346120511453 380.0
vertex 1797.17053520693 949.346120511453 380.0
vertex 1816.77053520693 902.446120511453 380.0
endloop
endfacet
facet normal 0.0 0.0 1.0
outer loop
vertex 2043.09296131238 1054.34612051145 380.0
vertex 1816.77053520693 949.346120511453 380.0
vertex 1848.44136604752 949.346120511453 380.0
endloop
endfacet
facet normal 0.0 0.0 1.0
outer loop
vertex 2043.09296131238 1054.34612051145 380.0
vertex 1848.44136604752 949.346120511453 380.0
vertex 1869.14136604752 949.346120511453 380.0
endloop
endfacet
facet normal 0.0 0.0 1.0
outer loop
vertex 1869.14136604752 949.346120511453 380.0
vertex 1848.44136604752 949.346120511453 380.0
vertex 1869.14136604752 902.746120511453 380.0
endloop
endfacet
facet normal 0.0 0.0 1.0
outer loop
vertex 2043.09296131238 1054.34612051145 380.0
vertex 1869.14136604752 949.346120511453 380.0
vertex 1900.03883431828 949.346120511453 380.0
endloop
endfacet
facet normal 0.0 0.0 1.0
outer loop
vertex 2043.09296131238 1054.34612051145 380.0
vertex 1900.03883431828 949.346120511453 380.0
vertex 1920.13883431828 949.346120511453 380.0
endloop
endfacet
facet normal 0.0 0.0 1.0
outer loop
vertex 1920.13883431828 949.346120511453 380.0
vertex 1900.03883431828 949.346120511453 380.0
vertex 1920.13883431828 902.546120511453 380.0
endloop
endfacet
facet normal 0.0 0.0 1.0
outer loop
vertex 2043.09296131238 1054.34612051145 380.0
vertex 1920.13883431828 949.346120511453 380.0
vertex 1952.15381045996 949.346120511453 380.0
endloop
endfacet
facet normal 0.0 0.0 1.0
outer loop
vertex 2043.09296131238 1054.34612051145 380.0
vertex 1952.15381045996 949.346120511453 380.0
vertex 1971.55381045996 949.346120511453 380.0
endloop
endfacet
facet normal 0.0 0.0 1.0
outer loop
vertex 1971.55381045996 949.346120511453 380.0
vertex 1952.15381045996 949.346120511453 380.0
vertex 1971.55381045996 902.746120511453 380.0
endloop
endfacet
facet normal 0.0 0.0 1.0
outer loop
vertex 2043.09296131238 1054.34612051145 380.0
vertex 1971.55381045996 949.346120511453 380.0
vertex 2000.19296131238 949.346120511453 380.0
endloop
endfacet
facet normal 0.0 0.0 1.0
outer loop
vertex 2043.09296131238 1054.34612051145 380.0
vertex 2000.19296131238 949.346120511453 380.0
vertex 2043.09296131238 979.811486269241 380.0
endloop
endfacet
endsolid sunsaver-mppt
